<svg width="153" height="40" viewBox="0 0 153 40" fill="none" xmlns="http://www.w3.org/2000/svg">
<path fill-rule="evenodd" clip-rule="evenodd" d="M0.396973 0.027832V29.6379H5.73433V17.7373H19.0475V12.8524H5.73433V4.91271H20.6565V0.027832H0.396973Z" fill="white"/>
<path fill-rule="evenodd" clip-rule="evenodd" d="M24.2928 30.1579H29.7473V8.0802H24.2928V30.1579Z" fill="white"/>
<path fill-rule="evenodd" clip-rule="evenodd" d="M47.3595 15.4328C47.3595 14.257 47.0177 13.283 46.3364 12.5096C45.6563 11.7363 44.7183 11.3544 43.5247 11.3544C42.3312 11.3544 41.3932 11.7411 40.7131 12.5096C40.0318 13.2781 39.6899 14.2533 39.6899 15.4328C39.6899 16.6087 40.0282 17.579 40.7131 18.3354C41.3932 19.0917 42.3312 19.4699 43.5247 19.4699C44.7183 19.4699 45.6563 19.0917 46.3364 18.3354C47.0213 17.579 47.3595 16.6123 47.3595 15.4328ZM49.6541 32.8407C49.6541 32.1659 49.474 31.6479 49.1115 31.2867C48.7489 30.9207 48.3134 30.6569 47.8 30.489C47.2865 30.32 46.7281 30.2215 46.1332 30.1972C45.5334 30.168 44.9883 30.1559 44.4859 30.1559H40.4029C39.8444 30.3249 39.3797 30.641 39.005 31.1019C38.6302 31.5664 38.4429 32.1452 38.4429 32.8444C38.4429 33.5436 38.6302 34.0908 39.005 34.4847C39.3797 34.8763 39.8444 35.1803 40.4029 35.3894C40.9577 35.5998 41.5562 35.7311 42.1962 35.7883C42.8361 35.8454 43.4067 35.871 43.9031 35.871C44.4299 35.871 45.0285 35.8503 45.6964 35.8089C46.3656 35.7676 46.9885 35.6484 47.5712 35.4515C48.154 35.2545 48.648 34.9541 49.0507 34.5468C49.4497 34.1358 49.6541 33.5679 49.6541 32.8407ZM54.5693 32.7131C54.5693 34.1443 54.2505 35.3323 53.6106 36.2856C52.9718 37.2402 52.1518 37.988 51.153 38.5352C50.1553 39.0811 49.0263 39.4678 47.7793 39.6903C46.5286 39.9165 45.3059 40.0272 44.1112 40.0272C42.7789 40.0272 41.4504 39.9287 40.134 39.7317C38.814 39.5335 37.5864 39.0325 36.4452 38.2178C35.6142 37.6305 34.967 36.9435 34.5095 36.1579C34.0533 35.3736 33.8209 34.4641 33.8209 33.4244C33.8209 32.4711 34.046 31.5944 34.4901 30.7967C34.9341 29.999 35.5741 29.391 36.405 28.9679C35.7128 28.5775 35.1738 28.034 34.7991 27.3482C34.4244 26.6612 34.237 25.9535 34.237 25.2227C34.237 23.3428 35.0972 21.8751 36.8211 20.8062C36.152 20.1326 35.6264 19.3507 35.2395 18.4509C34.8478 17.5547 34.6567 16.5467 34.6567 15.4243C34.6567 14.1342 34.8928 12.9863 35.366 11.9758C35.8381 10.9641 36.478 10.1251 37.2859 9.45145C38.0925 8.77658 39.0293 8.26709 40.0975 7.91689C41.1645 7.5679 42.3105 7.39158 43.5333 7.39158C44.4214 7.39158 45.2852 7.51075 46.1162 7.74908C46.9483 7.98741 47.7257 8.31573 48.4521 8.73524C48.9241 7.78191 49.5483 7.09124 50.3269 6.6547C51.1043 6.21938 51.9523 6.00537 52.8696 6.00537H53.5789C53.8843 6.00537 54.1203 6.03455 54.287 6.08806V10.1664L53.8721 10.1251C53.2602 10.1251 52.7103 10.2236 52.2248 10.4206C51.7406 10.6188 51.4097 10.9848 51.2479 11.515C51.9973 12.748 52.372 14.0636 52.372 15.4657C52.372 16.7278 52.1275 17.8502 51.6421 18.8291C51.1579 19.8116 50.5094 20.6384 49.7064 21.3084C48.8998 21.9821 47.963 22.5001 46.8948 22.8624C45.8229 23.2285 44.7061 23.4084 43.5406 23.4084C42.3178 23.4084 41.1523 23.2114 40.0403 22.8211C39.7921 22.9609 39.5476 23.1664 39.3103 23.4291C39.0743 23.6966 38.9563 24.014 38.9563 24.3751C38.9563 25.0208 39.213 25.4476 39.7264 25.658C40.2398 25.8671 40.7739 25.9741 41.3324 25.9741H44.9141C45.4397 25.9741 46.0103 25.9826 46.6223 25.9948C47.233 26.0118 47.8523 26.0653 48.4764 26.1638C49.0993 26.2623 49.7113 26.4107 50.3099 26.604C50.9084 26.801 51.4547 27.0807 51.956 27.4418C52.9013 28.0875 53.5741 28.8609 53.978 29.7534C54.3685 30.6654 54.5693 31.6479 54.5693 32.7131Z" fill="white"/>
<path fill-rule="evenodd" clip-rule="evenodd" d="M83.1576 16.2307C83.1576 14.8858 82.9289 13.8425 82.469 13.0984C82.0128 12.3578 81.1283 11.9833 79.8241 11.9833C79.0746 11.9833 78.4347 12.1608 77.9091 12.5098C77.3835 12.86 76.9431 13.3245 76.5963 13.896C76.2496 14.4712 75.9929 15.1084 75.8262 15.8076C75.6595 16.5104 75.578 17.1926 75.578 17.8674V29.8071H70.4098V16.2307C70.4098 14.8858 70.1823 13.8425 69.7212 13.0984C69.2649 12.3578 68.3805 11.9833 67.0762 11.9833C66.3268 11.9833 65.6868 12.1608 65.1613 12.5098C64.6357 12.86 64.1867 13.3245 63.8278 13.896C63.4653 14.4712 63.2049 15.1084 63.0382 15.8076C62.8704 16.5104 62.7888 17.1926 62.7888 17.8674V29.8071H57.6218V7.94992H61.9542L62.3691 10.8537C62.9811 9.84562 63.7999 9.01998 64.8267 8.37429C65.8535 7.72861 67.0933 7.40759 68.535 7.40759C70.063 7.40759 71.3429 7.72496 72.3698 8.35362C73.3966 8.98228 74.1923 9.86265 74.7458 10.9801C75.3858 9.83346 76.2666 8.94945 77.3908 8.33295C78.5162 7.71645 79.8155 7.40759 81.2877 7.40759C83.6224 7.40759 85.3792 8.11529 86.5605 9.53312C87.7419 10.9522 88.3331 12.7895 88.3331 15.0634V29.8192H83.1576V16.2307Z" fill="white"/>
<path fill-rule="evenodd" clip-rule="evenodd" d="M106.787 16.6953C106.754 15.0999 106.31 13.8207 105.45 12.871C105.092 12.4807 104.639 12.173 104.097 11.9469C103.555 11.7243 102.911 11.6088 102.157 11.6088C101.354 11.6088 100.645 11.7657 100.03 12.0745C99.4225 12.3822 98.9175 12.7895 98.5307 13.2954C98.1389 13.772 97.8615 14.2779 97.6948 14.8081C97.5318 15.3382 97.4296 15.9717 97.4053 16.6989H106.787V16.6953ZM111.995 19.0506C111.967 19.2488 111.954 19.4288 111.954 19.5978V20.5231H97.4539C97.4539 21.3658 97.5841 22.1635 97.8493 22.9198C98.1146 23.6762 98.5136 24.3048 99.0356 24.8107C99.4273 25.1767 99.8787 25.4892 100.392 25.7567C100.906 26.0242 101.521 26.1555 102.246 26.1555C102.997 26.1555 103.616 26.0777 104.102 25.9257C104.586 25.7725 105.026 25.4977 105.413 25.1074C105.911 24.6015 106.261 23.985 106.457 23.2567H111.457C111.4 23.9023 111.184 24.61 110.809 25.3822C110.434 26.1555 110.039 26.7891 109.623 27.2949C108.707 28.3881 107.61 29.1736 106.33 29.6503C105.051 30.1269 103.718 30.3653 102.333 30.3653C100.829 30.3653 99.5332 30.1184 98.437 29.6296C97.3359 29.1408 96.3578 28.4866 95.4976 27.6767C94.4136 26.6115 93.5863 25.3372 93.0169 23.8537C92.4451 22.369 92.1604 20.7286 92.1604 18.9363C92.1604 17.1719 92.4171 15.5352 92.9305 14.0396C93.4439 12.539 94.2311 11.2598 95.2823 10.191C96.0889 9.35197 97.0671 8.67832 98.2204 8.17247C99.3738 7.66663 100.699 7.41614 102.202 7.41614C103.816 7.41614 105.311 7.74445 106.705 8.40229C108.091 9.06014 109.232 10.0755 110.124 11.4495C110.927 12.6533 111.44 13.8827 111.665 15.1291C111.881 16.3657 111.995 17.6778 111.995 19.0506Z" fill="white"/>
<path fill-rule="evenodd" clip-rule="evenodd" d="M129.289 29.8107V16.3997C129.289 15.112 129.036 14.1015 128.54 13.3731C128.039 12.646 127.097 12.28 125.708 12.28C124.79 12.28 124.024 12.539 123.413 13.057C122.801 13.575 122.317 14.2413 121.954 15.0548C121.592 15.8695 121.384 16.8144 121.33 17.8917C121.273 18.9727 121.245 19.9722 121.245 20.8976V29.8107H116.037V7.9511H120.413L120.789 10.7673C121.429 9.61942 122.338 8.76824 123.519 8.22226C124.7 7.67507 125.916 7.39905 127.163 7.39905C128.332 7.39905 129.367 7.59725 130.268 7.98758C131.168 8.38277 131.934 8.92023 132.562 9.60726C133.185 10.2943 133.667 11.1199 134 12.0866C134.335 13.0533 134.501 14.0966 134.501 15.219V29.8071H129.289V29.8107Z" fill="white"/>
<path fill-rule="evenodd" clip-rule="evenodd" d="M152.083 29.5194C150.583 29.9097 149.095 30.1079 147.624 30.1079C145.428 30.1079 143.79 29.5109 142.706 28.3192C141.622 27.1264 141.08 25.4823 141.08 23.3811V12.2805H137.119V7.95041H141.08V2.40069L146.289 1.09717V7.95041H151.749V12.2805H146.289V22.9166C146.289 23.7593 146.48 24.3673 146.871 24.7467C147.262 25.1249 147.874 25.3133 148.705 25.3133C149.258 25.3133 149.78 25.3012 150.266 25.272C150.75 25.244 151.353 25.1905 152.079 25.1042V29.5194H152.083Z" fill="white"/>
<path fill-rule="evenodd" clip-rule="evenodd" d="M30.2109 3.10304C30.2109 1.46633 28.8993 0.027832 27.1219 0.027832C25.3079 0.027832 24.0328 1.46633 24.0328 3.10304C24.0328 4.81756 25.3079 6.10042 27.1219 6.10042C28.8993 6.10042 30.2109 4.81756 30.2109 3.10304Z" fill="white"/>
</svg>
