<svg width="199" height="49" viewBox="0 0 199 49" fill="none" xmlns="http://www.w3.org/2000/svg">
<path d="M0.384475 24.3228C0.384475 17.7986 0.418736 11.2745 0.367345 4.75165C0.346544 2.04998 2.3838 0.322285 4.8016 0.332073C17.889 0.384687 30.9776 0.383464 44.0663 0.332073C46.4816 0.322285 48.4075 2.27267 48.3733 4.59624C48.2815 10.976 48.3378 17.3582 48.35 23.7391C48.35 24.1943 48.2374 24.5234 47.9022 24.8575C40.2084 32.5306 32.5267 40.2146 24.8512 47.9061C24.5551 48.2034 24.2638 48.3233 23.843 48.3221C17.4216 48.3086 10.999 48.278 4.57768 48.3319C2.44988 48.3514 0.374686 46.6959 0.37958 44.1387C0.39304 37.5338 0.384475 30.9277 0.384475 24.3228ZM24.3642 48.1324V47.3983C24.3642 41.0381 24.3618 34.6767 24.3654 28.3166C24.3654 26.0762 26.1102 24.3375 28.3433 24.3375H48.1127C40.1692 16.394 32.2538 8.47744 24.4217 0.646536C16.5174 8.55086 8.56655 16.5016 0.649991 24.4183C8.49436 32.2626 16.3913 40.1596 24.3642 48.1324ZM109.401 38.2814V43.889C108.458 43.889 107.549 43.9001 106.642 43.872C106.545 43.8695 106.386 43.6419 106.374 43.5085C106.337 43.1243 106.36 42.7352 106.36 42.3474V29.5634C106.36 29.0258 106.619 28.7567 107.137 28.7558C109.89 28.7558 112.642 28.7301 115.394 28.7656C116.847 28.7852 118.266 29.0152 119.48 29.9354C122.204 32.0008 121.926 35.7718 118.919 37.3992C118.617 37.5632 118.299 37.6965 117.913 37.8788C119.139 39.8452 120.358 41.8005 121.662 43.894C120.867 43.894 120.18 43.8205 119.514 43.9111C118.501 44.0506 117.937 43.6517 117.469 42.7634C116.73 41.3649 115.857 40.036 115.018 38.6913C114.908 38.5139 114.673 38.301 114.491 38.2973C112.823 38.2667 111.153 38.279 109.403 38.279L109.401 38.2814ZM109.446 31.553V35.5957C111.694 35.5957 113.896 35.6225 116.095 35.5846C117.244 35.565 118.294 34.5948 118.337 33.6404C118.382 32.6798 117.542 31.6153 116.473 31.5787C114.141 31.4979 111.802 31.5541 109.447 31.5541L109.446 31.553ZM185.011 19.8788H182.094V4.8116C182.276 4.79814 182.434 4.77612 182.592 4.77612C185.323 4.77367 188.054 4.74919 190.784 4.78591C192.001 4.80181 193.222 4.91193 194.338 5.48334C195.895 6.28234 196.878 7.51693 196.992 9.29235C197.112 11.1754 196.166 12.5018 194.587 13.4232C194.276 13.6042 193.937 13.7352 193.559 13.9138C194.796 15.8947 196.024 17.8635 197.31 19.9228C196.166 19.9228 195.133 19.9436 194.104 19.9032C193.924 19.8958 193.7 19.6732 193.588 19.4921C192.603 17.9039 191.643 16.3011 190.661 14.7116C190.557 14.5428 190.357 14.3188 190.198 14.3164C188.493 14.2882 186.786 14.298 185.011 14.298V19.8788ZM185.046 11.6073C187.369 11.6073 189.665 11.6563 191.957 11.5853C193.001 11.5523 193.906 10.6053 193.962 9.75608C194.036 8.63528 193.13 7.62583 191.897 7.57566C190.211 7.50715 188.521 7.51204 186.832 7.49124C186.248 7.4839 185.661 7.49124 185.046 7.49124V11.6086V11.6073ZM149.171 14.9477V4.77856C150.125 4.77856 151.015 4.76878 151.905 4.79203C152.007 4.79447 152.128 4.96455 152.196 5.08201C152.241 5.1591 152.209 5.28146 152.209 5.38301C152.209 10.0302 152.209 14.6761 152.208 19.3233C152.208 19.5019 152.186 19.6794 152.171 19.9228C151.329 19.9228 150.517 19.9607 149.712 19.8984C149.487 19.8812 149.258 19.5937 149.076 19.3893C146.332 16.2728 143.595 13.1503 140.86 10.0253C140.808 9.96772 140.797 9.87601 140.766 9.80009C140.71 9.82947 140.652 9.85885 140.596 9.88822V19.8897H137.582V4.77856C138.411 4.77856 139.219 4.75165 140.024 4.79814C140.216 4.80916 140.42 5.04775 140.573 5.2215C143.343 8.36855 146.107 11.5229 148.874 14.6749C148.936 14.7459 149.012 14.8034 149.171 14.9477ZM197.401 30.4994C196.767 31.2165 196.176 31.8845 195.569 32.5709C193.467 31.1137 191.128 30.7674 188.69 30.9583C188.084 31.006 187.464 31.2385 186.913 31.5101C186.356 31.7829 186.155 32.3458 186.244 32.965C186.32 33.4911 186.694 33.7982 187.175 33.8961C188.105 34.0869 189.045 34.2387 189.987 34.366C191.632 34.5887 193.325 34.6155 194.923 35.0217C198.307 35.8807 199.476 39.5943 197.306 42.2838C196.462 43.3299 195.283 43.867 194.012 44.1117C189.793 44.9254 185.945 44.0849 182.555 41.3758C182.475 41.3122 182.393 41.251 182.276 41.1618C182.896 40.4496 183.481 39.7791 184.051 39.1245C184.928 39.6641 185.739 40.2501 186.622 40.687C188.823 41.7748 191.143 42.0659 193.541 41.4676C194.292 41.2804 194.942 40.9206 195.221 40.118C195.537 39.2089 195.092 38.2251 194.018 37.9327C192.836 37.6096 191.594 37.4983 190.376 37.3013C188.897 37.0627 187.396 36.9269 185.946 36.5696C184.438 36.1989 183.381 35.2139 183.208 33.5841C183.021 31.8112 183.611 30.3453 185.175 29.3554C186.268 28.6628 187.493 28.3619 188.752 28.2811C191.615 28.0975 194.323 28.6885 196.83 30.1165C197.005 30.2156 197.165 30.3403 197.401 30.4994ZM172.612 38.9531V28.7999H175.556V43.8915C174.754 43.8915 173.965 43.911 173.178 43.8756C173.016 43.8683 172.834 43.6859 172.708 43.544C170.067 40.5499 167.435 37.551 164.8 34.5532C164.586 34.3109 164.361 34.0796 164.021 33.7125V43.8609H161.088V28.762C161.874 28.762 162.68 28.7497 163.487 28.7742C163.618 28.7779 163.769 28.9186 163.87 29.0335C165.931 31.3694 167.985 33.7114 170.044 36.0496C170.857 36.9746 171.677 37.8947 172.613 38.9519L172.612 38.9531ZM85.46 28.7888C85.6925 28.7779 85.8906 28.7595 86.0889 28.7595C90.0423 28.7583 93.9956 28.7693 97.949 28.7461C98.4948 28.7424 98.6644 28.8941 98.6257 29.4325C98.5791 30.0773 98.615 30.7282 98.615 31.4624H88.4896V34.6682H94.5487V37.3344H88.5116V41.2143H99.1269V43.8585H85.46V28.7888ZM164.012 17.2236H174.69V19.8897H161.085V4.8067H174.083V7.49002H173.358C170.483 7.49002 167.607 7.50715 164.734 7.47656C164.129 7.47043 163.957 7.6601 164.002 8.23639C164.049 8.86531 164.039 9.50159 164.004 10.1318C163.978 10.5905 164.135 10.7289 164.592 10.7215C166.285 10.697 167.977 10.7117 169.67 10.7141C169.791 10.7141 169.91 10.7313 170.08 10.7435V13.3632H168.683C167.316 13.3632 165.95 13.3815 164.584 13.3534C164.114 13.3436 163.992 13.5064 164.004 13.9529C164.032 15.0285 164.012 16.1041 164.012 17.2236ZM118.434 17.2175V19.8763H104.765V4.80916H117.79V7.47411H107.721V10.708H113.804V13.3473H107.715V17.2187H118.434V17.2175ZM64.2811 43.894V28.7925C64.4401 28.7766 64.5955 28.7461 64.7497 28.7461C67.6459 28.7436 70.5409 28.7289 73.4371 28.7509C74.7071 28.7607 75.9577 28.9602 77.0527 29.6576C78.7523 30.7417 79.4767 32.3262 79.1573 34.3035C78.86 36.1463 77.6487 37.2939 75.9418 37.8715C75.1684 38.1333 74.3144 38.2386 73.4921 38.2606C71.4574 38.3144 69.4188 38.2777 67.2911 38.2777V39.3227C67.2911 40.6686 67.28 42.0145 67.2972 43.3605C67.302 43.741 67.2115 43.916 66.7893 43.9013C65.9769 43.8731 65.1645 43.8927 64.2798 43.8927L64.2811 43.894ZM67.3241 35.5589C67.4306 35.5736 67.5076 35.592 67.5847 35.592C69.644 35.5944 71.7032 35.6091 73.7614 35.5809C74.1761 35.5748 74.6117 35.4599 74.9959 35.2947C75.9919 34.8688 76.4777 33.8202 76.1106 32.9014C75.6346 31.7095 74.5799 31.4587 73.4665 31.4379C71.5503 31.4013 69.6342 31.4269 67.7181 31.4306C67.5835 31.4306 67.4489 31.4648 67.3241 31.482V35.5589ZM64.2822 19.8727V4.78345C65.211 4.78345 66.1397 4.77 67.0659 4.80792C67.1479 4.8116 67.28 5.1542 67.2813 5.34019C67.2972 7.19514 67.2911 9.0513 67.2911 10.9063V11.6245C68.4951 10.6151 69.5951 9.69364 70.6938 8.7711C72.1597 7.54018 73.6169 6.29824 75.1011 5.08935C75.3263 4.90582 75.6725 4.79936 75.9675 4.78835C76.9756 4.75165 77.9852 4.77489 79.046 4.90949C76.8766 6.79625 74.7084 8.68422 72.4864 10.6175C75.1721 13.7021 77.8285 16.7537 80.5914 19.9252C79.5831 19.9252 78.6973 19.8751 77.8211 19.94C77.027 19.9987 76.4862 19.7662 75.9564 19.1311C74.2079 17.0376 72.3811 15.0089 70.5837 12.9557C70.5042 12.8652 70.4173 12.7808 70.2876 12.645C69.3247 13.4085 68.3641 14.1525 67.4317 14.9281C67.3131 15.0272 67.2972 15.294 67.2959 15.4837C67.285 16.9287 67.2898 18.375 67.2898 19.8714H64.2811L64.2822 19.8727ZM144.806 43.894C143.454 43.894 142.294 43.9147 141.136 43.8744C140.925 43.867 140.681 43.6456 140.521 43.4632C138.533 41.2008 136.556 38.9262 134.527 36.5965C133.561 37.3588 132.602 38.0991 131.671 38.8724C131.553 38.9715 131.539 39.2394 131.536 39.4292C131.526 40.7334 131.517 42.0378 131.539 43.3421C131.546 43.763 131.424 43.9197 130.988 43.9025C130.181 43.872 129.37 43.894 128.528 43.894V28.762C129.43 28.762 130.34 28.7436 131.245 28.7864C131.348 28.7913 131.516 29.1351 131.518 29.3236C131.539 31.1577 131.53 32.9919 131.53 34.826V35.5675C132.317 34.9104 132.996 34.3451 133.671 33.7762C135.556 32.1892 137.434 30.5973 139.327 29.0213C139.498 28.8782 139.758 28.7754 139.978 28.7693C141.036 28.7436 142.096 28.7583 143.247 28.8831C141.088 30.765 138.93 32.6456 136.704 34.585C139.365 37.6427 142.026 40.7004 144.806 43.894ZM99.1938 17.2175V19.8873H86.4376V4.77856C87.3467 4.77856 88.2363 4.77122 89.127 4.78223C89.5663 4.78713 89.4329 5.14319 89.4329 5.37567C89.4403 8.35264 89.4378 11.3296 89.4378 14.3053V17.2175H99.1938ZM125.811 4.80426H128.696V19.8799H125.811V4.80426ZM152.961 43.8597H150.08V28.7938H152.961V43.8597Z" fill="white"/>
</svg>
