<svg width="366" height="41" viewBox="0 0 366 41" fill="none" xmlns="http://www.w3.org/2000/svg">
<path fill-rule="evenodd" clip-rule="evenodd" d="M29.7546 10.9036L39.8508 0.332031V30.9829L29.7546 40.2188V10.9036Z" fill="white"/>
<path fill-rule="evenodd" clip-rule="evenodd" d="M14.9272 16.2686L19.7942 20.2754L25.0234 15.6574V30.9829L14.9272 40.2188V16.2686Z" fill="white"/>
<path fill-rule="evenodd" clip-rule="evenodd" d="M10.1734 10.9036L0.0771484 0.332031V40.332L10.1734 31.7299V10.9036Z" fill="white"/>
<path d="M59.7942 34.9896H66.11V15.9744L74.282 28.3796H74.4405L82.7031 15.8612V35.0123H89.1094V5.67442H82.1598L74.4631 18.0796L66.7664 5.67442H59.8168V34.9896H59.7942ZM115.889 34.9896H138.21V29.2398H122.296V23.0825H136.127V17.3552H122.296V11.4016H138.006V5.67442H115.889V34.9896ZM174.135 35.4198C180.451 35.4198 184.91 32.16 184.91 26.3196V26.229C184.91 21.113 181.56 18.9851 175.606 17.4231C170.536 16.1328 169.29 15.499 169.29 13.5748V13.4843C169.29 12.0581 170.581 10.9263 173.071 10.9263C175.538 10.9263 178.096 12.0128 180.7 13.8238L184.05 8.95682C181.085 6.57991 177.44 5.22167 173.161 5.22167C167.163 5.22167 162.907 8.73045 162.907 14.0502V14.1407C162.907 19.9585 166.71 21.5884 172.618 23.1051C177.508 24.3728 178.526 25.2104 178.526 26.8402V26.9308C178.526 28.6512 176.942 29.6925 174.293 29.6925C170.943 29.6925 168.181 28.3117 165.533 26.1385L161.707 30.7112C165.216 33.8578 169.698 35.4198 174.135 35.4198ZM220.27 35.4198C226.585 35.4198 231.045 32.16 231.045 26.3196V26.229C231.045 21.113 227.695 18.9851 221.741 17.4231C216.67 16.1328 215.425 15.499 215.425 13.5748V13.4843C215.425 12.0581 216.716 10.9263 219.206 10.9263C221.673 10.9263 224.231 12.0128 226.834 13.8238L230.185 8.95682C227.219 6.57991 223.575 5.22167 219.296 5.22167C213.297 5.22167 209.041 8.73045 209.041 14.0502V14.1407C209.041 19.9585 212.845 21.5884 218.753 23.1051C223.643 24.3728 224.661 25.2104 224.661 26.8402V26.9308C224.661 28.6512 223.077 29.6925 220.428 29.6925C217.078 29.6925 214.316 28.3117 211.667 26.1385L207.864 30.7112C211.35 33.8578 215.833 35.4198 220.27 35.4198ZM253.275 34.9896H259.839L262.511 28.4022H274.916L277.587 34.9896H284.333L271.769 5.47068H265.838L253.275 34.9896ZM264.82 22.7203L268.713 13.2126L272.607 22.7203H264.82ZM308.623 34.9896H315.074V25.6178H320.145L326.438 34.9896H333.976L326.823 24.5086C330.558 23.1277 333.116 20.1623 333.116 15.4084V15.3405C333.116 12.5788 332.233 10.2698 330.603 8.6399C328.679 6.71573 325.782 5.67442 322.069 5.67442H308.623V34.9896ZM315.074 19.9132V11.4922H321.481C324.627 11.4922 326.551 12.9183 326.551 15.6801V15.7706C326.551 18.2381 324.74 19.9132 321.617 19.9132H315.074ZM358.945 34.9896H365.397V5.67442H358.945V34.9896Z" fill="white"/>
</svg>
