<svg width="226" height="49" viewBox="0 0 226 49" fill="none" xmlns="http://www.w3.org/2000/svg">
<path d="M79.9891 27.9786L78.6496 31.774H78.5379C78.3147 30.9182 77.9054 29.6158 77.2356 28.053L70.0541 10.0063H63.0215V38.7694H67.6727V21.0204L67.6355 17.0762C67.5983 16.2948 67.5239 15.6994 67.4867 15.2529H67.5983C67.8215 16.3692 68.082 17.1878 68.2681 17.7087L76.9007 38.695H80.1751L88.7334 17.5227C88.9194 17.039 89.1055 16.0715 89.2915 15.2529H89.4031L89.1799 20.4251V38.6578H94.1288V9.93193H87.3566L79.9891 27.9786ZM98.8172 18.0436H103.654V38.6578H98.8172V18.0436ZM101.273 9.33658C100.454 9.33658 99.7846 9.63425 99.2265 10.1552C98.6683 10.6761 98.3707 11.3459 98.3707 12.1645C98.3655 12.5351 98.4391 12.9026 98.5866 13.2425C98.7342 13.5825 98.9523 13.8873 99.2265 14.1366C99.7846 14.6576 100.454 14.918 101.273 14.918C102.092 14.918 102.799 14.6203 103.32 14.1366C103.594 13.8873 103.812 13.5825 103.959 13.2425C104.107 12.9026 104.181 12.5351 104.175 12.1645C104.175 11.3831 103.878 10.7133 103.32 10.1552C102.836 9.63425 102.129 9.33658 101.273 9.33658ZM120.808 17.8576C119.915 17.6715 118.985 17.5599 118.092 17.5599C115.896 17.5599 113.887 18.0436 112.213 19.0111C110.538 19.9785 109.199 21.3181 108.343 22.9925C107.45 24.7042 107.003 26.6763 107.003 28.9461C107.003 30.9182 107.45 32.667 108.306 34.267C109.161 35.8298 110.352 37.095 111.952 37.9508C113.478 38.8066 115.264 39.2531 117.273 39.2531C119.58 39.2531 121.552 38.7694 123.115 37.8764L123.152 37.8392V33.374L122.966 33.5229C122.259 34.0438 121.441 34.4903 120.622 34.7508C119.766 35.0484 118.985 35.1973 118.315 35.1973C116.38 35.1973 114.855 34.6391 113.775 33.4112C112.659 32.2205 112.101 30.5833 112.101 28.5368C112.101 26.4158 112.659 24.7414 113.813 23.5135C114.966 22.2855 116.492 21.653 118.352 21.653C119.915 21.653 121.515 22.1739 122.966 23.2158L123.152 23.3646V18.639L123.115 18.6018C122.483 18.3413 121.776 18.0436 120.808 17.8576ZM136.771 17.7087C135.58 17.7087 134.464 18.0808 133.497 18.8622C132.678 19.532 132.12 20.4995 131.636 21.653H131.599V18.0436H126.762V38.6578H131.599V28.1275C131.599 26.3414 131.971 24.853 132.79 23.7739C133.608 22.6576 134.65 22.0995 135.915 22.0995C136.362 22.0995 136.808 22.2111 137.366 22.2855C137.887 22.4344 138.259 22.5832 138.52 22.7693L138.706 22.9181V18.0808L138.594 18.0436C138.259 17.8204 137.59 17.7087 136.771 17.7087ZM149.943 17.5971C146.557 17.5971 143.841 18.6018 141.943 20.5739C140.008 22.546 139.078 25.2623 139.078 28.6856C139.078 31.8856 140.045 34.4903 141.906 36.388C143.766 38.2485 146.297 39.2159 149.46 39.2159C152.771 39.2159 155.413 38.2113 157.311 36.2019C159.246 34.1926 160.176 31.5135 160.176 28.2019C160.176 24.9274 159.283 22.3227 157.46 20.4251C155.711 18.5274 153.143 17.5971 149.943 17.5971ZM153.813 33.4484C152.92 34.6019 151.506 35.1601 149.757 35.1601C148.008 35.1601 146.594 34.6019 145.59 33.374C144.585 32.2205 144.101 30.5461 144.101 28.4251C144.101 26.2298 144.622 24.5553 145.59 23.3646C146.594 22.1739 147.971 21.5786 149.72 21.5786C151.432 21.5786 152.771 22.1367 153.739 23.2902C154.706 24.4437 155.227 26.1181 155.227 28.3135C155.153 30.5461 154.743 32.2949 153.813 33.4484ZM170.967 26.6019C169.441 25.9693 168.474 25.4856 168.027 25.0763C167.655 24.7042 167.469 24.1832 167.469 23.5135C167.469 22.9553 167.692 22.3972 168.25 22.0251C168.809 21.653 169.441 21.4669 170.371 21.4669C171.19 21.4669 172.046 21.6158 172.864 21.839C173.683 22.0623 174.427 22.3972 175.023 22.8437L175.209 22.9925V18.4529L175.097 18.4157C174.539 18.1925 173.795 17.9692 172.902 17.7832C172.009 17.6343 171.19 17.5599 170.52 17.5599C168.213 17.5599 166.315 18.1181 164.827 19.346C163.339 20.4995 162.632 22.0623 162.632 23.8855C162.632 24.853 162.781 25.7088 163.115 26.4158C163.45 27.1228 163.934 27.7926 164.604 28.3507C165.274 28.8716 166.241 29.467 167.581 30.0251C168.697 30.5089 169.553 30.881 170.074 31.1786C170.595 31.4763 170.929 31.8112 171.19 32.0717C171.376 32.3694 171.488 32.7415 171.488 33.2252C171.488 34.6019 170.446 35.2717 168.325 35.2717C167.506 35.2717 166.65 35.1229 165.646 34.788C164.641 34.4531 163.711 33.9694 162.929 33.4112L162.743 33.2624V37.988L162.855 38.0252C163.562 38.3601 164.418 38.5834 165.46 38.8438C166.502 39.0299 167.432 39.1787 168.25 39.1787C170.743 39.1787 172.79 38.6206 174.241 37.3927C175.73 36.2019 176.511 34.6764 176.511 32.7042C176.511 31.3275 176.139 30.0996 175.32 29.1693C174.241 28.2763 172.902 27.3461 170.967 26.6019ZM189.274 17.5971C185.888 17.5971 183.171 18.6018 181.274 20.5739C179.376 22.546 178.409 25.2623 178.409 28.6856C178.409 31.8856 179.376 34.4903 181.237 36.388C183.097 38.2485 185.627 39.2159 188.79 39.2159C192.102 39.2159 194.744 38.2113 196.641 36.2019C198.576 34.1926 199.507 31.5135 199.507 28.2019C199.507 24.9274 198.613 22.3227 196.79 20.4251C195.041 18.5274 192.474 17.5971 189.274 17.5971ZM193.106 33.4484C192.213 34.6019 190.799 35.1601 189.051 35.1601C187.265 35.1601 185.888 34.6019 184.883 33.374C183.878 32.2205 183.395 30.5461 183.395 28.4251C183.395 26.2298 183.916 24.5553 184.883 23.3646C185.888 22.1739 187.265 21.5786 189.013 21.5786C190.688 21.5786 192.065 22.1367 193.032 23.2902C193.999 24.4437 194.52 26.1181 194.52 28.3135C194.52 30.5461 194.037 32.2949 193.106 33.4484ZM225.367 22.0251V18.0436H220.493V11.9413L220.344 11.9785L215.73 13.3552L215.618 13.3924V18.0436H208.325V15.439C208.325 14.2483 208.623 13.318 209.144 12.7227C209.665 12.1273 210.446 11.8296 211.414 11.8296C212.083 11.8296 212.79 11.9785 213.572 12.3133L213.758 12.425V8.22029L213.646 8.18308C212.976 7.95982 212.083 7.81098 210.93 7.81098C209.479 7.81098 208.214 8.14587 207.06 8.70401C205.907 9.33658 205.051 10.1924 204.418 11.3459C203.786 12.4622 203.451 13.7273 203.451 15.1785V18.0436H200.065V21.9879H203.451V38.6578H208.325V22.0251H215.618V32.6298C215.618 36.9833 217.665 39.1787 221.758 39.1787C222.428 39.1787 223.135 39.0671 223.804 38.9555C224.511 38.8066 225.032 38.6206 225.33 38.4717L225.367 38.4345V34.4531L225.181 34.6019C224.883 34.788 224.623 34.9368 224.176 35.0485C223.804 35.1601 223.469 35.1973 223.209 35.1973C222.242 35.1973 221.572 34.974 221.088 34.4159C220.642 33.8949 220.418 33.0391 220.418 31.774V22.0251H225.367Z" fill="white"/>
<path d="M0.658691 0.332031H23.4682V23.1416H0.658691V0.332031Z" fill="white"/>
<path d="M25.8492 0.332031H48.6587V23.1416H25.8492V0.332031Z" fill="white"/>
<path d="M0.658691 25.5225H23.4682V48.332H0.658691V25.5225Z" fill="white"/>
<path d="M25.8492 25.5225H48.6587V48.332H25.8492V25.5225Z" fill="white"/>
</svg>
