<svg width="185" height="33" viewBox="0 0 185 33" fill="none" xmlns="http://www.w3.org/2000/svg">
<path d="M49.6311 1.00892H37.7988V1.71506C38.754 2.71543 41.5272 2.33294 41.5272 4.42195C41.5272 6.51096 41.5272 16.1322 41.5272 16.1322V27.813C41.5272 27.9895 41.5272 28.166 41.4964 28.3426C41.1267 31.0495 37.8296 30.9612 37.8296 30.9612V31.5496H50.1241V30.6964C50.0009 30.6964 45.6562 31.4908 45.5021 27.9307V17.0148H49.6619C49.8468 17.0148 51.788 17.0149 54.0374 16.3381C57.1495 15.4555 60.8163 13.3664 60.8163 8.36459C60.7547 0.567582 49.6311 1.00892 49.6311 1.00892ZM56.8722 9.18842C56.8722 12.6309 55.3624 14.4845 53.6676 15.3378C53.0206 15.632 47.6899 17.7798 45.4713 15.1318V1.74449H49.9392C57.1187 1.77391 56.8722 8.5117 56.8722 9.18842Z" fill="white"/>
<path d="M183.761 19.957C182.436 17.5738 179.91 15.3082 176.274 13.4252C167.153 8.80584 170.912 3.50976 170.912 3.50976C171.313 2.92131 171.806 2.3917 172.422 1.95036C173.778 0.949985 175.658 0.979415 177.229 1.4796C177.845 1.68556 178.492 1.86209 179.047 2.30343C179.448 2.68593 179.91 3.12726 180.218 3.5686C180.865 4.4807 181.327 5.48108 181.666 6.54029C181.974 7.4524 182.19 8.45277 182.282 9.39429H183.176V5.45166L183.268 0.538072H182.467L182.375 1.12652C182.282 1.50902 182.128 1.86209 181.913 2.18574C181.358 2.98015 180.403 2.27401 179.786 1.89152C178.924 1.30306 178.123 0.89114 177.106 0.626336C176.489 0.420377 175.781 0.332109 175.134 0.332109H175.041C174.671 0.332109 174.333 0.332113 173.963 0.390958C172.884 0.479226 171.837 0.773449 170.881 1.21479C169.556 1.89151 168.447 2.95073 167.8 4.33359C167.184 5.65761 167.03 7.15817 167.153 8.6293C167.153 8.6293 167.153 10.3947 168.324 12.366C168.971 13.5723 170.05 14.8963 171.837 15.9555C175.134 17.8974 178.862 20.2513 180.464 22.9287C180.464 22.9287 180.464 22.9287 180.464 22.9581C181.05 23.9879 181.358 25.0472 181.204 26.1946C180.834 28.6367 179.571 30.9023 177.106 31.4024C176.243 31.6084 175.38 31.6084 174.487 31.4613L173.316 31.1671C172.669 30.9023 172.145 30.7257 171.652 30.255C171.19 29.8725 170.789 29.4606 170.45 28.9898C169.803 28.1071 169.341 27.1362 168.94 26.1358C168.478 24.7529 168.17 23.3112 168.139 21.8989V21.6047H167.184L167.245 27.0185L167.153 32.0203H167.954C167.954 31.8144 168.016 31.579 168.047 31.373C168.139 30.9905 168.355 30.4903 168.601 30.1961C168.971 29.8725 169.402 29.9313 169.772 30.1373C170.234 30.3432 170.635 30.6669 171.036 30.9611C171.436 31.2259 171.898 31.4024 172.361 31.6084C173.254 31.9909 174.178 32.1969 175.165 32.2851C176.089 32.3734 177.075 32.344 177.999 32.138C179.355 31.932 180.711 31.4613 181.851 30.6375C183.361 29.5782 184.347 27.9894 184.747 26.1358C184.901 25.4002 184.932 24.6941 184.932 23.9585C184.963 22.6051 184.532 21.2516 183.761 19.957Z" fill="white"/>
<path d="M124.785 30.7553H120.163C120.07 30.7553 116.866 30.9613 116.496 28.4898C116.465 28.3721 116.465 28.1956 116.465 28.0484V4.74569C116.465 4.56916 116.465 4.39262 116.496 4.21609C117.02 1.5092 121.087 1.59747 121.087 1.59747V1.00902H108.762V1.59747C108.762 1.59747 111.72 1.47978 112.398 3.77475C112.49 4.06897 112.521 4.3632 112.521 4.628V28.0484C112.336 31.1672 108.762 31.0201 108.762 31.0201V31.6086H131.933V22.5464H130.855C130.855 26.3713 129.992 30.7553 124.785 30.7553Z" fill="white"/>
<path d="M151.438 28.0484V4.65743C151.438 4.39262 151.469 4.15724 151.531 3.89244C152.147 1.45036 155.166 1.59747 155.166 1.59747V1.00902H143.796V1.59747C143.796 1.59747 146.816 1.47978 147.432 3.89244C147.463 4.15724 147.525 4.39262 147.525 4.65743V27.9896C147.525 28.2544 147.494 28.5192 147.402 28.8429C146.754 31.1378 143.827 31.0201 143.827 31.0201V31.6086H155.197V31.0201C155.197 31.0201 151.623 31.1672 151.438 28.0484Z" fill="white"/>
<path d="M84.9741 0.332109C77.0859 0.332109 70.7384 7.48182 70.7384 16.3086C70.7384 25.1354 77.1167 32.2851 85.0049 32.2851C92.8931 32.2851 99.2715 25.106 99.2715 16.3086C99.2715 7.4524 92.8623 0.332109 84.9741 0.332109ZM84.9741 31.1965C79.3661 31.1965 74.8366 24.4293 74.8366 16.0732C74.8366 7.7172 79.3969 0.949987 84.9741 0.949987C90.6437 0.949987 95.1733 7.7172 95.1733 16.0732C95.2041 24.4293 90.6437 31.1965 84.9741 31.1965Z" fill="white"/>
<path d="M14.35 0.332031C6.46183 0.332031 0.0834961 7.48174 0.0834961 16.3085C0.0834961 25.1353 6.46183 32.285 14.35 32.285C22.2382 32.285 28.6165 25.1059 28.6165 16.3085C28.5857 7.45232 22.2074 0.332031 14.35 0.332031ZM14.35 31.1964C8.83445 31.1964 4.33572 24.6646 4.21247 16.5145L20.5743 28.0776C18.8488 30.0489 16.661 31.1964 14.35 31.1964ZM21.4062 26.989L4.21247 14.8374C4.64385 7.06983 8.98852 1.00876 14.3192 1.00876C19.9888 1.00876 24.5184 7.77597 24.5184 16.132C24.5184 20.3689 23.3475 24.2232 21.4062 26.989Z" fill="white"/>
</svg>
