<svg width="246" height="33" viewBox="0 0 246 33" fill="none" xmlns="http://www.w3.org/2000/svg">
<path d="M106.32 20.9263H122.482L113.906 7.23764L98.2386 32.1416H91.1469L110.091 2.31069C110.916 1.1572 112.236 0.332031 113.884 0.332031C115.368 0.332031 116.686 0.988666 117.513 2.14872L136.643 31.9993H129.571L126.273 26.3917H109.944L106.32 20.9263ZM180.37 26.3698V0.476491H174.266V28.8431C174.266 29.6683 174.594 30.3271 175.091 30.9881C175.748 31.6448 176.411 31.9774 177.236 31.9774H204.778L208.407 26.3698H180.37ZM80.4263 21.7733C86.3644 21.7733 90.9806 16.9909 90.9806 11.219C90.9806 5.28087 86.1981 0.664727 80.4263 0.664727H54.0361V32.1657H60.1385V6.10385H80.0936C81.4472 6.11189 82.743 6.65316 83.7001 7.6103C84.6573 8.56743 85.1985 9.86328 85.2066 11.2168C85.1985 12.57 84.6576 13.8656 83.7009 14.8226C82.7442 15.7797 81.449 16.3212 80.0958 16.3298H63.1108L81.0873 31.9971H89.8293L77.6246 21.7712L80.4263 21.7733ZM16.6014 31.9993C7.85939 31.9993 0.934082 24.9077 0.934082 16.332C0.934082 7.59003 8.02574 0.664727 16.6014 0.664727H34.9084C43.6504 0.664727 50.5757 7.75638 50.5757 16.332C50.5757 25.074 43.484 31.9993 34.9084 31.9993H16.6014ZM34.5779 26.3917C37.285 26.3756 39.8767 25.2931 41.791 23.3788C43.7052 21.4645 44.7878 18.8728 44.8039 16.1657C44.7878 13.4585 43.7052 10.8669 41.791 8.95258C39.8767 7.03831 37.285 5.95577 34.5779 5.93969H17.0961C14.3889 5.95577 11.7972 7.03831 9.88295 8.95258C7.96868 10.8669 6.88614 13.4585 6.87006 16.1657C6.88614 18.8728 7.96868 21.4645 9.88295 23.3788C11.7972 25.2931 14.3889 26.3756 17.0961 26.3917H34.5779ZM149.364 31.9993C140.622 31.9993 133.697 24.9077 133.697 16.332C133.697 7.59003 140.789 0.664727 149.364 0.664727H171.134L167.505 6.27239H149.693C146.985 6.28847 144.394 7.37101 142.479 9.28528C140.565 11.1995 139.483 13.7912 139.466 16.4984C139.483 19.2055 140.565 21.7972 142.479 23.7115C144.394 25.6258 146.985 26.7083 149.693 26.7244H171.462L167.833 32.332H149.36L149.364 31.9993ZM223.415 26.3917C218.819 26.3917 214.839 23.2573 213.684 18.9717H239.577L243.206 13.364H213.85C215.004 9.07403 218.963 5.94407 223.581 5.94407H241.394L245.023 0.336411H223.251C214.509 0.336411 207.584 7.42806 207.584 16.0037C207.584 24.7457 214.675 31.671 223.251 31.671H241.888L245.517 26.0634H223.417L223.415 26.3917Z" fill="white"/>
</svg>
