<svg width="239" height="208" viewBox="0 0 239 208" fill="none" xmlns="http://www.w3.org/2000/svg">
<path d="M239 99.732C239 82.1674 228.727 67.2446 214.365 61.5052C214.889 59.0293 215.2 56.4564 215.2 53.8054C215.2 34.9884 201.13 19.7446 183.777 19.7446C180.864 19.7446 178.048 20.2107 175.368 21.0069C171.94 9.34572 161.87 0.908203 149.975 0.908203C135.254 0.908203 123.319 13.8413 123.319 29.8038V75.3806H138.331L161.597 56.8258C161.17 55.6995 160.927 54.4761 160.927 53.1848C160.927 47.9125 164.87 43.6404 169.735 43.6404C174.6 43.6404 178.542 47.9127 178.542 53.1848C178.542 58.4569 174.6 62.7292 169.735 62.7292C168.162 62.7292 166.705 62.2437 165.423 61.4669L140.204 81.5656H123.318V100.965H190.717C191.901 97.2175 195.144 94.5084 199.009 94.5084C203.874 94.5084 207.816 98.7807 207.816 104.063C207.816 109.335 203.874 113.607 199.009 113.607C195.154 113.607 191.911 110.898 190.717 107.16H123.318V130.599H139.078L160.402 143.94C161.994 142.211 164.208 141.134 166.636 141.134C171.5 141.134 175.443 145.406 175.443 150.678C175.443 155.95 171.501 160.222 166.636 160.222C161.771 160.222 157.828 155.95 157.828 150.678C157.828 150.29 157.896 149.93 157.935 149.552L137.544 136.793H123.318V178.331C123.318 194.294 135.252 207.227 149.973 207.227C162.16 207.227 172.414 198.362 175.59 186.254C178.202 187.021 180.94 187.458 183.776 187.458C201.128 187.458 215.199 172.214 215.199 153.397C215.199 148.164 214.073 143.221 212.131 138.784C227.657 133.774 239 118.19 239 99.732Z" fill="#B20EDB"/>
<path d="M0.495117 99.732C0.495117 82.1674 10.7686 67.2446 25.1302 61.5052C24.6058 59.0293 24.2951 56.4564 24.2951 53.8054C24.2951 34.9884 38.3654 19.7446 55.7185 19.7446C58.6317 19.7446 61.4476 20.2107 64.1276 21.0069C67.5553 9.34572 77.6249 0.908203 89.5204 0.908203C104.241 0.908203 116.176 13.8413 116.176 29.8038V75.3806H101.164L77.8979 56.8258C78.3251 55.6995 78.5679 54.4761 78.5679 53.1848C78.5679 47.9125 74.6256 43.6404 69.7606 43.6404C64.8955 43.6404 60.9533 47.9127 60.9533 53.1848C60.9533 58.4569 64.8955 62.7292 69.7606 62.7292C71.3336 62.7292 72.7903 62.2437 74.072 61.4669L99.2908 81.5656H116.177V100.965H48.7786C47.594 97.2175 44.3509 94.5084 40.4862 94.5084C35.6214 94.5084 31.6789 98.7807 31.6789 104.063C31.6789 109.335 35.6211 113.607 40.4862 113.607C44.3412 113.607 47.5845 110.898 48.7786 107.16H116.177V130.599H100.417L79.0936 143.94C77.5011 142.211 75.2873 141.134 72.8596 141.134C67.9949 141.134 64.0523 145.406 64.0523 150.678C64.0523 155.95 67.9946 160.222 72.8596 160.222C77.7247 160.222 81.667 155.95 81.667 150.678C81.667 150.29 81.6087 149.93 81.5601 149.552L101.952 136.793H116.177V178.331C116.177 194.294 104.243 207.227 89.5218 207.227C77.3355 207.227 67.0814 198.362 63.9053 186.254C61.2931 187.021 58.555 187.458 55.7194 187.458C38.3671 187.458 24.296 172.214 24.296 153.397C24.296 148.164 25.4224 143.221 27.3645 138.784C11.8378 133.774 0.495117 118.19 0.495117 99.732Z" fill="#B20EDB"/>
</svg>
