<svg width="72" height="108" viewBox="0 0 72 108" fill="none" xmlns="http://www.w3.org/2000/svg">
<path d="M44.5139 35.069L44.1148 35.4648L44.1145 36.0268L44.1121 39.8532L44.1117 40.4129L44.5075 40.8087L49.1279 45.4291L49.5234 45.8245H50.0825L53.9062 45.8245H54.4654L54.8608 45.4291L68.5407 31.7492C72.5051 39.7853 70.7773 49.4163 64.22 55.9736L64.2198 55.9739C61.5626 58.6325 58.2531 60.5458 54.6231 61.5218C50.9936 62.4977 47.1714 62.5022 43.5397 61.535C43.5392 61.5348 43.5387 61.5347 43.5382 61.5346L42.9163 61.3675L42.1628 61.1651L41.6113 61.7168L15.2898 88.0473L1.90919 74.6667L28.2213 48.3545L28.7729 47.803L28.5705 47.0497L28.4034 46.4277C28.4033 46.4273 28.4032 46.4269 28.4031 46.4265C26.4469 39.0826 28.4828 31.1995 33.9551 25.7272L33.9557 25.7266C40.4946 19.1795 50.2293 17.5443 58.274 21.425L44.5139 35.069Z" stroke="#EFEE02" stroke-width="2.7"/>
</svg>
