<svg width="72" height="108" viewBox="0 0 72 108" fill="none" xmlns="http://www.w3.org/2000/svg">
<path fill-rule="evenodd" clip-rule="evenodd" d="M68.5286 26.1143H3.47143V81.8857H68.5286V26.1143ZM0 22V86H72V22H0Z" fill="#E65688"/>
<path d="M12.8571 41.5714H30.8571V62.1429H12.8571V41.5714Z" fill="#E65688"/>
<path fill-rule="evenodd" clip-rule="evenodd" d="M27.3857 44.6571H16.3286V59.0571H27.3857V44.6571ZM12.8571 41.5714V62.1429H30.8571V41.5714H12.8571Z" fill="#E65688"/>
<path d="M36 54.1429H45V62.1429H36V54.1429Z" fill="#E65688"/>
<path fill-rule="evenodd" clip-rule="evenodd" d="M41.5286 57.2286H39.4714V59.0571H41.5286V57.2286ZM36 54.1429V62.1429H45V54.1429H36Z" fill="#E65688"/>
<path d="M36 41.5714H45V49.5714H36V41.5714Z" fill="#E65688"/>
<path fill-rule="evenodd" clip-rule="evenodd" d="M41.5286 44.6571H39.4714V46.4857H41.5286V44.6571ZM36 41.5714V49.5714H45V41.5714H36Z" fill="#E65688"/>
<path d="M50.1429 54.1429H59.1429V62.1429H50.1429V54.1429Z" fill="#E65688"/>
<path fill-rule="evenodd" clip-rule="evenodd" d="M55.6714 57.2286H53.6143V59.0571H55.6714V57.2286ZM50.1429 54.1429V62.1429H59.1429V54.1429H50.1429Z" fill="#E65688"/>
<path d="M50.1429 41.5714H59.1429V49.5714H50.1429V41.5714Z" fill="#E65688"/>
<path fill-rule="evenodd" clip-rule="evenodd" d="M55.6714 44.6571H53.6143V46.4857H55.6714V44.6571ZM50.1429 41.5714V49.5714H59.1429V41.5714H50.1429Z" fill="#E65688"/>
<path d="M12.8571 32.1429H59.1429V36.7143H12.8571V32.1429Z" fill="#E65688"/>
<path fill-rule="evenodd" clip-rule="evenodd" d="M12.8571 32.1429V36.7143H59.1429V32.1429H12.8571Z" fill="#E65688"/>
<path d="M12.8571 66.7143H59.1429V75.8571H12.8571V66.7143Z" fill="#E65688"/>
<path fill-rule="evenodd" clip-rule="evenodd" d="M55.6714 69.8H16.3286V72.7714H55.6714V69.8ZM12.8571 66.7143V75.8571H59.1429V66.7143H12.8571Z" fill="#E65688"/>
</svg>
