<svg width="72" height="108" viewBox="0 0 72 108" fill="none" xmlns="http://www.w3.org/2000/svg">
<path d="M26.0561 78.3134L25.9564 77.512L25.2032 77.2208C24.4999 76.949 23.8408 76.6244 23.2242 76.2478C22.5692 75.8479 21.9298 75.4191 21.306 74.9615L20.6882 74.5083L19.9823 74.8063L10.4249 78.8421L1.76254 63.8051L10.0415 57.5043L10.6719 57.0244L10.5604 56.24C10.5089 55.8777 10.4843 55.5358 10.4843 55.2132V52.7868C10.4843 52.4642 10.5089 52.1223 10.5604 51.76L10.6719 50.9756L10.0415 50.4957L1.76254 44.1949L10.4249 29.1579L19.9823 33.1937L20.6867 33.4911L21.3041 33.0399C21.9234 32.5873 22.5719 32.1621 23.2499 31.7646C23.918 31.373 24.5806 31.0405 25.2379 30.7652L25.9595 30.463L26.0561 29.6866L27.3417 19.35H44.6583L45.9439 29.6866L46.0436 30.488L46.7969 30.7792C47.5001 31.051 48.1592 31.3756 48.7758 31.7522C49.4308 32.1522 50.0702 32.5809 50.694 33.0385L51.3118 33.4917L52.0177 33.1937L61.5751 29.1579L70.2375 44.1949L61.9585 50.4957L61.3281 50.9756L61.4396 51.76C61.4911 52.1223 61.5157 52.4642 61.5157 52.7868V55.2132C61.5157 55.466 61.4772 55.7472 61.388 56.0608L61.1362 56.9466L61.869 57.5043L70.1479 63.8051L61.4874 78.839L52.0215 74.8079L51.3155 74.5073L50.6959 74.9601C50.0766 75.4127 49.4281 75.8379 48.7501 76.2354C48.082 76.627 47.4194 76.9595 46.7621 77.2348L46.0405 77.537L45.9439 78.3134L44.6583 88.65H27.3418L26.0561 78.3134ZM36.1791 67.95C40.0019 67.95 43.3013 66.5762 46.0018 63.8622L23.6418 54H22.2918C22.2918 54.0003 22.2918 54.0006 22.2918 54.0009C22.292 57.8308 23.6368 61.1413 26.3038 63.8561C28.9806 66.5808 32.3011 67.95 36.1791 67.95Z" stroke="#FF7B22" stroke-width="2.7"/>
</svg>
