<svg width="72" height="108" viewBox="0 0 72 108" fill="none" xmlns="http://www.w3.org/2000/svg">
<path fill-rule="evenodd" clip-rule="evenodd" d="M68.5286 21.4714H3.47143V86.5286H68.5286V21.4714ZM0 18V90H72V18H0Z" fill="#73F25F"/>
<path fill-rule="evenodd" clip-rule="evenodd" d="M15.5274 53.991L25.8408 43.7648L28.0384 45.9484L19.9248 53.9936L28.0375 62.0563L25.8373 64.2374L15.5274 53.991Z" fill="#73F25F"/>
<path fill-rule="evenodd" clip-rule="evenodd" d="M25.8328 64.2419L16.1446 54.6134L15.5229 53.9865L26.4488 43.1529L25.8453 43.7603L27.431 45.3359L28.043 45.953L19.9339 53.9936L27.4302 61.4437L28.042 62.0609L25.2293 64.8492L25.8328 64.2419ZM28.0284 62.0563L20.5419 54.616L19.9202 53.989L28.0293 45.9484L25.8408 43.7739L15.5366 53.991L25.8373 64.2283L28.0284 62.0563Z" fill="#73F25F"/>
<path fill-rule="evenodd" clip-rule="evenodd" d="M56.4726 53.991L46.1593 43.7649L43.9616 45.9484L52.0753 53.9936L43.9626 62.0563L46.1628 64.2374L56.4726 53.991Z" fill="#73F25F"/>
<path fill-rule="evenodd" clip-rule="evenodd" d="M55.8555 54.6134L56.4772 53.9865L45.5512 43.1529L46.1548 43.7603L44.5691 45.3359L43.9571 45.953L52.0662 53.9936L44.5699 61.4437L43.958 62.0609L46.7708 64.8492L46.1673 64.2419L55.8555 54.6134ZM43.9717 62.0563L51.4581 54.616L52.0798 53.989L43.9708 45.9484L46.1593 43.7739L56.4635 53.9911L46.1627 64.2283L43.9717 62.0563Z" fill="#73F25F"/>
<path d="M29.1762 68.7857L39.2835 39.2143H42.8245L32.7172 68.7857H29.1762Z" fill="#73F25F"/>
<path fill-rule="evenodd" clip-rule="evenodd" d="M39.2835 39.1944V39.2079H42.8057L42.8306 39.2164L32.7172 68.8056V68.7921H29.195L29.1701 68.7836L39.2835 39.1944ZM29.1851 68.7793H32.7126L42.8155 39.2207H39.2881L29.1851 68.7793Z" fill="#73F25F"/>
</svg>
