<svg width="72" height="108" viewBox="0 0 72 108" fill="none" xmlns="http://www.w3.org/2000/svg">
<path fill-rule="evenodd" clip-rule="evenodd" d="M24.3923 23H31.357V27.0654H40.6538V23H47.6185V31.1308H55.7492V35.1961H59.8146V43.3269H60.9807V35.1961H67.9347V54.3318L65.4206 54.357L63.8586 54.3569V58.4223H59.7932V59.5884H63.8586V70.6184H52.8393V66.553H44.7085V62.4877H36.5778V58.4223H35.4116V62.4877H27.2809V66.553H19.1501V70.6184H8.13081V59.5884H12.1962V58.4223H8.13081V54.3569H4.06543V35.1961H11.0301V43.3269H12.1962V35.1961H16.2616V31.1308H24.3923V23ZM27.2809 25.8886V34.0193H19.1501V38.0847H15.0847V46.2155H8.14151V38.0847H6.95399V51.4683H11.0194V55.5337H15.0847V62.477H11.0194V67.7299H16.2616V63.6645H24.3923V59.5991H32.5231V55.5337H39.4663V59.5991H47.5971V63.6645H55.7278V67.7299H60.97V62.477H56.9047V55.5337H60.97V51.4683H65.0461V38.0847H63.8693V46.2155H56.9261V38.0847H52.8607V34.0193H44.7299V25.8886H43.5424V29.9539H28.4684V25.8886H27.2809Z" fill="#E65688"/>
<path d="M17.9733 44.3967H30.1587V48.4514H17.9733V44.3967ZM54.551 48.4514H42.3656V44.3967H54.551V48.4514Z" fill="#E65688"/>
<path d="M67.9346 58.433V54.357H72V58.433H67.9346Z" fill="#E65688"/>
<path d="M0 58.433V54.357L4.06543 54.3569L4.06538 58.433H0Z" fill="#E65688"/>
<path d="M59.269 32.2006H63.3344V28.1352H59.269V24.0698H55.2036V28.1459H59.269V32.2006Z" fill="#E65688"/>
<path d="M14.5498 28.1459H18.6152V24.0698H14.5498V28.1352H10.4845V32.2006H14.5498V28.1459Z" fill="#E65688"/>
<path d="M37.8723 72.8544H33.8069V68.789H37.8723V64.7236H33.8069V68.789H29.7415V72.8544H33.8069V76.9198H37.8723V80.9851H33.8069V85.0505H37.8723V80.9851H41.9376V76.9198H37.8723V72.8544Z" fill="#E65688"/>
</svg>
