<svg width="72" height="108" viewBox="0 0 72 108" fill="none" xmlns="http://www.w3.org/2000/svg">
<path fill-rule="evenodd" clip-rule="evenodd" d="M72 44.3368L36 16L3.54052e-05 44.3368H72ZM63.2301 41.2993L36 19.8656L8.76996 41.2993H63.2301ZM41.1432 44.3382H30.8574V77.8751H20.5715V44.3389H10.2858V77.8751H1.60718V88H70.3929V77.8751H61.7144V44.3382H51.4287V77.8751H41.1432V44.3382ZM38.1057 44.3333V77.8695H33.8949V44.3333H38.1057ZM27.8199 80.9126V80.9142H44.1807V80.9126H48.3912V80.9142H64.7519V80.9126H67.3554V84.9625H4.64468V80.9126H7.24833V80.9149H23.609V80.9126H27.8199ZM54.4662 77.8695H58.6769V44.3333H54.4662V77.8695ZM13.3233 77.8695H17.534V44.3333H13.3233V77.8695Z" fill="#4494F8"/>
</svg>
