<svg width="72" height="108" viewBox="0 0 72 108" fill="none" xmlns="http://www.w3.org/2000/svg">
<path fill-rule="evenodd" clip-rule="evenodd" d="M36.3442 89.9992L44.1183 88.423L44.1488 88.3882L43.671 83.4564L48.6697 83.2244L48.192 78.2926L53.1907 78.0606L55.5797 75.332C60.2259 76.8429 65.5393 75.5632 68.9428 71.6757C73.4682 66.5069 72.9046 58.6842 67.6836 54.2036C62.4627 49.7231 54.5613 50.2814 50.036 55.4503C46.6324 59.3377 46.1074 64.7267 48.2777 69.0656L36.8164 82.1566L36.3442 89.9992ZM65.2638 62.1862C66.5128 60.7596 66.3571 58.6009 64.9163 57.3644C63.4755 56.128 61.2951 56.2819 60.0461 57.7085C58.7971 59.1351 58.9528 61.2938 60.3936 62.5303C61.8344 63.7667 64.0148 63.6128 65.2638 62.1862Z" fill="#5F6EEF"/>
<path fill-rule="evenodd" clip-rule="evenodd" d="M42.6763 34.8427H15.1854V31.3713H42.6763V34.8427Z" fill="#5F6EEF"/>
<path fill-rule="evenodd" clip-rule="evenodd" d="M42.6763 46.0287H15.1854V42.5573H42.6763V46.0287Z" fill="#5F6EEF"/>
<path fill-rule="evenodd" clip-rule="evenodd" d="M42.6763 57.2147H15.1854V53.7432H42.6763V57.2147Z" fill="#5F6EEF"/>
<path fill-rule="evenodd" clip-rule="evenodd" d="M33.5127 68.4006H15.1854V64.9292H33.5127V68.4006Z" fill="#5F6EEF"/>
<path fill-rule="evenodd" clip-rule="evenodd" d="M0 18H57.8617V48.4971H54.3272V21.4714H3.53454V86.5286H33.2738V90H0V18Z" fill="#5F6EEF"/>
</svg>
