<svg width="80" height="108" viewBox="0 0 80 108" fill="none" xmlns="http://www.w3.org/2000/svg">
<path d="M11.7066 60.0876C14.5234 65.921 27.2677 70.3244 42.5634 70.3244C59.9254 70.3244 74 64.651 74 57.6526C74 54.1718 70.5184 51.0188 64.8823 48.7286M2 40.5609V51.0627C2 58.0611 16.0747 63.7344 33.4366 63.7344C50.7986 63.7344 64.8732 58.0611 64.8732 51.0627V40.5609M11.1268 59.3623V68.0425C11.1268 75.0409 25.2014 80.7143 42.5634 80.7143C59.9253 80.7143 74 75.0409 74 68.0425V57.5408M64.8732 40.6718C64.8732 47.6702 50.7986 53.3436 33.4366 53.3436C16.0747 53.3436 2 47.6702 2 40.6718C2 33.6734 16.0747 28 33.4366 28C50.7986 28 64.8732 33.6734 64.8732 40.6718Z" stroke="#73F25F" stroke-width="2.7"/>
</svg>
