<svg width="72" height="108" viewBox="0 0 72 108" fill="none" xmlns="http://www.w3.org/2000/svg">
<path d="M36 18L49.908 23.4499L36 30.806L22.092 23.4499L36 18ZM20.5714 41.5548V25.7487L34.3385 33.051V48.8571L20.5714 41.5548ZM37.6615 33.051L51.4286 25.7487V41.5548L37.6615 48.8571V33.051Z" fill="#EFEE02"/>
<path d="M15.4286 59.1429L29.3365 64.5928L15.4286 71.9488L1.5206 64.5928L15.4286 59.1429ZM0 82.6976V66.8915L13.767 74.1939V90L0 82.6976ZM17.0901 74.1939L30.8571 66.8915V82.6976L17.0901 90V74.1939Z" fill="#EFEE02"/>
<path d="M56.5714 59.1429L70.4794 64.5928L56.5714 71.9488L42.6635 64.5928L56.5714 59.1429ZM41.1429 82.6976V66.8915L54.9099 74.1939V90L41.1429 82.6976ZM58.233 74.1939L72 66.8915V82.6976L58.233 90V74.1939Z" fill="#EFEE02"/>
</svg>
