<svg width="119" height="87" viewBox="0 0 119 87" fill="none" xmlns="http://www.w3.org/2000/svg">
<path d="M54.2171 87C53.8857 86.9993 53.5604 86.9103 53.2749 86.7422L36.3888 77.0005C35.9234 76.732 35.5369 76.3457 35.2683 75.8805C34.9996 75.4153 34.8583 74.8876 34.8585 74.3505V54.8649C34.8576 54.5322 34.9446 54.2052 35.1107 53.9169C35.2769 53.6286 35.5162 53.3892 35.8046 53.2229C36.0929 53.0567 36.4201 52.9694 36.753 52.97C37.0859 52.9706 37.4128 53.0591 37.7006 53.2264L54.5866 62.9702C55.0517 63.2386 55.438 63.6246 55.7066 64.0894C55.9752 64.5542 56.1167 65.0814 56.1169 65.6181V85.1058C56.1157 85.6086 55.9151 86.0904 55.5589 86.4455C55.2028 86.8006 54.7202 87 54.2171 87Z" fill="white"/>
<path d="M59.4989 58.1726C58.9615 58.1723 58.4338 58.0307 57.9686 57.7619L41.0826 48.0202C40.7964 47.8528 40.559 47.6135 40.3941 47.3261C40.2291 47.0386 40.1424 46.713 40.1424 46.3817C40.1424 46.0503 40.2291 45.7247 40.3941 45.4373C40.559 45.1498 40.7964 44.9105 41.0826 44.7431L57.9686 35.0015C58.4338 34.733 58.9616 34.5917 59.4989 34.5917C60.0361 34.5917 60.5639 34.733 61.0292 35.0015L77.9152 44.7431C78.2014 44.9105 78.4387 45.1498 78.6037 45.4373C78.7686 45.7247 78.8554 46.0503 78.8554 46.3817C78.8554 46.713 78.7686 47.0386 78.6037 47.3261C78.4387 47.6135 78.2014 47.8528 77.9152 48.0202L61.0292 57.7619C60.564 58.0307 60.0362 58.1723 59.4989 58.1726Z" fill="white"/>
<path d="M64.7829 87C64.2806 86.9988 63.7991 86.7989 63.4439 86.4439C63.0887 86.089 62.8886 85.6078 62.8875 85.1058V65.6181C62.8876 65.0814 63.0292 64.5542 63.2978 64.0894C63.5664 63.6246 63.9527 63.2386 64.4178 62.9702L81.3038 53.2264C81.5916 53.0591 81.9184 52.9706 82.2513 52.97C82.5843 52.9694 82.9114 53.0567 83.1998 53.2229C83.4882 53.3892 83.7275 53.6286 83.8936 53.9169C84.0597 54.2052 84.1467 54.5322 84.1458 54.8649V74.3505C84.1461 74.8876 84.0047 75.4153 83.7361 75.8805C83.4675 76.3457 83.081 76.732 82.6155 77.0005L65.7251 86.7335C65.4404 86.9046 65.1151 86.9966 64.7829 87Z" fill="white"/>
<path d="M69.8089 17.126L61.344 26.1096C61.1075 26.3614 60.8218 26.5621 60.5047 26.6992C60.1875 26.8364 59.8456 26.9072 59.5 26.9072C59.1544 26.9072 58.8125 26.8364 58.4953 26.6992C58.1782 26.5621 57.8925 26.3614 57.656 26.1096L49.1889 17.126L52.8814 13.6545L56.9673 17.9934V0H62.0327V17.9934L66.1186 13.6545L69.8089 17.126Z" fill="white"/>
<path d="M119 66.9443H101.001L105.343 71.0275L101.863 74.7175L92.8708 66.2583C92.6195 66.0215 92.4192 65.736 92.2823 65.4191C92.1454 65.1022 92.0748 64.7606 92.0748 64.4155C92.0748 64.0703 92.1454 63.7288 92.2823 63.4118C92.4192 63.0949 92.6195 62.8094 92.8708 62.5726L101.863 54.1134L105.334 57.8012L101.001 61.8823H119.007L119 66.9443Z" fill="white"/>
<path d="M26.9249 64.4144C26.9247 64.7593 26.854 65.1006 26.7172 65.4173C26.5803 65.7339 26.3802 66.0194 26.1292 66.2561L17.1374 74.7175L13.6658 71.0275L18.0075 66.9443H0V61.8823H18.0053L13.6658 57.799L17.1374 54.1112L26.1292 62.5704C26.3805 62.8074 26.5807 63.0932 26.7176 63.4103C26.8544 63.7274 26.925 64.069 26.9249 64.4144Z" fill="white"/>
</svg>
