<svg width="183" height="49" viewBox="0 0 183 49" fill="none" xmlns="http://www.w3.org/2000/svg">
<g clip-path="url(#clip0_908_18766)">
<path d="M35.2894 23.8371L46.1573 19.2361L46.3764 19.5109L26.7951 48.4532L26.5438 48.3295L29.1715 36.8488C28.6145 37.2638 28.3092 37.4837 28.0146 37.7146C21.7209 42.6345 11.4045 42.8873 4.90264 38.2643C1.99101 36.1891 0.36901 33.4653 0.450114 29.6971C0.563659 24.2962 0.633865 18.8843 0.431105 13.4806C0.249974 8.63218 2.43696 5.39162 6.46241 3.35769C13.0643 0.0209516 19.7094 0.00446302 26.2275 3.70401C27.2209 4.24496 28.1078 4.967 28.8444 5.83414C29.6311 6.81262 30.4934 7.00501 31.6397 6.99402C37.4467 6.94729 43.2645 6.97482 49.0662 6.97482H50.4179C49.5744 10.515 48.796 13.9341 47.9093 17.3258C47.839 17.6007 47.1711 17.8755 46.7764 17.8755C44.0315 17.9232 41.2849 17.9232 38.5364 17.8755C37.7443 17.8618 37.336 18.1009 37.0846 18.8952C36.5818 20.4564 35.9733 21.9709 35.2894 23.8371ZM48.5363 8.52222H32.5373C28.6633 8.52222 24.7892 8.50027 20.9124 8.55524C20.4583 8.55524 19.7068 8.91249 19.6122 9.25331C18.9769 11.5346 18.482 13.8544 17.8953 16.3583H27.8548C26.2571 23.4029 24.7054 30.2357 23.086 37.3572L31.5425 33.6549C31.0721 36.1094 30.6639 38.245 30.2584 40.3806L30.4936 40.4824L41.9617 22.8257L41.8101 22.6278L32.2886 26.8798C33.7755 23.3424 35.0948 20.1431 36.4925 16.985C36.633 16.6634 37.2467 16.3941 37.6441 16.3859C40.3016 16.3309 42.9591 16.3556 45.6166 16.3583C46.2141 16.3583 46.725 16.4051 46.9008 15.5503C47.3604 13.2662 47.939 11.0124 48.5202 8.52222H48.5363ZM18.6201 6.94456H28.0199C27.1304 6.24093 26.5789 5.72698 25.9598 5.32569C22.1128 2.82726 17.8765 2.11262 13.4185 2.69256C10.2474 3.10485 7.28714 4.15478 4.82159 6.32063C1.19625 9.49796 1.00691 13.6703 4.45382 17.04C9.52551 21.9874 18.6874 22.9219 25.4434 18.7991C25.657 18.6699 25.7625 18.3538 26.068 17.8976H16.0219C16.8897 14.1898 17.7306 10.6496 18.6092 6.94456H18.6201ZM2.02335 17.0043C1.753 20.4592 3.33463 22.8779 5.98402 24.5353C11.4937 27.982 17.3549 28.1744 23.3728 26.0717C23.6809 25.9618 24.0944 25.7089 24.1701 25.4396C24.5837 23.9856 24.9054 22.5041 25.2974 20.8659C16.649 24.2466 8.92264 23.5761 2.02071 17.0043H2.02335ZM23.651 27.8747C15.6569 29.8372 8.28456 29.4964 2.02335 23.2627C1.753 26.9018 3.51581 29.2656 6.23008 30.9587C11.126 34.0288 16.4193 34.2129 21.8587 32.8963C22.0203 32.851 22.1702 32.7701 22.2977 32.6595C22.4252 32.5488 22.5274 32.4111 22.5968 32.256C22.9807 30.8322 23.2888 29.3754 23.6484 27.8747H23.651ZM2.15852 29.3232C1.65838 32.2642 2.78581 34.8203 5.62444 36.8075C10.0581 39.9134 14.9866 40.5593 20.1854 39.5259C20.5206 39.4572 20.9963 39.1548 21.0693 38.8635C21.4478 37.5332 21.7154 36.1671 22.0506 34.6801C14.5161 35.8758 7.59523 35.4085 2.14506 29.3232H2.15852Z" fill="white"/>
<path d="M89.272 27.7539H86.8793V16.8449C88.7258 16.2595 89.0422 16.3666 89.9722 17.9168C91.0775 19.8111 92.2785 21.6459 93.5704 23.4139V16.6827H95.7548V27.6769C94.3436 28.081 93.3867 27.8061 92.673 26.3659C91.7147 24.5083 90.5753 22.7533 89.272 21.1272V27.7539Z" fill="white"/>
<path d="M145.98 23.8592V27.7456H143.768V16.4601C145.785 16.6168 147.872 16.5206 149.821 17.0099C152.03 17.5596 152.609 20.7121 151 22.3887C150.73 22.6801 150.395 22.9192 149.997 23.2601L152.209 27.5863C150.208 28.158 149.946 28.0507 149.051 26.2999C148.797 25.8689 148.577 25.4187 148.391 24.9531C148.021 23.8207 147.296 23.4744 145.98 23.8592ZM146.053 22.2101C147.35 21.7456 148.435 21.4872 149.346 20.9375C149.581 20.7945 149.489 19.3268 149.186 19.1647C148.286 18.6837 147.207 18.549 146.053 18.2384V22.2101Z" fill="white"/>
<path d="M180.814 23.1226H176.394V27.7456H174.139V16.6498H176.348V21.0942H180.673V16.6965H182.985V27.7456H180.822L180.814 23.1226Z" fill="white"/>
<path d="M142.144 20.0332C140.676 20.2366 139.827 20.4345 139.154 19.1427C138.437 17.7684 135.95 18.1477 135.612 19.7281C135.291 21.3611 135.291 23.0425 135.612 24.6755C135.883 26.0828 137.953 26.7122 139.059 25.8299C139.508 25.4698 139.524 24.5491 139.773 23.763L137.556 23.5843V22.0836H141.844C141.844 23.4304 141.925 24.791 141.795 26.1268C141.754 26.5473 141.219 27.0612 140.787 27.2756C137.415 28.9467 132.879 28.037 132.865 22.6416C132.833 21.505 132.991 20.3711 133.333 19.2883C134.32 16.4766 138.17 15.4239 140.411 17.3643C141.111 17.9773 141.484 18.9915 142.144 20.0332Z" fill="white"/>
<path d="M80.7074 21.9187C80.7074 25.2995 79.6017 27.1602 77.4173 27.8034C74.7922 28.573 72.2619 27.2729 71.6564 24.5656C71.3465 23.0971 71.328 21.5805 71.6022 20.1047C72.0618 17.631 73.9867 16.3447 76.4442 16.5096C78.6313 16.658 80.2857 18.2824 80.6263 20.6517C80.6764 21.0722 80.7035 21.4952 80.7074 21.9187ZM73.492 22.3063C73.6867 23.1006 73.7218 24.0873 74.1679 24.8075C74.5382 25.4039 75.4169 26.0471 76.036 26.0114C76.7227 25.9729 77.85 25.2664 77.9284 24.7112C78.1866 23.0836 78.1866 21.4245 77.9284 19.7969C77.8392 19.2472 76.6874 18.5298 76.0196 18.5298C75.3519 18.5298 74.4977 19.2005 74.0786 19.8216C73.6596 20.4428 73.6921 21.369 73.492 22.3063Z" fill="white"/>
<path d="M114.611 16.6635V18.461H109.618V21.0942H113.814V22.9852H109.618V25.8931H114.587V27.7346H107.336V16.6635H114.611Z" fill="white"/>
<path d="M166.339 24.0049V27.7594H164.125V16.7459C165.988 16.7459 167.791 16.5728 169.548 16.7927C171.489 17.0373 172.56 18.549 172.522 20.4345C172.484 22.1799 171.422 23.4085 169.519 23.7328C168.554 23.9169 167.553 23.9142 166.339 24.0049ZM166.41 22.0534C167.762 21.8308 169.202 22.5372 169.965 21.1052C170.216 20.6352 170.105 19.6759 169.778 19.2251C168.927 18.057 167.632 18.527 166.41 18.5655V22.0534Z" fill="white"/>
<path d="M152.636 27.8694C154.028 24.0819 155.293 20.5747 156.618 17.0868C156.888 16.3611 158.729 16.3007 159.005 17.0153C160.357 20.5362 161.638 24.0873 162.966 27.6907C161.503 27.9655 160.319 28.0837 160.027 26.2532C159.981 25.9783 159.438 25.6458 159.081 25.5826C158.47 25.4699 157.818 25.6128 157.188 25.5331C156.164 25.4012 155.599 25.7502 155.399 26.8222C155.101 28.4905 153.825 27.611 152.636 27.8694ZM157.821 19.5248C157.321 21.0804 156.931 22.2926 156.534 23.5349H159.154C158.713 22.2101 158.324 21.0337 157.821 19.5248Z" fill="white"/>
<path d="M126.728 18.4968V21.1299H130.905V22.9714H126.728V25.8876H131.695V27.7429H124.487V16.6855H131.692C131.716 17.2077 131.741 17.7327 131.776 18.4968H126.728Z" fill="white"/>
<path d="M70.0828 24.1863C69.8882 26.3192 68.7717 27.5423 66.7901 27.9518C64.7544 28.3696 62.7646 27.6055 61.9239 25.8657C61.3507 24.7447 61.0537 23.4989 61.0584 22.2355C61.0631 20.9721 61.3692 19.7288 61.9508 18.6122C62.7997 16.9219 64.8544 16.1386 66.8468 16.5838C68.8393 17.0291 69.9099 18.2687 70.0667 20.3081C69.034 20.4401 68.0283 20.8578 67.4984 19.2994C67.347 18.8459 66.3033 18.4281 65.714 18.4748C65.0733 18.538 64.0081 19.1125 63.9567 19.5742C63.7544 21.3554 63.7483 23.154 63.938 24.9366C63.9839 25.3819 64.968 26.0058 65.5601 26.0361C66.2062 26.0745 67.3091 25.6897 67.4794 25.2115C68.012 23.7355 69.0095 24.1698 70.0828 24.1863Z" fill="white"/>
<path d="M100.337 18.5106H97.031V16.6937H105.879C105.901 17.205 105.925 17.7602 105.955 18.4474H102.619V27.7374H100.337V18.5106Z" fill="white"/>
<path d="M118.207 25.9371H123.016V27.7374H116.107V16.6663H118.204L118.207 25.9371Z" fill="white"/>
<path d="M82.6187 16.6498H84.6598V27.7401H82.6187V16.6498Z" fill="white"/>
</g>
<defs>
<clipPath id="clip0_908_18766">
<rect width="182.562" height="47.5581" fill="white" transform="translate(0.420105 0.884094)"/>
</clipPath>
</defs>
</svg>
