<svg width="157" height="30" viewBox="0 0 157 30" fill="none" xmlns="http://www.w3.org/2000/svg">
<g clip-path="url(#clip0_908_18720)">
<path d="M4.25654 0.0888824C5.26694 0.14246 6.2244 0.539608 6.95715 1.20905C8.80049 2.85633 10.7497 2.93321 12.5973 1.25299C14.1143 -0.127978 16.2883 0.00240584 17.5191 0.84938C17.657 0.938749 17.7885 1.03691 17.9127 1.14316C19.7946 2.86182 21.6938 2.87006 23.6903 1.28044C24.2968 0.812311 25.0025 0.476851 25.7582 0.29754C27.3569 -0.0813333 29.1186 0.916665 29.8041 2.45C30.1509 3.23529 30.2091 4.11032 29.9691 4.93147C29.729 5.75263 29.2051 6.47112 28.4833 6.96902C27.8067 7.42916 26.9874 7.65541 26.1593 7.61078C25.3312 7.56614 24.5434 7.25325 23.9249 6.72329C23.7818 6.59975 23.6559 6.46384 23.52 6.3348C21.9643 4.86323 19.849 4.82482 18.289 6.28403C17.4017 7.1159 16.4085 7.54419 15.1548 7.51124C14.1873 7.4879 13.3387 7.17628 12.7218 6.53934C11.2048 4.98815 8.92781 5.00191 7.51382 6.19207C5.75636 7.67324 5.45869 9.71723 6.73528 11.5361C7.28628 12.3199 8.04193 12.9816 8.16644 14.0194C8.31958 15.2754 8.0448 16.353 7.13745 17.3043C5.41147 19.1081 5.59322 21.5927 7.52815 23.111C9.10243 24.3464 11.0932 24.2311 12.7791 22.7719C13.8854 21.811 15.1405 21.4966 16.5488 21.8974C18.1932 22.3669 19.019 23.531 19.2479 25.1124C19.4497 26.5139 18.6325 28.0267 17.2858 28.7337C15.8547 29.4859 14.4507 29.3898 13.124 28.4756C12.8803 28.2916 12.6485 28.0935 12.4299 27.8826C10.9386 26.5634 8.80188 26.4933 7.42081 27.9045C5.76639 29.5875 1.86362 29.5422 0.625668 26.4041C0.244979 25.4432 0.482569 24.5084 1.00065 23.6463C1.24419 23.2534 1.51933 22.8794 1.82357 22.5275C3.32485 20.7663 3.34918 18.9941 1.79065 17.2659C0.562716 15.9055 0.342292 14.4298 1.04929 12.8114C1.20958 12.4435 1.50581 12.125 1.78059 11.8106C3.30191 10.0865 3.22463 8.0631 1.56305 6.46661C-0.154342 4.81934 0.318008 1.75401 2.49051 0.681911C3.03149 0.411483 3.66117 0.28381 4.25654 0.0888824Z" fill="white"/>
<path d="M109.616 22.857H107.018V20.9352C106.899 21.0066 106.786 21.087 106.68 21.1754C103.437 24.6333 97.1146 23.6957 95.1153 19.4114C93.7113 16.4024 94.0061 13.4936 96.0283 10.7907C98.271 7.79267 104.329 7.39458 106.65 10.4805C106.686 10.5271 106.753 10.5505 106.887 10.6369V0.211075H109.606L109.616 22.857ZM102.174 10.7564C99.2412 10.7564 97.3264 12.7564 97.3292 15.8217C97.3292 18.7896 99.2856 20.7553 102.231 20.7567C105.093 20.7567 107.008 18.7237 107.007 15.6927C107.001 12.7482 105.055 10.7591 102.171 10.7564H102.174Z" fill="white"/>
<path d="M126.637 16.6728H114.733C114.944 18.3531 115.735 19.5556 117.297 20.1953C119.853 21.2468 122.045 20.7073 123.837 18.5727L125.984 20.1692C125.234 21.1652 124.213 21.9441 123.033 22.4205C121.092 23.2412 118.91 23.3707 116.879 22.7856C113.752 21.8933 112.269 19.6627 111.803 16.6934C111.254 13.193 113.476 9.62114 116.852 8.62454C118.603 8.10839 120.394 8.0631 122.121 8.66435C125.102 9.70214 126.345 11.9726 126.628 14.8416C126.685 15.4099 126.637 15.9837 126.637 16.6728ZM123.59 14.2417C123.653 11.8765 121.696 10.1373 119.174 10.2293C116.83 10.3157 114.669 12.3103 114.854 14.2417H123.59Z" fill="white"/>
<path d="M155.258 8.9581L148.911 15.4223L156.14 22.835C154.746 22.835 153.502 22.8529 152.261 22.8158C152.08 22.8158 151.888 22.5591 151.733 22.3944C149.852 20.3883 147.973 18.3805 146.097 16.3708C145.927 16.1896 145.748 16.0153 145.463 15.7257V22.798H142.718V0.780746H145.438V14.8608C145.734 14.6014 145.909 14.46 146.07 14.3117C147.799 12.6713 149.512 11.0172 151.264 9.40012C151.554 9.15459 151.92 9.00703 152.306 8.98005C153.298 8.91828 154.295 8.9581 155.258 8.9581Z" fill="white"/>
<path d="M68.9779 15.7202C68.9664 19.8795 65.5432 23.1206 61.1667 23.111C56.8618 23.1014 53.477 19.778 53.5014 15.5843C53.5242 11.4661 56.9476 8.25801 61.3083 8.26625C65.5875 8.27174 68.9879 11.58 68.9779 15.7202ZM65.9882 15.5664C65.9625 12.7029 64.0819 10.8813 61.178 10.8991C58.33 10.9197 56.4782 12.8457 56.4882 15.7723C56.4996 18.666 58.3974 20.5055 61.3356 20.4698C64.175 20.441 66.014 18.4986 65.9882 15.5664Z" fill="white"/>
<path d="M82.0344 23.2125H79.3237V9.07343H81.834V11.0391C81.9456 11.0021 82.0358 10.998 82.053 10.9637C82.863 9.21756 85.8713 8.24152 88.207 8.83866C90.3952 9.39736 91.9279 11.1984 91.9837 13.543C92.0653 16.6742 92.0053 19.8095 92.0025 22.9421C92.0025 22.9833 91.9695 23.0231 91.9323 23.1068H89.2775V22.3367C89.2775 19.9344 89.2932 17.5322 89.2675 15.1313C89.2774 14.5152 89.1959 13.901 89.0256 13.3069C88.5361 11.7873 87.4828 11.1847 85.6653 11.2725C83.925 11.3576 82.6598 12.3199 82.3149 13.937C82.1463 14.7431 82.0567 15.5625 82.0473 16.3846C82.0101 18.3956 82.0344 20.4094 82.0344 22.4246V23.2125Z" fill="white"/>
<path d="M128.507 20.7801L130.572 19.152C130.983 19.4622 131.371 19.7601 131.764 20.0511C132.881 20.8748 134.137 20.9407 135.43 20.6002C135.837 20.4751 136.209 20.2629 136.519 19.9797C137.158 19.4307 137.148 18.5027 136.459 18.0085C135.959 17.6644 135.406 17.3984 134.82 17.2205C133.92 16.9336 132.968 16.7923 132.068 16.504C130.473 15.992 129.281 15.0819 129.154 13.3303C129.027 11.5787 129.691 10.243 131.367 9.45092C133.772 8.31293 136.139 8.37468 138.434 9.73918C138.916 10.0247 139.35 10.3871 139.905 10.7852L137.651 12.3089C136.716 11.8669 135.956 11.3233 135.116 11.1668C134.401 11.0296 133.552 11.2259 132.859 11.5018C131.857 11.9012 131.763 13.0941 132.693 13.6336C133.447 14.0715 134.339 14.2939 135.179 14.5945C136.244 14.9665 137.409 15.1669 138.366 15.7078C139.725 16.4738 140.274 17.7834 140.084 19.2989C139.871 20.9462 138.823 22.0443 137.276 22.6552C135.238 23.4569 133.141 23.4678 131.065 22.754C130.008 22.3875 129.177 21.7149 128.507 20.7801Z" fill="white"/>
<path d="M52.4982 21.0752C50.0251 23.8893 44.4121 24.006 41.421 21.3168C38.4298 18.6276 38.4313 13.3838 41.421 10.6095C44.3148 7.92581 49.975 8.04522 52.6255 10.9032L50.6792 12.4846C49.6774 12.0193 48.8187 11.4304 47.8641 11.2053C44.8744 10.4997 42.4257 12.4407 42.2182 15.5403C42.1437 16.6701 42.3728 17.7367 43.0154 18.6798C44.561 20.9626 47.8698 21.3854 50.0795 19.6009C50.2426 19.4636 50.3972 19.3263 50.5446 19.2028L52.4982 21.0752Z" fill="white"/>
<path d="M74.9087 23.3566H72.1108V9.11732H74.9087V23.3566Z" fill="white"/>
<path d="M75.4153 3.9037C75.4009 5.02522 74.4593 5.96281 73.3515 5.94634C72.2438 5.92987 71.3607 4.97171 71.3922 3.82548C71.4237 2.70396 72.3798 1.78971 73.4903 1.81853C74.5637 1.84736 75.4296 2.78081 75.4153 3.9037Z" fill="white"/>
<path d="M16.825 14.9981C16.8164 15.3896 16.6483 15.7622 16.3567 16.0363C16.0652 16.3103 15.6733 16.4639 15.2651 16.4642C14.8692 16.4476 14.4947 16.2874 14.2173 16.016C13.9399 15.7445 13.7804 15.3822 13.7709 15.0022C13.7792 14.6103 13.9473 14.2371 14.2392 13.9627C14.5311 13.6883 14.9236 13.5347 15.3324 13.5348C15.7282 13.5517 16.1025 13.7123 16.3797 13.984C16.6568 14.2556 16.816 14.6181 16.825 14.9981Z" fill="white"/>
<path d="M27.9881 15.0366C27.9695 15.4277 27.7919 15.7964 27.4934 16.0635C27.1948 16.3306 26.7991 16.4749 26.3909 16.4656C25.9957 16.4395 25.6254 16.2705 25.355 15.9928C25.0846 15.7151 24.9341 15.3493 24.934 14.9693C24.9526 14.5777 25.1304 14.2087 25.4292 13.9413C25.728 13.674 26.1241 13.5295 26.5326 13.5389C26.9279 13.565 27.2982 13.7342 27.5684 14.0123C27.8386 14.2903 27.9887 14.6564 27.9881 15.0366Z" fill="white"/>
<path d="M27.9881 25.8427C27.9795 26.2341 27.8114 26.6068 27.5198 26.8808C27.2282 27.1549 26.8363 27.3085 26.4281 27.3087C26.0322 27.2921 25.6577 27.1319 25.3803 26.8605C25.1029 26.5891 24.9434 26.2268 24.934 25.8468C24.9422 25.4548 25.1103 25.0816 25.4023 24.8073C25.6942 24.5329 26.0867 24.3793 26.4954 24.3793C26.8913 24.3963 27.2656 24.5569 27.5427 24.8285C27.8198 25.1002 27.9791 25.4627 27.9881 25.8427Z" fill="white"/>
</g>
<defs>
<clipPath id="clip0_908_18720">
<rect width="155.715" height="29.1485" fill="white" transform="translate(0.425354 0.0888977)"/>
</clipPath>
</defs>
</svg>
