<svg width="181" height="24" viewBox="0 0 181 24" fill="none" xmlns="http://www.w3.org/2000/svg">
<g clip-path="url(#clip0_908_18734)">
<path d="M45.7625 13.0318C45.7625 14.6004 45.7232 16.0278 45.7784 17.4503C45.813 18.3675 45.2973 18.4274 44.6825 18.3579C44.1184 18.2957 43.271 18.7196 43.2756 17.5437C43.2895 13.5563 43.2895 9.5689 43.3033 5.56952C43.3289 5.43551 43.374 5.30629 43.4369 5.18633H56.0128C56.0644 5.48812 56.099 5.7928 56.1165 6.09877C56.1165 9.80838 56.0842 13.5228 56.1464 17.2252C56.1625 18.2885 55.686 18.3867 54.8962 18.3723C54.1433 18.358 53.5309 18.3723 53.6115 17.2635C53.683 16.1471 53.683 15.0271 53.6115 13.9107C53.593 13.6042 53.2959 13.0606 53.1186 13.0558C50.7033 13.0127 48.2998 13.0318 45.7625 13.0318ZM53.5215 10.3759V7.78475H45.836V10.3759H53.5215Z" fill="white"/>
<path d="M152.078 5.20071H164.773V18.2574H152.078V5.20071ZM154.569 7.70571V15.8051C157.019 15.8051 159.383 15.8218 161.748 15.7739C161.951 15.7739 162.314 15.3524 162.319 15.1201C162.363 12.8881 162.367 10.6561 162.319 8.42655C162.319 8.18707 161.902 7.7416 161.672 7.73681C159.342 7.68652 157.012 7.70571 154.569 7.70571Z" fill="white"/>
<path d="M136.598 5.16475H149.165C149.22 5.50646 149.256 5.85106 149.273 6.19694C149.273 9.86344 149.257 13.5299 149.294 17.1988C149.294 18.0586 149.082 18.3962 148.203 18.3962C144.643 18.3555 141.081 18.3819 137.522 18.3795C136.983 18.3795 136.426 18.4585 136.43 17.5772C136.453 13.5922 136.446 9.60481 136.456 5.6198C136.484 5.46227 136.532 5.30925 136.598 5.16475ZM146.688 15.8099V7.79667H138.942C138.942 10.316 138.926 12.7444 138.97 15.1728C138.97 15.3883 139.375 15.7787 139.596 15.7835C141.919 15.8266 144.252 15.8099 146.679 15.8099H146.688Z" fill="white"/>
<path d="M89.9233 5.19112H102.587V7.64103H92.456V10.4406C93.6993 10.4406 94.9242 10.5364 96.1284 10.4143C97.3326 10.2921 97.7401 10.7783 97.549 11.9517C97.5029 12.2607 97.4914 12.5744 97.4546 13.0126H92.4328V15.7835H102.635V18.2741H89.9278L89.9233 5.19112Z" fill="white"/>
<path d="M118.227 12.8929C117.267 13.0102 116.263 12.833 115.846 13.2665C115.43 13.7 115.616 14.7417 115.522 15.6015H113.153V13.1108H107.875C107.875 14.4903 107.813 15.8386 107.894 17.1821C107.961 18.2909 107.413 18.3794 106.57 18.3938C105.727 18.4082 105.352 18.1544 105.363 17.1749C105.409 13.5443 105.403 9.91373 105.363 6.28316C105.363 5.41862 105.582 5.10007 106.464 5.11205C110.028 5.16234 113.601 5.15276 117.156 5.11205C117.93 5.11205 118.255 5.30607 118.236 6.17061C118.197 8.39781 118.227 10.6226 118.227 12.8929ZM107.942 10.3304H115.609V7.79665H107.942V10.3304Z" fill="white"/>
<path d="M38.0331 5.18872H40.492C40.515 5.62458 40.5565 6.04609 40.5565 6.46759C40.5565 9.86187 40.5565 13.2562 40.5565 16.6504C40.5565 18.4825 40.5565 18.4849 38.7537 18.3555C38.5325 18.3249 38.3135 18.2801 38.0976 18.2214V13.0126H33.9093C32.9884 13.0126 32.0674 13.0438 31.1464 13.0126C30.4557 12.9815 30.184 13.2378 30.2047 13.9706C30.2439 15.362 30.2047 16.7534 30.2047 18.1113C30.0159 18.219 29.9216 18.3101 29.8203 18.322C27.7273 18.5759 27.7042 18.5615 27.7042 16.3846V5.2079H30.1425V10.3424H38.0308L38.0331 5.18872Z" fill="white"/>
<path d="M123.474 18.2957H121.015V5.21744H133.679V18.2717H131.271V14.555C131.271 12.6008 131.301 10.6441 131.241 8.69235C131.241 8.35707 130.842 7.75598 130.616 7.7488C128.284 7.67935 125.952 7.7081 123.479 7.7081L123.474 18.2957Z" fill="white"/>
<path d="M167.569 5.19112H180.264C180.29 5.62458 180.336 6.04369 180.338 6.46279C180.338 9.85707 180.338 13.2506 180.338 16.6432C180.338 18.4777 180.338 18.4801 178.535 18.3555C178.302 18.3235 178.072 18.2771 177.844 18.2166V7.78235H170.016V18.2574H167.566L167.569 5.19112Z" fill="white"/>
<path d="M71.568 15.8194V18.2693H58.861V5.2462H71.5613V7.64104C71.1722 7.6602 70.7669 7.69372 70.364 7.69372C67.6816 7.69372 64.9993 7.72246 62.3054 7.69372C61.5203 7.68174 61.2209 7.91404 61.2439 8.7714C61.2946 10.7639 61.2946 12.7596 61.2439 14.7585C61.2209 15.6182 61.534 15.8529 62.3099 15.8434C64.9531 15.8074 67.6056 15.8434 70.2419 15.8434L71.568 15.8194Z" fill="white"/>
<path d="M16.1805 5.26777H12.6464C12.5842 4.63075 12.5311 4.0919 12.4712 3.46445H10.696V12.5648H8.98538V3.46445H7.18727L7.01212 5.30607H3.46649L3.50786 5.34676V0.176346H16.1436V5.32765L16.1805 5.26777Z" fill="white"/>
<path d="M16.1805 18.3196V23.1692H3.46649V18.3148L3.43411 18.3531H7.03528L7.16636 20.0295H12.462L12.6254 18.3675H16.2082L16.1805 18.3196Z" fill="white"/>
<path d="M81.9131 10.2945V12.9887H76.8338C76.8338 14.6052 76.797 16.0325 76.8477 17.4575C76.8776 18.3723 76.3548 18.4154 75.7401 18.3579C75.1714 18.2981 74.3242 18.7028 74.3265 17.5413C74.3265 13.5898 74.3326 9.63995 74.3449 5.69166C74.368 5.52176 74.4105 5.35532 74.4715 5.19591H76.7993V10.3256H81.9475L81.9131 10.2945Z" fill="white"/>
<path d="M18.0571 8.86956L19.5168 9.08992L19.7471 10.8046L21.3588 10.9267V12.56L19.7471 12.7421L19.5652 14.3729H18.1099V8.83846L18.0571 8.86956Z" fill="white"/>
<path d="M1.57373 14.3849H0.0796127V9.07794H1.57373V14.3849Z" fill="white"/>
<path d="M84.7727 5.18393H87.0958V7.61227H84.7704L84.7727 5.18393Z" fill="white"/>
<path d="M18.087 8.83845H16.1805V5.25818L16.1436 5.29887H17.7554C17.8682 6.56574 17.9672 7.71529 18.0708 8.86242L18.087 8.83845Z" fill="white"/>
<path d="M81.9475 10.3256C82.0007 10.1385 82.0385 9.94707 82.0603 9.75329C82.1501 7.55243 82.1478 7.55241 84.4709 7.93558V10.2969H81.9153L81.9475 10.3256Z" fill="white"/>
<path d="M84.4826 15.6183H82.1593V13.1971H84.4826V15.6183Z" fill="white"/>
<path d="M16.2012 18.3579V14.6555L17.7623 14.5837V18.0969L16.1691 18.3172L16.2012 18.3579Z" fill="white"/>
<path d="M87.3261 15.6829C87.1373 16.763 87.2132 17.7161 86.7919 18.231C86.5248 18.5591 85.277 18.4945 84.9155 18.128C84.5541 17.7616 84.5033 16.4229 84.8049 16.1906C85.3506 15.7835 86.2532 15.8601 87.3261 15.6829Z" fill="white"/>
<path d="M115.948 15.7044C116.684 15.8529 117.589 15.7907 118.101 16.229C118.398 16.4852 118.299 17.7425 117.949 18.1663C117.663 18.5112 116.431 18.5711 116.173 18.2574C115.743 17.7401 115.759 16.8204 115.586 16.0756L115.948 15.7044Z" fill="white"/>
<path d="M3.46177 5.2869V8.81449H1.88468V5.33004H3.49639L3.46177 5.2869Z" fill="white"/>
<path d="M3.45737 18.3148C1.77198 18.0275 1.77192 18.0275 1.78112 16.0445C1.78112 14.4735 1.83647 14.4328 3.42746 14.7274V18.3507L3.45737 18.3148Z" fill="white"/>
</g>
<defs>
<clipPath id="clip0_908_18734">
<rect width="180.261" height="23.012" fill="white" transform="translate(0.0795288 0.157166)"/>
</clipPath>
</defs>
</svg>
