<svg width="70" height="94" viewBox="0 0 70 94" fill="none" xmlns="http://www.w3.org/2000/svg">
<path d="M55.8619 24.4347C55.8619 24.2818 55.8619 24.1289 55.8619 23.976L59.2656 23.3673L58.1703 17.0209L54.7665 17.6297C53.8838 14.9983 52.4982 12.5695 50.6892 10.4827L52.9045 7.78353L48.0439 3.64158L45.8177 6.33524C43.4784 4.88847 40.8798 3.92666 38.1722 3.50537V0H31.8275V3.50537C29.1189 3.92609 26.5194 4.88793 24.1794 6.33524L21.9558 3.64436L17.0953 7.78353L19.3216 10.48C17.514 12.5684 16.1294 14.9979 15.2469 17.6297L11.8432 17.0209L10.7478 23.3673L14.1516 23.976C14.0905 26.7562 14.5707 29.5213 15.5646 32.1126L12.5716 33.8667L15.7371 39.4458L18.7492 37.6862C20.4641 39.8519 22.5794 41.6565 24.9762 42.9984L23.7933 46.2981L29.7546 48.5025L30.943 45.2056C33.6307 45.7449 36.3964 45.7449 39.0841 45.2056L40.2534 48.5025L46.2175 46.3009L45.0318 42.9957C47.4295 41.6563 49.5452 39.8524 51.2587 37.6862L54.2709 39.4458L57.4419 33.8667L54.4516 32.1126C55.3887 29.6648 55.867 27.0608 55.8619 24.4347ZM35.0012 39.1678C31.1535 39.1634 27.4645 37.6098 24.7437 34.8477C22.0229 32.0857 20.4924 28.3408 20.4881 24.4347C21.2877 4.88972 48.7203 4.89528 49.5144 24.4347C49.5108 28.3415 47.9802 32.0872 45.2586 34.8495C42.5371 37.6118 38.847 39.1649 34.9985 39.1678H35.0012Z" fill="white"/>
<path d="M0.821377 79.8701L12.7632 67.1996C13.2109 66.7244 13.8013 66.4135 14.4418 66.3156L44.4266 61.7261C45.9628 61.501 47.2252 62.4405 47.729 63.8916C47.8918 64.2582 47.9796 64.6546 47.987 65.0567C47.9944 65.4588 47.9212 65.8582 47.7719 66.2307C47.6226 66.6033 47.4003 66.9411 47.1185 67.2238C46.8367 67.5064 46.5013 67.728 46.1326 67.8751L33.591 72.8788L46.0285 74.8803C46.5856 74.9694 47.1561 74.8932 47.6715 74.6607L65.8924 66.4518C66.5611 66.1453 67.3188 66.1049 68.0155 66.3386C68.7122 66.5723 69.297 67.063 69.6541 67.7137C70.0113 68.3644 70.1147 69.1274 69.9439 69.8518C69.7732 70.5762 69.3406 71.2091 68.732 71.6251L48.6874 85.4603C48.2023 85.7934 47.6301 85.9715 47.0444 85.9718H24.0561C23.4063 85.9716 22.775 86.1918 22.2625 86.5973L13.6477 93.3773C13.0834 93.8215 12.3786 94.041 11.6659 93.9944C10.9533 93.9478 10.282 93.6383 9.77846 93.1243L0.851499 84.0204C0.314053 83.4694 0.0100713 82.7269 0.00444356 81.9515C-0.00118421 81.176 0.291987 80.4291 0.821377 79.8701Z" fill="white"/>
</svg>
