<svg width="16" height="16" viewBox="0 0 16 16" fill="none" xmlns="http://www.w3.org/2000/svg">
<path fill-rule="evenodd" clip-rule="evenodd" d="M3.8 2.86842C3.8 3.62418 3.1732 4.23684 2.4 4.23684C1.6268 4.23684 1 3.62418 1 2.86842C1 2.11266 1.6268 1.5 2.4 1.5C3.1732 1.5 3.8 2.11266 3.8 2.86842ZM10.7999 5.60522C11.9139 5.60522 12.9821 6.03774 13.7698 6.80763C14.5574 7.57751 14.9999 8.6217 14.9999 9.71049V14.5H12.1999V9.71049C12.1999 9.34756 12.0524 8.9995 11.7899 8.74287C11.5273 8.48624 11.1712 8.34207 10.7999 8.34207C10.4286 8.34207 10.0725 8.48624 9.81 8.74287C9.54745 8.9995 9.39995 9.34756 9.39995 9.71049V14.5H6.59995V9.71049C6.59995 8.6217 7.04245 7.57751 7.8301 6.80763C8.61775 6.03774 9.68604 5.60522 10.7999 5.60522ZM3.8 14.5V6.28951H1V14.5H3.8Z" fill="#B7BECB"/>
</svg>
