<svg width="21" height="17" viewBox="0 0 21 17" fill="none" xmlns="http://www.w3.org/2000/svg">
<path d="M19.6387 0.802612H1.06731C0.672224 0.802612 0.353027 1.12761 0.353027 1.52989V16.0753C0.353027 16.4776 0.672224 16.8026 1.06731 16.8026H19.6387C20.0338 16.8026 20.353 16.4776 20.353 16.0753V1.52989C20.353 1.12761 20.0338 0.802612 19.6387 0.802612ZM17.8352 3.27761L10.7928 8.85716C10.6187 8.9958 10.3753 8.9958 10.2012 8.85716L3.1566 3.27761C3.13004 3.25675 3.11057 3.22794 3.1009 3.19524C3.09123 3.16253 3.09185 3.12757 3.10268 3.09524C3.11351 3.06292 3.134 3.03485 3.16128 3.01498C3.18856 2.99511 3.22127 2.98443 3.25481 2.98443H17.737C17.7705 2.98443 17.8032 2.99511 17.8305 3.01498C17.8578 3.03485 17.8783 3.06292 17.8891 3.09524C17.8999 3.12757 17.9005 3.16253 17.8909 3.19524C17.8812 3.22794 17.8617 3.25675 17.8352 3.27761Z" fill="white"/>
</svg>
