<svg width="25" height="28" viewBox="0 0 25 28" fill="none" xmlns="http://www.w3.org/2000/svg">
<path d="M11.3 1.00003C11.5 1.00003 11.6 1.10003 11.8 1.20003C10.6 1.70003 9.4 3.00003 8.8 5.80003L6.6 6.40003C7.3 4.40003 8.7 1.00003 11.3 1.00003ZM12.4 2.00003C12.6 2.60003 12.8 3.30003 12.8 4.40003C12.8 4.50003 12.8 4.50003 12.8 4.60003L9.9 5.40003C10.5 3.30003 11.5 2.40003 12.4 2.00003ZM15 3.80003L13.7 4.20003C13.7 4.10003 13.7 4.00003 13.7 3.90003C13.7 3.00003 13.6 2.30003 13.4 1.70003C14.1 1.90003 14.7 2.80003 15 3.80003ZM21.5 5.40003C21.5 5.30003 21.4 5.20003 21.3 5.20003C21.1 5.20003 19 5.00003 19 5.00003C19 5.00003 17.5 3.50003 17.3 3.40003C17.1 3.20003 16.8 3.30003 16.7 3.30003C16.7 3.30003 16.4 3.40003 15.9 3.60003C15.4 2.20003 14.5 0.900028 13 0.900028H12.9C12.5 0.300028 11.9 0.100028 11.4 0.100028C7.8 2.79447e-05 6.1 4.50003 5.5 6.80003C4.7 7.00003 3.9 7.30003 3 7.60003C2.2 7.80003 2.2 7.90003 2.1 8.60003C2 9.10003 0 24.9 0 24.9L15.9 27.9L24.5 26C24.5 26 21.5 5.60003 21.5 5.40003Z" fill="#FFFFFE"/>
<path d="M21.2 5.20005C21.1 5.20005 19 5.00005 19 5.00005C19 5.00005 17.5 3.50005 17.3 3.40005C17.2 3.30005 17.2 3.30005 17.1 3.30005L15.9 27.9L24.5 26C24.5 26 21.5 5.60005 21.5 5.40005C21.5 5.30005 21.3 5.20005 21.2 5.20005Z" fill="#CECECE"/>
<path d="M13 10.0001L11.9 13.2001C11.9 13.2001 11 12.7001 9.8 12.7001C8.1 12.7001 8 13.7001 8 14.0001C8 15.4001 11.8 16.0001 11.8 19.4001C11.8 22.1001 10.1 23.8001 7.8 23.8001C5.1 23.8001 3.7 22.1001 3.7 22.1001L4.4 19.7001C4.4 19.7001 5.8 20.9001 7 20.9001C7.8 20.9001 8.1 20.3001 8.1 19.8001C8.1 17.9001 5 17.8001 5 14.7001C5 12.1001 6.9 9.60014 10.6 9.60014C12.3 9.50014 13 10.0001 13 10.0001Z" fill="#CECECE"/>
</svg>
