<svg width="22" height="22" viewBox="0 0 22 22" fill="none" xmlns="http://www.w3.org/2000/svg">
<g clip-path="url(#clip0_504_2)">
<path d="M11 0C4.92467 0 0 4.92467 0 11C0 17.0753 4.92467 22 11 22C17.0753 22 22 17.0753 22 11C22 4.92542 17.0753 0.000750597 11 0ZM16.0448 15.8646C15.8474 16.1889 15.4248 16.2902 15.102 16.0928C12.5192 14.5143 9.26762 14.1578 5.43883 15.0322C5.06953 15.117 4.70174 14.8858 4.61767 14.5165C4.53286 14.1473 4.76329 13.7795 5.13333 13.6954C9.32317 12.7384 12.9178 13.1505 15.8173 14.9219C16.1401 15.1208 16.2429 15.5419 16.0448 15.8646ZM17.3906 12.8705C17.1421 13.2743 16.6137 13.4004 16.2106 13.1527C13.2548 11.3355 8.74671 10.8093 5.24968 11.8707C4.79632 12.0081 4.31743 11.7521 4.17932 11.2995C4.04272 10.8461 4.29867 10.368 4.75128 10.2299C8.74596 9.01767 13.7127 9.60464 17.1076 11.6913C17.5114 11.9397 17.639 12.4674 17.3906 12.8705ZM17.5062 9.75101C13.9604 7.64558 8.1117 7.45193 4.72651 8.47874C4.18308 8.64388 3.60812 8.33688 3.44374 7.79345C3.27936 7.25002 3.5856 6.67506 4.12979 6.50993C8.01563 5.33074 14.4745 5.55817 18.5563 7.9811C19.0449 8.27158 19.2055 8.90283 18.9158 9.39072C18.6268 9.88011 17.9941 10.0415 17.5062 9.75101Z" fill="white"/>
</g>
<defs>
<clipPath id="clip0_504_2">
<rect width="22" height="22" fill="white"/>
</clipPath>
</defs>
</svg>
