<svg width="101" height="32" viewBox="0 0 101 32" fill="none" xmlns="http://www.w3.org/2000/svg">
<g clip-path="url(#clip0_908_18781)">
<path d="M76.7747 30.9614C75.5867 30.9273 74.4295 30.8866 73.2718 30.8632C72.1142 30.8399 70.9669 30.8122 69.8152 30.8284C68.6635 30.8446 67.5011 30.9119 66.3253 30.9578V30.2295L69.1073 30.0209C69.0678 29.5915 69.0354 29.1858 68.986 28.7825C68.5742 25.4059 67.9189 22.0704 67.2739 18.7334C66.7875 16.2119 66.2968 13.6909 65.802 11.1704C65.7684 10.9974 65.7269 10.8264 65.6763 10.5965C65.5878 10.8015 65.5222 10.9499 65.459 11.0996C62.8531 17.2672 60.2476 23.4353 57.6425 29.6038C57.4738 30.0039 57.3066 30.4053 57.1497 30.8106C57.1042 30.9269 57.0481 30.974 56.9212 30.9689C56.5327 30.9578 56.1438 30.9523 55.7557 30.9582C55.6059 30.9606 55.5399 30.9016 55.4834 30.7674C54.0134 27.2501 52.5405 23.7337 51.0648 20.2185C49.7473 17.0729 48.4288 13.9274 47.1093 10.7821C47.0801 10.7121 47.0473 10.6428 46.9998 10.5375C45.6651 17.0287 44.3957 23.4858 43.4123 30.0384L46.0635 30.2311C46.0635 30.4136 46.0706 30.6166 46.0572 30.8177C46.0548 30.8541 45.9714 30.9115 45.9232 30.9139C45.6999 30.9242 45.4758 30.9238 45.2513 30.9182C44.0467 30.887 42.8404 30.8331 41.6378 30.828C40.822 30.8244 40.0059 30.8909 39.1901 30.9202C38.9154 30.9301 38.6404 30.9202 38.3443 30.9202C38.3443 30.6875 38.336 30.4908 38.351 30.2956C38.3542 30.2561 38.4451 30.1999 38.4997 30.1947C38.9976 30.1488 39.4968 30.1155 39.9956 30.0724C40.2723 30.0494 40.5454 30.0126 40.8208 29.9932C40.943 29.9837 40.9651 29.9141 40.9841 29.8135C41.3508 27.8741 41.7239 25.9319 42.0907 23.9901C42.6958 20.7734 43.3048 17.5575 43.8949 14.338C44.4395 11.3643 44.9822 8.39028 45.4837 5.40908C45.7319 3.93511 45.8865 2.4457 46.0833 0.963021C46.1102 0.761557 46.137 0.560093 46.1691 0.323402C46.622 0.323402 47.0678 0.327756 47.5128 0.323402C47.9349 0.317861 47.9341 0.313507 48.0764 0.719206C48.857 2.94283 49.6024 5.17991 50.4308 7.38533C51.09 9.14112 51.8461 10.8605 52.5682 12.5925C54.1694 16.4324 55.7736 20.2712 57.3809 24.1092C57.4125 24.1856 57.4493 24.2596 57.5022 24.376C57.5536 24.2691 57.5876 24.2018 57.6184 24.1334C60.9755 16.6713 64.0057 9.07977 66.6296 1.32795C66.7245 1.04733 66.8272 0.769077 66.9182 0.487265C66.9537 0.37644 67.0067 0.328943 67.128 0.33211C67.5954 0.33897 68.0631 0.33897 68.5311 0.33211C68.6611 0.33211 68.6998 0.385939 68.716 0.502305C68.9386 2.10769 69.1449 3.71584 69.3939 5.31686C69.6681 7.08056 69.9643 8.8407 70.2823 10.5973C70.7218 13.041 71.1759 15.4818 71.6447 17.9196C72.2075 20.8561 72.7908 23.7886 73.3639 26.7227C73.5663 27.757 73.7742 28.7896 73.9722 29.8246C73.9963 29.9505 74.0386 30.0016 74.1698 30.0111C74.9638 30.0692 75.7574 30.1421 76.5518 30.1923C76.7344 30.2042 76.7933 30.2576 76.7775 30.435C76.7637 30.5913 76.7747 30.7496 76.7747 30.9614Z" fill="white"/>
<path d="M77.5882 30.9455V30.2461C77.9561 30.2283 78.3166 30.22 78.6754 30.1915C79.2197 30.1484 79.7623 30.0878 80.3065 30.0431C80.4322 30.0328 80.4717 29.9881 80.4737 29.8622C80.4836 29.2491 80.516 28.6352 80.5168 28.0229C80.5239 19.7844 80.5287 11.5458 80.531 3.30698C80.531 2.72 80.5128 2.13303 80.5168 1.54605C80.5168 1.38773 80.4587 1.34498 80.3148 1.33232C79.4564 1.25632 78.5988 1.174 77.7407 1.09246C77.7087 1.08929 77.6771 1.08217 77.6293 1.07465V0.364578C77.9 0.364578 78.1747 0.349933 78.447 0.364578C81.9756 0.579103 85.5054 0.42751 89.0347 0.418011C91.8274 0.410491 94.6197 0.385159 97.4136 0.367348L99.9229 0.35112H100.15V6.33725H99.766C99.7221 5.75661 99.6814 5.18586 99.6359 4.6159C99.5893 4.0309 99.5268 3.44709 99.4944 2.8617C99.4822 2.64282 99.385 2.60799 99.2 2.60522C97.4159 2.57751 95.6319 2.52606 93.8474 2.51656C91.1472 2.50271 88.4466 2.51656 85.7453 2.51973H84.9228V14.587C84.992 14.5905 85.0556 14.5961 85.1204 14.5961C87.7945 14.608 90.4686 14.6357 93.1435 14.6226C94.4399 14.6159 95.7362 14.5284 97.0326 14.4837C97.1689 14.4793 97.2163 14.4199 97.2357 14.3C97.3499 13.5915 97.4673 12.8834 97.5827 12.1753C97.5962 12.0914 97.6056 12.0067 97.6183 11.9125H98.0606V19.3093C97.9262 19.3093 97.7942 19.3216 97.6653 19.3026C97.6187 19.2958 97.5551 19.2179 97.5468 19.1656C97.4345 18.3827 97.3306 17.599 97.2235 16.8157C97.2132 16.739 97.1946 16.6634 97.176 16.5676C96.5409 16.5541 95.916 16.528 95.2916 16.528C92.6507 16.5296 90.0098 16.5362 87.3689 16.5478C86.625 16.5517 85.8812 16.5949 85.1374 16.6052C84.9501 16.608 84.8939 16.6578 84.8947 16.849C84.9019 19.428 84.8983 22.0071 84.9034 24.5862C84.9062 25.9517 84.92 27.3172 84.9299 28.6823C84.9299 28.9554 84.9343 28.9594 85.1955 28.9594C89.1797 28.9858 93.1641 29.0102 97.1488 29.0326C97.991 29.0362 98.8332 28.993 99.7122 28.9673C99.8332 27.5978 99.9533 26.2363 100.075 24.8585H100.486L100.388 31.0029C100.001 31.0029 99.6344 31.0057 99.2676 31.0029C96.3824 30.9784 93.4973 30.9586 90.6121 30.9257C88.2407 30.8988 85.8694 30.8311 83.5004 30.8292C81.7614 30.8292 80.0224 30.9044 78.2861 30.9443C78.0589 30.9503 77.83 30.9455 77.5882 30.9455Z" fill="white"/>
<path d="M15.1459 30.0466L18.0872 30.2259V30.9198C16.9513 30.8747 15.8289 30.8121 14.7057 30.7908C13.5737 30.769 12.4406 30.7729 11.3067 30.7939C10.1831 30.8149 9.05982 30.8707 7.91958 30.9127V30.1654L10.6949 30.0019V2.43738H0.458461V6.06927H-0.00119019V5.85593C0.0046065 4.08168 0.00987597 2.30729 0.0146187 0.532775C0.0146187 0.402556 0.0252895 0.330519 0.192076 0.332498C3.49144 0.372079 6.79239 0.423533 10.091 0.43422C13.9575 0.446886 17.8236 0.4267 21.6901 0.411263C22.9414 0.406514 24.1927 0.371683 25.4448 0.351893C25.542 0.351893 25.6389 0.351893 25.7479 0.351893V6.33248H25.3341C25.2725 5.0382 25.2116 3.75659 25.1496 2.45361H15.1376C15.1471 11.6366 15.112 20.8224 15.1459 30.0466Z" fill="white"/>
<path d="M29.8892 1.27768L27.1167 1.04297V0.335273C28.7999 0.378415 30.4824 0.454014 32.1649 0.454014C33.8474 0.454014 35.5189 0.374853 37.2085 0.331711V1.06632L34.2778 1.32755C34.2731 1.40988 34.2656 1.47875 34.2656 1.54801C34.2593 10.9014 34.2531 20.2545 34.247 29.6073C34.247 30.0031 34.247 30.0031 34.6513 30.032C35.4979 30.0918 36.3445 30.1507 37.2061 30.2093V30.9166C36.8871 30.9166 36.5737 30.9277 36.2595 30.9166C35.0952 30.8679 33.9312 30.7725 32.7669 30.7674C31.5168 30.7623 30.2666 30.8466 29.0161 30.8782C28.3861 30.8941 27.7554 30.881 27.1072 30.881V30.1959L29.8892 29.9797V1.27768Z" fill="white"/>
</g>
<defs>
<clipPath id="clip0_908_18781">
<rect width="100.486" height="30.6827" fill="white" transform="translate(0 0.321823)"/>
</clipPath>
</defs>
</svg>
