<svg width="60" height="86" viewBox="0 0 60 86" fill="none" xmlns="http://www.w3.org/2000/svg">
<path d="M56.0216 39.2492H50.3205V20.4967C49.2017 -6.84 10.7903 -6.8245 9.68422 20.4967V26.8484H15.5866V20.4967C16.3792 1.11631 43.6204 1.11631 44.4156 20.4967V39.2492H3.98062C3.45797 39.2489 2.94038 39.353 2.45742 39.5555C1.97447 39.7581 1.53561 40.0552 1.16592 40.4298C0.796236 40.8044 0.502972 41.2492 0.302887 41.7387C0.102802 42.2283 -0.000183213 42.753 -0.000183105 43.283L-0.000183105 81.9637C-0.000183105 83.0342 0.419222 84.0609 1.16577 84.8178C1.91231 85.5748 2.92484 86 3.98062 86H56.0216C57.0769 85.9993 58.0888 85.5738 58.8348 84.8169C59.5808 84.06 59.9998 83.0338 59.9998 81.9637V43.283C59.9998 42.7532 59.8969 42.2287 59.697 41.7393C59.4971 41.2499 59.204 40.8053 58.8346 40.4307C58.4652 40.0561 58.0266 39.759 57.544 39.5563C57.0613 39.3536 56.544 39.2492 56.0216 39.2492ZM21.7056 49.8723H38.6533V53.2316H21.7056V49.8723ZM18.7086 75.3795H12.1359V72.0203H18.7086V75.3795ZM18.7086 67.9943H12.1359V64.635H18.7086V67.9943ZM18.7086 60.6116H12.1359V57.2524H18.7086V60.6116ZM18.7086 53.229H12.1359V49.8723H18.7086V53.229ZM32.7433 75.3795H21.7056V72.0203H32.7433V75.3795ZM40.4653 75.3795H35.6537V72.0203H40.4653V75.3795ZM42.8814 67.9943H21.7056V64.635H42.8814V67.9943ZM47.8637 60.6116H21.7056V57.2524H47.8637V60.6116Z" fill="white"/>
</svg>
