<svg width="22" height="16" viewBox="0 0 22 16" fill="none" xmlns="http://www.w3.org/2000/svg">
	<path d="M21.8414 3.29428C21.7851 2.48155 21.4462 1.71838 20.8886 1.1485C20.3309 0.578617 19.5929 0.241367 18.8137 0.200272C13.6123 -0.0667575 8.40735 -0.0667575 3.19895 0.200272C2.41765 0.238459 1.67685 0.574419 1.11674 1.14458C0.556633 1.71474 0.216059 2.47955 0.159474 3.29428C-0.0531579 6.42659 -0.0531579 9.57069 0.159474 12.703C0.215264 13.5169 0.554458 14.2813 1.113 14.8518C1.67155 15.4223 2.41078 15.7595 3.19111 15.7997C8.39343 16.0668 13.5984 16.0668 18.8059 15.7997C19.5864 15.7601 20.326 15.4231 20.8846 14.8524C21.4433 14.2818 21.7823 13.5171 21.8375 12.703C22.0528 9.57084 22.0541 6.42663 21.8414 3.29428ZM8.44039 11.5586V4.43869L14.3484 8.02452L8.44039 11.5586Z" fill="white" />
</svg>
