<svg width="76" height="69" viewBox="0 0 76 69" fill="none" xmlns="http://www.w3.org/2000/svg">
<path fill-rule="evenodd" clip-rule="evenodd" d="M11.9646 15.9854H9.21226C9.21093 14.2654 8.52915 12.6162 7.31654 11.3997C6.10393 10.1833 4.45957 9.49895 2.74436 9.49695V6.73696C4.45914 6.73497 6.10312 6.05099 7.31566 4.83506C8.52819 3.61913 9.21027 1.97055 9.21226 0.250977H11.9646C11.9672 1.97079 12.6498 3.61936 13.8628 4.83521C15.0757 6.05107 16.7199 6.73497 18.435 6.73696V9.49695C16.7195 9.49895 15.0749 10.1832 13.8619 11.3996C12.6489 12.616 11.9665 14.2652 11.9646 15.9854ZM13.5934 8.11696C12.3735 7.36015 11.3456 6.32941 10.5909 5.10606C9.83535 6.32872 8.80766 7.35929 7.5884 8.11696C8.80698 8.87549 9.83449 9.90587 10.5909 11.1279C11.3465 9.90519 12.3742 8.87463 13.5934 8.11696Z" fill="#E65688"/>
<path fill-rule="evenodd" clip-rule="evenodd" d="M66.4876 10.6437H69.2399C69.2419 12.3637 69.9243 14.0127 71.1373 15.2287C72.3504 16.4447 73.995 17.1284 75.7103 17.1297V19.8897C73.9948 19.8917 72.3502 20.5759 71.1372 21.7923C69.9242 23.0087 69.2419 24.658 69.2399 26.3782H66.4876C66.4856 24.6584 65.8036 23.0096 64.5911 21.7932C63.3787 20.5769 61.7347 19.8924 60.0197 19.8897V17.1297C61.7344 17.1277 63.3784 16.4437 64.591 15.2278C65.8035 14.0119 66.4856 12.3633 66.4876 10.6437ZM64.8612 18.5122C66.08 19.2705 67.1075 20.301 67.8637 21.5231C68.6199 20.301 69.6475 19.2705 70.8662 18.5122C69.6468 17.7548 68.6191 16.7242 67.8637 15.5013C67.1084 16.7242 66.0806 17.7548 64.8612 18.5122Z" fill="#E65688"/>
<path fill-rule="evenodd" clip-rule="evenodd" d="M6.41489 30.089L15.6726 17.7393H49.9988L59.2565 30.089L32.8344 67.0353L6.41489 30.089ZM41.0738 27.8108L46.5534 20.4993H35.5917L41.0738 27.8108ZM26.3415 31.4866L32.8344 58.7328L39.3224 31.4866H26.3415ZM38.3215 28.7266L32.8344 21.4151L27.3549 28.7266H38.3215ZM24.5976 27.8108L30.0821 20.4993H19.118L24.5976 27.8108ZM21.8403 28.7266L16.3607 21.4151L10.8786 28.7266H21.8403ZM23.5092 31.4866H10.7985L29.8645 58.1456L23.5092 31.4866ZM42.1572 31.4866L35.8019 58.1482L54.8678 31.4866H42.1572ZM49.3057 21.4151L43.8261 28.7266H54.7878L49.3057 21.4151Z" fill="#E65688"/>
<path fill-rule="evenodd" clip-rule="evenodd" d="M9.51 52.2995H6.7577C6.75571 54.0191 6.07364 55.6676 4.8611 56.8836C3.64856 58.0995 2.00458 58.7835 0.289795 58.7855V61.5455C2.00481 61.5481 3.64879 62.2327 4.86125 63.449C6.07372 64.6653 6.75571 66.3141 6.7577 68.034H9.51C9.51198 66.3137 10.1943 64.6645 11.4073 63.4481C12.6203 62.2317 14.265 61.5475 15.9804 61.5455V58.7855C14.2654 58.7835 12.6211 58.0996 11.4082 56.8837C10.1953 55.6679 9.51264 54.0193 9.51 52.2995ZM8.13385 63.1789C7.37765 61.9567 6.35009 60.9263 5.13134 60.168C6.35026 59.4099 7.37786 58.3794 8.13385 57.1571C8.88983 58.3794 9.91743 59.4099 11.1364 60.168C9.9176 60.9263 8.89005 61.9567 8.13385 63.1789Z" fill="#E65688"/>
</svg>
