<svg width="62" height="52" viewBox="0 0 62 52" fill="none" xmlns="http://www.w3.org/2000/svg">
<path d="M55.4034 15.0361H61.0702V0.843262H46.9931V6.55563H38.0385V0.843262H23.9589V6.55563H15.0044V0.843262H0.927246V15.0361H15.0044V9.32375H23.9589V15.0361H38.0385V9.32375H46.9931V15.0361H52.6574V24.7497H42.4347L44.614 22.4396L42.6169 20.5346L38.6501 24.7497H32.2469L34.4263 22.432L32.4291 20.527L28.4624 24.7497H22.0592L24.2385 22.432L22.2414 20.527L18.2746 24.7497H6.59155V37.2414H0.927246V51.4343H15.0044V45.7269H23.9589V51.4418H38.0385V45.7269H46.9931V51.4418H61.0702V37.2489H46.9931V42.9588H38.0385V37.2489H23.9589V42.9588H15.0044V37.2489H9.33757V27.5178H18.2721L22.2464 31.7454L24.2435 29.8405L22.0592 27.5178H28.4624L32.4341 31.7379L34.4312 29.8329L32.2519 27.5178H38.6551L42.6169 31.7454L44.614 29.8405L42.4322 27.5253H55.4009L55.4034 15.0361ZM7.50522 10.4058C7.18407 10.4062 6.866 10.3427 6.56919 10.219C6.27239 10.0954 6.00267 9.91394 5.77547 9.68514C5.54826 9.45634 5.36802 9.18464 5.24504 8.88557C5.12206 8.58651 5.05876 8.26595 5.05876 7.94221C5.05876 5.51382 8.19423 4.57769 9.5273 6.55815C10.6282 8.14101 9.4524 10.4285 7.50522 10.4058ZM30.769 10.4058C28.8219 10.431 27.6436 8.14101 28.7445 6.55815C28.9706 6.22803 29.2729 5.95819 29.6253 5.77179C29.9778 5.58539 30.3698 5.48801 30.7678 5.48801C31.1658 5.48801 31.5578 5.58539 31.9103 5.77179C32.2627 5.95819 32.565 6.22803 32.7911 6.55815C33.892 8.14101 32.7162 10.4285 30.769 10.4058ZM52.0083 9.32626C50.9074 7.74844 52.0857 5.45342 54.0304 5.47859C56.4444 5.47859 57.3705 8.63675 55.4034 9.98306C54.8643 10.3425 54.2071 10.4747 53.5724 10.3515C52.9378 10.2283 52.3763 9.85931 52.0083 9.32375V9.32626ZM51.4291 43.2356L52.7572 44.665L56.2372 41.157L57.6476 42.5813L52.7098 47.5564L49.9638 44.6096L51.4291 43.2356ZM30.769 41.8818C32.7162 41.8541 33.8895 44.1466 32.7936 45.7269C32.5676 46.0581 32.2651 46.3288 31.9122 46.5159C31.5593 46.703 31.1665 46.8007 30.7678 46.8007C30.3691 46.8007 29.9763 46.703 29.6234 46.5159C29.2705 46.3288 28.968 46.0581 28.742 45.7269C27.6386 44.1491 28.8244 41.8616 30.769 41.8818ZM9.5248 42.9588C10.6307 44.5366 9.4549 46.8342 7.50522 46.809C7.18407 46.8093 6.866 46.7458 6.56919 46.6222C6.27239 46.4985 6.00267 46.3171 5.77547 46.0883C5.54826 45.8595 5.36802 45.5878 5.24504 45.2887C5.12206 44.9897 5.05876 44.6691 5.05876 44.3454C5.07374 41.9044 8.19922 40.9884 9.5248 42.9588Z" fill="#5F6EEF"/>
</svg>
