<svg width="54" height="52" viewBox="0 0 54 52" fill="none" xmlns="http://www.w3.org/2000/svg">
<path d="M46.3443 39.3789C44.8913 39.3795 43.486 39.8913 42.3806 40.8225C41.2752 41.7537 40.542 43.0434 40.3126 44.4601H32.3912C32.2771 43.7425 32.0306 43.0518 31.6637 42.4221L42.107 32.1106C46.9022 35.5003 53.7637 32.005 53.7288 26.1435C53.7262 24.4291 53.1131 22.7702 51.9968 21.457C50.8806 20.1438 49.3323 19.26 47.6227 18.9601V12.7772C48.9889 12.4876 50.2132 11.7444 51.0916 10.6715C51.9701 9.59865 52.4497 8.26094 52.4504 6.8813C52.1273 -1.11917 40.5544 -1.11688 40.2336 6.8813C40.2343 8.26201 40.7147 9.60069 41.5946 10.6738C42.4745 11.7468 43.7007 12.4893 45.0683 12.7772V18.9738C44.0035 19.1517 42.9921 19.5609 42.107 20.1718L31.6637 9.86255C33.988 5.93346 31.0059 0.797178 26.3595 0.843079C19.0168 1.03586 18.0104 11.1088 25.0811 12.7772V20.2453C23.8763 20.5006 22.7777 21.1094 21.9294 21.992C21.0812 22.8746 20.5229 23.9897 20.3278 25.1911H12.4087C12.2136 23.9897 11.6553 22.8746 10.807 21.992C9.95879 21.1094 8.86022 20.5006 7.65537 20.2453V12.7772C9.02286 12.4877 10.2483 11.7436 11.127 10.6692C12.0057 9.59489 12.4844 8.25535 12.4831 6.87442C12.1623 -1.12606 0.589317 -1.12376 0.268556 6.87442C0.267816 8.25555 0.74699 9.59513 1.62605 10.6694C2.50512 11.7438 3.73086 12.4878 5.09858 12.7772V20.2453C-1.97678 21.9092 -0.965679 31.9798 6.37697 32.1794C7.83003 32.1789 9.23534 31.6671 10.3407 30.7358C11.4462 29.8046 12.1793 28.515 12.4087 27.0982H20.3278C20.5228 28.2999 21.081 29.4153 21.9292 30.2983C22.7774 31.1813 23.8761 31.7906 25.0811 32.0463V39.5189C23.877 39.7742 22.7791 40.3825 21.931 41.2641C21.0829 42.1458 20.5241 43.2597 20.3278 44.4601H12.4087C12.1793 43.0434 11.4462 41.7537 10.3407 40.8225C9.23534 39.8913 7.83003 39.3795 6.37697 39.3789C-1.72575 39.698 -1.72342 51.1249 6.37697 51.4416C7.83003 51.4411 9.23534 50.9293 10.3407 49.998C11.4462 49.0668 12.1793 47.7772 12.4087 46.3604H20.3278C21.555 53.1009 31.1686 53.0963 32.3912 46.3604H40.3126C41.6817 53.6104 52.2319 52.8416 52.4528 45.4103C52.4521 43.8109 51.8084 42.2771 50.663 41.1461C49.5175 40.0152 47.9642 39.3796 46.3443 39.3789ZM32.4679 26.1412C32.4671 24.7613 31.9872 23.4233 31.1082 22.3504C30.2293 21.2775 29.0044 20.5345 27.6379 20.2453V12.7772C28.4775 12.6028 29.2698 12.2539 29.9623 11.7537L40.2987 21.9574C38.5275 24.3258 38.5298 27.9589 40.2987 30.325L29.9576 40.5471C29.2645 40.0476 28.4725 39.6981 27.6332 39.5212V32.0394C29.001 31.751 30.2273 31.0081 31.1071 29.9346C31.987 28.8612 32.4674 27.5222 32.4679 26.1412ZM51.1744 26.1412C50.9094 32.4663 41.7816 32.4686 41.5166 26.1412C41.5443 24.8948 42.0653 23.7086 42.9678 22.8368C43.8704 21.9649 45.0829 21.4767 46.3455 21.4767C47.6082 21.4767 48.8206 21.9649 49.7232 22.8368C50.6257 23.7086 51.1467 24.8948 51.1744 26.1412Z" fill="#73F25F"/>
</svg>
