<svg width="92" height="56" viewBox="0 0 92 56" fill="none" xmlns="http://www.w3.org/2000/svg">
<path d="M41.6479 36.1349L47.3978 18.5106L50.1657 19.3893L44.4159 37.0137L41.6479 36.1349Z" fill="#FF7B22"/>
<path d="M38.6895 27.7645L41.703 25.2142L39.8077 23.0368L34.2248 27.7645L39.8103 32.4897L41.703 30.3123L38.6895 27.7645Z" fill="#FF7B22"/>
<path d="M53.3076 27.7645L50.2968 25.2142L52.1895 23.0368L57.775 27.7645L52.1895 32.4897L50.2968 30.3123L53.3076 27.7645Z" fill="#FF7B22"/>
<path fill-rule="evenodd" clip-rule="evenodd" d="M73.1703 15.678H66.2604V18.2179H73.588V21.0863H66.2604V23.621H91.8329V26.4895H66.2604V29.032H91.8329V31.9004H66.2604V34.4403H73.588V37.3088H66.2604V39.8487H73.1703L79.4141 34.4403H91.8329V37.3088H80.5164L74.2726 42.7171H66.2604V46.3079C66.2611 46.6878 66.109 47.0525 65.8374 47.3219C65.5658 47.5913 65.197 47.7434 64.8118 47.7447H61.1692V55.3514H58.2614V47.7447H55.6867V55.3514H52.779V47.7447H50.1937V55.3514H47.2859V47.7447H44.7112V55.3514H41.8035V47.7447H39.2288V55.3514H36.321V47.7447H33.7463V55.3488H30.8385V47.7421H27.1985C27.0076 47.7421 26.8186 47.705 26.6422 47.633C26.4658 47.5609 26.3055 47.4552 26.1705 47.3221C26.0355 47.1889 25.9284 47.0308 25.8553 46.8568C25.7823 46.6828 25.7447 46.4963 25.7447 46.3079V42.7171H17.7351L11.4887 37.3088H0.174805V34.4403H12.5989L18.8295 39.8461H25.7447V37.3062H18.4144V34.4377H25.7447V31.8978H0.174805V29.0293H25.7447V26.4895H0.174805V23.621H25.7447V21.0863H18.4144V18.2179H25.7447V15.678H18.8295L12.5989 21.0863H0.174805V18.2179H11.4887L17.7351 12.8095H25.7447V9.21611C25.7447 8.83573 25.8978 8.47093 26.1705 8.20196C26.4431 7.93299 26.8129 7.78188 27.1985 7.78188H30.8385V0.934082H33.7463V7.78188H36.3342V0.934082H39.242V7.78188H41.8167V0.934082H44.7244V7.78188H47.2991V0.934082H50.2069V7.78188H52.779V0.934082H55.6867V7.78188H58.2482V0.934082H61.156V7.78188H64.8065C65.1921 7.78188 65.5619 7.93299 65.8346 8.20196C66.1072 8.47093 66.2604 8.83573 66.2604 9.21611V12.8095H74.2647L80.5085 18.2179H91.825V21.0863H79.4141L73.1703 15.678ZM63.3527 44.8763V10.6503H28.6524V44.8763H63.3527Z" fill="#FF7B22"/>
</svg>
