<svg width="126" height="17" viewBox="0 0 126 17" fill="none" xmlns="http://www.w3.org/2000/svg">
	<g clip-path="url(#clip0_2400_28801)">
		<path d="M12.8544 12.992C12.8544 14.3336 12.9662 15.2108 13.1898 15.6236C13.4134 16.0364 13.8692 16.2428 14.5572 16.2428V16.7846H4.72746C3.97066 16.7846 3.28266 16.6642 2.66346 16.4234C2.06147 16.1826 1.57127 15.873 1.19287 15.4946C0.831669 15.099 0.547869 14.6862 0.34147 14.2562C0.15227 13.8262 0.0404705 13.3962 0.00607056 12.9662C-0.0283293 12.261 0.0834704 11.6332 0.34147 11.0828C0.599469 10.5324 0.952068 10.0938 1.39927 9.76696C1.86367 9.42296 2.37106 9.11336 2.92146 8.83816C3.48906 8.56296 4.05666 8.31356 4.62426 8.08996C5.20906 7.86636 5.73366 7.63416 6.19805 7.39336C6.67965 7.13536 7.06665 6.82576 7.35905 6.46456C7.65145 6.08616 7.79765 5.65616 7.79765 5.17456V2.64616C7.79765 2.11296 7.56545 1.80336 7.10105 1.71736C6.49905 1.61416 5.94006 1.93236 5.42406 2.67196C4.99406 3.30836 4.71886 4.15976 4.59846 5.22616C4.47806 6.32696 3.99646 7.04076 3.15366 7.36756C2.46566 7.64276 1.87227 7.55676 1.37347 7.10956C0.840268 6.61076 0.728469 5.87976 1.03807 4.91656C1.26167 4.21136 1.62287 3.59216 2.12167 3.05896C2.62046 2.52576 3.17086 2.11296 3.77286 1.82056C4.39206 1.52816 5.00266 1.31316 5.60466 1.17556C6.20666 1.02076 6.78285 0.943359 7.33325 0.943359C11.014 0.943359 12.8544 2.57736 12.8544 5.84536V12.992ZM7.79765 15.6752V7.23856C7.69445 7.35896 7.47945 7.59116 7.15265 7.93516C6.84305 8.27916 6.61945 8.53716 6.48185 8.70916C6.34426 8.86396 6.15506 9.11336 5.91426 9.45736C5.67346 9.80136 5.49286 10.1196 5.37246 10.412C5.26926 10.6872 5.16606 11.0398 5.06286 11.4698C4.97686 11.8826 4.92526 12.3126 4.90806 12.7598C4.89086 13.7746 5.20046 14.5744 5.83686 15.1592C6.47325 15.7268 7.12685 15.8988 7.79765 15.6752Z" fill="white" />
		<path d="M23.7468 14.901C25.6388 14.987 27.1438 14.1958 28.2618 12.5274L28.7262 12.837C28.0382 14.1442 27.1352 15.116 26.0172 15.7524C24.5036 16.6468 22.8353 16.9994 21.0121 16.8102C19.1889 16.6382 17.7785 15.9674 16.7809 14.7978C16.1617 14.127 15.6887 13.3014 15.3619 12.321C15.0523 11.3234 14.8975 10.3 14.8975 9.25084C14.8975 8.42524 15.0093 7.61684 15.2329 6.82564C15.4565 6.03444 15.7833 5.29484 16.2133 4.60684C16.6433 3.90164 17.1937 3.27384 17.8645 2.72344C18.5525 2.17304 19.3179 1.74304 20.1607 1.43344C21.9151 0.865838 23.4459 0.754037 24.753 1.09804C26.0774 1.42484 27.118 2.06124 27.8748 3.00724C28.6316 3.95324 28.967 5.00244 28.881 6.15484C28.795 7.41044 28.3048 8.33924 27.4104 8.94124C26.5332 9.54324 25.5614 9.74104 24.495 9.53464C23.377 9.31104 22.5343 8.72624 21.9667 7.78024C21.3991 6.83424 21.4163 5.75064 22.0183 4.52944C22.1903 5.11424 22.5085 5.53564 22.9729 5.79364C23.4373 6.05164 23.9102 6.13764 24.3918 6.05164C24.8734 5.94844 25.2604 5.72484 25.5528 5.38084C25.8452 5.01964 26.0086 4.61544 26.043 4.16824C26.0774 3.72104 25.9914 3.31684 25.785 2.95564C25.5958 2.57724 25.2948 2.26764 24.882 2.02684C24.4692 1.78604 24.0048 1.66564 23.4888 1.66564C22.5257 1.66564 21.7087 2.25904 21.0379 3.44584C20.3843 4.63264 20.0575 6.28384 20.0575 8.39944C20.0575 9.34544 20.1177 10.1882 20.2381 10.9278C20.3585 11.6502 20.5477 12.321 20.8057 12.9402C21.0809 13.5422 21.4593 14.0152 21.9409 14.3592C22.4397 14.7032 23.0417 14.8838 23.7468 14.901Z" fill="white" />
		<path d="M41.5822 1.459C42.2874 1.6482 42.8808 2.0438 43.3624 2.6458C43.844 3.2306 44.0848 3.9444 44.0848 4.7872C44.0848 5.458 43.9214 6.017 43.5946 6.4642C43.2678 6.9114 42.8292 7.1522 42.2788 7.1866C41.694 7.221 41.2382 7.049 40.9114 6.6706C40.6018 6.2922 40.3266 5.7074 40.0858 4.9162C39.9138 4.3142 39.5698 3.9358 39.0538 3.781C38.5378 3.609 38.0648 3.6606 37.6348 3.9358C36.792 4.383 36.3706 5.2774 36.3706 6.619V12.5272C36.3706 13.3012 36.4308 13.9634 36.5512 14.5138C36.6888 15.0642 36.8952 15.4942 37.1704 15.8038C37.4628 16.0962 37.8154 16.2424 38.2282 16.2424V16.7842H29.353V16.2424C29.9722 16.2424 30.4366 15.9156 30.7462 15.262C31.0558 14.6084 31.2106 13.6968 31.2106 12.5272V4.4776C31.2106 4.0648 31.1246 3.781 30.9526 3.6262C30.7806 3.4542 30.4882 3.3682 30.0754 3.3682V2.80059L36.1126 0.917197C36.147 0.899997 36.1814 0.899997 36.2158 0.917197C36.2674 0.934397 36.3018 0.960197 36.319 0.994597C36.3534 1.029 36.3706 1.0634 36.3706 1.0978V3.4714C36.9898 2.5598 37.781 1.9406 38.7442 1.6138C39.7074 1.2698 40.6534 1.2182 41.5822 1.459Z" fill="white" />
		<path d="M58.2972 12.5788L58.71 12.9142C58.4864 13.3958 58.2026 13.8516 57.8586 14.2816C57.5146 14.6944 57.076 15.0986 56.5428 15.4942C56.0096 15.8898 55.3388 16.208 54.5304 16.4488C53.7392 16.6724 52.8534 16.7842 51.873 16.7842C50.2734 16.7842 48.863 16.3112 47.6418 15.3652C46.4378 14.4192 45.6208 13.0862 45.1908 11.3662C44.8124 9.92144 44.735 8.56264 44.9586 7.28984C45.1994 5.99984 45.6294 4.88184 46.2486 3.93584C46.885 2.97264 47.7106 2.21584 48.7254 1.66544C49.7574 1.11504 50.8754 0.839844 52.0794 0.839844C53.2834 0.839844 54.3412 1.08064 55.2528 1.56224C56.1644 2.04384 56.861 2.68884 57.3426 3.49724C57.8414 4.28844 58.1768 5.17424 58.3488 6.15464C58.538 7.13504 58.5552 8.14985 58.4004 9.19905H52.5696C51.4516 9.19905 50.6948 8.96684 50.2992 8.50244V9.19905C50.2992 9.59465 50.3078 9.96444 50.325 10.3084C50.3594 10.6352 50.4024 11.0222 50.454 11.4694C50.5228 11.8994 50.626 12.2864 50.7636 12.6304C50.9184 12.9744 51.099 13.3098 51.3054 13.6366C51.5118 13.9634 51.787 14.23 52.131 14.4364C52.475 14.6428 52.8706 14.7804 53.3178 14.8492C53.7994 14.8836 54.2294 14.9008 54.6078 14.9008C54.9862 14.8836 55.3474 14.8062 55.6914 14.6686C56.0354 14.531 56.3364 14.3934 56.5944 14.2558C56.8524 14.1182 57.0932 13.9462 57.3168 13.7398C57.5404 13.5162 57.721 13.3184 57.8586 13.1464C58.0134 12.9572 58.1596 12.768 58.2972 12.5788ZM50.3508 6.46424C50.3336 6.99744 50.4798 7.33285 50.7894 7.47045C51.099 7.59085 51.8644 7.65104 53.0856 7.65104H54.453C54.4874 6.99744 54.4788 6.36964 54.4272 5.76764C54.3928 5.16564 54.3068 4.58945 54.1692 4.03905C54.0316 3.47145 53.808 3.02424 53.4984 2.69744C53.1888 2.35344 52.8104 2.18144 52.3632 2.18144C52.002 2.18144 51.6838 2.31904 51.4086 2.59424C51.1506 2.86944 50.9442 3.23064 50.7894 3.67784C50.6346 4.10784 50.5228 4.56364 50.454 5.04524C50.3852 5.50964 50.3508 5.98264 50.3508 6.46424Z" fill="white" />
		<path d="M65.7012 0.290039H71.2873C72.6759 0.290039 73.8989 0.526739 74.9561 1.00014C76.0292 1.45774 76.8734 2.08894 77.4888 2.89374C78.1043 3.69854 78.5619 4.58214 78.8617 5.54474C79.1615 6.49154 79.3114 7.50144 79.3114 8.57454C79.3114 9.36354 79.2246 10.1367 79.0511 10.8941C78.8933 11.6516 78.6092 12.4011 78.1989 13.1428C77.7887 13.8687 77.2837 14.5078 76.6841 15.0601C76.0844 15.5966 75.3112 16.0305 74.3644 16.3619C73.4176 16.6933 72.3603 16.859 71.1926 16.859H65.7012V0.290039ZM71.5713 13.8292C73.0704 13.8292 74.1829 13.3085 74.9088 12.267C75.6347 11.2097 75.9976 9.97894 75.9976 8.57454C75.9976 7.13854 75.6426 5.90774 74.9325 4.88204C74.2224 3.84054 73.1888 3.31974 71.8317 3.31974H68.8966V13.8292H71.5713Z" fill="white" />
		<path d="M93.7485 16.859L92.4703 13.4268H86.0794L84.8012 16.859H81.3691L87.7126 0.290039H90.8371L97.1806 16.859H93.7485ZM91.4288 10.5154L89.7956 6.20754C89.5431 5.57634 89.3695 5.07924 89.2748 4.71634C89.1802 5.07924 89.0066 5.57634 88.7541 6.20754L87.1209 10.5154H91.4288Z" fill="white" />
		<path d="M109.356 16.646C108.52 16.9773 107.589 17.143 106.563 17.143C105.537 17.143 104.598 16.9773 103.746 16.646C102.91 16.3146 102.215 15.8727 101.663 15.3204C101.127 14.7524 100.669 14.0975 100.29 13.3558C99.9117 12.6142 99.6435 11.8488 99.4857 11.0598C99.3279 10.2551 99.249 9.42656 99.249 8.57446C99.249 7.72236 99.3279 6.90176 99.4857 6.11276C99.6435 5.30796 99.9117 4.53476 100.29 3.79306C100.669 3.05146 101.127 2.40446 101.663 1.85216C102.215 1.28406 102.91 0.83436 103.746 0.50296C104.598 0.17156 105.537 0.00585938 106.563 0.00585938C107.589 0.00585938 108.52 0.17156 109.356 0.50296C110.208 0.83436 110.902 1.28406 111.439 1.85216C111.991 2.40446 112.449 3.05146 112.812 3.79306C113.19 4.53476 113.459 5.30796 113.616 6.11276C113.774 6.90176 113.853 7.72236 113.853 8.57446C113.853 9.42656 113.774 10.2551 113.616 11.0598C113.459 11.8488 113.19 12.6142 112.812 13.3558C112.449 14.0975 111.991 14.7524 111.439 15.3204C110.902 15.8727 110.208 16.3146 109.356 16.646ZM106.563 14.0659C107.257 14.0659 107.873 13.9002 108.409 13.5689C108.946 13.2217 109.364 12.772 109.664 12.2197C109.963 11.6516 110.184 11.0598 110.326 10.4444C110.468 9.82896 110.539 9.20566 110.539 8.57446C110.539 7.89586 110.468 7.24896 110.326 6.63346C110.184 6.01806 109.963 5.44216 109.664 4.90556C109.38 4.35326 108.969 3.91146 108.433 3.58006C107.896 3.24866 107.273 3.08296 106.563 3.08296C105.853 3.08296 105.222 3.25656 104.669 3.60376C104.133 3.93516 103.715 4.38486 103.415 4.95296C103.131 5.50526 102.918 6.08906 102.776 6.70456C102.634 7.30416 102.563 7.92746 102.563 8.57446C102.563 9.48966 102.681 10.3418 102.918 11.1308C103.154 11.9198 103.588 12.6063 104.219 13.1901C104.851 13.774 105.632 14.0659 106.563 14.0659Z" fill="white" />
		<path d="M121.379 17.1198C120.483 17.1198 119.631 16.9392 118.822 16.5781C118.013 16.2169 117.392 15.7329 116.958 15.1262L118.822 13.5443C119.616 14.3388 120.483 14.7361 121.422 14.7361C122.535 14.7361 123.091 14.4111 123.091 13.761C123.091 13.4576 122.939 13.212 122.636 13.0242C122.347 12.8219 121.827 12.5764 121.076 12.2874C119.761 11.854 118.8 11.3701 118.193 10.8355C117.587 10.2866 117.283 9.55697 117.283 8.64687C117.283 7.67887 117.666 6.92047 118.432 6.37147C119.197 5.80807 120.158 5.52637 121.314 5.52637C122.99 5.52637 124.341 6.11866 125.366 7.30326L123.481 8.84187C122.816 8.22067 122.094 7.91006 121.314 7.91006C120.375 7.91006 119.905 8.18457 119.905 8.73347C119.905 9.19577 120.628 9.64366 122.072 10.0771C123.228 10.4527 124.124 10.915 124.759 11.464C125.395 11.9985 125.713 12.7642 125.713 13.761C125.713 14.83 125.323 15.6607 124.543 16.253C123.763 16.8309 122.708 17.1198 121.379 17.1198Z" fill="white" />
	</g>
	<defs>
		<clipPath id="clip0_2400_28801">
			<rect width="126" height="17" fill="white" />
		</clipPath>
	</defs>
</svg>
