<svg width="100" height="44" viewBox="0 0 100 44" fill="none" xmlns="http://www.w3.org/2000/svg">
	<path d="M0.4 26.2998L3.2 10.7998H6.5L9.3 26.2998H6.7L6.3 22.8998H3.4L2.9 26.2998H0.4ZM3.8 20.4998H5.9L4.8 13.2998L3.8 20.4998ZM10.6 26.2998V10.7998H14L15.8 18.9998C15.9 19.2998 15.9 19.7998 16 20.3998C16.1 20.9998 16.1 21.6998 16.1 22.4998C16.1 21.6998 16.2 20.9998 16.2 20.3998C16.3 19.7998 16.3 19.2998 16.4 18.8998L18.2 10.6998H21.6V26.1998H19.2V16.1998C19.2 16.0998 19.2 15.7998 19.3 15.1998C19.3 14.5998 19.4 13.8998 19.4 12.8998C19.3 13.2998 19.3 13.6998 19.2 14.0998C19.1 14.5998 19 15.2998 18.8 16.0998L16.8 26.1998H15.5L13.5 16.0998C13.4 15.2998 13.2 14.5998 13.1 14.0998C13 13.5998 13 13.1998 12.9 12.8998C13 13.8998 13 14.6998 13 15.1998C13 15.7998 13.1 16.0998 13.1 16.1998V26.2998C13.2 26.2998 10.6 26.2998 10.6 26.2998ZM23.5 26.2998V10.7998H25.9L28.9 19.0998C29 19.4998 29.1 19.7998 29.3 20.2998C29.4 20.7998 29.5 21.2998 29.7 21.8998H29.8C29.7 21.1998 29.6 20.6998 29.6 20.0998C29.5 19.5998 29.5 19.0998 29.5 18.6998V10.6998H31.8V26.1998H29.6L26.4 17.1998C26.3 16.7998 26.1 16.2998 26 15.7998C25.9 15.3998 25.8 14.8998 25.7 14.3998H25.6C25.7 14.9998 25.8 15.5998 25.9 16.0998C26 16.6998 26 17.2998 26 17.8998V26.0998L23.5 26.2998ZM33.5 26.2998V10.7998H40.6V13.1998H36V16.9998H39.5V19.4998H36V23.7998H40.8V26.2998C40.9 26.2998 33.5 26.2998 33.5 26.2998ZM42 22.2998L44.4 21.8998C44.5 22.6998 44.8 23.2998 45.1 23.6998C45.4 24.0998 45.8 24.2998 46.2 24.2998C46.6 24.2998 47 24.1998 47.3 23.8998C47.6 23.5998 47.7 23.1998 47.7 22.7998C47.7 21.9998 46.8 20.7998 44.9 19.0998C44.6 18.7998 44.4 18.6998 44.2 18.4998C43.6 17.8998 43.1 17.2998 42.7 16.5998C42.3 15.8998 42.2 15.1998 42.2 14.3998C42.2 13.2998 42.6 12.3998 43.3 11.5998C44 10.8998 45 10.4998 46.1 10.4998C47.2 10.4998 48 10.7998 48.7 11.3998C49.4 12.0998 49.7 12.8998 49.9 14.0998L47.6 14.4998C47.5 13.8998 47.4 13.3998 47.1 13.0998C46.8 12.7998 46.5 12.5998 46.2 12.5998C45.8 12.5998 45.5 12.6998 45.2 12.9998C45 13.2998 44.8 13.6998 44.8 14.0998C44.8 14.4998 44.9 14.8998 45.2 15.2998C45.5 15.6998 45.9 16.1998 46.7 16.9998C46.8 17.0998 47 17.2998 47.2 17.3998C49.2 19.1998 50.3 20.8998 50.3 22.3998C50.3 23.5998 49.9 24.4998 49.2 25.1998C48.5 25.8998 47.5 26.2998 46.3 26.2998C45.1 26.2998 44.2 25.8998 43.5 25.0998C42.6 24.6998 42.2 23.5998 42 22.2998ZM53.7 26.2998V13.0998H51.1V10.7998H58.8V13.0998H56.2V26.2998H53.7ZM63.7 26.2998V19.7998L60.6 10.6998H63.2L64.7 15.5998C64.8 15.7998 64.8 16.0998 64.9 16.4998C65 16.8998 65 17.2998 65 17.6998C65.1 17.1998 65.1 16.7998 65.1 16.2998C65.2 15.8998 65.2 15.5998 65.2 15.4998L66.7 10.6998H69.3L66.2 19.7998V26.2998H63.7V26.2998ZM0 39.9998V30.6998H1.5V39.9998H0ZM3.2 39.9998V30.6998H4.7L6.5 35.6998C6.6 35.8998 6.6 36.0998 6.7 36.3998C6.8 36.6998 6.8 36.9998 6.9 37.2998C6.8 36.8998 6.8 36.5998 6.8 36.1998C6.8 35.8998 6.7 35.5998 6.7 35.3998V30.5998H8.1V39.8998H6.8L4.8 34.5998C4.7 34.2998 4.6 33.9998 4.5 33.7998C4.4 33.4998 4.4 33.1998 4.4 32.9998C4.5 33.3998 4.5 33.6998 4.5 33.9998C4.5 34.2998 4.6 34.6998 4.6 35.0998V40.0998H3.2C3.2 40.1998 3.2 39.9998 3.2 39.9998ZM10.6 39.9998V32.0998H9V30.6998H13.7V32.0998H12.2V39.9998H10.6C10.6 39.9998 10.6 40.0998 10.6 39.9998ZM14.7 39.9998V30.6998H19V32.1998H16.3V34.4998H18.4V35.9998H16.3V38.5998H19.2V39.9998H14.7ZM25.5 39.9998H23.9L22.7 36.0998H21.8V39.9998H20.2V30.6998H22.2C22.8 30.6998 23.2 30.7998 23.6 30.7998C23.9 30.8998 24.2 30.9998 24.4 31.1998C24.7 31.3998 24.9 31.6998 25.1 32.0998C25.2 32.4998 25.3 32.8998 25.3 33.3998C25.3 33.9998 25.2 34.4998 25 34.8998C24.8 35.2998 24.5 35.5998 24.1 35.8998L25.5 39.9998ZM21.8 34.8998H22.2C22.8 34.8998 23.2 34.7998 23.4 34.4998C23.6 34.2998 23.8 33.7998 23.8 33.2998C23.8 32.7998 23.7 32.3998 23.4 32.1998C23.2 31.9998 22.7 31.7998 22.2 31.7998H21.7L21.8 34.8998ZM26.8 39.9998V30.6998H28.3L30.1 35.6998C30.2 35.8998 30.2 36.0998 30.3 36.3998C30.4 36.6998 30.4 36.9998 30.5 37.2998H30.6C30.5 36.8998 30.5 36.5998 30.5 36.1998C30.5 35.8998 30.4 35.5998 30.4 35.3998V30.5998H31.8V39.8998H30.5L28.5 34.5998C28.4 34.2998 28.3 33.9998 28.2 33.7998C28.1 33.4998 28.1 33.1998 28.1 32.9998H28C28.1 33.3998 28.1 33.6998 28.1 33.9998C28.1 34.2998 28.2 34.6998 28.2 35.0998V40.0998H26.8C26.8 40.1998 26.8 39.9998 26.8 39.9998ZM32.6 39.9998L34.3 30.6998H36.3L38 39.9998H36.5L36.2 37.9998H34.4L34.1 39.9998C34.1 40.0998 32.6 39.9998 32.6 39.9998ZM34.6 36.5998H35.8L35.1 32.1998L34.6 36.5998ZM39.4 39.9998V32.0998H37.9V30.6998H42.6V32.0998H41V39.9998H39.4C39.4 39.9998 39.4 40.0998 39.4 39.9998ZM43.5 39.9998V30.6998H45V39.9998C45.1 39.9998 43.5 39.9998 43.5 39.9998ZM46.4 35.2998C46.4 33.6998 46.6 32.4998 47.1 31.6998C47.5 30.8998 48.3 30.4998 49.1 30.4998C50 30.4998 50.7 30.8998 51.1 31.6998C51.5 32.4998 51.8 33.6998 51.8 35.2998C51.8 36.8998 51.6 38.0998 51.1 38.8998C50.7 39.6998 49.9 40.0998 49.1 40.0998C48.2 40.0998 47.5 39.6998 47.1 38.8998C46.6 38.1998 46.4 36.8998 46.4 35.2998ZM47.9 35.2998C47.9 36.4998 48 37.2998 48.2 37.8998C48.4 38.4998 48.7 38.7998 49.1 38.7998C49.5 38.7998 49.8 38.4998 50 37.8998C50.2 37.2998 50.3 36.3998 50.3 35.2998C50.3 34.1998 50.2 33.2998 50 32.6998C49.8 32.0998 49.5 31.7998 49.1 31.7998C48.7 31.7998 48.4 32.0998 48.2 32.6998C48.1 33.2998 47.9 34.1998 47.9 35.2998ZM53.2 39.9998V30.6998H54.7L56.5 35.6998C56.6 35.8998 56.6 36.0998 56.7 36.3998C56.8 36.6998 56.8 36.9998 56.9 37.2998H57C56.9 36.8998 56.9 36.5998 56.9 36.1998C56.9 35.8998 56.8 35.5998 56.8 35.3998V30.5998H58.2V39.8998H56.9L54.9 34.5998C54.8 34.2998 54.7 33.9998 54.6 33.7998C54.5 33.4998 54.5 33.1998 54.5 32.9998H54.4C54.5 33.3998 54.5 33.6998 54.5 33.9998C54.5 34.2998 54.6 34.6998 54.6 35.0998V40.0998H53.3C53.2 40.1998 53.2 39.9998 53.2 39.9998ZM58.9 39.9998L60.6 30.6998H62.6L64.3 39.9998H62.8L62.5 37.9998H60.7L60.4 39.9998H58.9ZM61 36.5998H62.2L61.5 32.1998L61 36.5998ZM65.1 39.9998V30.6998H66.7V38.5998H69.6V39.9998H65.1ZM91.6 37.7998C91.6 37.7998 91.5 37.7998 91.6 37.7998C91.8 37.8998 92.2 37.8998 92.3 37.6998L92.7 36.7998L93.4 37.3998C93.6 37.4998 93.9 37.4998 94.1 37.3998C94.3 37.1998 94.2 36.8998 94.1 36.6998L93.8 36.3998C95.4 35.9998 96.5 35.5998 97.2 35.3998L97.1 35.7998C97 35.9998 97.2 36.2998 97.4 36.4998C97.6 36.5998 97.9 36.3998 98.1 36.1998L98.4 35.2998L99.1 35.7998C99.3 35.8998 99.6 35.8998 99.8 35.6998C100 35.4998 99.9 35.1998 99.7 34.9998L98.8 34.2998L99.2 33.1998C99.3 32.9998 99.1 32.6998 98.9 32.4998C98.7 32.3998 98.4 32.5998 98.2 32.7998L97.9 33.6998L97.2 33.2998C97 33.1998 96.7 33.1998 96.5 33.3998C96.4 33.5998 96.4 33.8998 96.6 34.0998L97.1 34.4998C96.4 34.6998 95.3 35.1998 93.5 35.5998L93.8 34.8998C93.9 34.6998 93.8 34.3998 93.6 34.1998C93.4 34.0998 93.1 34.1998 92.9 34.3998L92.5 35.1998L91.9 34.6998C91.8 34.5998 91.8 34.5998 91.7 34.5998C91.8 32.2998 91.8 29.8998 91.8 27.5998C92.1 27.4998 92.4 27.4998 92.6 27.4998L92.3 28.0998C92.2 28.2998 92.3 28.5998 92.5 28.7998C92.7 28.9998 93 28.7998 93.2 28.5998L93.6 27.6998L94.3 28.2998C94.5 28.3998 94.8 28.3998 95 28.1998C95.1 27.9998 95.1 27.6998 94.9 27.4998L94.5 27.0998C95.4 26.8998 96 26.6998 96.5 26.3998C97.7 25.8998 98.3 25.1998 98.3 24.3998V23.9998L99.1 24.2998C99.4 24.3998 99.6 24.1998 99.8 23.9998C99.9 23.6998 99.7 23.4998 99.5 23.2998L98.6 22.9998L99 22.2998C99.1 22.0998 99.1 21.7998 98.9 21.5998C98.7 21.3998 98.4 21.4998 98.2 21.6998L97.7 22.3998C97.3 21.7998 96.6 21.3998 96 20.9998H95.9C95.5 20.6998 95 20.2998 94.3 20.0998L94.9 19.6998C95.1 19.5998 95.2 19.2998 95 18.9998C94.9 18.7998 94.6 18.6998 94.3 18.8998L93.6 19.3998L93.3 18.6998C93.2 18.3998 92.9 18.2998 92.6 18.3998C92.3 18.4998 92.2 18.7998 92.3 19.0998L92.4 19.3998C92.3 19.2998 92.1 19.2998 92 19.2998C92.3 18.0998 92.7 16.6998 92.4 15.8998C92.3 15.2998 91.1 15.1998 91.1 15.1998H86.9C86.4 14.4998 86.6 14.2998 87 13.3998C87.4 12.3998 88 11.9998 89.4 10.3998C89.6 10.1998 91.5 7.7998 91.5 7.7998C91.9 7.0998 92.2 6.2998 92.2 5.5998C92.2 2.1998 89 0.299805 89 0.299805C89 0.299805 88.9 1.0998 88.6 2.0998C88.2 2.9998 86.3 3.8998 84.8 4.4998C83.4 5.0998 80.9 5.39981 80.2 9.69981C80.9 14.4998 84.5 14.0998 84.8 14.3998C85 14.5998 84.9 14.9998 84.8 15.1998H80.5V18.9998C78.5 19.3998 76.7 19.9998 75.3 20.5998L75.4 20.1998C75.5 19.8998 75.3 19.6998 75 19.5998C74.7 19.4998 74.5 19.6998 74.4 19.9998L74.1 20.8998L73.4 20.4998C73.2 20.3998 72.9 20.3998 72.7 20.5998C72.6 20.7998 72.6 21.0998 72.8 21.2998L73.2 21.4998C72.5 21.7998 72.1 21.9998 72 22.0998C71.8 22.1998 71.6 22.4998 71.8 22.7998C72 23.0998 72.2 23.1998 72.5 22.9998C72.5 22.9998 72.9 22.7998 73.5 22.4998L73.4 23.0998C73.3 23.3998 73.5 23.5998 73.8 23.6998C74.1 23.7998 74.3 23.5998 74.4 23.2998L74.7 22.3998L75.4 22.7998C75.6 22.8998 75.9 22.8998 76.1 22.6998C76.3 22.4998 76.2 22.1998 76 21.9998L75.5 21.6998C76.8 21.1998 78.6 20.5998 80.5 20.1998V28.1998L79 28.2998L79.2 27.8998C79.3 27.6998 79.3 27.3998 79 27.1998C78.8 27.0998 78.5 27.0998 78.3 27.3998L77.9 28.1998L77.3 27.6998C77.1 27.4998 76.8 27.4998 76.6 27.6998C76.4 27.8998 76.4 28.1998 76.6 28.3998L76.9 28.6998C74.8 29.2998 73.5 30.1998 73.3 31.4998C73.2 32.0998 73.4 32.6998 74.1 33.4998L73.3 33.6998C73 33.7998 72.9 34.0998 72.9 34.2998C73 34.5998 73.3 34.6998 73.5 34.6998L74.4 34.4998V35.3998C74.4 35.6998 74.6 35.8998 74.9 35.8998C75.2 35.8998 75.4 35.6998 75.4 35.3998V34.6998C75.9 34.9998 76.6 35.3998 77.3 35.5998C77.7 35.6998 78.3 35.9998 78.9 36.0998L78.3 36.5998C78.1 36.6998 78.1 37.0998 78.2 37.2998C78.3 37.4998 78.7 37.4998 78.9 37.3998L79.6 36.6998L80 37.4998C80.1 37.6998 80.4 37.8998 80.7 37.6998L80.8 37.5998V41.1998L91.4 43.1998C91.5 43.3998 91.6 37.9998 91.6 37.7998ZM92.1 20.1998C92.2 20.2998 92.5 20.2998 92.6 20.2998L92 20.6998C92 20.7998 92 20.4998 92.1 20.1998ZM92 21.5998C92.1 21.6998 92.4 21.6998 92.6 21.6998L93.4 21.0998L93.7 21.8998C93.8 22.0998 94.1 22.2998 94.4 22.1998C94.7 22.0998 94.8 21.7998 94.7 21.4998L94.6 21.2998C95 21.4998 95.3 21.6998 95.7 21.9998H95.8C96 22.0998 96.2 22.1998 96.3 22.3998C96.2 22.4998 96.1 22.4998 96.1 22.6998C96 22.9998 96.2 23.1998 96.4 23.3998L97.3 23.6998L96.8 24.3998C96.7 24.5998 96.7 24.8998 96.9 25.0998H97C96.8 25.1998 96.6 25.2998 96.3 25.4998C95.9 25.6998 95.2 25.8998 94.5 26.0998L94.7 25.5998C94.8 25.3998 94.7 25.0998 94.5 24.8998C94.3 24.7998 94 24.8998 93.8 25.0998L93.4 25.8998L92.8 25.3998C92.6 25.1998 92.3 25.2998 92.1 25.4998C92 25.6998 92 25.9998 92.2 26.1998L92.5 26.4998C92.3 26.4998 92.1 26.5998 91.9 26.5998C91.9 24.6998 91.9 22.9998 92 21.5998ZM80.9 34.1998L80.2 34.7998L79.9 33.9998C79.8 33.7998 79.5 33.5998 79.2 33.7998C78.9 33.9998 78.8 34.1998 79 34.4998L79.1 34.6998C78.6 34.5998 78.2 34.3998 77.9 34.2998C77.4 34.0998 77 33.8998 76.5 33.5998L76.7 33.4998C77 33.3998 77.1 33.0998 77.1 32.8998C77 32.5998 76.7 32.4998 76.5 32.4998L75.6 32.6998V31.9998C75.6 31.6998 75.4 31.4998 75.1 31.4998C74.8 31.4998 74.6 31.6998 74.6 31.9998V32.0998C74.5 31.7998 74.4 31.4998 74.4 31.2998C74.5 30.4998 75.6 29.7998 77.2 29.3998L76.9 29.9998C76.8 30.1998 76.8 30.4998 77.1 30.6998C77.3 30.7998 77.6 30.7998 77.8 30.4998L78.2 29.5998L78.8 30.1998C79 30.3998 79.3 30.3998 79.5 30.1998C79.7 29.9998 79.7 29.6998 79.5 29.4998L79.1 29.0998H79.2L81 28.8998L80.9 34.1998C80.9 34.1998 81 34.1998 80.9 34.1998ZM84.2 10.0998C84.2 9.9998 84.6 9.0998 84.6 8.8998L85.3 7.8998C85.9 7.2998 86.5 6.6998 87.1 6.1998C88.3 4.9998 90.2 2.9998 90.2 2.9998C90.2 2.9998 91.3 4.4998 89.4 7.3998C89.3 7.4998 88.8 8.2998 88.7 8.4998L87.8 9.69981C87.4 10.2998 87.1 10.4998 86.9 11.1998C86.5 12.3998 86 13.8998 86 13.8998C86 13.8998 84.2 12.6998 84.2 10.0998ZM89.6 40.7998C89.3 40.6998 82.9 39.0998 82.7 39.0998V28.6998C83.2 28.5998 83.6 28.5998 84.2 28.5998L83.9 28.9998C83.8 29.1998 83.8 29.4998 84 29.6998C84.2 29.7998 84.5 29.7998 84.7 29.5998L85.3 28.7998L85.8 29.4998C85.9 29.6998 86.3 29.6998 86.5 29.5998C86.7 29.4998 86.7 29.0998 86.6 28.8998L86.2 28.3998C87.4 28.2998 88.5 28.0998 89.6 27.9998C89.6 27.7998 89.6 40.7998 89.6 40.7998ZM89.6 26.8998C88.6 26.9998 87.5 27.1998 86.3 27.2998L86.6 26.8998C86.7 26.6998 86.7 26.3998 86.5 26.1998C86.3 26.0998 86 26.0998 85.8 26.2998L85.3 26.9998L84.8 26.3998C84.7 26.1998 84.3 26.1998 84.1 26.2998C83.9 26.3998 83.9 26.7998 84 26.9998L84.3 27.3998C83.8 27.4998 83.3 27.4998 82.8 27.4998V17.1998H89.7C89.6 17.2998 89.6 24.0998 89.6 26.8998Z" fill="white" />
</svg>
