<svg xmlns="http://www.w3.org/2000/svg" width="170" height="42" viewBox="0 0 170 42" fill="none">
	<script xmlns="" />
	<path fill-rule="evenodd" clip-rule="evenodd" d="M17.5398 2.45123L15.3924 0.113522C18.625 -0.313801 27.1542 0.234178 35.411 5.84467C35.5184 6.61957 35.4953 7.392 35.4953 7.392L35.7112 7.51191C36.1056 8.05325 36.5585 9.07006 36.8288 10.3291C37.0982 11.5847 37.1735 13.0243 36.8619 14.3953C36.5468 15.7817 35.9483 16.9272 35.362 17.7651C34.7619 18.6227 34.2121 19.1066 34.038 19.211L33.9829 19.2441C32.9635 19.4342 31.5555 20.1818 30.9835 22.0634C29.3098 23.1057 26.4818 24.2471 22.6375 24.2471C19.2303 24.2471 15.7618 23.2609 13.1616 21.3614C10.5771 19.4734 8.8484 16.6871 8.8484 13.0156C8.8484 10.1032 10.1537 7.82504 11.8211 6.14175C13.5017 4.44515 15.7997 3.07274 17.1153 2.62225L17.4412 2.51067L17.4218 2.49404L17.5398 2.45123ZM31.7508 7.03205C31.1008 7.75901 30.493 8.10779 30.3195 8.20237C26.5236 7.33548 25.1561 5.22714 25.1561 5.22714C28.7365 5.20342 31.9681 6.11774 34.3324 7.66443C34.3324 7.66443 33.0525 7.21913 31.7508 7.03205Z" fill="#ffffff" />
	<path d="M14.1169 2.84903C6.06519 4.77117 0 12.1406 0 21.0056C0 32.5013 9.71691 42 21.7033 42C30.6539 42 38.1043 36.5274 42 29.2054C36.9323 30.4073 30.9031 28.3433 30.6051 23.7834C30.6143 23.7479 30.6234 23.7119 30.6325 23.6756C28.7413 24.6381 26.0427 25.4809 22.6375 25.4809C19.0133 25.4809 15.2787 24.4359 12.4338 22.3577C9.57329 20.268 7.61465 17.1302 7.61465 13.0156C7.61465 9.69904 9.11059 7.12494 10.9446 5.2735L10.9452 5.27284C11.8006 4.41748 12.9065 3.60149 13.923 2.96826C13.988 2.92782 14.0526 2.88806 14.1169 2.84903Z" fill="#ffffff" />
	<path d="M7.81152 13.0156C7.81152 9.76355 9.27702 7.23668 11.0844 5.41205C12.1302 4.36626 13.564 3.37379 14.7417 2.71168C14.7417 2.71168 14.7417 2.71168 14.7417 2.71168C13.564 3.37379 12.1302 4.36626 11.0844 5.41205C9.27702 7.23668 7.81152 9.76355 7.81152 13.0156Z" fill="#ffffff" />
	<path d="M35.6467 19.3923C36.017 19.5438 36.2434 19.7428 36.3619 19.8684C36.6465 20.17 37.3581 21.0749 36.5042 22.5077C38.2831 22.2061 41.0618 20.3962 41.2718 15.7962C41.4114 12.7383 39.8127 10.5069 37.7035 8.84839C37.8308 9.23241 37.9433 9.64265 38.0351 10.0702C38.3326 11.4565 38.4254 13.0828 38.0649 14.6687C37.7081 16.239 37.0325 17.5296 36.3729 18.4724C36.1285 18.8217 35.881 19.1306 35.6467 19.3923Z" fill="#ffffff" />
	<path d="M121.033 10.7761C124.108 10.7761 126.04 11.6455 127.87 13.2053L125.887 15.5833C124.515 14.4071 123.143 13.6911 120.906 13.6911C117.653 13.6911 115.137 16.5549 115.137 19.9813L115.139 20.1943C115.208 23.7936 117.605 26.4249 121.186 26.4249C122.889 26.4249 124.388 25.888 125.481 25.0697V21.7456L128.505 18.9841V26.5016C126.726 28.0103 124.235 29.2888 121.084 29.2888C115.518 29.2888 111.859 25.2998 111.859 20.0836L111.86 19.8693C111.941 14.929 115.704 10.7761 121.033 10.7761ZM141.16 10.7761C146.625 10.7761 150.437 14.944 150.437 19.9813L150.435 20.1938C150.353 25.1349 146.515 29.2888 141.11 29.2888C135.646 29.2888 131.833 25.1209 131.833 20.0836L131.835 19.871C131.917 14.9299 135.755 10.7761 141.16 10.7761ZM62.3755 10.9551L70.2031 28.9819L67.021 28.9818L60.876 14.7139L54.7759 28.9818L51.6506 28.9819L59.4783 10.9551H62.3755ZM102.693 10.9551L110.521 28.9819L107.339 28.9818L101.194 14.7139L95.0935 28.9818L91.9682 28.9819L99.7959 10.9551H102.693ZM156.707 11.083L166.237 23.4588V11.083H169.313V28.9819H166.695L156.885 16.2481V28.9819H153.81V11.083H156.707ZM141.11 13.6911C137.577 13.6911 135.112 16.5038 135.112 19.9813L135.113 20.1855C135.185 23.5936 137.655 26.3738 141.16 26.3738C144.693 26.3738 147.158 23.5611 147.158 20.0836L147.157 19.8794C147.085 16.4713 144.615 13.6911 141.11 13.6911Z" fill="#ffffff" />
	<path d="M81.9184 10.7761C84.1592 10.7761 85.9162 11.4519 87.0621 12.5955C88.0042 13.6092 88.539 14.9348 88.539 16.5202L88.5383 16.6693C88.5015 19.5357 86.831 21.2845 84.4721 22.0334L84.312 22.0824L89.1246 28.9701H85.4069L81.0272 22.6282L78.7282 22.6277L80.3415 19.7946L81.6892 19.7952C83.8791 19.7952 85.2908 18.6781 85.3538 16.8807L85.356 16.7542L85.3554 16.6328C85.3241 14.7025 83.9789 13.6872 81.6638 13.6872H77.1058L77.1053 19.3114L77.1028 19.311V23.3684L77.1053 23.367L77.1058 28.9701H73.9737V10.7761H81.9184Z" fill="#ffffff" />
</svg>
