<svg id="Layer_1" data-name="Layer 1" xmlns="http://www.w3.org/2000/svg" viewBox="0 0 277.63 45.15"><path d="M28.51,45.15c-8.37-.12-15.46-.73-22.2-3.42a18.79,18.79,0,0,1-3.79-2.06c-3.31-2.33-3.41-5.44,0-7.6a33.6,33.6,0,0,1,7.33-3.32,20.93,20.93,0,0,1,10.44-.86c5.53.92,11.09.3,16.66-.19a22.54,22.54,0,0,1,16.12,5c2.39,1.88,2.24,4.34-.07,6.36-3.06,2.68-6.85,3.66-10.66,4.54A54.76,54.76,0,0,1,36,44.66C33.07,44.94,30.2,45.05,28.51,45.15Z" style="fill:#fff"/><path d="M69.83,41.4V1c6.07.21,12-.08,17.88.78,7.18,1,10.77,8.07,7.43,14C94,17.88,91.72,19.35,90,21.05a5.57,5.57,0,0,0,.77.3c3.51,1.12,6,3.18,6.64,7.1s-.42,7.66-3.71,10a14.32,14.32,0,0,1-6.89,2.81C81.24,41.64,75.59,41.4,69.83,41.4Zm5.29-4.34a6.85,6.85,0,0,0,.91.11c2.63,0,5.27.06,7.91,0a15.53,15.53,0,0,0,3.88-.6c2.92-.9,4.43-3.21,4.47-6.52,0-2.95-1.46-5.63-4.36-6.11-4.2-.68-8.5-.67-12.81-1Zm0-17.72c3.77-.18,7.43-.1,11-.6,3.14-.44,4.77-3.16,4.71-6.78,0-3.27-1.53-5.43-4.75-5.86-3.58-.48-7.24-.48-11-.69Z" style="fill:#fff"/><path d="M27.34,26.69c-5.36-.14-10.72-.59-15.78-2.44A17.23,17.23,0,0,1,7,21.79c-2.12-1.61-2.2-3.92,0-5.27A32.39,32.39,0,0,1,15.4,13c2.49-.64,5.19-.44,7.81-.53,3.3-.12,6.59-.21,9.88-.23a24.59,24.59,0,0,1,14.2,3.88c2.63,1.76,2.55,4.2,0,6.05-3.45,2.47-7.49,3.24-11.53,3.8C33,26.39,30.16,26.48,27.34,26.69Z" style="fill:#fff"/><path d="M167.56,41.5c-3.36.13-3.36.13-4.7-3.4-.94.65-1.83,1.32-2.76,1.92a11,11,0,0,1-9.95,1.37A6.41,6.41,0,0,1,145.56,36a6.78,6.78,0,0,1,2.67-6.91c3.26-2.5,7.13-3,11-3.38,1.12-.11,2.25-.16,3.73-.26a43.91,43.91,0,0,0-1.09-6c-.77-2.43-3.45-3.55-6.31-2.69a27.74,27.74,0,0,0-5.06,2.29c-1.43.78-2.47.51-3.06-.92a2.05,2.05,0,0,1-.1-.95,2.14,2.14,0,0,1,.33-.88c4-3.46,8.66-4.74,13.79-3.15a7.89,7.89,0,0,1,4.08,2.75,8.1,8.1,0,0,1,1.69,4.68c.34,4.72.25,9.49.32,14.23C167.58,37,167.56,39.2,167.56,41.5Zm-4.89-13c-2.95.47-5.62.77-8.22,1.38a7.35,7.35,0,0,0-3.1,1.74,4.06,4.06,0,0,0,.77,6.26c2.78,1.61,8.82-.19,10.29-3.11a2,2,0,0,0,.22-.87C162.68,32.26,162.67,30.63,162.67,28.47Z" style="fill:#fff"/><path d="M125,41.35c-3,.45-3,.45-4.36-3.35-.77.54-1.42,1.07-2.13,1.55A11.26,11.26,0,0,1,108,41.42a6.45,6.45,0,0,1-3.22-2.08,6.64,6.64,0,0,1-1.52-3.56,6.9,6.9,0,0,1,.39-3.68,6.77,6.77,0,0,1,2.25-2.92,16.11,16.11,0,0,1,8.52-3.11c2-.24,3.91-.44,5.91-.67a12.28,12.28,0,0,0,.14-1.36c0-2.54-.08-5.17-2.54-6.63s-5.22-.89-7.72.44c-.69.38-1.33.83-2,1.23a1.89,1.89,0,0,1-2.9-.65c-1-1.35-.17-1.92.73-2.64,4.18-3.37,10.56-4.25,14.54-2,2.48,1.39,4.3,3.51,4.39,6.3C125.19,27.13,125,34.18,125,41.35Zm-4.6-12.63a47.13,47.13,0,0,0-5.17.38,22.52,22.52,0,0,0-4.94,1.56,3.72,3.72,0,0,0-1.94,1.68,3.82,3.82,0,0,0-.4,2.57,3.86,3.86,0,0,0,1.21,2.48,3.81,3.81,0,0,0,2.54,1,9.71,9.71,0,0,0,8.19-3.3,2.05,2.05,0,0,0,.49-1.3c.06-1.6,0-3.17,0-5.11Z" style="fill:#fff"/><path d="M254,37.78c-4.38,3.72-9.32,5.14-14.89,3.55s-8.25-5.51-9.11-11.06c-.64-4.1-.36-8,1.81-11.66a12.64,12.64,0,0,1,6.29-5.23,12.45,12.45,0,0,1,8.13-.27c5.18,1.56,8.22,6,8.24,11.93,0,1.63-.56,2.28-2.22,2.26-5.16-.08-10.33,0-15.49,0h-1.91c-1,7,4.59,12.12,11.12,10.36a22.92,22.92,0,0,0,3.68-1.46C252.32,34.94,252.44,35,254,37.78Zm-4.3-13.73a6.65,6.65,0,0,0-6.66-7.77,7.4,7.4,0,0,0-3.05.44A7.53,7.53,0,0,0,235.66,21a7.73,7.73,0,0,0-.54,3.08Z" style="fill:#fff"/><path d="M175.31,13.22c3.67-.5,3.75-.44,4.47,3.65.73-.58,1.37-1.07,2-1.56a10.78,10.78,0,0,1,9.05-2.54c4.25.78,7.24,3.79,7.37,8.18.2,6.75.05,13.5.05,20.4h-4.7V23.57c-.17-4-1.47-6-4.28-6.8s-7.41.94-8.89,3.52a5.23,5.23,0,0,0-.39,2.47V41.32h-4.68Z" style="fill:#fff"/><path d="M26.06,11.4c-2.66-.47-6.42-1.08-10.17-1.81a6,6,0,0,1-2.61-1.16c-.9-.78-2.15-1.85-2.15-2.79a4,4,0,0,1,2.15-2.77A28.55,28.55,0,0,1,20.08.69a39.8,39.8,0,0,1,18.5.9,13.68,13.68,0,0,1,3.71,1.74c2,1.35,2.09,3.43,0,4.49A34.12,34.12,0,0,1,34.4,10.6C32.07,11.16,29.63,11.1,26.06,11.4Z" style="fill:#fff"/><path d="M226.07,16.32c-1.47,2.74-1.71,2.81-4.28,1.37-5.47-3.05-11.24-.5-12.36,5.75a21.84,21.84,0,0,0,.09,8.1c1.27,6.16,7.44,8.45,12.59,5,2.51-1.7,2.7-1.66,4.31,1.09-2,2.71-4.87,3.75-8,4.17-7.2,1-12.58-2.94-14.08-10.16-1-4.76-.64-9.33,2-13.54C210.44,11.59,221,10.64,226.07,16.32Z" style="fill:#fff"/><path d="M133.52.23h4.53V41.34h-4.53Z" style="fill:#fff"/><path d="M265.65,41.4H261V13.27c3.53-.78,3.66-.62,4.51,5,.68-.93,1.24-1.75,1.86-2.51a8.43,8.43,0,0,1,4-2.83,8.33,8.33,0,0,1,4.87-.11c1.15.34,1.62.91,1.32,2.1a12.64,12.64,0,0,0-.29,1.61c-.11,1.22-.76,1.41-1.87,1.31a15.35,15.35,0,0,0-4.59,0c-2.87.63-5.05,3.77-5.08,7,0,4.81,0,9.62,0,14.43Z" style="fill:#fff"/></svg>