<svg width="634" height="127" viewBox="0 0 634 127" fill="none" xmlns="http://www.w3.org/2000/svg">
<g clip-path="url(#clip0_506_38)">
<path d="M38.72 53.2L63.31 28.62L87.91 53.22L102.21 38.91L63.31 0L24.41 38.9L38.72 53.2Z" fill="white"/>
<path d="M-0.00512695 63.3076L14.2996 49.0028L28.6044 63.3076L14.2996 77.6124L-0.00512695 63.3076Z" fill="white"/>
<path d="M38.72 73.4104L63.31 98.0004L87.91 73.4004L102.22 87.6904L102.21 87.7004L63.31 126.61L24.41 87.7204L24.39 87.7004L38.72 73.4104Z" fill="white"/>
<path d="M97.9913 63.3105L112.296 49.0058L126.601 63.3105L112.296 77.6153L97.9913 63.3105Z" fill="white"/>
<path d="M77.82 63.3003L63.31 48.7803L52.58 59.5103L51.34 60.7403L48.8 63.2803L48.78 63.3003L48.8 63.3303L63.31 77.8303L77.82 63.3103L77.83 63.3003H77.82Z" fill="white"/>
<path d="M148.92 30.6807H180.04C187.76 30.6807 193.6 32.6807 197.56 36.6807C199.052 38.1582 200.228 39.9235 201.017 41.8694C201.806 43.8154 202.192 45.9013 202.15 48.0007V48.1907C202.177 49.9105 201.937 51.6241 201.44 53.2707C200.997 54.6881 200.354 56.035 199.53 57.2707C198.762 58.4358 197.833 59.4863 196.77 60.3907C195.732 61.2844 194.594 62.0561 193.38 62.6907C196.882 63.9103 200.03 65.9705 202.55 68.6907C204.777 71.224 205.89 74.724 205.89 79.1907V79.3807C205.953 82.1702 205.346 84.9343 204.12 87.4407C202.932 89.75 201.19 91.7289 199.05 93.2007C196.631 94.8226 193.937 95.9915 191.1 96.6507C187.729 97.45 184.274 97.8362 180.81 97.8007H148.92V30.6807ZM176.92 57.8207C179.612 57.9508 182.292 57.3715 184.69 56.1407C185.625 55.5944 186.389 54.7971 186.894 53.8392C187.4 52.8813 187.627 51.801 187.55 50.7207V50.5307C187.6 49.5352 187.397 48.5434 186.962 47.6467C186.527 46.7501 185.873 45.9776 185.06 45.4007C183.4 44.2207 181.003 43.6307 177.87 43.6307H163.31V57.8207H176.92ZM180.85 84.8707C183.532 85.021 186.203 84.4072 188.55 83.1007C189.465 82.5131 190.205 81.6911 190.694 80.7203C191.183 79.7494 191.402 78.6653 191.33 77.5807V77.3907C191.366 76.3598 191.149 75.3357 190.697 74.4083C190.246 73.4808 189.574 72.6782 188.74 72.0707C187.02 70.7373 184.24 70.0707 180.4 70.0707H163.31V84.8707H180.85Z" fill="white"/>
<path d="M224.43 30.6807H239.2V97.8207H224.43V30.6807Z" fill="white"/>
<path d="M261.55 30.6807H275.17L306.65 72.0007V30.6807H321.23V97.8207H308.66L276.15 55.1407V97.8207H261.55V30.6807Z" fill="white"/>
<path d="M365.95 30.2002H379.55L408.32 97.8202H392.9L386.76 82.7602H358.37L352.23 97.8202H337.17L365.95 30.2002ZM381.49 69.7202L372.55 47.9402L363.65 69.7202H381.49Z" fill="white"/>
<path d="M424.29 30.6807H437.91L469.37 72.0007V30.6807H483.95V97.8207H471.38L438.87 55.1407V97.8207H424.29V30.6807Z" fill="white"/>
<path d="M537.11 99.0005C532.403 99.0407 527.736 98.1292 523.39 96.3205C519.299 94.631 515.587 92.1398 512.473 88.9934C509.359 85.8471 506.907 82.1094 505.26 78.0005C503.523 73.7025 502.643 69.1062 502.67 64.4705V64.2805C502.593 55.1427 506.109 46.3404 512.46 39.7705C515.585 36.5612 519.327 34.0169 523.46 32.2905C527.956 30.4281 532.784 29.4993 537.65 29.5605C540.528 29.539 543.402 29.7969 546.23 30.3305C548.65 30.7881 551.016 31.4952 553.29 32.4405C555.354 33.3091 557.316 34.4024 559.14 35.7005C560.921 36.9665 562.593 38.378 564.14 39.9205L554.75 50.7605C552.351 48.5468 549.659 46.6727 546.75 45.1905C543.893 43.8241 540.757 43.1395 537.59 43.1905C534.954 43.1623 532.343 43.6953 529.929 44.7539C527.516 45.8125 525.355 47.3726 523.59 49.3305C521.84 51.2833 520.47 53.5453 519.55 56.0005C518.587 58.595 518.102 61.3429 518.12 64.1105V64.3005C518.111 67.0641 518.595 69.8071 519.55 72.4005C520.459 74.8644 521.815 77.1392 523.55 79.1105C525.301 81.0926 527.456 82.6756 529.872 83.7522C532.287 84.8288 534.906 85.3738 537.55 85.3505C540.917 85.4565 544.259 84.7319 547.28 83.2405C550.156 81.673 552.815 79.7366 555.19 77.4805L564.59 86.9805C562.93 88.7819 561.135 90.4535 559.22 91.9805C557.339 93.468 555.296 94.7394 553.13 95.7705C550.822 96.8568 548.391 97.6593 545.89 98.1605C543 98.7399 540.058 99.0214 537.11 99.0005Z" fill="white"/>
<path d="M582.02 30.6807H632.55V43.8207H596.55V57.4407H628.25V70.5807H596.6V84.6807H633.05V97.8207H582.05L582.02 30.6807Z" fill="white"/>
</g>
<defs>
<clipPath id="clip0_506_38">
<rect width="633.04" height="126.61" fill="white"/>
</clipPath>
</defs>
</svg>
