
<svg xmlns="http://www.w3.org/2000/svg" viewBox="0 0 724.37 214"><defs><style>.cls-1,.cls-3,.cls-4{fill:#fff;}.cls-2{opacity:0.4;}.cls-3,.cls-4{isolation:isolate;}.cls-3{opacity:0.5;}.cls-4{opacity:0.25;}</style></defs><g id="Layer_2" data-name="Layer 2"><g id="Layer_1-2" data-name="Layer 1"><path class="cls-1" d="M101.66,31a12.79,12.79,0,0,0-7.36,1.9q-2.79,2-2.81,6.67l-.23,68.53a17.29,17.29,0,0,1-1.66,8.16c-.1.17,2.08,4.88,11,4.27,3.78-.25,10.21-3,10.24-13.46l.24-74.23c-.48-.16-1.61-.51-3.39-1A20.69,20.69,0,0,0,101.66,31Z"/><path class="cls-1" d="M191.65,66.53a34.87,34.87,0,0,0-10.92-6.9,36.9,36.9,0,0,0-26.67-.09,34.45,34.45,0,0,0-10.84,6.84,31.82,31.82,0,0,0-7.39,10.29,33.05,33.05,0,0,0-.08,26A31.82,31.82,0,0,0,143.07,113a34.46,34.46,0,0,0,10.83,6.9,35.38,35.38,0,0,0,13.37,2.54,35.91,35.91,0,0,0,13.32-2.41,34.27,34.27,0,0,0,10.95-6.83,31.72,31.72,0,0,0,7.38-10.31,32.9,32.9,0,0,0,.09-26A31.94,31.94,0,0,0,191.65,66.53ZM180.49,95.9a13.89,13.89,0,0,1-3,4.82,14.4,14.4,0,0,1-4.57,3.14,14.63,14.63,0,0,1-11.36,0,14.46,14.46,0,0,1-4.49-3.18,13.64,13.64,0,0,1-3-4.82,17.25,17.25,0,0,1-1-6.08,17.66,17.66,0,0,1,1-6,13.58,13.58,0,0,1,3-4.81,14.45,14.45,0,0,1,4.51-3.15,13.86,13.86,0,0,1,5.72-1.14,14.2,14.2,0,0,1,5.64,1.2A14.61,14.61,0,0,1,177.58,79a13.44,13.44,0,0,1,2.94,4.82,18.22,18.22,0,0,1,0,12.15Z"/><path class="cls-1" d="M278.81,66.82a34.9,34.9,0,0,0-10.92-6.91,37,37,0,0,0-26.67-.08,34.51,34.51,0,0,0-10.86,6.79A31.86,31.86,0,0,0,223,76.92a33.05,33.05,0,0,0-.09,26,32.16,32.16,0,0,0,7.32,10.36A34.77,34.77,0,0,0,241,120.18a36.88,36.88,0,0,0,26.68.09,34.49,34.49,0,0,0,11-6.83,32,32,0,0,0,1.62-45.18c-.47-.51-1-1-1.46-1.47ZM267.69,96.19a13.76,13.76,0,0,1-3,4.81,14.08,14.08,0,0,1-20.42,0,13.49,13.49,0,0,1-3-4.82,17,17,0,0,1-1-6.08,17.75,17.75,0,0,1,1-6.08,13.47,13.47,0,0,1,3-4.81,14.72,14.72,0,0,1,4.5-3.16,14.57,14.57,0,0,1,11.37,0,14.4,14.4,0,0,1,4.55,3.17,13.51,13.51,0,0,1,3,4.81,18.22,18.22,0,0,1,0,12.15Z"/><path class="cls-1" d="M60.13,65.74a29.07,29.07,0,0,0-21.21-9.07,24.79,24.79,0,0,0-11.25,2.22A26.76,26.76,0,0,0,21,63.29V55.65l.13-.07V44.29A14.4,14.4,0,0,0,21.05,42v-.73H21C19.83,33.35,14.38,31.05,11,30.8c-8.9-.67-11.1,4-11,4.2a17.06,17.06,0,0,1,1.6,8.17V48L1.48,86.54A50.69,50.69,0,0,0,3,100a28.58,28.58,0,0,0,4.45,9.63,29.47,29.47,0,0,0,11.76,9.27,39.16,39.16,0,0,0,16,3.07,36.7,36.7,0,0,0,13.33-2.28,32.34,32.34,0,0,0,10.66-6.59,30.4,30.4,0,0,0,7.08-10.31,34.18,34.18,0,0,0,2.58-13.36A36,36,0,0,0,66.55,76,30.83,30.83,0,0,0,60.13,65.74Zm-15.3,34.34a13.52,13.52,0,0,1-10,4,13.65,13.65,0,0,1-10-3.92c-2.61-2.61-3.92-6.17-3.92-10.71a16.7,16.7,0,0,1,1-5.89,14.35,14.35,0,0,1,2.94-4.73,13.79,13.79,0,0,1,4.45-3.14,13.29,13.29,0,0,1,5.59-1.13,13.18,13.18,0,0,1,10.06,4.22,15,15,0,0,1,3.87,10.74A14.43,14.43,0,0,1,44.83,100.08Z"/><path class="cls-1" d="M407.69,71.43a21.78,21.78,0,0,0-5.8-7.49,25.28,25.28,0,0,0-8.74-4.55,37.54,37.54,0,0,0-10.84-1.55,31.79,31.79,0,0,0-12.88,2.41A23.46,23.46,0,0,0,360.32,67h0a21.59,21.59,0,0,0-1.64-1.81,24.08,24.08,0,0,0-7.57-5,32.64,32.64,0,0,0-13-2.47,38.56,38.56,0,0,0-11,1.48,24.86,24.86,0,0,0-8.77,4.53,21.47,21.47,0,0,0-5.85,7.45,23.7,23.7,0,0,0-2.17,10.38v6.65l-.06,15.17v5.5a17.09,17.09,0,0,1-1.66,8.17c-.1.18,2.08,4.88,11,4.28,3.77-.25,10.21-3,10.25-13.46V87.18c0-4.13.89-7.09,2.64-8.86a9.61,9.61,0,0,1,7.22-2.65,10,10,0,0,1,7.65,3.18q2.91,3.18,2.88,10.09l-.07,20a17.07,17.07,0,0,1-1.66,8.16c-.1.18,2.08,4.89,11,4.28,3.78-.25,10.22-3,10.25-13.46l.07-19q0-6.91,3-10.07a10.14,10.14,0,0,1,7.72-3.13,9.42,9.42,0,0,1,7.22,2.7q2.55,2.67,2.53,8.87v21.74a17.17,17.17,0,0,1-1.67,8.16c-.09.18,2.09,4.89,11,4.29,3.78-.27,10.22-3.06,10.26-13.48V81.85A23.86,23.86,0,0,0,407.69,71.43Z"/><g class="cls-2"><path class="cls-1" d="M21.07,63.29a60.07,60.07,0,0,0-8,9.94,56,56,0,0,1,8.05-13.84Z"/></g><g class="cls-2"><path class="cls-1" d="M360.29,66.93h0a23.61,23.61,0,0,0-1.65-1.81,56,56,0,0,0-3.85,9.31A85.88,85.88,0,0,1,360.29,66.93Z"/></g><path class="cls-1" d="M19.08,153.8a2.63,2.63,0,0,1,2.49-1.89,1.66,1.66,0,0,1,1.82,1.46,1.78,1.78,0,0,1,0,.46l-1.94,10.83a2.59,2.59,0,0,1-2.52,1.9A1.65,1.65,0,0,1,17.12,165a1.7,1.7,0,0,1,0-.39v-.28a6.15,6.15,0,0,1-4.68,2.29c-3.61,0-6.56-2.72-5.68-7.48a8.65,8.65,0,0,1,8.35-7.4A4.37,4.37,0,0,1,19,154.09Zm-5.13,9a4.53,4.53,0,0,0,4.19-3.61,3,3,0,0,0-2.3-3.54,2.3,2.3,0,0,0-.58-.07,4.17,4.17,0,0,0-4,3.61C10.94,161.12,11.79,162.84,14,162.84Z"/><path class="cls-1" d="M43.46,151.86c3.61,0,6.46,2.69,5.58,7.44a8.6,8.6,0,0,1-8.24,7.45,4.22,4.22,0,0,1-3.93-2.33v.28a2.69,2.69,0,0,1-2.53,1.9,1.64,1.64,0,0,1-1.79-1.47,2.13,2.13,0,0,1,0-.44l3.35-18.61a2.52,2.52,0,0,1,2.49-1.89,1.72,1.72,0,0,1,1.82,1.6c0,.11,0,.21,0,.32l-1.47,8.06A6.37,6.37,0,0,1,43.46,151.86Zm-1.56,3.86a4.47,4.47,0,0,0-4.11,3.61A2.92,2.92,0,0,0,40,162.86a2.57,2.57,0,0,0,.62.08,4.19,4.19,0,0,0,4.07-3.61C44.94,157.43,44.06,155.72,41.9,155.72Z"/><path class="cls-1" d="M55.35,164.76a2.57,2.57,0,0,1-2.51,1.9,1.67,1.67,0,0,1-1.8-1.54,2.26,2.26,0,0,1,0-.37L53,153.91a2.66,2.66,0,0,1,2.5-1.9,1.64,1.64,0,0,1,1.81,1.46,1.36,1.36,0,0,1,0,.45Zm1.54-20.37A2.06,2.06,0,0,1,59,146.88a3.13,3.13,0,0,1-3,2.5,2.13,2.13,0,0,1-2.27-2,2.33,2.33,0,0,1,0-.53A3.21,3.21,0,0,1,56.89,144.39Z"/><path class="cls-1" d="M63.34,164.79a2.58,2.58,0,0,1-2.52,1.89,1.68,1.68,0,0,1-1.8-1.54,1.53,1.53,0,0,1,0-.37l3.38-18.61a2.59,2.59,0,0,1,2.49-1.91,1.7,1.7,0,0,1,1.82,1.55,1.53,1.53,0,0,1,0,.37Z"/><path class="cls-1" d="M71.43,164.82a2.59,2.59,0,0,1-2.52,1.89,1.65,1.65,0,0,1-1.79-1.52,1.2,1.2,0,0,1,0-.38l3.38-18.63a2.59,2.59,0,0,1,2.49-1.9,1.68,1.68,0,0,1,1.82,1.54,1.53,1.53,0,0,1,0,.37Z"/><path class="cls-1" d="M79.36,164.84a2.56,2.56,0,0,1-2.52,1.89,1.66,1.66,0,0,1-1.79-1.51,1.7,1.7,0,0,1,0-.39L77,154a2.68,2.68,0,0,1,2.49-1.89,1.64,1.64,0,0,1,1.82,1.44,1.49,1.49,0,0,1,0,.47Zm1.54-20.38a2,2,0,0,1,2.19,1.89,2,2,0,0,1,0,.6,3.16,3.16,0,0,1-3,2.52,2.13,2.13,0,0,1-2.26-2,2.39,2.39,0,0,1,0-.53A3.22,3.22,0,0,1,80.9,144.46Z"/><path class="cls-1" d="M83.23,159.39A8.91,8.91,0,0,1,92.09,152c4.18,0,7,2.91,6.2,7.42a9,9,0,0,1-8.86,7.46C85.25,166.89,82.41,163.9,83.23,159.39Zm10.76,0a2.57,2.57,0,0,0-1.79-3.17,2.33,2.33,0,0,0-.83-.09,4,4,0,0,0-3.85,3.23,2.65,2.65,0,0,0,1.82,3.26,2.51,2.51,0,0,0,.77.1,4,4,0,0,0,3.88-3.3Z"/><path class="cls-1" d="M106.45,154.43A5.94,5.94,0,0,1,111,152c3.22,0,4.91,2,4.19,6.09l-1.21,6.8a2.59,2.59,0,0,1-2.52,1.91,1.67,1.67,0,0,1-1.79-1.53,1.7,1.7,0,0,1,0-.39l1-5.88c.38-1.91-.51-2.86-1.95-2.87a3,3,0,0,0-3.17,2.9h0l-1,5.83a2.59,2.59,0,0,1-2.53,1.89,1.66,1.66,0,0,1-1.79-1.53,1.53,1.53,0,0,1,0-.37L102.23,154a2.61,2.61,0,0,1,2.49-1.89,1.65,1.65,0,0,1,1.82,1.44,1.42,1.42,0,0,1,0,.46Z"/><path class="cls-1" d="M137.49,154.2a2.64,2.64,0,0,1,2.49-1.9,1.64,1.64,0,0,1,1.82,1.46,1.36,1.36,0,0,1,0,.45l-1.94,10.84a2.6,2.6,0,0,1-2.53,1.9,1.66,1.66,0,0,1-1.78-1.53,1.6,1.6,0,0,1,0-.38v-.28a6.1,6.1,0,0,1-4.67,2.29c-3.61,0-6.56-2.73-5.68-7.48a8.66,8.66,0,0,1,8.34-7.41,4.42,4.42,0,0,1,3.89,2.33Zm-5.13,9a4.52,4.52,0,0,0,4.19-3.61,3,3,0,0,0-2.29-3.55,3.83,3.83,0,0,0-.58-.07,4.18,4.18,0,0,0-4,3.62C129.37,161.51,130.21,163.23,132.36,163.23Z"/><path class="cls-1" d="M151,162.94a5,5,0,0,0,2.25-.54,2.33,2.33,0,0,1,2.75.17,2.25,2.25,0,0,1-.77,3.09l-.07,0a9.1,9.1,0,0,1-4.81,1.39c-4.12,0-7.36-2.91-6.58-7.42v-.09a9.42,9.42,0,0,1,9.24-7.37,6.85,6.85,0,0,1,4.38,1.42,2.12,2.12,0,0,1-.13,3l-.16.13a2.42,2.42,0,0,1-2.82.15,3.8,3.8,0,0,0-2-.56,4.19,4.19,0,0,0-4.15,3.24v.09a2.71,2.71,0,0,0,2.09,3.21A2.9,2.9,0,0,0,151,162.94Z"/><path class="cls-1" d="M162.39,152.53l.66-3.75a2.67,2.67,0,0,1,2.5-1.89,1.66,1.66,0,0,1,1.81,1.49,1.4,1.4,0,0,1,0,.41l-.68,3.75h1.65a1.31,1.31,0,0,1,1.25,1.36,1.13,1.13,0,0,1,0,.32,2.09,2.09,0,0,1-1.88,1.69h-1.58l-1.65,9.2a2.52,2.52,0,0,1-2.49,1.89,1.65,1.65,0,0,1-1.79-1.49,1.4,1.4,0,0,1,0-.41l1.6-9.22h-1.2a1.33,1.33,0,0,1-1.25-1.41,2.51,2.51,0,0,1,0-.27,2,2,0,0,1,1.85-1.69Z"/><path class="cls-1" d="M170.41,162a1.77,1.77,0,0,1,2.2.53,2.91,2.91,0,0,0,2.41,1.26c.95,0,1.88-.14,2-.88s-.22-.79-1.2-1.2l-1.57-.59c-4-1.46-3.61-3.48-3.36-4.82.38-2.12,3.3-4.07,6.3-4.06,2.06,0,4.08.65,4.82,2.41a1.69,1.69,0,0,1-.81,2.18,2.1,2.1,0,0,1-2.64-.35,2.56,2.56,0,0,0-1.62-.65c-.92,0-1.63.3-1.72.86s.24.74,1,1l2.06.75c3.25,1.2,3.31,3.38,3.12,4.3-.57,3-4,4.46-7,4.46-2.3,0-4.82-1-5.18-3.09A2,2,0,0,1,170.41,162Z"/><path class="cls-1" d="M191.51,159.75a8.91,8.91,0,0,1,8.87-7.37c4.17,0,7,2.9,6.2,7.42a9,9,0,0,1-8.86,7.45C193.54,167.24,190.7,164.25,191.51,159.75Zm10.83,0a2.57,2.57,0,0,0-1.79-3.17,2.33,2.33,0,0,0-.83-.09,4,4,0,0,0-3.86,3.24,2.65,2.65,0,0,0,1.83,3.25,2.53,2.53,0,0,0,.78.09,4,4,0,0,0,3.81-3.28Z"/><path class="cls-1" d="M217.78,152.71a1.31,1.31,0,0,1,1.25,1.38,1.06,1.06,0,0,1-.05.31,2.09,2.09,0,0,1-1.88,1.69h-1.47l-1.57,9.26a2.64,2.64,0,0,1-2.53,1.89,1.65,1.65,0,0,1-1.79-1.5,2,2,0,0,1,0-.42l1.6-9.19H210a1.36,1.36,0,0,1-1.25-1.45,1.11,1.11,0,0,1,.05-.25,2,2,0,0,1,1.85-1.69H212l.19-1c.75-4.38,3.4-6.8,7.51-6.79h.37a1.62,1.62,0,0,1,1.59,2,2.5,2.5,0,0,1-2.32,1.95H219c-1.48,0-2.18,1-2.47,2.73l-.21,1.13Z"/><path class="cls-1" d="M238.79,154.86a2.5,2.5,0,0,1-2.41,1.57h-1c-2.41,0-3.54,1.83-4.25,5.41l-.6,3.53a2.54,2.54,0,0,1-2.52,1.9,1.66,1.66,0,0,1-1.79-1.54,1.53,1.53,0,0,1,0-.37l1.94-10.84a2.67,2.67,0,0,1,2.49-1.89,1.65,1.65,0,0,1,1.82,1.44,1.93,1.93,0,0,1,0,.48l-.28,1.56c1.3-2.67,3-3.61,4.43-3.61S239.46,152.84,238.79,154.86Z"/><path class="cls-1" d="M250.19,166.14a10.54,10.54,0,0,1-5.16,1.21c-4.11,0-7-3-6.18-7.5a9,9,0,0,1,8.84-7.38c4.08,0,6.8,3,6,7.54a1.75,1.75,0,0,1-1.6,1.32h-9.25c-.06,1.66,1.65,2.4,3.15,2.4a4.22,4.22,0,0,0,2.59-.67,1.92,1.92,0,0,1,2.67.23,2.06,2.06,0,0,1-.92,2.78Zm-.55-7.43a2.3,2.3,0,0,0-1.93-2.61,2,2,0,0,0-.65,0,3.68,3.68,0,0,0-3.61,2.6Z"/><path class="cls-1" d="M255.65,168.83a1.9,1.9,0,0,1,2.6.09,3.85,3.85,0,0,0,2.95,1.58c3.25,0,4.55-2.23,4.81-5.08l.1-.4a6.18,6.18,0,0,1-4.89,2.41c-3.61,0-6.54-2.72-5.66-7.48a8.65,8.65,0,0,1,8.34-7.4,4.37,4.37,0,0,1,3.89,2.31v-.28a2.65,2.65,0,0,1,2.5-1.89,1.66,1.66,0,0,1,1.81,1.49,1.48,1.48,0,0,1,0,.42l-1.94,10.59c-1.09,6.17-4.63,9.13-9.72,9.12a6.41,6.41,0,0,1-5.59-2.88A2.17,2.17,0,0,1,255.65,168.83Zm7.1-5.17a4.48,4.48,0,0,0,4.15-3.61,3,3,0,0,0-2.21-3.54,3.38,3.38,0,0,0-.63-.07,4.16,4.16,0,0,0-4,3.61c-.34,1.88.55,3.6,2.69,3.61Z"/><path class="cls-1" d="M285.47,166.25a10.71,10.71,0,0,1-5.17,1.28c-4.1,0-7-3-6.17-7.52a8.93,8.93,0,0,1,8.83-7.36c4.09,0,6.81,3,6,7.53a1.76,1.76,0,0,1-1.61,1.33h-9.24c-.06,1.66,1.65,2.41,3.15,2.41a4.24,4.24,0,0,0,2.59-.67,1.91,1.91,0,0,1,2.66.22,2,2,0,0,1-1,2.74Zm-.55-7.43a2.31,2.31,0,0,0-1.95-2.61,2.22,2.22,0,0,0-.63,0,3.6,3.6,0,0,0-3.61,2.59Z"/><path class="cls-1" d="M296.78,155.05a5.88,5.88,0,0,1,4.57-2.4c3.23,0,4.91,2,4.19,6.09l-1.2,6.8a2.61,2.61,0,0,1-2.53,1.9,1.66,1.66,0,0,1-1.79-1.52,1.7,1.7,0,0,1,0-.39l1-5.89c.38-1.9-.51-2.85-2-2.86a3,3,0,0,0-3.17,2.89h0l-1,5.84a2.6,2.6,0,0,1-2.53,1.89,1.66,1.66,0,0,1-1.78-1.53,1.7,1.7,0,0,1,0-.39l1.94-10.83a2.61,2.61,0,0,1,2.49-1.89,1.63,1.63,0,0,1,1.82,1.43,1.85,1.85,0,0,1,0,.47Z"/><path class="cls-1" d="M319.46,166.37a10.56,10.56,0,0,1-5.17,1.21c-4.1,0-7-3-6.17-7.52a9,9,0,0,1,8.83-7.37c4.09,0,6.81,3,6,7.55a1.75,1.75,0,0,1-1.61,1.32h-9.24c-.06,1.66,1.65,2.4,3.15,2.4a4.24,4.24,0,0,0,2.59-.67,1.92,1.92,0,0,1,2.67.23,2.07,2.07,0,0,1-.92,2.78Zm-.55-7.44a2.31,2.31,0,0,0-2-2.61,2.22,2.22,0,0,0-.63,0,3.59,3.59,0,0,0-3.61,2.6Z"/><path class="cls-1" d="M337.15,155.19a2.5,2.5,0,0,1-2.41,1.56h-1c-2.41,0-3.54,1.83-4.25,5.42l-.6,3.53a2.56,2.56,0,0,1-2.52,1.89,1.67,1.67,0,0,1-1.8-1.52,1.59,1.59,0,0,1,0-.38l1.94-10.84A2.65,2.65,0,0,1,329,153a1.63,1.63,0,0,1,1.82,1.43,1.83,1.83,0,0,1,0,.47l-.27,1.57c1.3-2.66,3-3.62,4.43-3.62S337.77,153.16,337.15,155.19Z"/><path class="cls-1" d="M349.46,154.89A2.66,2.66,0,0,1,352,153a1.64,1.64,0,0,1,1.81,1.45,1.85,1.85,0,0,1,0,.47l-1.93,10.84a2.61,2.61,0,0,1-2.52,1.9,1.67,1.67,0,0,1-1.79-1.53,1.7,1.7,0,0,1,0-.39v-.27a6.18,6.18,0,0,1-4.68,2.28c-3.61,0-6.56-2.72-5.68-7.47a8.65,8.65,0,0,1,8.34-7.41,4.37,4.37,0,0,1,3.89,2.31Zm-5.13,9a4.51,4.51,0,0,0,4.19-3.61,3,3,0,0,0-2.26-3.55,4.22,4.22,0,0,0-.61-.07,4.17,4.17,0,0,0-4,3.62C341.32,162.21,342.18,163.93,344.33,163.93Z"/><path class="cls-1" d="M359,153.18l.66-3.75a2.66,2.66,0,0,1,2.5-1.9,1.66,1.66,0,0,1,1.81,1.51,1.33,1.33,0,0,1,0,.4l-.7,3.75h1.67a1.31,1.31,0,0,1,1.25,1.39,1.18,1.18,0,0,1-.05.31,2.1,2.1,0,0,1-1.88,1.68h-1.6l-1.66,9.21a2.51,2.51,0,0,1-2.49,1.89,1.65,1.65,0,0,1-1.79-1.5,1.79,1.79,0,0,1,0-.4l1.6-9.21h-1.21a1.34,1.34,0,0,1-1.24-1.44,1.09,1.09,0,0,1,0-.26,2,2,0,0,1,1.84-1.68Z"/><path class="cls-1" d="M370.58,165.79a2.63,2.63,0,0,1-2.53,1.91,1.66,1.66,0,0,1-1.78-1.53,1.7,1.7,0,0,1,0-.39L368.22,155a2.65,2.65,0,0,1,2.5-1.91,1.64,1.64,0,0,1,1.81,1.46,1.42,1.42,0,0,1,0,.46Zm1.53-20.37a2,2,0,0,1,2.19,1.9,2.31,2.31,0,0,1,0,.59,3.16,3.16,0,0,1-3,2.51,2.12,2.12,0,0,1-2.26-2,2.15,2.15,0,0,1,0-.56,3.21,3.21,0,0,1,3.1-2.47Z"/><path class="cls-1" d="M374.44,160.34A8.93,8.93,0,0,1,383.3,153c4.18,0,7,2.91,6.21,7.43a9,9,0,0,1-8.87,7.45C376.47,167.84,373.64,164.85,374.44,160.34Zm10.77,0a2.59,2.59,0,0,0-1.82-3.18,2.46,2.46,0,0,0-.81-.08,4,4,0,0,0-3.85,3.25,2.62,2.62,0,0,0,1.8,3.24,2.44,2.44,0,0,0,.81.1,4,4,0,0,0,3.87-3.29Z"/><path class="cls-1" d="M397.72,155.39A5.94,5.94,0,0,1,402.3,153c3.22,0,4.91,2,4.19,6.1l-1.21,6.81a2.57,2.57,0,0,1-2.52,1.89,1.66,1.66,0,0,1-1.79-1.53,1.53,1.53,0,0,1,0-.37l1-5.9c.37-1.9-.52-2.86-2-2.86s-2.76.73-3.17,2.91l-1,5.82a2.62,2.62,0,0,1-2.59,1.91,1.68,1.68,0,0,1-1.8-1.55,1.56,1.56,0,0,1,0-.37L393.42,155a2.66,2.66,0,0,1,2.5-1.89,1.65,1.65,0,0,1,1.82,1.46,1.7,1.7,0,0,1,0,.45Z"/><path class="cls-1" d="M542.89,183.94A137.13,137.13,0,0,0,557,174.49a2.07,2.07,0,0,1,1.16-.46c1.43.13,2.86.38,4.36.59a30.23,30.23,0,0,1-7.66,7.66,24.35,24.35,0,0,0-4.19,3.53c-2,2.38-4.52,2.46-7.21,1.86-.9-.21-2-.38-2.27-1.49S542,184.42,542.89,183.94Z"/><path class="cls-1" d="M539.25,177.26c1-.53,2-1.13,3.06-1.55,1.91-.77,3.83-1.52,5.74-2.09,1.64-.48,3.35-1,5.49-.06-2.84,2.06-5.31,4-7.94,5.74C543.32,180.77,541,180,539.25,177.26Z"/><path class="cls-1" d="M528.85,181.41c2.78-2.61,8.46-2.17,11.3,1C537.24,184.91,531.07,184.33,528.85,181.41Z"/><path class="cls-1" d="M584.36,170.3l1.27,1.11,1,.91h0a3.87,3.87,0,0,0-.64.64c.22-.21.45-.45.64-.64l-1-.91-.29,1.87C584,173.21,583.69,172.3,584.36,170.3Z"/><path class="cls-1" d="M575,187.88c1.11-.83,1.82-.69,2.12.88Z"/><path class="cls-1" d="M571.13,191.53c.07-1.08.9-1.31,1.8-1.31a2.79,2.79,0,0,1,2.83,2.75v.1a4.64,4.64,0,0,1-1.73.82C572.62,194,571,192.59,571.13,191.53Z"/><path class="cls-1" d="M570.88,180.79c.06-.43.8-.87,1.33-1.09a2.83,2.83,0,0,1,1.16-.1c2.68.09,4.75.64,5.94,2.85.64,1.16.11,2.45-1,2.24a41.47,41.47,0,0,1-6.8-2C571.08,182.51,570.79,181.41,570.88,180.79Z"/><path class="cls-1" d="M572,176.13c1.76-.64,2.93-.42,4,1.71C574.06,178.08,572.85,177.87,572,176.13Z"/><path class="cls-1" d="M570.34,166.79c3-2.46,5.84-1.33,8.66-.09a4.19,4.19,0,0,1,2.55,4.27c0,2.23-1.08,3-3.19,2.14a26.77,26.77,0,0,1-4.47-2.26C572.47,169.9,570.78,169.06,570.34,166.79Z"/><path class="cls-1" d="M538.42,17.61c-.64-1.73-1.15-3.48-1.67-5.23a8.77,8.77,0,0,1-.08-1.7c2.12,2.13,4,3.83,5.58,5.65a3.91,3.91,0,0,1,1,4.41A4.69,4.69,0,0,1,538.42,17.61Z"/><path class="cls-1" d="M536,7.87l.4-.37c2.13.74,2.61,1.36,2.26,3.32Z"/><path class="cls-1" d="M538,0c2.19.67,2.77,1.23,3.46,3.34L539.05,5C537.31,3.19,537,1.85,538,0Z"/><path class="cls-1" d="M536,3.83l-.71.2L535,2.44l.53-.14Z"/><path class="cls-1" d="M534,9.57a8.3,8.3,0,0,1-4.47-2,1.65,1.65,0,0,1,2.27-1.14A3.26,3.26,0,0,1,534,9.57Z"/><path class="cls-1" d="M551.35,6a4.85,4.85,0,0,1,1.34.81c-.1.21-.19.42-.28.64-1.91-.41-4.13,0-6-1.87C548.34,5,549.85,5.69,551.35,6Z"/><path class="cls-1" d="M555.33,19.4c-3,.4-6,.52-8.46-1.38a17,17,0,0,1-5.63-8c-.64-1.84.09-2.7,2-2.43,5,.72,8.93,3.12,11.31,7.74A5,5,0,0,1,555.33,19.4Z"/><path class="cls-1" d="M528.7,9.47c.81.33,1.52.93,2.33,1.21,3,1,4.17,3.5,5.3,6.06a7.26,7.26,0,0,1,.25,1.91,22.77,22.77,0,0,1-3.36-.89c-3.28-1.42-5.31-4.26-7.48-6.88-.68-.81-.06-1.75,1.06-1.78A4.73,4.73,0,0,1,528.7,9.47Z"/><path class="cls-1" d="M492.89,22.34a1.68,1.68,0,0,1-.3,2.2,1.73,1.73,0,0,1-2.23.08A2.9,2.9,0,0,1,489,20.89C490.94,20.46,492.18,20.94,492.89,22.34Z"/><path class="cls-1" d="M524.21,203.44l-.44-2.07.58-.13.46,2.07Z"/><path class="cls-1" d="M520,197.36c.4-.82.64-2,2.1-1.76a4.1,4.1,0,0,1-1.27,4.29,1.71,1.71,0,0,1-1-2.23A1.4,1.4,0,0,1,520,197.36Z"/><path class="cls-1" d="M518.92,195.55c-.16-1.27-.3-2.29-.43-3.32C520.08,193.32,520.08,193.59,518.92,195.55Z"/><path class="cls-1" d="M452.55,156.08a1.6,1.6,0,0,1-.44,2.18c-1,.79-2.09,1.53-3.19,2.22-.38.26-.81.45-1.36.76l1.51,1.69c-2.71,1.79-8.13,1.78-10.44-.05a14,14,0,0,1,1.35-1.32c2-1.55,4.13-3,6.15-4.59a7.6,7.6,0,0,1,4.5-1.52A2.55,2.55,0,0,1,452.55,156.08Z"/><path class="cls-1" d="M450.34,152.66l-1.21.35a.88.88,0,0,0-.1-.3l1.12-.47Z"/><path class="cls-1" d="M462.71,186.48c-.17-1-.54-1.71-.35-2.22a14.14,14.14,0,0,1,3.58-5.34c.23,1.39-.85,5-1.71,6.28A8.52,8.52,0,0,1,462.71,186.48Z"/><path class="cls-1" d="M466.42,187.61c-.13,1.09.1,2.2-1.24,2.74C464.78,188.38,464.79,188.34,466.42,187.61Z"/><path class="cls-1" d="M467.47,178c.44-1.57,1.2-2.11,3.19-2.15a17.84,17.84,0,0,1-4.26,8.64,3,3,0,0,1-.2-1.64C466.58,181.23,467,179.59,467.47,178Z"/><path class="cls-1" d="M477.32,190.34A5.84,5.84,0,0,1,483.8,186a25.71,25.71,0,0,0-1.32,3.42c-.4,1.71,1.69,1.73,2.42,3.1a21.44,21.44,0,0,1-2.35.63,25.34,25.34,0,0,1-2.61.13l1.16,1.87L480,196c-.93-1.53-1.84-2.93-2.65-4.38A2.08,2.08,0,0,1,477.32,190.34Z"/><path class="cls-1" d="M474.13,189.59a.78.78,0,0,1-.48-.59c.12-1,.83-1,1.59-.89.12,0,.22.14.4.28C475.58,189.31,475.1,189.77,474.13,189.59Z"/><path class="cls-1" d="M474.43,186.24a2.54,2.54,0,0,1,3-1.57C476.77,186.28,475.78,186.44,474.43,186.24Z"/><path class="cls-1" d="M461.13,174c-1.84-.07-3.66-.23-5.49-.38a8.89,8.89,0,0,1-1.6-.55c2.76-1.2,5-2.28,7.31-3.1,1.52-.55,3.19-.64,4.47.74A4.7,4.7,0,0,1,461.13,174Z"/><path class="cls-1" d="M451.2,172.64c-.07-.16-.13-.33-.2-.5,1.48-1.71,2.23-1.92,3.92-.88Z"/><path class="cls-1" d="M444.6,167.93c1.43-1.78,2.16-2.11,4.37-2l.67,2.85C447.27,169.75,446,169.52,444.6,167.93Z"/><path class="cls-1" d="M452,175.13a8.33,8.33,0,0,1-3.51,3.42,1.67,1.67,0,0,1-.23-2.55A3.27,3.27,0,0,1,452,175.13Z"/><path class="cls-1" d="M455.07,157.69c.25-.41.82-.64,1.24-.94l.48.48c-1.1,1.66-1.52,3.83-4,4.89C453.07,160.17,454.25,159,455.07,157.69Z"/><path class="cls-1" d="M450.28,147.55a1.31,1.31,0,0,1,.19-.83,4.07,4.07,0,0,1,6-1.79c2,1,2.11,1.59.8,3.32-.51.69-1.12,1.31-1.69,2a2.42,2.42,0,0,1-2.74.21A4.55,4.55,0,0,1,450.28,147.55Z"/><path class="cls-1" d="M469,159c-.74,2.93-1.72,5.74-4.41,7.36a17.08,17.08,0,0,1-9.53,2.27c-1.95-.06-2.47-1.07-1.51-2.75,2.55-4.42,6.19-7.16,11.36-7.65A5,5,0,0,1,469,159Z"/><path class="cls-1" d="M462.27,152.17c.57-1.66,2-1.81,3.19-2.21a30.58,30.58,0,0,1,11-2,2.43,2.43,0,0,1,2.25,1C474.9,153.54,466.85,155.54,462.27,152.17Z"/><path class="cls-1" d="M482,152.59a14.89,14.89,0,0,1,3.14-2,2.47,2.47,0,0,1,2,.23c.35.24.43,1.21.28,1.75a27.43,27.43,0,0,1-1.53,4.11c-1.4,3-2.88,5.92-6,7.66-2.61,1.49-5.06,3.26-7.59,4.89a4.46,4.46,0,0,1-1.16.16c.27-1.45.41-2.67.73-3.83,1-3.58,2.31-6.93,5.55-9.21C479,155.24,480.4,153.79,482,152.59Z"/><path class="cls-1" d="M480.14,173.11c-.83,2.4-2,3.32-4.27,3.36C476.24,174.08,478.22,172.53,480.14,173.11Z"/><path class="cls-1" d="M507,189c-.47,1.5-1.58,1.83-2.89.95a3.46,3.46,0,0,1-1.75-2.89c0-2.22.7-4.18,2.46-5.27,2.55-1.69,4.51-.8,4.73,1.92a13.22,13.22,0,0,1,0,2.18c-.06.76-.28,1.44-1.19,1.62S507.22,188.18,507,189Z"/><path class="cls-1" d="M509.29,198.23c-1.06-.24-1.48-.85-1.28-1.62.35-1.43,0-3.22,1.81-4.2C511.21,194.63,510,196.38,509.29,198.23Z"/><path class="cls-1" d="M504.88,176.37c-.46-.35-1-.64-.55-1.33a.75.75,0,0,1,.73-.16C505.67,175.37,505.4,175.85,504.88,176.37Z"/><path class="cls-1" d="M517.52,197.82c-.1-.67-.21-1.34-.31-2l.47-.09c.14.64.28,1.31.43,2Z"/><path class="cls-1" d="M521.88,210c2,0,2.08.07,2.2,2.78L522.49,214C521.43,212.34,521.4,212.07,521.88,210Z"/><path class="cls-1" d="M500.93,188.74c-2-.88-2-1.28-.19-2.66C500.82,187,500.88,187.69,500.93,188.74Z"/><path class="cls-1" d="M512.66,209.5c-.13-.09-.06-.47-.07-.72h1l-.11.89A2.32,2.32,0,0,1,512.66,209.5Z"/><path class="cls-1" d="M497.36,184.81l1.58-1.57c.17,1.13-.13,1.84-1.08,2Z"/><path class="cls-1" d="M480.91,169.89c.44-2,1.47-2.86,3.74-3.1C485.13,169.22,483.61,170.47,480.91,169.89Z"/><path class="cls-1" d="M496.24,189.93l.64-.08c.52.57.73,1.13-.33,2.17C496.41,191.07,496.33,190.5,496.24,189.93Z"/><path class="cls-1" d="M499.31,194.94c-1.13-1.47-1.13-1.47-.53-3.15C500.11,192.66,500.11,192.66,499.31,194.94Z"/><path class="cls-1" d="M504,204.41a19.45,19.45,0,0,1,0-2.29l2.7,3.25C504.84,206.49,504.24,206.27,504,204.41Z"/><path class="cls-1" d="M498.65,198.39c1-.16,1.82-.24,2.35.68s.2,1.65-.73,2.24A2.51,2.51,0,0,1,498.65,198.39Z"/><path class="cls-1" d="M480.31,178.8a6.66,6.66,0,0,0-3.19,2.9,5.72,5.72,0,0,1-1.57,1.82c-1,.76-2,.28-2.22-1-.28-1.61.21-3,1.7-3.44,3.09-1,5.57-2.56,6.94-5.62.18-.39.85-.56,1.43-.92C483.66,175.72,482.69,177.72,480.31,178.8Z"/><path class="cls-1" d="M481.18,184.1l4.56-3.19C485.9,183.09,484.09,184.27,481.18,184.1Z"/><path class="cls-1" d="M499.13,206.87a4.26,4.26,0,0,1,.07-.87c.29.09.64.16.64.22a1.74,1.74,0,0,1-.2.73A.78.78,0,0,1,499.13,206.87Z"/><path class="cls-1" d="M486.84,188.54c-.34,1.75-.79,1.91-2.59.85l2.38-3.66.51.15C487,186.77,487,187.67,486.84,188.54Z"/><path class="cls-1" d="M491.48,203.24a17.15,17.15,0,0,1,.31-2.58c.18-.84.47-1.65.76-2.66,1.92,1.8,2.71,4.2,1.84,5.7a2.72,2.72,0,0,1-1.75,1.32C491.65,205.08,491.45,204.08,491.48,203.24Z"/><path class="cls-1" d="M482.82,206.92l-1.38-3.5c2.62.47,2.62.47,3.72-.38-.57-.39-1.06-.77-1.59-1.09-.38-.23-.83-.33-1.19-.56-1.71-1.11-2.31-3.48-1-4.47a41.82,41.82,0,0,1,4.06-2.55l.12.28a19.33,19.33,0,0,0-1.83,1.56,5,5,0,0,0-.64,1.28c.51.18,1,.56,1.51.51a19.73,19.73,0,0,0,2.84-.63c-.52,2.43-.52,2.43,1.48,3.41C487.53,203.44,485.29,205.07,482.82,206.92Z"/><path class="cls-1" d="M476.17,193.75c1.47,1,2.88,4.89,2.75,7.83C477,199.5,475.62,195.42,476.17,193.75Z"/><path class="cls-1" d="M468.19,189.45c-1.47-1.41-.54-2.85.13-4.15.74-1.46,1.69-2.85,3.6-3C472.85,186,471.51,188.44,468.19,189.45Z"/><path class="cls-1" d="M474,194.46c-.11,2.55,1,4.63.38,6.9A4.77,4.77,0,0,1,474,194.46Z"/><path class="cls-1" d="M469.22,196c-.09-1.28.67-1.58,1.68-2.05C470.6,195,470.3,195.7,469.22,196Z"/><path class="cls-1" d="M466.82,193.43c.18-1.27,2.16-2.75,4.09-2.86-1,1.44-1.73,2.59-2.55,3.66a1.17,1.17,0,0,1-1.11.31A1.3,1.3,0,0,1,466.82,193.43Z"/><path class="cls-1" d="M459.8,183.87c.14-2.26,3.57-7.35,5.65-8.34a4.94,4.94,0,0,1-.25,1.14c-1.34,2.23-2.69,4.47-4.11,6.66C460.9,183.63,460.31,183.67,459.8,183.87Z"/><path class="cls-1" d="M462.07,193c.08-1.22.64-1.66,2-1.51C463.68,192.61,463.28,193.24,462.07,193Z"/><path class="cls-1" d="M459.24,187.47s-.32-.53-.23-.68c.33-.64.82-.64,1.72.2A13.59,13.59,0,0,1,459.24,187.47Z"/><path class="cls-1" d="M450.87,186a15.43,15.43,0,0,1,6.76-3.5c0,2.5-.42,3.42-2,3.8S452.55,187.89,450.87,186Z"/><path class="cls-1" d="M450,180.05c.61-.64,1.42-1.06,2-1.71,2-2.38,4.79-2.56,7.58-2.7a7.93,7.93,0,0,1,1.86.47,23.63,23.63,0,0,1-2.07,2.81c-2.55,2.51-5.91,3.35-9.15,4.41-1,.32-1.65-.6-1.28-1.65A5.07,5.07,0,0,1,450,180.05Z"/><path class="cls-1" d="M442,155.11c-2.77,3.51-5.31,4.69-7.6,3.6C436.74,157.19,438.32,154.43,442,155.11Z"/><path class="cls-1" d="M440.47,149.74c1.43.64,2.77,1.48,4.26,2.28-2.55,2.14-9.26.54-11.78-2.55a3,3,0,0,1,3.83-1C438,148.93,439.28,149.2,440.47,149.74Z"/><path class="cls-1" d="M446.29,147.37a2.14,2.14,0,0,1-2.3,1.7c-2.7,0-5-1.11-7.54-2.86,1.27-1.13,2.17-2,3.12-2.76a2.2,2.2,0,0,1,3.19-.12c.78.55,1.47,1.23,2.26,1.75S446.53,146.24,446.29,147.37Z"/><path class="cls-1" d="M448.35,149.11c.75-.08,1,.38.95,1.2l-1.88.78C447.4,149.65,447.63,149.19,448.35,149.11Z"/><path class="cls-1" d="M443.9,139.56c0,.19-.06.38-.09.57l-1.14-.3c0-.14.07-.28.1-.43Z"/><path class="cls-1" d="M449.54,142.19c1.24.39,1.52,1,1.08,1.92-.59,1.27-2,2-2.75,1.43-1.15-.94-2.47-1.81-3.06-3.62A7.8,7.8,0,0,1,449.54,142.19Z"/><path class="cls-1" d="M450.44,133c4.16-1.17,8.43-1,12.68-.59a4.26,4.26,0,0,1,3.56,1.68,15.9,15.9,0,0,1-1.48,1.36,36.49,36.49,0,0,0-3.65,2.47c-2.08,1.95-4.43,2.41-7.23,2.46-3.26.06-5.4-1.53-7.5-3.53-.64-.64-.72-1.38,0-1.88A13.54,13.54,0,0,1,450.44,133Z"/><path class="cls-1" d="M475.55,128.21a34.94,34.94,0,0,1-4.72,1.79,6.33,6.33,0,0,1-5.33-.64,37.82,37.82,0,0,1-3.19-2.29A7.87,7.87,0,0,0,461,126a1.77,1.77,0,0,0-1.41.11c-.21.14-.24.81-.15,1.19a17.54,17.54,0,0,0,.7,2C455,131.14,452,130.86,446,128a4.72,4.72,0,0,1,.48-.41,12.44,12.44,0,0,1,6-1.92c5.2-.39,10.38-1,15.59-1.2a15,15,0,0,1,7.33,1.23C477,126.43,477.05,127.44,475.55,128.21Z"/><path class="cls-1" d="M482.38,122.79a1.26,1.26,0,0,1-1.62,1.65,7.88,7.88,0,0,1-2.7-1.35c-3.35-2.47-5.79-5.79-8.16-9.15-.4-.57-.73-1.18-1.09-1.77l.31-.28a7.77,7.77,0,0,1,.8.31c4,2.26,7.54,5.28,11.13,8.17A4.68,4.68,0,0,1,482.38,122.79Z"/><path class="cls-1" d="M494.66,135.17A9.29,9.29,0,0,1,493,137.5c-1.45,1.46-3,2.78-4.46,4.21a10.36,10.36,0,0,1-7.57,3,71,71,0,0,1-13.87-1.43,17.48,17.48,0,0,1-2.36-.86,3.77,3.77,0,0,1,1.4-2.85,35.4,35.4,0,0,1,8.08-6.1,24.35,24.35,0,0,1,13.4-3.83,16.82,16.82,0,0,1,5.55,1.19C495.26,131.67,495.67,133.18,494.66,135.17Z"/><path class="cls-1" d="M603,37.08c4.11,1.27,7.58,3.82,10.92,6.45A4.31,4.31,0,0,1,616,46.9a16.79,16.79,0,0,1-2,.3,32.21,32.21,0,0,0-4.4.07c-2.82.49-5-.42-7.4-1.92-2.76-1.73-3.67-4.23-4.33-7.06-.21-.89.16-1.55,1-1.56A13.24,13.24,0,0,1,603,37.08Z"/><path class="cls-1" d="M712.59,66.27a18.1,18.1,0,0,1-1.92.38c-1.57.15-2.92-.47-2.93-1.28s1.27-1.87,2.62-1.91a23.69,23.69,0,0,1,8.45,1.47Z"/><path class="cls-1" d="M707.17,78.79c-1.42.86-2.47,1-3.66.08a10.32,10.32,0,0,1-3.39-4.78,1.41,1.41,0,0,1,.59-1.9l0,0a52.72,52.72,0,0,1,5.66-2.87c1.54-.58,3.29-1.19,4.89-.14s3.15,2.31,5.1,3.77c-1.27.91-2.11,1.6-3,2.16C711.33,76.35,709.23,77.53,707.17,78.79Z"/><path class="cls-1" d="M644.38,120.41c-.23.21-.59.8-1,.84-.84.1-1.09-.63-1-1.33.05-.39.45-1,.76-1C643.92,118.76,644.31,119.33,644.38,120.41Z"/><path class="cls-1" d="M642.72,109.28c-.07-.14,0-.36.1-.68l1.85.92C643.56,110.63,643.09,110.1,642.72,109.28Z"/><path class="cls-1" d="M644.76,129a6,6,0,0,1-2.56-4.59c0-.27.33-.85.48-.84.46,0,1.12.13,1.32.45A5.53,5.53,0,0,1,644.76,129Z"/><path class="cls-1" d="M642.64,105.29c.92.58,2.16.94,1.78,2.52A2,2,0,0,1,642.64,105.29Z"/><path class="cls-1" d="M643.44,97.11a29,29,0,0,1,3-13.16A4.48,4.48,0,0,1,649,81.31c3,3.37,5.78,6.87,7.41,11.09,1.19,3.08.64,6.16-.16,9.5-.67-.16-1-.23-1.36-.33-3.39-.92-6.78-1.87-10.18-2.77a1.47,1.47,0,0,1-1.29-1.64Z"/><path class="cls-1" d="M652.7,72.31a11.94,11.94,0,0,1,.21-1.46c.34-1.34,1-1.76,2.26-1.27a17.54,17.54,0,0,1,6.46,4,32.9,32.9,0,0,1,6.62,11.29,5.64,5.64,0,0,1,.21,2.38c-.12,1.82-.83,2.33-2.62,1.75a16,16,0,0,1-3.55-1.66A24.49,24.49,0,0,1,654.63,79,11.91,11.91,0,0,1,652.7,72.31Z"/><path class="cls-1" d="M672.27,121.25c-.15,2.22-.2,4.53-2.39,6.63-.64-.76-1.47-1.32-1.5-1.92a8.55,8.55,0,0,1,1.09-5.28,1.92,1.92,0,0,1,1.59-.72C671.56,120,672.31,120.79,672.27,121.25Z"/><path class="cls-1" d="M671.82,107.39c-1.63-1.08-3.25-2.18-4.91-3.23-3.66-2.35-4.69-5.9-4.72-10,1.16-.4,1.77.39,2.33,1a39.8,39.8,0,0,1,7.82,11.73Z"/><path class="cls-1" d="M668.61,113.22A11.87,11.87,0,0,1,665,108c2.32.14,3,1.57,3.66,2.92C669,111.58,669.75,112.27,668.61,113.22Z"/><path class="cls-1" d="M666.44,117.9c-.11,1.59-.88,2.42-2.77,3.4-1.33.68-1.89-.24-2.61-.91-.48-.45-.89-1-1.37-1.43a1.5,1.5,0,0,1-.29-2,9.62,9.62,0,0,1,3.52-3.83c1.17-.79,1.87-.58,2.39.78S666.07,116.56,666.44,117.9Z"/><path class="cls-1" d="M658.44,111.68l.52-3.14c2.24.26,2.24.26,3.42,1.48A3.91,3.91,0,0,1,658.44,111.68Z"/><path class="cls-1" d="M668.49,69.22a3.22,3.22,0,0,1,2.11-.82,22.52,22.52,0,0,1,9.09,1.48A59,59,0,0,1,694.09,77a21.58,21.58,0,0,1,3.08,2.48c1.75,1.73,1.49,2.61-.79,3.39a18,18,0,0,1-6.76.76c-1.24-.14-2.48-.26-3.72-.42-2.92-.37-5.36-1.92-8-3.14-3.89-1.78-6.5-5-9.09-8.17A2.08,2.08,0,0,1,668.49,69.22Z"/><path class="cls-1" d="M699,92.53c-.25.49-.3.73-.46.86a6.27,6.27,0,0,1-1.11.69c-2.71,1.34-5.63,1.41-8.57,1.28a3.36,3.36,0,0,1-3-2.16c1.17-.64,8.8-1.61,10.68-1.36A14.64,14.64,0,0,1,699,92.53Z"/><path class="cls-1" d="M692.52,97.4l0,.21-1.28,0v-.28Z"/><path class="cls-1" d="M701.25,96l-3.32.4C699.15,94.55,699.59,94.48,701.25,96Z"/><path class="cls-1" d="M700.14,84.78l2.25,1.92L700,88.45C698.57,86.75,698.58,86.28,700.14,84.78Z"/><path class="cls-1" d="M703.59,88.29c1,.78,1.14,1.43.53,2.35l-2.56-.44-.07-.53Z"/><path class="cls-1" d="M706.92,84.62c-.38-.54-.82-1.07-.3-1.76,2.29.63,5.32,3.51,6.38,6.15A12.09,12.09,0,0,1,706.92,84.62Z"/><path class="cls-1" d="M710.81,96.79l-1.71-1.36C711,94.62,711,94.64,710.81,96.79Z"/><path class="cls-1" d="M709.64,101.89c0-.09.3-.34.64-.68a5.76,5.76,0,0,1,.38,1.08c0,.09-.4.34-.43.31A2,2,0,0,1,709.64,101.89Z"/><path class="cls-1" d="M708.33,97.75c1,0,1.47.42,1.54,1.28a.56.56,0,0,1-.37.44c-.88.07-1-.64-1.18-1.28A2.16,2.16,0,0,1,708.33,97.75Z"/><path class="cls-1" d="M707.08,92.61a5.55,5.55,0,0,1,1.7-.72c.29,0,.67.33,1.37.72a6.06,6.06,0,0,1-1.27.76,6.43,6.43,0,0,1-1.64,0A1.13,1.13,0,0,1,707.08,92.61Z"/><path class="cls-1" d="M705.48,86.38c-.7-.55-2.11-.38-1.91-2.16,2.14,1.51,4.11,2.78,4.87,5.67A3.66,3.66,0,0,1,705.48,86.38Z"/><path class="cls-1" d="M705.32,96.12s.12,0,.33-.07a1.46,1.46,0,0,1,.36,2l-.12.16a.81.81,0,0,1-.75-.06C704.46,97.46,704.67,96.76,705.32,96.12Z"/><path class="cls-1" d="M704.78,101.46l.88.78.72.64h0c-.16.12-.31.29-.47.43.16-.14.31-.31.47-.43l-.72-.64-.21,1.31C704.5,103.49,704.31,102.86,704.78,101.46Z"/><path class="cls-1" d="M704.5,94.53c-1.68,1.11-1.78,1.07-2.2-.73C703.51,93.56,703.51,93.56,704.5,94.53Z"/><path class="cls-1" d="M698.23,113.75c.78-.58,1.28-.49,1.48.64Z"/><path class="cls-1" d="M695.52,116.3c.05-.76.64-.92,1.28-.92a2,2,0,0,1,2,1.92v.07a3.21,3.21,0,0,1-1.21.57C696.57,118,695.46,117,695.52,116.3Z"/><path class="cls-1" d="M695.36,108.79c0-.3.56-.61.93-.76a1.85,1.85,0,0,1,.81-.07c1.87.06,3.32.45,4.15,2,.45.81.07,1.71-.71,1.57a30.14,30.14,0,0,1-4.75-1.41C695.5,110,695.3,109.22,695.36,108.79Z"/><path class="cls-1" d="M696.12,105.54c1.24-.46,2.06-.3,2.8,1.19C697.59,106.9,696.73,106.75,696.12,105.54Z"/><path class="cls-1" d="M695,99c2.08-1.72,4.07-.92,6-.06a2.94,2.94,0,0,1,1.8,3c0,1.56-.76,2.11-2.23,1.49a19.64,19.64,0,0,1-3.14-1.58C696.47,101.18,695.29,100.59,695,99Z"/><path class="cls-1" d="M694.19,102.37c-1.45.19-2.24-.57-3-1.91C693.43,100.37,693.65,100.51,694.19,102.37Z"/><path class="cls-1" d="M693.1,106.77c-.12-.46-.23-.91-.41-1.6C693.91,105.5,694,106,693.1,106.77Z"/><path class="cls-1" d="M691.4,121.89a.82.82,0,0,1,.6-.42c.15,0,.46.36.43.51s-.35.34-.67.64C691.58,122.3,691.34,122,691.4,121.89Z"/><path class="cls-1" d="M691.49,115.73l.36.34-.23-.5c.14-.17.27-.36.38-.35a3.68,3.68,0,0,1,.94.55c-.34.28-.59.6-.7.56a1.48,1.48,0,0,1-.39-.26l-.36-.34Z"/><path class="cls-1" d="M690.81,109a4.29,4.29,0,0,1-5.3-2.92V106c-.21-.85-.29-1.73-.37-2.23,0-2.46,1-3.06,2.79-2a7.55,7.55,0,0,1,3.71,5.9,1.11,1.11,0,0,1-.79,1.35Z"/><path class="cls-1" d="M685.6,112.89c1.69.75,1.83,1,1.35,2.6C685,114.77,684.85,114.55,685.6,112.89Z"/><path class="cls-1" d="M686.87,118.64c-1,.23-1.55,0-1.75-1C686.13,117.29,686.59,117.71,686.87,118.64Z"/><path class="cls-1" d="M688.09,111.68c.54-.41,1.09-.43,1.47.12.19.26.07.73.1,1.27C688.78,112.8,688.06,112.7,688.09,111.68Z"/><path class="cls-1" d="M684.53,120.71c2-.78,2.36-.64,2.87,1C685.62,122.41,685.52,122.38,684.53,120.71Z"/><path class="cls-1" d="M683.51,125.27c1.21-1,1.21-1,2.68-.07Z"/><path class="cls-1" d="M684.08,89.49a6.18,6.18,0,0,1,1-.45,12.32,12.32,0,0,1,6.7-.24c.6.18,1.46.28,1.55,1.24C687.49,91.29,686.06,91.25,684.08,89.49Z"/><path class="cls-1" d="M681.73,113.05c-.08-.27.29-.63.63-1.27.49.57,1,.92,1,1.27s-.51.73-.79,1.09C682.27,113.78,681.84,113.46,681.73,113.05Z"/><path class="cls-1" d="M680,118.18c.11-.16.25-.45.32-.43a6.26,6.26,0,0,1,.93.38,4.41,4.41,0,0,1-.47.58A6.7,6.7,0,0,1,680,118.18Z"/><path class="cls-1" d="M677.34,104.27c.15-.25.41-1.17,1-1.45a2.49,2.49,0,0,1,2.21.14c1.48,1.61,2.76,3.42,2.69,5.79-.05,1.31-.82,1.78-2.07,1.38A5.93,5.93,0,0,1,677.34,104.27Z"/><path class="cls-1" d="M679.66,112.83c-1.27-.53-2.28-1.17-2.26-2.8C679.51,110.66,679.89,111.14,679.66,112.83Z"/><path class="cls-1" d="M677.27,116.34a2.83,2.83,0,0,1-1.14-3C678,114.34,678.22,115,677.27,116.34Z"/><path class="cls-1" d="M678.17,127.53c-2.41-1.72-3.22-4.5-2-6.65C678.57,122.29,679.32,124.56,678.17,127.53Z"/><path class="cls-1" d="M675.31,128.17c2.61,1.58,3,2.92,1.6,5.11C674.78,132.4,674.51,131.64,675.31,128.17Z"/><path class="cls-1" d="M672,85.22a2,2,0,0,1,.13-1.79,1.91,1.91,0,0,1,1.77-.13,12.79,12.79,0,0,1,5.26,5.1,1.89,1.89,0,0,1,.17.7c0,1.28-.64,1.75-1.74,1.37A9.06,9.06,0,0,1,672,85.22Z"/><path class="cls-1" d="M673.7,111.27c1.15,2.28,1.13,3,0,4.47C672.7,114.33,672.67,113.15,673.7,111.27Z"/><path class="cls-1" d="M673.34,97.72l-.28.22-.91-1,.35-.33Z"/><path class="cls-1" d="M666.51,133.1c.5-.21,1-.26,1.12-.49.55-1.15,1.68-1.09,2.61-1.28a1.37,1.37,0,0,1,1.69,1.91,3.64,3.64,0,0,1-2.55,2.51c-1.15.28-1.69-.94-2.36-1.68A4.27,4.27,0,0,1,666.51,133.1Z"/><path class="cls-1" d="M665.41,128.22c1.37,1,1.37,1,.57,2.77C665.8,130.11,665.64,129.38,665.41,128.22Z"/><path class="cls-1" d="M664,123.34a5.36,5.36,0,0,1,3.59-1.86,4.59,4.59,0,0,1-1.1,3.76Z"/><path class="cls-1" d="M655.61,122.81c-.94-1.42-1.64-3.16-.28-5a4.33,4.33,0,0,1,2.7,2c1.15,1.4,2.06,3.12,3.47,4.16,2.24,1.64,3,3.93,2.23,7.83a4.4,4.4,0,0,1-.79-.29,11.5,11.5,0,0,1-1.07-.76C659.13,128.57,657.46,125.59,655.61,122.81Z"/><path class="cls-1" d="M653.63,123.35c2.24,3.35,4.64,6.1,5.49,9.75.18.81.4,1.71-.41,2.39C654.53,132.61,652.31,127.71,653.63,123.35Z"/><path class="cls-1" d="M653.06,111.9a1.69,1.69,0,0,1-1.21-1,9.13,9.13,0,0,1,.11-5.82,1.5,1.5,0,0,1,1.87-1h0a1.62,1.62,0,0,1,1.4,1.8.13.13,0,0,0,0,.06c-.37,1.64-.68,3.29-1.14,4.9C654,111.28,653.45,111.91,653.06,111.9Z"/><path class="cls-1" d="M651.13,127c.78,2.11.12,4-.21,6.38C648.89,130.4,649,129.29,651.13,127Z"/><path class="cls-1" d="M649.43,112.68l3.65,1.8c-.25,1.69-.24,3.28-1.5,4.78C650.05,117.28,648.47,115.59,649.43,112.68Z"/><path class="cls-1" d="M648.54,106.3c-.45-1.52-.45-1.52.77-2.7C650.49,105.49,650.35,105.89,648.54,106.3Z"/><path class="cls-1" d="M647.2,126.47c.44.53.72.71.74.92a2,2,0,0,1-.25.77l-.34,0C647.31,127.7,647.27,127.29,647.2,126.47Z"/><path class="cls-1" d="M647,112.52c-.84-1-1.19-1.81-.22-3C647.77,110.48,648,111.32,647,112.52Z"/><path class="cls-1" d="M642.93,132.33l3.82-1.73c-.33,1.36-.53,2.15-.8,3.24Z"/><path class="cls-1" d="M640.92,128c1.87,1.46,2,1.69,1.43,3.19C640.76,129.9,640.52,129.38,640.92,128Z"/><path class="cls-1" d="M642,114.16c.49,1,.35,1.66-1,2.34C641,115.33,640.72,114.46,642,114.16Z"/><path class="cls-1" d="M639.45,120.37l1.22-.77C640.46,120.7,640.46,120.7,639.45,120.37Z"/><path class="cls-1" d="M636.08,94.5l2.44-2.4.47.25c-.11,1-.22,2-.36,3.16Z"/><path class="cls-1" d="M639.63,106a6.57,6.57,0,0,1-.13,2.17c-.13.3-.92.32-1.58.53A2.47,2.47,0,0,1,639.63,106Z"/><path class="cls-1" d="M639.6,113.07c.48.76,0,1.17-.64,1.56-.53-.6-.64-1.15.07-1.63A.61.61,0,0,1,639.6,113.07Z"/><path class="cls-1" d="M639.25,126a3.53,3.53,0,0,1-.64-3.83c.56.23,1.36.32,1.46.64A3.25,3.25,0,0,1,639.25,126Z"/><path class="cls-1" d="M636.68,135.16a39.29,39.29,0,0,1,.45-4.12,6.34,6.34,0,0,1,2.4,4.84c0,.5-.33,1.41-.57,1.43a2.48,2.48,0,0,1-1.71-.57A2.25,2.25,0,0,1,636.68,135.16Z"/><path class="cls-1" d="M643.72,62.7a9.79,9.79,0,0,1,2.8,6.76c-.26,1.61-.44,3.45-.87,5.23a29.73,29.73,0,0,1-6.24,12.74c-1.4,1.6-3,3-4.4,4.63a1.71,1.71,0,0,1-2.47.51c-4.88-2.55-9.23-5.74-11.82-10.85a40.63,40.63,0,0,1-4.41-12.86c-.45-3.28-.6-6.58.86-9.75a6.14,6.14,0,0,0,.36-2.75A8.43,8.43,0,0,1,619,50.94,4.69,4.69,0,0,1,625,49a26,26,0,0,1,4.18,2A64.59,64.59,0,0,1,643.72,62.7Z"/><path class="cls-1" d="M659.7,42.76a11.8,11.8,0,0,1-10.25-.56,3.64,3.64,0,0,1,3.23-1.72C654.8,40.32,658.55,41.54,659.7,42.76Z"/><path class="cls-1" d="M686,50.9c-4.92,3.73-9.46,7.2-14,10.6a8.21,8.21,0,0,1-2.46,1,26.19,26.19,0,0,1-12.86.64,11.78,11.78,0,0,1-7.77-4.51c-2.59-3.4-5.68-6.14-9.94-7.27a14.67,14.67,0,0,1-1.8-.83,5.23,5.23,0,0,1-2.65-2.82c-.71-1.54-.46-2.32,1.12-3a13.77,13.77,0,0,1,9.3-.46c3.35,1,6.56,2.51,9.85,3.78.56.22,1.16.35,1.74.52l.3-.44-1.58-2.34a2.92,2.92,0,0,1,.64-.38c2.21-.48,4.43-1,6.67-1.38a2.94,2.94,0,0,1,1.91.64,7.34,7.34,0,0,1,1.39,1.7q2.91,4,5.81,8a3.54,3.54,0,0,0,.85,1,1.37,1.37,0,0,0,1.15.16,1.22,1.22,0,0,0,.38-1.11,4.19,4.19,0,0,0-.88-1.48c-1.28-1.5-2.7-2.91-4-4.47a29.51,29.51,0,0,1-1.92-2.93c1.76-.33,1.8-.28,2.52.87.86,1.36,1.73,2.73,2.68,4A2.74,2.74,0,0,0,675,51.74l-2.93-4.24a1.93,1.93,0,0,1,2.8,0c1.15.88,2.14,2,3.27,2.93a2.48,2.48,0,0,0,1.67.7c.91-.16.45-1.05.51-1.67,0-.12.14-.23.37-.59Z"/><path class="cls-1" d="M703.77,55.11c1.63.4,3.35.42,5,.75,1.36.28,2.87.25,4.09,1.39-1.11.87-2.06,1.67-3.08,2.38a30.33,30.33,0,0,1-10.51,4.92c-6.38,1.49-12.85,1.09-19.27,0a16,16,0,0,1-3-1.28,14.67,14.67,0,0,1,1.95-1.91A26,26,0,0,1,683,59.25c2.87-1.1,5.87-1.91,8.72-3.07A19.17,19.17,0,0,1,703.77,55.11Z"/><path class="cls-1" d="M708.8,53.85a1.83,1.83,0,0,1-1.28-1.21c0-.41.64-1.13,1.13-1.33a12.08,12.08,0,0,1,7.73-.64,12.32,12.32,0,0,1,2.15,1.15c-.83.69-1.28,1.34-1.92,1.54A16.93,16.93,0,0,1,708.8,53.85Z"/><path class="cls-1" d="M710.71,42.69c-.38.81-.7,1.61-1.13,2.34a28.81,28.81,0,0,1-2.24,3.53c-2.39,3-5.32,3.72-8.84,2.35-1.4-.55-1.8-1.43-1.19-2.77a6.7,6.7,0,0,1,3-3.2c3-1.65,6.42-2,9.73-2.6C710.16,42.33,710.36,42.53,710.71,42.69Z"/><path class="cls-1" d="M713.43,48.93a5.16,5.16,0,0,1-1.95.29c-1.27,0-1.87-.82-1.33-1.88.94-1.82,2.08-3.54,3.2-5.27a1.19,1.19,0,0,1,.75-.42c2.6-.6,5.22-1,7.82,0A13.7,13.7,0,0,1,724.07,43,55.27,55.27,0,0,1,713.43,48.93Z"/><path class="cls-1" d="M724.28,61.8c-.32.92-1.09,1-2,.93-2-.21-4.11-.31-6.16-.53-1.22-.13-2.42-.43-4.18-.75a11.52,11.52,0,0,1,4.52-4.1,1.39,1.39,0,0,1,1.06,0c1.92.8,3.83,1.6,5.64,2.51C723.86,60.24,724.62,60.82,724.28,61.8Z"/><path class="cls-1" d="M531.24,104.13c-.18,2.55-.24,5.24-2.76,7.66-.72-.87-1.7-1.51-1.73-2.21a9.62,9.62,0,0,1,1.27-6.09,2.19,2.19,0,0,1,1.84-.83C530.41,102.78,531.28,103.65,531.24,104.13Z"/><path class="cls-1" d="M530.71,88.17c-1.91-1.24-3.75-2.51-5.66-3.72-4.23-2.71-5.42-6.81-5.46-11.54,1.35-.47,2.06.45,2.69,1.12a45.79,45.79,0,0,1,9,13.53Z"/><path class="cls-1" d="M527,94.9a13.56,13.56,0,0,1-4.13-6c2.68.16,3.44,1.82,4.23,3.38C527.49,93,528.32,93.81,527,94.9Z"/><path class="cls-1" d="M524.5,100.3c-.13,1.84-1,2.8-3.19,3.93-1.53.79-2.17-.28-3-1-.55-.52-1-1.13-1.58-1.65a1.74,1.74,0,0,1-.33-2.29,11,11,0,0,1,4.06-4.46c1.36-.91,2.15-.64,2.75.9A47,47,0,0,1,524.5,100.3Z"/><path class="cls-1" d="M561.2,95.52c.89-.68,1.46-.56,1.71.7Z"/><path class="cls-1" d="M558.07,98.46c.06-.88.73-1.06,1.45-1.06a2.26,2.26,0,0,1,2.29,2.22v.08a4,4,0,0,1-1.4.64C559.28,100.42,558,99.31,558.07,98.46Z"/><path class="cls-1" d="M557.88,89.79c0-.34.64-.69,1.07-.88a2.31,2.31,0,0,1,.94-.07c2.16.07,3.83.52,4.79,2.29.51.94.09,2-.83,1.81a33.7,33.7,0,0,1-5.47-1.63C558.05,91.19,557.81,90.29,557.88,89.79Z"/><path class="cls-1" d="M558.77,86c1.42-.52,2.37-.33,3.22,1.39C560.45,87.61,559.47,87.43,558.77,86Z"/><path class="cls-1" d="M555.28,87.47l-.48-1.85C556.2,86,556.25,86.58,555.28,87.47Z"/><path class="cls-1" d="M553.31,104.94a.91.91,0,0,1,.7-.48c.17,0,.52.42.48.58s-.39.4-.77.74C553.52,105.38,553.26,105.07,553.31,104.94Z"/><path class="cls-1" d="M553.41,97.81l.42.38-.26-.57c.15-.19.31-.42.43-.4a3.32,3.32,0,0,1,1.09.64c-.39.32-.68.69-.81.64a1.37,1.37,0,0,1-.45-.3l-.42-.39Z"/><path class="cls-1" d="M552.62,90a4.93,4.93,0,0,1-6.11-3.36l0-.08c-.23-1-.33-2-.42-2.55.05-2.84,1.16-3.53,3.19-2.37,2.65,1.49,3.83,3.92,4.28,6.81A1.28,1.28,0,0,1,552.62,90Z"/><path class="cls-1" d="M546.62,94.52c2,.87,2.11,1.19,1.55,3C545.88,96.69,545.74,96.44,546.62,94.52Z"/><path class="cls-1" d="M548.09,101.16c-1.12.27-1.8,0-2-1.19C547.22,99.6,547.76,100.08,548.09,101.16Z"/><path class="cls-1" d="M549.5,93.1c.63-.47,1.27-.49,1.69.15.21.3.09.84.12,1.43C550.28,94.45,549.46,94.3,549.5,93.1Z"/><path class="cls-1" d="M545.39,103.55c2.26-.9,2.71-.73,3.31,1.14C546.65,105.51,546.53,105.47,545.39,103.55Z"/><path class="cls-1" d="M544.2,108.81c1.4-1.12,1.4-1.12,3.09-.08Z"/><path class="cls-1" d="M542.15,94.71c-.09-.32.34-.77.7-1.49.56.64,1.18,1.07,1.18,1.49s-.58.83-.92,1.27C542.77,95.55,542.28,95.19,542.15,94.71Z"/><path class="cls-1" d="M540.18,100.62c.13-.17.3-.51.38-.49a5.91,5.91,0,0,1,1.07.45,4.69,4.69,0,0,1-.54.64A8.93,8.93,0,0,1,540.18,100.62Z"/><path class="cls-1" d="M537.08,84.58c.18-.29.48-1.35,1.14-1.67a2.8,2.8,0,0,1,2.55.16c1.72,1.85,3.19,4,3.11,6.67,0,1.51-.94,2.06-2.39,1.6C538.94,90.53,537.12,88,537.08,84.58Z"/><path class="cls-1" d="M539.77,94.45c-1.47-.64-2.64-1.35-2.62-3.24C539.59,92,540,92.53,539.77,94.45Z"/><path class="cls-1" d="M537,98.51c-1.28-.85-1.46-2.07-1.32-3.49C537.83,96.19,538.1,96.92,537,98.51Z"/><path class="cls-1" d="M538.05,111.41c-2.79-2-3.73-5.18-2.38-7.65C538.51,105.38,539.37,108,538.05,111.41Z"/><path class="cls-1" d="M534.75,112.16c3,1.83,3.45,3.36,1.85,5.92C534.12,117,533.84,116.14,534.75,112.16Z"/><path class="cls-1" d="M532.89,92.66c1.32,2.63,1.28,3.43,0,5.16C531.74,96.18,531.7,94.82,532.89,92.66Z"/><path class="cls-1" d="M524.58,117.86c.58-.25,1.17-.31,1.27-.58.64-1.32,1.92-1.28,3-1.5,1.51-.35,2.42.78,1.91,2.22a4.21,4.21,0,0,1-2.95,2.89c-1.33.33-1.91-1.08-2.72-1.91A6.74,6.74,0,0,1,524.58,117.86Z"/><path class="cls-1" d="M523.31,112.22c1.58,1.14,1.58,1.14.64,3.19C523.77,114.41,523.59,113.55,523.31,112.22Z"/><path class="cls-1" d="M521.7,106.57a6.16,6.16,0,0,1,4.15-2.14,5.32,5.32,0,0,1-1.28,4.34Z"/><path class="cls-1" d="M573.6,107.27a8.33,8.33,0,0,0,5.95-1.27,5.12,5.12,0,0,0-2-.64Z"/><path class="cls-3" d="M596.07,97.34l-1.21-.49-.23-.09s25.13,14.37,32,34.75c7.51-4,12.3-6.78,9.22-5.06C641.32,117.78,609.9,103,596.07,97.34Z"/><path class="cls-1" d="M490.55,146a3.4,3.4,0,0,0,2.77-3.06,2.82,2.82,0,0,0-3.25.18c-1.45.92-2.81,2-4.47,3.2a1.36,1.36,0,0,0,0,.17,4.75,4.75,0,0,0,1,.1C487.94,146.39,489.25,146.21,490.55,146Z"/><path class="cls-1" d="M499.15,145.87c1.54-1.08,3.05-2.19,4.56-3.32a3.28,3.28,0,0,0,.48-.69c-1.65.09-5.34,2.55-6.06,4C498.53,145.88,498.94,146,499.15,145.87Z"/><path class="cls-1" d="M518.07,160.23c-.09-.15-.11-.27-.19-.31-.47-.29-1-.45-1.31.16a.56.56,0,0,0,.16.52.83.83,0,0,0,1.17-.07A.75.75,0,0,0,518.07,160.23Z"/><path class="cls-1" d="M501.53,150.18c-1.28,0-1.32.08-1.58,1.48C501,151.67,501.14,150.86,501.53,150.18Z"/><path class="cls-1" d="M502.78,155.63c-.8,0-1.4,0-1.69.9C501.9,156.66,502.28,156.25,502.78,155.63Z"/><path class="cls-1" d="M500.19,154.19a.91.91,0,0,0,0,.85.85.85,0,0,0,.83.1c.85-.48,1.66-1,2.72-1.74C502.39,152.94,500.65,153.4,500.19,154.19Z"/><path class="cls-1" d="M508.46,155.39a1.66,1.66,0,0,0,2.42-.22A1.85,1.85,0,0,0,508.46,155.39Z"/><path class="cls-1" d="M496.58,137.2a23.74,23.74,0,0,0-.41,2.79,6.87,6.87,0,0,1,0,.78,8.7,8.7,0,0,0,2.81-.63,17.17,17.17,0,0,0,2.15-1.28A5.36,5.36,0,0,0,500,138,10.79,10.79,0,0,0,496.58,137.2Z"/><path class="cls-1" d="M528.63,144c0,.07.44.46.48.44a8.7,8.7,0,0,0,.92-.9,4.49,4.49,0,0,0-.75-.47A3.79,3.79,0,0,0,528.63,144Z"/><path class="cls-1" d="M527.1,136c-1.28,1.4-2.56,2.8-3.83,4.25a4.14,4.14,0,0,0-.64,1.42c-.5,1.55.4,2.49,2,2.14a4.8,4.8,0,0,0,3.79-3.64,15.71,15.71,0,0,0,.29-3.62,5.56,5.56,0,0,0-.42-1.37A8.11,8.11,0,0,0,527.1,136Z"/><path class="cls-1" d="M521.51,145.88a2.36,2.36,0,0,0-.3,2.9,4.89,4.89,0,0,0,2.34-2.81C522.71,145.36,522,145.27,521.51,145.88Z"/><path class="cls-1" d="M530.29,153.27c.5-.19.79-.45.52-1a.51.51,0,0,0-.52-.09C529.8,152.56,530.07,152.91,530.29,153.27Z"/><path class="cls-1" d="M512.34,151.91c1.92.91,3.43.64,3.92-.88Z"/><path class="cls-1" d="M514.07,158.84a4.23,4.23,0,0,0-5.54,1.15,1.53,1.53,0,0,0-.31.87c.14,1.2.36,2.38.57,3.65l.94-.28c-.07-.5-.14-.93-.25-1.57a16.27,16.27,0,0,0,1.77.64,17.25,17.25,0,0,0,1.76.21c-.12-1.12-1.5-1.71-.76-2.74A18.4,18.4,0,0,1,514.07,158.84Z"/><path class="cls-1" d="M517.31,154.27c.92,1.19,1.28,1.22,2,.15.35-.54.63-1.13.92-1.69l-.3-.25Z"/><path class="cls-1" d="M517,144.79c-.48.08-1,0-1.21.22a7.4,7.4,0,0,1-6.18,1.84c-1.12-.1-1.83.68-2.07,1.83-.2.93.29,1.52,1.2,1.28a4.11,4.11,0,0,0,1.54-.79,4.85,4.85,0,0,1,2.93-1.06C515.1,148.05,516.3,147,517,144.79Z"/><path class="cls-1" d="M512.79,181.08a2,2,0,0,0,1.54-.4c1-.76,1.11-2.56.34-4.31-.47.59-.89,1.06-1.24,1.57a14.5,14.5,0,0,0-.92,1.63C512.27,180.12,512.13,180.85,512.79,181.08Z"/><path class="cls-1" d="M528.86,168.58a23,23,0,0,0-1.43,2.07,1.06,1.06,0,0,0,.21,1,1.13,1.13,0,0,0,1,0C529.76,171,529.85,170.38,528.86,168.58Z"/><path class="cls-1" d="M567.08,145a1.24,1.24,0,0,0,1.63-.6.49.49,0,0,0,0-.11c.74-1.34,1.71-2.55,2.49-3.88a21.11,21.11,0,0,0,2.7-9.87c.06-1.33-.07-2.65-.1-3.83a7.06,7.06,0,0,0-2.9-4.42A46.67,46.67,0,0,0,559,116a19,19,0,0,0-2.49-.67c-1.67.74-3.26,1.43-4.74,2a6.14,6.14,0,0,0-.27,4,4.51,4.51,0,0,1,.12,2,12.18,12.18,0,0,0,.72,7,29,29,0,0,0,4.88,8.51C559.75,142.17,563.26,143.83,567.08,145Z"/><path class="cls-1" d="M505.64,171.52c.24.53.48,1.07.76,1.59.18-.17.37-.33.54-.5.5-.52,1.1-1,.42-2A11.1,11.1,0,0,0,505.64,171.52Z"/><path class="cls-1" d="M569.36,153.12l2-3.52L569,148.32C566.73,150.17,567.19,150.78,569.36,153.12Z"/><path class="cls-1" d="M501.34,162.29c.11.18.21.37.33.56l.19-.48-.25-.22Z"/><path class="cls-1" d="M571.8,146.24c-.07-.85-.12-1.57-.17-2.28l-.37-.12-1.41,2Z"/><path class="cls-1" d="M573.08,155.66c.44-.23,1-.36,1-.59a4.75,4.75,0,0,0-.2-1.55A1.8,1.8,0,0,0,573.08,155.66Z"/><path class="cls-1" d="M519.44,141.3c-1.58-.46-2.5-.17-3.35,1C517.71,143.49,519.07,143.07,519.44,141.3Z"/><path class="cls-1" d="M580.18,120.85a18.84,18.84,0,0,0,9-2.16,6,6,0,0,0,1.57-1.06c2.79-3,5.53-6.12,8.52-9.43l-4-.69c-.11.29-.19.38-.18.47,0,.44.49,1-.13,1.28a1.83,1.83,0,0,1-1.27-.27c-.93-.51-1.78-1.17-2.72-1.64a1.38,1.38,0,0,0-2,.36l2.65,2.61a1.92,1.92,0,0,1-2-.51c-.86-.78-1.66-1.63-2.45-2.47s-.71-.76-1.91-.28a21.48,21.48,0,0,0,1.76,1.81c1.1.92,2.28,1.73,3.41,2.61a3,3,0,0,1,.83.94.91.91,0,0,1-.11.83,1,1,0,0,1-.85,0,2.64,2.64,0,0,1-.74-.59c-1.74-1.64-3.47-3.28-5.21-4.9a5.37,5.37,0,0,0-1.21-1,2.14,2.14,0,0,0-1.47-.2c-1.54.55-3,1.23-4.54,1.91a2,2,0,0,0-.39.36l1.44,1.43-.15.36a12.59,12.59,0,0,1-1.28-.13c-2.35-.42-4.68-1-7-1.28-2.55,1.22-5,2.43-7.5,3.57l.12.2a3.75,3.75,0,0,0,2.26,1.64,9.71,9.71,0,0,0,1.39.34,13.1,13.1,0,0,1,8,3.83A8.47,8.47,0,0,0,580.18,120.85Z"/><path class="cls-1" d="M527.48,174.51l1.59-.21c.06-.41,0-.85,0-1.28-.7-.18-1.33-.17-1.63.41A1.24,1.24,0,0,0,527.48,174.51Z"/><path class="cls-1" d="M534.33,173.19c.32-.08.64-.19,1-.29a3.16,3.16,0,0,0,1.17-2.06c-.92-.56-1.39.16-1.91.6a1.22,1.22,0,0,0-.28,1.7Z"/><path class="cls-1" d="M532.84,171.05l.43.07c.08-.47.17-1,.25-1.42l-.34-.07Z"/><path class="cls-1" d="M520.16,178.44c.78-.13,1.19-.54,1.1-1.27s-.7-.95-1.38-1.1A1.8,1.8,0,0,0,520.16,178.44Z"/><path class="cls-1" d="M532.53,147.86c.09.27.42.47.89,1a6.12,6.12,0,0,0,.36-1.52c0-.18-.43-.5-.63-.48a.72.72,0,0,0-.69.74A1,1,0,0,0,532.53,147.86Z"/><path class="cls-1" d="M534.26,143.63c3-.81,6.12-1.23,8.48-3.42,2.75-2.56,5.11-5.45,5.51-9.37a41.32,41.32,0,0,0-.2-5.55H548a1.67,1.67,0,0,0,0-.31,3.74,3.74,0,0,0-4.42-3.46,8.08,8.08,0,0,0-4.53,1.76,21,21,0,0,0-6.17,7.19,16.23,16.23,0,0,0-1,11.64,1.91,1.91,0,0,0,2.21,1.57Z"/><path class="cls-1" d="M527.21,169.07c1-1,2.27-1.86,1.92-3.74-1.45.17-1.73,1.44-2.37,2.3C526.46,168.1,526.57,168.62,527.21,169.07Z"/><path class="cls-1" d="M538.07,170.38l.74-2.22c-.89-.36-1.38-.11-1.56.41A1.34,1.34,0,0,0,538.07,170.38Z"/><path class="cls-1" d="M535,167.6l-.64,2.34C535.69,168.94,535.75,168.76,535,167.6Z"/><path class="cls-1" d="M541,163.66a9.84,9.84,0,0,0,.85-3.62c-.43-2.62-1.35-3.07-3-2.11a8.51,8.51,0,0,0-3.26,4,2,2,0,0,0,.71,2.39,6.18,6.18,0,0,0,1.68.85A2.12,2.12,0,0,0,541,163.66Z"/><path class="cls-1" d="M536.54,167.77c.33-.42.64-.64.64-.84-.09-.64-.52-1-1.44-.9Z"/><path class="cls-1" d="M520.79,159.94c-.1.41-.2.81-.37,1.48,1-.4,1-.83.82-1.35Z"/><path class="cls-1" d="M603.2,135.78c1.64,1,2.67.82,6.63-.86-.2-.64-.82-.64-1.28-.64a9,9,0,0,0-4.72,1.08A6.9,6.9,0,0,0,603.2,135.78Z"/><path class="cls-1" d="M582.56,153.26l2.44-1.14v-.76a1.15,1.15,0,0,0-1.18-1.13h-.09a1.07,1.07,0,0,0-1.22.9.13.13,0,0,0,0,.06A6,6,0,0,0,582.56,153.26Z"/><path class="cls-1" d="M612.47,122.68a7.44,7.44,0,0,0,3.06,2.93,2.07,2.07,0,0,0,2.58-.56c1.28-1.17,2.62-2.29,3.9-3.46.58-.53,1.08-1.13,1.85-1.92-1.59-.77-2.84-1.44-4.14-2s-2.43.15-3.44.77a36.61,36.61,0,0,0-3.63,2.81A1,1,0,0,0,612.47,122.68Z"/><path class="cls-1" d="M616.72,136.36l0,.08.55-.29A3.19,3.19,0,0,0,616.72,136.36Z"/><path class="cls-1" d="M625.17,130.75a1.33,1.33,0,0,0,1.88,0l.1-.12a7.83,7.83,0,0,1,1.48-1.21c.47-.3,1-.64,1.62-.06l2.86-1.56a11.76,11.76,0,0,0-2.62-.69,5.83,5.83,0,0,1-1.71-.81c-.28-.14-.52-.51-.78-.5a30.25,30.25,0,0,0-4.25.29,4.41,4.41,0,0,0-3,1.27C622.25,128.48,623.7,129.63,625.17,130.75Z"/><path class="cls-1" d="M623.63,131.5a8.59,8.59,0,0,0-5.36-3.49c-.28.56.11.88.46,1.21A8.71,8.71,0,0,0,623.63,131.5Z"/><path class="cls-1" d="M620.18,134.65l1.05-.54a.23.23,0,0,0-.2,0A2.92,2.92,0,0,0,620.18,134.65Z"/><path class="cls-1" d="M587.46,137.28a11.92,11.92,0,0,0,2.75.69c1.35.17,1.79-.28,1.63-1.59a4.36,4.36,0,0,0-.48-1.66,23.82,23.82,0,0,0-6.24-7.09,12.7,12.7,0,0,0-5.13-2c-.94-.19-1.37.2-1.43,1.2a7.53,7.53,0,0,0,.05,1.06,8.56,8.56,0,0,0,2.29,4.5A17.65,17.65,0,0,0,587.46,137.28Z"/><path class="cls-1" d="M603.63,131.06c.9-.06,1.79-.14,2.69-.22A13.12,13.12,0,0,0,611,129.4c1.51-.87,1.58-1.52.1-2.51a15.27,15.27,0,0,0-2.52-1.35,42.93,42.93,0,0,0-11.18-3.06,16.33,16.33,0,0,0-6.64.19,2.34,2.34,0,0,0-1.38.87c-.37.64.07,1.36.63,1.82,2.28,1.92,4.56,3.83,7.56,4.56C599.56,130.41,601.51,131.19,603.63,131.06Z"/><path class="cls-1" d="M580.29,152.52c1.23-.54,1.28-.84.18-2C579.77,151.53,579.77,151.53,580.29,152.52Z"/><path class="cls-1" d="M576,152.62a1.43,1.43,0,0,0,1.29,1.55,1.06,1.06,0,0,0,.31,0C577.62,153,576.69,152.91,576,152.62Z"/><path class="cls-1" d="M576.57,155.45a1.45,1.45,0,0,0,.38.4l1-.46v0l-1.43-.41C576.55,155.18,576.5,155.36,576.57,155.45Z"/><path class="cls-1" d="M598.31,114.5a20.69,20.69,0,0,0-2.59,2.08,10.53,10.53,0,0,0-1.12,1.61,10.78,10.78,0,0,0,2.32.5A35.63,35.63,0,0,0,610.58,116a22.1,22.1,0,0,0,6.78-4.92c.64-.63,1.19-1.34,1.86-2.1a5.27,5.27,0,0,0-3.1-.42c-1.21,0-2.43.2-3.65.14a13.77,13.77,0,0,0-8.39,2.41C602.21,112.31,600.2,113.32,598.31,114.5Z"/><path class="cls-1" d="M620.27,115.44l4.21-1.82a17.17,17.17,0,0,0-6.19.11c-1,.22-1.74,1.12-1.6,1.72s1.16.85,2.25.52A12.7,12.7,0,0,0,620.27,115.44Z"/><path class="cls-1" d="M486.56,159.22l.07.26c.63.33,1,.06,1.58-.54C487.4,158.5,486.93,158.61,486.56,159.22Z"/><path class="cls-1" d="M496.33,145.75a6.57,6.57,0,0,0,.72-1.36q-.36-.06-.72-.09C496.32,144.78,496.31,145.26,496.33,145.75Z"/><path class="cls-1" d="M550.22,156.73a5,5,0,0,0,2.33-2.9,3.37,3.37,0,0,0,.31-1.07c.39-3.31.93-6.61.15-9.94a9,9,0,0,0-1.5-3,7.7,7.7,0,0,0-1.23,1.19,14.22,14.22,0,0,0-1.49,13.63A11.31,11.31,0,0,0,550.22,156.73Z"/><path class="cls-1" d="M499,167.92c2.09.38,5-.25,5.87-1.21C503.68,166.17,500.63,166.75,499,167.92Z"/><path class="cls-1" d="M506.68,148.16a3.26,3.26,0,0,0-3.23,1c-.8.69-1.82,1.39-1.23,2.73C504.68,152.15,506.27,150.86,506.68,148.16Z"/><path class="cls-1" d="M525,180.16c-.27-.86-.54-1.72-.92-2.91a13.87,13.87,0,0,0-.64,1.54C523.19,180.11,523.54,180.42,525,180.16Z"/><path class="cls-1" d="M530.93,169.47a3.67,3.67,0,0,0,1.2-3.74c-.2-.44-.53-.71-1-.42C530,166,529.87,168.37,530.93,169.47Z"/><path class="cls-1" d="M524.26,160.44c.24-.71.4-1.21.6-1.82C523.27,159,523.15,159.31,524.26,160.44Z"/><path class="cls-1" d="M524.42,156.22l-1.48.64.21.44C523.84,157.41,524.23,157,524.42,156.22Z"/><path class="cls-1" d="M588.31,142.08c.57,2.84,1.76,5.18,4.55,6.38l2.47-1.2a28.69,28.69,0,0,0-5.23-4.79C589.63,142.11,589.09,141.63,588.31,142.08Z"/><path class="cls-1" d="M618,130.67a2.64,2.64,0,0,0,2.55,2.08c-.93-1.94-2.5-2.58-4.22-3.35C616.4,130.68,617.37,130.37,618,130.67Z"/><path class="cls-1" d="M614.34,132.88l1.45-1.58-1.85-1C613.05,131.53,613.1,131.87,614.34,132.88Z"/><path class="cls-1" d="M595.75,142.66l.78.64.18-.2-.76-.7Z"/><path class="cls-1" d="M615.56,133.54c0,.13.08.25.12.37l1.88,0c.31-.75.12-1.18-.7-1.6Z"/><path class="cls-1" d="M553.45,162.69a9.27,9.27,0,0,0,2.25,2.58l2.55-1.07c0-1.14-.09-2.24-.18-3.33-.1-1.31-.37-2.6-.59-3.9a3.16,3.16,0,0,0-.32-.89c-.52-1.11-1.8-1.24-2.27-.05-.6,1.53-1.34,3-1.81,4.56A3.09,3.09,0,0,0,553.45,162.69Z"/><path class="cls-1" d="M496.7,182.62c-.06-.05-.15-.1-.16-.16-.26-3.5,1-6.62,2.55-9.63a1.3,1.3,0,0,1,1.7-.62l.22.13C502.12,177.13,501,181.23,496.7,182.62Z"/><path class="cls-1" d="M489.68,171.33c.32-1.05,1.27-1.31,2.67-1a6.86,6.86,0,0,1-1.51,4.87A3.29,3.29,0,0,1,489.68,171.33Z"/><path class="cls-1" d="M518.8,183.32a1.94,1.94,0,0,1,0,.59c.46.14.93.28,1.41.39.15-.48.35-1,.47-1.5s-.27-1.08-.89-.86S518.6,182.46,518.8,183.32Z"/><path class="cls-1" d="M481.79,149a8.47,8.47,0,0,0,1.13.09c-.38-.79-.7-.94-1.1-.63A.69.69,0,0,0,481.79,149Z"/><path class="cls-1" d="M523,134.9a19.78,19.78,0,0,0,2.16-2.32c.25-.32.45-1,.28-1.24a1.71,1.71,0,0,0-1.27-.71,10.22,10.22,0,0,0-2.64.46c-1.37.38-2.69,1-4.07,1.27-2.78.64-4.6,2.51-6.24,4.63-.53.7-1,1.47-1.54,2.37a3.43,3.43,0,0,0,.82.21c2.14-.4,4.26-.9,6.38-1.18C519.44,138.06,521.24,136.52,523,134.9Z"/><path class="cls-1" d="M575.42,146.72a1.08,1.08,0,0,0,1.13,1h0c2.55.17,5.06.38,7.59.57a8.52,8.52,0,0,1,1,.05c.13-2.48.09-4.74-1.18-6.75a26.09,26.09,0,0,0-6.76-6.86,3.28,3.28,0,0,0-1.45,2.22A20.7,20.7,0,0,0,575.42,146.72Z"/><path class="cls-1" d="M499.41,163.77a14.12,14.12,0,0,1-.73,1.64c0,.05-.85-.21-.84-.31a5.19,5.19,0,0,1,.34-1.55A6.34,6.34,0,0,1,499.41,163.77Z"/><path class="cls-1" d="M504.9,176.19c-.47-.36-1-.64-.55-1.35a.76.76,0,0,1,.72-.15C505.69,175.18,505.45,175.67,504.9,176.19Z"/><path class="cls-1" d="M560.1,153.79a17.1,17.1,0,0,0,3.5,1.48c1,.34,1.57-.07,1.44-1.18a9.39,9.39,0,0,0-.9-3.49,14.19,14.19,0,0,0-4.47-4.93c-1.53-1-2.49-.64-2.78,1.18a15.1,15.1,0,0,0-.09,2.12A7.54,7.54,0,0,0,560.1,153.79Z"/><path class="cls-1" d="M530.56,174.05l.78-.15a9.21,9.21,0,0,0,.43-1.35.79.79,0,0,0-.46-.64c-.29,0-.81.12-.9.33A1.72,1.72,0,0,0,530.56,174.05Z"/><path class="cls-1" d="M542.55,151.39a40.25,40.25,0,0,0,.9-4.5,1.58,1.58,0,0,0-2-1.8c-2.55.61-5.84,4-6.26,6.62a10.13,10.13,0,0,0-.05,1.46c.18.46.37,1,.58,1.44a1.39,1.39,0,0,0,1.67.85C539.9,155.07,541.88,154,542.55,151.39Z"/><path class="cls-1" d="M491.2,151.2a7.29,7.29,0,0,0,1.37-.44,9.65,9.65,0,0,0,2.87-3.73,10.13,10.13,0,0,0-3.83,2.59C491.32,149.9,491.36,150.47,491.2,151.2Z"/><path class="cls-1" d="M513,172.21c2.16-.56,4.11-1,5.74-2.4-1.06-1.2-1.06-1.2,0-2.68a16,16,0,0,1-2.07-.37c-.33-.11-.57-.5-.86-.77a4,4,0,0,1,.78-.69,13.47,13.47,0,0,1,1.63-.53v-.22a30.52,30.52,0,0,0-3.42.58c-1.12.31-1.37,2.06-.54,3.26.18.26.46.45.64.7s.49.75.76,1.17c-1,.27-1,.27-2.55-.76C513,170.38,513,171.18,513,172.21Z"/><path class="cls-1" d="M526,162.09c.64.94,1.47,1,2.2.16.38-.46.73-.76,1.31-.64a1.14,1.14,0,0,0,1.24-.75,9.94,9.94,0,0,0,.64-1.46c.59-1.86-.48-3-2.64-2.55a4.22,4.22,0,0,0-3.09,2.84A2.55,2.55,0,0,0,526,162.09Z"/><path class="cls-1" d="M545.72,159.81c1.43-2.09,1.41-3.94,0-5.28C543.92,155.64,543.88,157.54,545.72,159.81Z"/><path class="cls-1" d="M503.08,161.57c1-1.34.86-3,1.64-4.71a3.44,3.44,0,0,0-1.72,4.55A1.19,1.19,0,0,0,503.08,161.57Z"/><path class="cls-1" d="M605,138.16a2.45,2.45,0,0,0,2.4,1.12,12.32,12.32,0,0,0,5.91-2.07,5.16,5.16,0,0,0,.69-.63,3,3,0,0,0,.21-.64,11.12,11.12,0,0,0-1.83-.17A28.17,28.17,0,0,0,605,138.16Z"/><path class="cls-1" d="M528.75,149.66a.91.91,0,0,0-1.26-.3l-.13.1a12.72,12.72,0,0,0-4.34,5.69.42.42,0,0,0,.06.14C526.29,155.56,528.18,153.15,528.75,149.66Z"/><path class="cls-1" d="M598.75,137.37c.84.12,1.22-.3,1-1.2a1.3,1.3,0,0,0-.22-.48,9.21,9.21,0,0,0-4.42-2.92,1.46,1.46,0,0,0-1.28.34,1.52,1.52,0,0,0,.16,1.28A6.54,6.54,0,0,0,598.75,137.37Z"/><path class="cls-1" d="M560.68,159c.26,1.28.55,2.55.83,3.83l2.88-1.28c-.06-.25-.1-.5-.17-.75-.34-1.18-1.43-2.17-2.24-3.19-.19-.24-.64-.25-1.32-.47A10.51,10.51,0,0,0,560.68,159Z"/><path class="cls-1" d="M546.27,169.11c1.28-.49,2.56-1,3.88-1.54-.08-.18-.16-.37-.25-.56l-1.21-2.55C547.52,165.11,546.46,167.33,546.27,169.11Z"/><path class="cls-1" d="M491.65,155.62a10.83,10.83,0,0,1,1.08-1.67,8.25,8.25,0,0,1,1.27,1.53,21.64,21.64,0,0,1,1.55,4.82,6.69,6.69,0,0,1-2.95,6.7c-1.91,1.31-3.53.56-3.72-1.69a5.92,5.92,0,0,1,.13-2.18C489.82,160.6,490.72,158.11,491.65,155.62Z"/><path class="cls-1" d="M492.64,180.72a2.75,2.75,0,0,0,.91-2.84c-.15-.34-.4-.54-.75-.32A2.25,2.25,0,0,0,492.64,180.72Z"/><path class="cls-1" d="M511.6,188.46q2.25.09,4.62.15a4.34,4.34,0,0,0-.06-.61c-.12-.94-.26-1.88-.38-2.82C514.33,185.3,512.42,186.9,511.6,188.46Z"/><path class="cls-1" d="M494,126a9.53,9.53,0,0,1-1.33-.73,1.83,1.83,0,0,1-.89-1.27,9.91,9.91,0,0,1-.12-1.08,1.24,1.24,0,0,0,0-.47.52.52,0,0,0-.29-.29.5.5,0,0,0-.29.16,5.19,5.19,0,0,0-.31.5,4.58,4.58,0,0,1-2.44-3.26h.19a4,4,0,0,1,1.59,1c1.1,1,2.22,2.08,3.28,3.19a4.28,4.28,0,0,1,1.15,1.78C494.63,126,494.43,126.15,494,126Z"/><path class="cls-1" d="M589.59,164.32c-.32-.76.1-1.37,1.07-1.86a5.16,5.16,0,0,1,1.48,3.53A2.46,2.46,0,0,1,589.59,164.32Z"/><path class="cls-1" d="M433,135.59a1.87,1.87,0,0,1,1.36.86c.25.45.11.76-.36.89a2.82,2.82,0,0,1-2.66-.75C431.45,135.71,432,135.39,433,135.59Z"/><path class="cls-1" d="M647.4,75.14c-14.74-7.66-62.19-30.37-73.74-35.66-13.52-6.2-35.1-16.83-36.52-17.38S523.22,15.25,519.61,10c0,0-9.92.85-17.34,12A28,28,0,0,0,497.4,36.9c-.12,5.23,3.07,12.65,9.1,17.23,18,13.75,74.84,37.58,87.77,42.58,0,0,47.86,19.24,41.35,29.94l-.06.09c3.93-2.16,7.46-4.18,10.21-5.89,3.11-1.91,13.91-8.29,14-23.67C659.76,82.41,649.89,76.44,647.4,75.14Z"/><path class="cls-1" d="M635.62,126.65c3.09-1.73,7.89-4.4,10.14-5.8,3.11-1.91,13.9-8.29,14-23.67,0-14.77-9.83-20.74-12.32-22-14.74-7.66-62.19-30.37-73.74-35.66-13.52-6.2-35.1-16.83-36.52-17.38S523.22,15.25,519.61,10c0,0-9.92.85-17.34,12A28,28,0,0,0,497.4,36.9c-.12,5.23,3.07,12.65,9.1,17.23,18,13.75,74.84,37.58,87.77,42.58C607.25,101.94,641.25,117.64,635.62,126.65Z"/><path class="cls-4" d="M635.62,126.65c3.09-1.73,7.89-4.4,10.14-5.8,3.11-1.91,13.9-8.29,14-23.67,0-14.77-9.83-20.74-12.32-22-14.74-7.66-62.19-30.37-73.74-35.66-13.52-6.2-35.1-16.83-36.52-17.38S523.22,15.25,519.61,10c0,0-4.77,29.75,55.87,59.68C619.87,91.55,655.77,113.89,635.62,126.65Z"/><path class="cls-1" d="M635.62,126.65C670.37,102.65,503.29,63.2,502.25,22a28,28,0,0,0-4.87,14.89c-.12,5.23,3.07,12.65,9.1,17.23,18.06,13.77,74.86,37.6,87.79,42.6C607.25,101.94,641.25,117.64,635.62,126.65Z"/></g></g></svg>