<svg width="143" height="24" viewBox="0 0 143 24" fill="none" xmlns="http://www.w3.org/2000/svg">
	<path d="M35.0759 8.168C33.4399 8.168 32.2519 8.773 31.4459 9.804V4H28.5549V19.686H31.4449V18.364C32.2519 19.394 33.4399 20 35.0749 20C38.0779 20 40.5429 17.423 40.5429 14.084C40.5429 10.745 38.0779 8.168 35.0759 8.168V8.168ZM34.5379 17.244C32.7679 17.244 31.4449 15.966 31.4449 14.084C31.4449 12.202 32.7669 10.924 34.5379 10.924C36.3309 10.924 37.6529 12.202 37.6529 14.084C37.6529 15.966 36.3309 17.244 34.5379 17.244V17.244ZM47.9149 20C51.2089 20 53.8539 17.423 53.8539 14.084C53.8539 10.745 51.2089 8.168 47.9149 8.168C44.6209 8.168 41.9999 10.745 41.9999 14.084C41.9999 17.423 44.6209 20 47.9149 20ZM47.9149 17.176C46.2119 17.176 44.8899 15.899 44.8899 14.084C44.8899 12.269 46.2119 10.991 47.9149 10.991C49.6409 10.991 50.9629 12.269 50.9629 14.084C50.9629 15.899 49.6409 17.176 47.9149 17.176ZM64.4029 8.482V9.804C63.5959 8.796 62.3859 8.168 60.7499 8.168C57.7699 8.168 55.3049 10.745 55.3049 14.084C55.3049 17.423 57.7699 20 60.7499 20C62.3859 20 63.5959 19.372 64.4029 18.364V19.686H67.2929V8.482H64.4029V8.482ZM61.2879 17.244C59.5179 17.244 58.1949 15.966 58.1949 14.084C58.1949 12.202 59.5179 10.924 61.2879 10.924C63.0809 10.924 64.4029 12.202 64.4029 14.084C64.4029 15.966 63.0799 17.244 61.2879 17.244ZM72.8049 10.409V8.482H69.9149V19.686H72.8049V14.33C72.8049 11.978 74.7099 11.305 76.2109 11.485V8.258C74.7999 8.258 73.3879 8.885 72.8049 10.408V10.409ZM85.9799 4V9.804C85.1729 8.773 83.9859 8.168 82.3499 8.168C79.3469 8.168 76.8819 10.745 76.8819 14.084C76.8819 17.423 79.3469 20 82.3499 20C83.9859 20 85.1729 19.395 85.9799 18.364V19.686H88.8709V4H85.9809H85.9799ZM82.8879 17.244C81.0949 17.244 79.7729 15.966 79.7729 14.084C79.7729 12.202 81.0949 10.924 82.8879 10.924C84.6579 10.924 85.9799 12.202 85.9799 14.084C85.9799 15.966 84.6579 17.244 82.8879 17.244Z" fill="white" />
	<path d="M94.4039 10.41V8.48197H91.5139V19.686H94.4039V14.331C94.4039 11.978 96.3089 11.305 97.8109 11.485V8.25797C96.3989 8.25797 94.9869 8.88497 94.4039 10.409V10.41ZM104.419 20C107.713 20 110.357 17.423 110.357 14.084C110.357 10.745 107.713 8.16797 104.419 8.16797C101.124 8.16797 98.5029 10.745 98.5029 14.084C98.5029 17.424 101.124 20 104.419 20ZM104.419 17.177C102.716 17.177 101.393 15.899 101.393 14.084C101.393 12.269 102.716 10.992 104.419 10.992C106.144 10.992 107.466 12.269 107.466 14.084C107.466 15.899 106.144 17.177 104.419 17.177ZM117.724 20C121.018 20 123.662 17.423 123.662 14.084C123.662 10.745 121.018 8.16797 117.724 8.16797C114.43 8.16797 111.808 10.745 111.808 14.084C111.808 17.424 114.43 20 117.724 20ZM117.724 17.177C116.021 17.177 114.699 15.899 114.699 14.084C114.699 12.269 116.021 10.992 117.724 10.992C119.449 10.992 120.771 12.269 120.771 14.084C120.771 15.899 119.449 17.177 117.724 17.177ZM138.088 8.16797C136.564 8.16797 135.444 8.77297 134.749 9.78197C134.121 8.75097 133.091 8.16797 131.701 8.16797C130.267 8.16797 129.214 8.72797 128.587 9.66997V8.48197H125.696V19.686H128.587V13.39C128.587 11.709 129.46 10.857 130.693 10.857C131.903 10.857 132.575 11.664 132.575 12.987V19.687H135.466V13.39C135.466 11.709 136.273 10.857 137.55 10.857C138.76 10.857 139.432 11.664 139.432 12.987V19.687H142.323V12.785C142.323 9.98297 140.642 8.16797 138.088 8.16797V8.16797Z" fill="white" />
	<path fill-rule="evenodd" clip-rule="evenodd" d="M6.07007 14.513L10.4441 12L14.8171 14.512L10.4441 17.025L6.07007 14.512V14.513Z" fill="white" fill-opacity="0.8" />
	<path fill-rule="evenodd" clip-rule="evenodd" d="M3.03502 7.74495V16.257L-0.000976562 18.001V5.99995L3.03502 4.25695V7.74395V7.74495ZM6.04502 2.52795L10.443 0.00195312V3.48895L6.04502 6.01595V2.52795ZM14.817 14.513L10.445 12V6.97395L14.817 9.48595V14.512V14.513ZM6.07002 9.48695L10.444 6.97495V12.001L6.07002 14.513V9.48695Z" fill="white" />
	<path fill-rule="evenodd" clip-rule="evenodd" d="M10.444 20.5121L17.853 16.2561L20.888 18.0001L15.667 21.0001L10.444 24.0001L5.22202 21.0001L-0.000976562 18.0001L3.03502 16.2561L10.445 20.5121H10.444Z" fill="white" fill-opacity="0.8" />
	<path fill-rule="evenodd" clip-rule="evenodd" d="M17.8531 7.744L10.4441 3.488V0L15.6671 3L20.8881 6V18L17.8531 16.256V7.744V7.744Z" fill="white" />
</svg>
