<svg id="Layer_1" data-name="Layer 1" xmlns="http://www.w3.org/2000/svg" viewBox="0 0 283.81 62.81"><path d="M128,24.76l.25,1.79c4.46-3.45,8.76-3.52,12.69.07,2.25-.87,4.32-2.06,6.54-2.43,5.1-.87,8.71,2,9.44,7.08a13.74,13.74,0,0,1,.1,2V47.16h-6.09V41c0-2.43,0-4.87,0-7.3-.09-2.9-1.36-4.34-3.7-4.36a4.08,4.08,0,0,0-4.36,4.32c-.12,4.12-.05,8.24-.07,12.36,0,.34,0,.67-.09,1.15h-6c0-3.38,0-6.67,0-10a36.58,36.58,0,0,0-.12-4.45c-.26-2.23-1.4-3.3-3.33-3.42a4,4,0,0,0-4.34,2.9,10.44,10.44,0,0,0-.32,2.79c0,4,0,8,0,12.12h-6V24.76Z" style="fill:#fff"/><path d="M94,35.77c-.79,7.43-7.28,12.32-15.64,12S63.92,41,63.75,32.37C63.57,23.15,69.26,16.56,78,15.86c8.1-.65,14.78,4.25,16,11.86h-6.4C84.8,22.65,81.72,21,77,22.09c-4.5,1-7,5.1-6.56,10.67.53,6.72,5.16,10.33,11.23,8.76A7.68,7.68,0,0,0,87,37c.22-.48.71-1.15,1.11-1.18C90.07,35.7,92,35.77,94,35.77Z" style="fill:#fff"/><path d="M277.75,26.56c0-2.83.09-5.31,0-7.77-.1-1.88.52-2.92,2.47-3.18a32.07,32.07,0,0,0,3.62-.88V47.28h-5.3l-.41-2.05a25.34,25.34,0,0,1-4,2.09,10,10,0,0,1-12.73-6.66,14.13,14.13,0,0,1,.74-11.2,9.86,9.86,0,0,1,14.36-3.74ZM278,36c0-3.83-2.3-6.52-5.65-6.52s-5.58,2.62-5.64,6.36,2.35,6.54,5.67,6.55S277.92,39.7,278,36Z" style="fill:#fff"/><path d="M167.23,45.77c0,2.37-.06,5,0,7.7a2.07,2.07,0,0,1-1.88,2.4c-1.36.28-2.7.63-4.16,1V24.75h5.42l.17,1.48c2.25-.72,4.51-1.94,6.85-2.1,6.5-.46,11.12,5,10.77,12.32-.35,7.06-4.66,11.69-10.85,11.23C171.47,47.52,169.44,46.46,167.23,45.77Zm11-9.81c0-3.57-1.89-6.12-4.81-6.45-3.43-.39-6.05,1.91-6.31,5.53-.31,4.25,1.85,7.19,5.39,7.35C175.84,42.53,178.26,39.82,178.27,36Z" style="fill:#fff"/><path d="M197.56,47.78a11.56,11.56,0,0,1-11.68-12.12,11.94,11.94,0,0,1,23.87.5A11.6,11.6,0,0,1,197.56,47.78ZM192,36c0,3.77,2.46,6.42,5.84,6.39s5.86-2.8,5.78-6.66-2.48-6.3-5.94-6.25S192,32.2,192,36Z" style="fill:#fff"/><path d="M95.75,35.8A11.5,11.5,0,0,1,107.54,24a11.65,11.65,0,0,1,12,12,11.61,11.61,0,0,1-12.06,11.76A11.49,11.49,0,0,1,95.75,35.8Zm17.64.09c0-3.89-2.27-6.41-5.73-6.43s-5.86,2.65-5.81,6.57,2.45,6.39,5.85,6.34S113.41,39.73,113.39,35.89Z" style="fill:#fff"/><path d="M237.24,24.7h5.31l.34,2.11a8.9,8.9,0,0,1,8.22-2.62c3.56.53,6.24,2.72,6.45,6.25.33,5.5.08,11,.08,16.69h-5.76c0-.68-.1-1.39-.11-2.1,0-3.71,0-7.43,0-11.14-.05-3.06-1.26-4.47-3.7-4.58-2.73-.12-4.58,1.44-4.73,4.4-.2,3.7-.09,7.42-.12,11.14v2.3h-6Z" style="fill:#fff"/><path d="M226.86,24.68h6c0,.67.09,1.31.09,1.95,0,3.44-.09,6.89,0,10.32.29,8.91-4.89,11.63-12.78,10.62-5-.63-7.35-3.1-7.65-8.13-.28-4.83-.06-9.68-.06-14.67h6c0,2.57,0,5.06,0,7.54,0,2-.05,4,.08,6.07.18,2.74,1.49,3.88,4.17,3.86s4-1.36,4.05-4c.08-3.71,0-7.42,0-11.13C226.87,26.36,226.86,25.63,226.86,24.68Z" style="fill:#fff"/><path d="M0,43.15V35s0-4.83,5-1.78S26.44,45.77,26.44,45.77a4.72,4.72,0,0,1,2.29,3.9v11.1s-.85,3.73-5.09,1.11S2.63,49,2.63,49,0,47.52,0,43.15Z" style="fill:#fff"/><path d="M10.93,31,30.68,43.4a6.71,6.71,0,0,1,2.54,5.51V59.16l5.26-3s.93-.08.93-2.37V34a6.91,6.91,0,0,0-3.82-5.34C32,26.71,14.92,16.71,14.92,16.71s-4-2-4,1.35Z" style="fill:#fff"/><path d="M21.19,14.67l19.74,12.2s3,1.53,3,4.58V52.81l5.34-3.14V18.74s.18-4.15-3-5.93C42.12,10.45,25.17.69,25.17.69s-4-2.37-4,1.69Z" style="fill:#fff"/></svg>