<svg width="136" height="41" viewBox="0 0 136 41" fill="none" xmlns="http://www.w3.org/2000/svg">
	<path d="M25.866 17.3525L28.8342 14.3843L14.6999 0.25L0.565674 14.3843L3.53387 17.3525L0.565674 20.3207L3.4632 23.2182L0.565674 26.1157L14.6999 40.25L28.8342 26.1157L25.866 23.2182L28.7636 20.3207L25.866 17.3525ZM2.40313 14.3843L14.6999 2.15813L26.9261 14.3843L24.9473 16.3631L14.6999 6.11572L4.38193 16.3631L2.40313 14.3843ZM14.6999 26.6811L8.33953 20.3207L14.6999 13.9602L21.0604 20.3207L14.6999 26.6811ZM21.9791 21.1687L23.9579 23.1475L14.6999 32.5468L5.37133 23.2182L7.35013 21.2394L14.6999 28.5186L21.9791 21.1687ZM14.6999 11.9814L7.35013 19.3313L5.37133 17.3525L14.6999 8.02385L24.0286 17.3525L21.9791 19.3313L14.6999 11.9814ZM2.40313 20.25L4.38193 18.2712L6.36073 20.25L4.38193 22.2288L2.40313 20.25ZM26.9261 26.1157L14.6999 38.4125L2.40313 26.1157L4.38193 24.1369L14.6293 34.3843L24.8766 24.1369L26.9261 26.1157ZM22.9685 20.25L24.9473 18.2712L26.9261 20.25L24.9473 22.2288L22.9685 20.25Z" fill="white" />
	<path d="M52.037 26.2484H45.7083V11.5579H52.037C52.9472 11.5712 53.7047 11.6775 54.3093 11.8768C55.3392 12.2157 56.173 12.8369 56.8109 13.7405C57.3225 14.4714 57.6713 15.2621 57.8574 16.1125C58.0434 16.963 58.1364 17.7736 58.1364 18.5444C58.1364 20.4978 57.7444 22.1522 56.9604 23.5077C55.8973 25.3348 54.2562 26.2484 52.037 26.2484ZM54.3193 15.3053C53.8475 14.5079 52.914 14.1093 51.5187 14.1093H48.6882V23.697H51.5187C52.9672 23.697 53.9771 22.9828 54.5485 21.5542C54.8608 20.7702 55.0169 19.8367 55.0169 18.7537C55.0169 17.2587 54.7844 16.1092 54.3193 15.3053Z" fill="white" />
	<path d="M68.2432 23.2286H62.8314L61.8149 26.2484H58.6057L63.848 11.5579H67.3163L72.5188 26.2484H69.19L68.2432 23.2286ZM67.3861 20.6971L65.5523 14.9166L63.6586 20.6971H67.3861Z" fill="white" />
	<path d="M80.0742 26.6571C77.9746 26.6571 76.37 26.0856 75.2604 24.9428C73.7721 23.5409 73.0279 21.521 73.0279 18.8832C73.0279 16.1923 73.7721 14.1724 75.2604 12.8236C76.37 11.6808 77.9746 11.1094 80.0742 11.1094C82.1738 11.1094 83.7784 11.6808 84.888 12.8236C86.3697 14.1724 87.1105 16.1923 87.1105 18.8832C87.1105 21.521 86.3697 23.5409 84.888 24.9428C83.7784 26.0856 82.1738 26.6571 80.0742 26.6571ZM82.9744 22.7103C83.6854 21.8134 84.0409 20.5376 84.0409 18.8832C84.0409 17.2354 83.6821 15.963 82.9645 15.0661C82.2535 14.1624 81.2901 13.7106 80.0742 13.7106C78.8583 13.7106 77.8882 14.1591 77.164 15.0561C76.4398 15.9531 76.0777 17.2288 76.0777 18.8832C76.0777 20.5376 76.4398 21.8134 77.164 22.7103C77.8882 23.6073 78.8583 24.0558 80.0742 24.0558C81.2901 24.0558 82.2569 23.6073 82.9744 22.7103Z" fill="white" />
	<path d="M95.9017 15.8833C96.7522 16.4281 97.2406 17.365 97.3668 18.6939H94.5264C94.4865 18.3284 94.3835 18.0394 94.2174 17.8268C93.9051 17.4414 93.3736 17.2487 92.6228 17.2487C92.0049 17.2487 91.563 17.3451 91.2972 17.5377C91.0381 17.7304 90.9085 17.9563 90.9085 18.2155C90.9085 18.541 91.0481 18.7769 91.3271 18.9231C91.6062 19.0759 92.5929 19.3383 94.2872 19.7104C95.4167 19.9762 96.2639 20.3782 96.8286 20.9164C97.3867 21.4612 97.6658 22.1422 97.6658 22.9595C97.6658 24.0359 97.2638 24.9162 96.4599 25.6006C95.6625 26.2783 94.4267 26.6172 92.7523 26.6172C91.0448 26.6172 89.7823 26.2584 88.9651 25.5408C88.1545 24.8166 87.7492 23.8963 87.7492 22.7801H90.6295C90.6893 23.2851 90.8188 23.6439 91.0182 23.8565C91.3703 24.2352 92.0215 24.4246 92.9716 24.4246C93.5297 24.4246 93.9716 24.3415 94.2971 24.1754C94.6294 24.0093 94.7955 23.7601 94.7955 23.4279C94.7955 23.109 94.6626 22.8665 94.3968 22.7004C94.131 22.5343 93.1444 22.2486 91.4368 21.8433C90.2076 21.5376 89.3405 21.1556 88.8355 20.6971C88.3306 20.2453 88.0781 19.5942 88.0781 18.7437C88.0781 17.7404 88.4701 16.88 89.2541 16.1624C90.0448 15.4381 91.1544 15.076 92.5829 15.076C93.9383 15.076 95.0446 15.3451 95.9017 15.8833Z" fill="white" />
	<path d="M103.936 24.2252V26.3481L102.59 26.3979C101.248 26.4444 100.331 26.2119 99.8393 25.7003C99.5204 25.3747 99.3609 24.8731 99.3609 24.1953V17.5078H97.846V15.4847H99.3609V12.4548H102.171V15.4847H103.936V17.5078H102.171V23.2485C102.171 23.6937 102.228 23.9728 102.341 24.0857C102.454 24.192 102.799 24.2452 103.377 24.2452C103.464 24.2452 103.553 24.2452 103.646 24.2452C103.746 24.2385 103.842 24.2319 103.936 24.2252Z" fill="white" />
	<path d="M105.352 16.561C106.102 15.6042 107.391 15.1259 109.219 15.1259C110.408 15.1259 111.464 15.3617 112.388 15.8335C113.311 16.3052 113.773 17.1956 113.773 18.5045V23.4877C113.773 23.8332 113.78 24.2518 113.793 24.7435C113.813 25.1156 113.87 25.3681 113.963 25.5009C114.056 25.6338 114.195 25.7435 114.381 25.8298V26.2484H111.292C111.205 26.0292 111.145 25.8232 111.112 25.6305C111.079 25.4378 111.052 25.2186 111.032 24.9727C110.64 25.398 110.189 25.7601 109.677 26.0591C109.066 26.4112 108.375 26.5873 107.604 26.5873C106.621 26.5873 105.807 26.3082 105.162 25.7501C104.524 25.1853 104.205 24.388 104.205 23.3582C104.205 22.0226 104.72 21.0559 105.75 20.4579C106.315 20.1323 107.146 19.8998 108.242 19.7603L109.209 19.6407C109.733 19.5742 110.109 19.4912 110.335 19.3915C110.74 19.2188 110.943 18.9497 110.943 18.5842C110.943 18.1391 110.787 17.8334 110.474 17.6673C110.169 17.4946 109.717 17.4082 109.119 17.4082C108.448 17.4082 107.973 17.5743 107.694 17.9065C107.494 18.1523 107.361 18.4846 107.295 18.9031H104.554C104.614 17.953 104.88 17.1723 105.352 16.561ZM107.464 24.1953C107.73 24.4146 108.056 24.5242 108.441 24.5242C109.052 24.5242 109.614 24.3448 110.125 23.986C110.644 23.6272 110.913 22.9728 110.933 22.0226V20.9662C110.753 21.0792 110.571 21.1722 110.385 21.2453C110.205 21.3117 109.956 21.3748 109.637 21.4346L108.999 21.5542C108.401 21.6605 107.973 21.7901 107.714 21.9429C107.275 22.202 107.056 22.604 107.056 23.1489C107.056 23.6339 107.192 23.9827 107.464 24.1953Z" fill="white" />
	<path d="M124.887 19.2819H121.976C121.923 18.8766 121.787 18.5111 121.568 18.1856C121.249 17.747 120.754 17.5278 120.083 17.5278C119.126 17.5278 118.472 18.0028 118.119 18.953C117.933 19.4579 117.84 20.129 117.84 20.9662C117.84 21.7635 117.933 22.4047 118.119 22.8897C118.458 23.7934 119.096 24.2452 120.033 24.2452C120.697 24.2452 121.169 24.0658 121.448 23.707C121.727 23.3482 121.897 22.8831 121.956 22.3117H124.857C124.79 23.1754 124.478 23.9927 123.92 24.7634C123.03 26.0059 121.711 26.6272 119.963 26.6272C118.216 26.6272 116.93 26.1089 116.106 25.0724C115.282 24.0359 114.87 22.6904 114.87 21.036C114.87 19.1689 115.325 17.7171 116.236 16.6806C117.146 15.6441 118.402 15.1259 120.003 15.1259C121.365 15.1259 122.478 15.4315 123.342 16.0428C124.212 16.654 124.727 17.7337 124.887 19.2819Z" fill="white" />
	<path d="M136 26.2484H132.572L129.97 21.6041L128.794 22.8299V26.2484H126.004V11.6077H128.794V19.5211L132.332 15.4348H135.851L132.053 19.5908L136 26.2484Z" fill="white" />
</svg>
