<svg id="Layer_1" data-name="Layer 1" xmlns="http://www.w3.org/2000/svg" viewBox="0 0 274.73 57.14"><path d="M41.78,0c1.77.5,2.84,1.91,4.06,3.13Q57.55,14.8,69.25,26.49a3.78,3.78,0,0,1,1.3,2.3,3.43,3.43,0,0,1-1.07,2.95L45.24,55.94a3.24,3.24,0,0,1-5.06,0L15.19,31c-1-1-1-1-2,0a3.45,3.45,0,0,0-1,3.9,4.48,4.48,0,0,0,1.1,1.57q4.94,5,9.93,9.92a4.05,4.05,0,0,0,.76.47,32.24,32.24,0,0,1-2.65,2.43,3.16,3.16,0,0,1-4.08-.38Q9.09,40.82,1,32.7a3.16,3.16,0,0,1,0-4.59q7.65-7.68,15.34-15.32a3.2,3.2,0,0,1,4.57-.06c.93.86,1.84,1.77,2.71,2.7.43.46.7.45,1.15,0,4.56-4.58,9.15-9.13,13.7-13.72A7,7,0,0,1,41.09,0Z" style="fill:#fff"/><path d="M81.7,41.88V13.09c.2,0,.4-.05.6-.05,4.4,0,8.81,0,13.21,0a17.11,17.11,0,0,1,7.07,1.54,12.94,12.94,0,0,1,7.92,10.62c.6,4.49-.32,8.62-3.53,12a14.9,14.9,0,0,1-9.14,4.41,29.89,29.89,0,0,1-3.67.23c-3.87,0-7.73,0-11.6,0Zm6.63-5.54c2.54,0,5,.2,7.49,0,4.91-.49,7.68-3.33,8.07-8.07.4-4.89-2.26-8.79-7.15-9.47a73.06,73.06,0,0,0-8.25-.26s-.08,0-.16.09Z" style="fill:#fff"/><path d="M260.42,26v5.32H247.11V41.8h-6.62V13.12h21.7v5.23H247.13V26Z" style="fill:#fff"/><path d="M138,32.62H121.29a4.94,4.94,0,0,0,3,3.75,7.93,7.93,0,0,0,8.38-1c.17-.13.32-.27.54-.45l3.39,3.68a8.88,8.88,0,0,1-3.9,2.69,15.12,15.12,0,0,1-11.57-.44,10.83,10.83,0,0,1-6.26-11.29,11,11,0,0,1,8.64-9.85,12.71,12.71,0,0,1,9.11,1.08A11.12,11.12,0,0,1,138,32.62ZM132,28.85c0-2.5-2.53-4.67-5.39-4.66s-5.39,2.17-5.36,4.66Z" style="fill:#fff"/><path d="M273.91,19.78v22H267.6v-22Z" style="fill:#fff"/><path d="M184.89,31.2H165.94A9.48,9.48,0,0,0,170.81,40c3.26,1.77,8.84,1.9,12.17-2l.66.57a26.5,26.5,0,0,1-2.47,1.94c-5.74,3.44-15.18,1-16-8.16A10.75,10.75,0,0,1,168.35,23a9.75,9.75,0,0,1,16.12,5.11C184.69,29.11,184.75,30.1,184.89,31.2Zm-19-.83H184c-.23-5.45-4.4-9.4-9.65-9.11C168.72,21.58,165.94,26.5,165.89,30.37Z" style="fill:#fff"/><path d="M270.74,16.61c-2.71,0-4.49-2.07-3.87-4.5a3.93,3.93,0,0,1,4.5-2.62c2.13.29,3.46,1.73,3.36,3.62A3.71,3.71,0,0,1,270.74,16.61Z" style="fill:#fff"/><path d="M221.9,22.69l-.47.56a11.57,11.57,0,0,0-9.25-1.72c-2.26.46-3.62,1.77-3.94,3.67a3.62,3.62,0,0,0,2,4.22,32,32,0,0,0,4.55,1.41c1.32.36,2.66.61,4,1a8.27,8.27,0,0,1,1.35.54c3.49,1.61,3.17,6.25.72,8a8.32,8.32,0,0,1-4.06,1.49,14.17,14.17,0,0,1-8.19-1.28,25.8,25.8,0,0,1-2.19-1.4l.52-.69a12.65,12.65,0,0,0,11.32,2.33c2.51-.6,3.77-2.27,3.65-4.62a3.31,3.31,0,0,0-2.19-3.11c-1.64-.61-3.37-1-5.06-1.43-1.44-.4-2.93-.69-4.33-1.22a4.35,4.35,0,0,1-3-4.1,4.86,4.86,0,0,1,2.58-4.73C213.07,19.76,219.17,20.3,221.9,22.69Z" style="fill:#fff"/><path d="M151.1,40.92c.38-.81.69-1.47,1-2.14q4-8.78,8-17.55c.24-.54.53-.76,1.16-.58-.06.16-.1.33-.17.48q-4.65,10.11-9.33,20.21c-.11.22-.42.51-.61.5a1,1,0,0,1-.67-.51q-4.65-10-9.27-20.08c-.08-.19-.15-.38-.22-.57.61-.23.9,0,1.14.53q4.27,9.45,8.6,18.87C150.81,40.31,150.92,40.53,151.1,40.92Z" style="fill:#fff"/><path d="M193.79,41.81H193V20.64h.74v5a8.43,8.43,0,0,1,8.34-5.16l0,.64a.92.92,0,0,1-.2.1,19.84,19.84,0,0,0-2.47.34c-3.35.92-5,3.35-5.51,6.61a16.41,16.41,0,0,0-.18,2.62c0,3.4,0,6.8,0,10.2Z" style="fill:#fff"/><path d="M230.32,20.63h.7V41.8h-.7Z" style="fill:#fff"/><path d="M231.7,13.65a1,1,0,0,1-1.06,1,1.09,1.09,0,0,1-1-1.07,1.07,1.07,0,0,1,1.08-1A1,1,0,0,1,231.7,13.65Z" style="fill:#fff"/></svg>