<svg id="Layer_1" data-name="Layer 1" xmlns="http://www.w3.org/2000/svg" viewBox="0 0 239.82 43.57"><path d="M143,27.28H132V20.56h18.31v22h-7.13V36.29l-.12,0a1,1,0,0,0-.12.16,12.15,12.15,0,0,1-9.77,7,17.92,17.92,0,0,1-19.38-11.92,25.75,25.75,0,0,1,.13-19.18C116.89,5,122.51.93,130.39.12a18.43,18.43,0,0,1,13.72,3.69A16.12,16.12,0,0,1,150.38,15c0,.1,0,.2,0,.34h-7.72a18.72,18.72,0,0,0-.86-2.59,9.57,9.57,0,0,0-8.33-5.5,11.54,11.54,0,0,0-10.55,4.53,13.71,13.71,0,0,0-2.56,6.33,19.74,19.74,0,0,0,.77,10.25c1.57,4.17,4.4,7.07,8.82,8.12A10.66,10.66,0,0,0,143,27.28Z" style="fill:#fff"/><path d="M0,42.64V1H.66C5.87,1,11.09.89,16.3,1s9.93,1.56,13.81,5.18A18,18,0,0,1,35.47,16a26.08,26.08,0,0,1-.7,14.12c-2.33,6.67-7.13,10.58-14,12a27.41,27.41,0,0,1-5.35.52c-4.88.07-9.76,0-14.65,0Zm7.62-7.16H8.2c2.75,0,5.5.06,8.25,0a10.8,10.8,0,0,0,9.86-6A16.69,16.69,0,0,0,27.46,17C26,11.35,21.62,8.09,15.78,8.09H7.62Z" style="fill:#fff"/><path d="M205.62,18.33V1h7.21V42.58h-7.2V37.74a4.07,4.07,0,0,0-.35.47,9.86,9.86,0,0,1-9.79,5.23c-5.83-.32-10-3.83-11.49-9.84a20.55,20.55,0,0,1,1.08-13.94,11.91,11.91,0,0,1,12.37-6.81,9.65,9.65,0,0,1,7.84,5.21,3.05,3.05,0,0,0,.22.32Zm.23,9.76a35.06,35.06,0,0,0-.6-3.55A7.28,7.28,0,0,0,191.86,23a11.38,11.38,0,0,0-1,7.24,11.14,11.14,0,0,0,1,3,6.93,6.93,0,0,0,7.68,3.73,6.72,6.72,0,0,0,5.54-4.69A15.69,15.69,0,0,0,205.85,28.09Z" style="fill:#fff"/><path d="M53,43.5a15.22,15.22,0,0,1-9.39-2.94,14.38,14.38,0,0,1-5.6-10,16.77,16.77,0,0,1,1.3-9.43,13.83,13.83,0,0,1,11.74-8.2,16.27,16.27,0,0,1,9,1.37,13.8,13.8,0,0,1,7.82,10.37,16.6,16.6,0,0,1-1.4,11.1,13.72,13.72,0,0,1-11,7.57C54.67,43.41,53.84,43.43,53,43.5ZM52.24,37c3.83,0,6.3-1.48,7.5-4.15a11.12,11.12,0,0,0,.12-9.24,6.91,6.91,0,0,0-6.48-4.4,6.87,6.87,0,0,0-6.77,3.65,10.49,10.49,0,0,0-.27,10A6.69,6.69,0,0,0,52.24,37Z" style="fill:#fff"/><path d="M90.41,42.6H83.18v-29h7.21v4.74l.14,0,.45-.77A8.84,8.84,0,0,1,97.3,13c3.28-.52,6.41-.11,9,2.17a9.82,9.82,0,0,1,3.06,6.28,27.32,27.32,0,0,1,.24,3.5c0,5.65,0,11.3,0,17v.72h-7.26v-.7c0-5.3,0-10.61,0-15.91a12.22,12.22,0,0,0-.24-2.49c-.63-3.08-2.83-4.28-5.72-4-3.14.29-5.16,2.33-5.74,5.63a15.6,15.6,0,0,0-.23,2.55c0,4.74,0,9.48,0,14.21Z" style="fill:#fff"/><path d="M154.29,13.62h7.26v.69c0,5.38,0,10.76,0,16.14a11.82,11.82,0,0,0,.58,3.49,4,4,0,0,0,3.62,2.8,5.77,5.77,0,0,0,6.43-3.93,12,12,0,0,0,.7-4.31c0-4.71,0-9.43,0-14.15v-.72h7.22v29H173V37.94l-.15,0c-.13.21-.25.43-.38.65a8.54,8.54,0,0,1-5.33,4.53c-3.48.85-6.81.52-9.63-1.93a9,9,0,0,1-2.79-5.47,22.92,22.92,0,0,1-.36-3.78c0-5.85,0-11.69,0-17.54Z" style="fill:#fff"/><path d="M78.18,42.6H71v-29h7.18Z" style="fill:#fff"/><path d="M228.35,23a11.42,11.42,0,1,1,11.47-11.37A11.35,11.35,0,0,1,228.35,23Zm9.76-11.39a9.74,9.74,0,1,0-9.89,9.71A9.71,9.71,0,0,0,238.11,11.59Z" style="fill:#fff"/><path d="M79,5.77a4.37,4.37,0,1,1-4.34-4.35A4.33,4.33,0,0,1,79,5.77Z" style="fill:#fff"/><path d="M226.16,17.47V5.7a38,38,0,0,1,4.8.24,4.71,4.71,0,0,1,4,3.8,6.92,6.92,0,0,1-.36,4.68,4.73,4.73,0,0,1-3.82,2.84C229.25,17.45,227.73,17.4,226.16,17.47Zm1.63-10.16v8.52c.75,0,1.47,0,2.18,0a3.41,3.41,0,0,0,3.07-2.1,5.12,5.12,0,0,0,.29-3.49A3.57,3.57,0,0,0,230,7.32,20.63,20.63,0,0,0,227.79,7.31Z" style="fill:#fff"/><path d="M223.23,7.15a1.24,1.24,0,0,1,1.28,1.34,1.31,1.31,0,0,1-2.61,0A1.23,1.23,0,0,1,223.23,7.15Z" style="fill:#fff"/><path d="M221.9,14.69a1.26,1.26,0,0,1,1.31-1.33,1.29,1.29,0,0,1,1.3,1.35,1.31,1.31,0,1,1-2.61,0Z" style="fill:#fff"/></svg>