<svg xmlns="http://www.w3.org/2000/svg" width="190" height="50" viewBox="0 0 190 50" fill="none">
	<path d="M25.2803 49.641C39.0335 49.641 50.1827 38.5285 50.1827 24.8205C50.1827 11.1125 39.0335 0 25.2803 0C11.5271 0 0.37793 11.1125 0.37793 24.8205C0.37793 38.5285 11.5271 49.641 25.2803 49.641Z" fill="url(#paint0_radial)" />
	<path d="M12.6129 12.1945C17.9926 6.83254 25.8884 5.62178 32.396 8.47571L29.0121 11.8485C24.4134 10.5513 19.2941 11.6756 15.7366 15.3078C10.9644 20.0644 10.5305 27.4154 14.3483 32.6908L19.4676 27.5884L22.5913 30.7017L14.2615 38.9176C13.6542 38.4852 13.1336 37.9663 12.6129 37.4474C5.58475 30.4423 5.58475 19.1131 12.6129 12.1945Z" fill="white" />
	<path d="M18.0791 41.1645C24.6735 44.0185 32.5693 42.7212 37.8622 37.4458C44.8904 30.4407 44.8904 19.198 37.8622 12.1929C37.3416 11.674 36.821 11.1551 36.2136 10.7227L27.9706 18.9385L31.0943 22.0519L36.2136 16.9494C40.0314 22.2248 39.5108 29.6624 34.8253 34.3324C31.1811 37.9647 26.0617 39.089 21.5498 37.7917L18.0791 41.1645Z" fill="white" />
	<path d="M28.4045 24.8204L25.2809 21.707L22.1572 24.8204L25.2809 27.9338L28.4045 24.8204Z" fill="white" />
	<path d="M19.3805 15.8281L22.5041 18.9415L19.3805 22.0549L16.2568 18.9415L19.3805 15.8281Z" fill="white" />
	<path d="M34.3049 30.7032L31.1813 27.5898L28.0576 30.7032L31.1813 33.8166L34.3049 30.7032Z" fill="white" />
	<path d="M69.959 15.4114H79.222C81.3675 15.4114 83.2704 15.8125 84.9309 16.6147C86.5913 17.417 87.8786 18.555 88.7928 20.0289C89.707 21.5027 90.164 23.2285 90.164 25.2061C90.164 27.1837 89.707 28.9094 88.7928 30.3833C87.8786 31.8571 86.5913 32.9952 84.9309 33.7974C83.2704 34.5997 81.3675 35.0008 79.222 35.0008H69.959V15.4114ZM78.9981 30.5792C80.6772 30.5792 82.0205 30.1034 83.0279 29.1519C84.054 28.2005 84.5671 26.8852 84.5671 25.2061C84.5671 23.527 84.054 22.2117 83.0279 21.2602C82.0205 20.3087 80.6772 19.833 78.9981 19.833H75.5V30.5792H78.9981Z" fill="white" />
	<path d="M107.537 35.0008L103.479 28.9281L99.4769 35.0008H93.1523L100.288 25.0941L93.4601 15.4114H99.7008L103.619 21.0643L107.481 15.4114H113.469L106.641 24.8703L113.917 35.0008H107.537Z" fill="white" />
	<path d="M119.579 15.4114H127.834C129.905 15.4114 131.743 15.8218 133.347 16.6427C134.952 17.4636 136.192 18.6203 137.069 20.1128C137.965 21.5867 138.412 23.2845 138.412 25.2061C138.412 27.1277 137.965 28.8348 137.069 30.3273C136.192 31.8012 134.952 32.9486 133.347 33.7694C131.743 34.5903 129.905 35.0008 127.834 35.0008H119.579V15.4114ZM127.666 32.5661C129.252 32.5661 130.642 32.2583 131.836 31.6426C133.049 31.0269 133.981 30.1687 134.634 29.068C135.287 27.9486 135.614 26.6613 135.614 25.2061C135.614 23.7509 135.287 22.4729 134.634 21.3722C133.981 20.2528 133.049 19.3852 131.836 18.7696C130.642 18.1539 129.252 17.8461 127.666 17.8461H122.377V32.5661H127.666Z" fill="white" />
	<path d="M157.705 30.1034H147.295L145.14 35.0008H142.258L151.129 15.4114H153.899L162.799 35.0008H159.86L157.705 30.1034ZM156.726 27.8646L152.5 18.2658L148.274 27.8646H156.726Z" fill="white" />
	<path d="M177.089 35.2247C175.112 35.2247 173.33 34.7956 171.744 33.9374C170.158 33.0605 168.908 31.8571 167.994 30.3273C167.099 28.7975 166.651 27.0904 166.651 25.2061C166.651 23.3218 167.099 21.6147 167.994 20.0848C168.908 18.555 170.158 17.361 171.744 16.5028C173.33 15.6259 175.112 15.1875 177.089 15.1875C179.048 15.1875 180.82 15.6259 182.406 16.5028C183.992 17.361 185.233 18.555 186.128 20.0848C187.024 21.596 187.472 23.3031 187.472 25.2061C187.472 27.109 187.024 28.8255 186.128 30.3553C185.233 31.8665 183.992 33.0605 182.406 33.9374C180.82 34.7956 179.048 35.2247 177.089 35.2247ZM177.089 32.734C178.526 32.734 179.813 32.4075 180.951 31.7545C182.108 31.1016 183.013 30.206 183.666 29.068C184.337 27.9113 184.673 26.624 184.673 25.2061C184.673 23.7882 184.337 22.5102 183.666 21.3722C183.013 20.2154 182.108 19.3106 180.951 18.6576C179.813 18.0046 178.526 17.6782 177.089 17.6782C175.653 17.6782 174.347 18.0046 173.171 18.6576C172.015 19.3106 171.1 20.2154 170.429 21.3722C169.776 22.5102 169.449 23.7882 169.449 25.2061C169.449 26.624 169.776 27.9113 170.429 29.068C171.1 30.206 172.015 31.1016 173.171 31.7545C174.347 32.4075 175.653 32.734 177.089 32.734Z" fill="white" />
</svg>
