<svg width="104" height="40" viewBox="0 0 104 40" fill="none" xmlns="http://www.w3.org/2000/svg">
	<path d="M54.8998 26.9996C53.6998 25.0996 53.2998 23.2996 53.2998 19.9996C53.2998 16.8996 53.7998 15.0996 55.0998 13.0996C56.3998 11.1996 58.4998 10.0996 61.1998 10.0996C65.9998 10.0996 68.8998 13.2996 68.8998 18.3996V20.0996C68.8998 20.4996 68.5998 20.8996 68.0998 20.8996H55.9998C55.7998 20.8996 55.5998 20.9996 55.5998 21.2996C55.5998 25.3996 57.5998 27.6996 61.0998 27.6996C63.4998 27.6996 65.4998 26.6996 66.1998 24.0996C66.2998 23.6996 66.6998 23.3996 67.0998 23.3996H67.8998C68.3998 23.3996 68.5998 23.6996 68.5998 24.1996C68.0998 27.5996 65.0998 29.8996 61.1998 29.8996C58.2998 29.8996 56.0998 28.8996 54.8998 26.9996ZM65.9998 18.7996C66.1998 18.7996 66.3998 18.6996 66.3998 18.3996C66.3998 14.4996 64.4998 12.2996 61.1998 12.2996C57.8998 12.2996 55.7998 14.5996 55.7998 18.3996C55.7998 18.5996 55.9998 18.7996 56.1998 18.7996H65.9998Z" fill="white" />
	<path d="M72.6999 26.4996C71.4999 24.5996 71.3999 22.7996 71.3999 19.9996C71.3999 17.1996 71.4999 15.3996 72.6999 13.4996C73.9999 11.3996 76.1999 10.0996 79.0999 10.0996C81.1999 10.0996 82.9999 10.6996 84.2999 11.7996C85.5999 12.9996 86.2999 14.7996 86.2999 16.5996C86.2999 16.9996 86.0999 17.3996 85.5999 17.3996H84.5999C84.2999 17.3996 83.8999 17.1996 83.8999 16.7996C83.8999 15.5996 83.3999 14.2996 82.4999 13.4996C81.6999 12.7996 80.4999 12.4996 79.0999 12.4996C76.9999 12.4996 75.2999 13.4996 74.3999 15.3996C73.7999 16.5996 73.6999 17.8996 73.6999 20.0996C73.6999 22.2996 73.7999 23.5996 74.3999 24.7996C75.2999 26.6996 76.9999 27.6996 79.0999 27.6996C80.7999 27.6996 82.0999 27.1996 82.7999 26.2996C83.4999 25.4996 83.8999 24.2996 83.8999 23.3996C83.8999 22.8996 84.2999 22.6996 84.5999 22.6996H85.4999C85.8999 22.6996 86.2999 22.9996 86.2999 23.4996C86.2999 25.0996 85.6999 26.6996 84.6999 27.7996C83.3999 29.1996 81.4999 29.9996 79.1999 29.9996C76.1999 29.8996 73.9999 28.4996 72.6999 26.4996Z" fill="white" />
	<path d="M89.6999 26.4996C88.6999 24.8996 88.3999 23.4996 88.3999 19.9996C88.3999 16.4996 88.6999 15.0996 89.6999 13.4996C91.0999 11.3996 93.3999 10.0996 96.0999 10.0996C98.7999 10.0996 101.2 11.3996 102.5 13.4996C103.5 15.0996 103.8 16.4996 103.8 19.9996C103.8 23.4996 103.5 24.8996 102.5 26.4996C101.2 28.6996 98.7999 29.8996 96.0999 29.8996C93.3999 29.8996 91.0999 28.5996 89.6999 26.4996ZM100.8 24.6996C101.3 23.5996 101.5 22.5996 101.5 19.9996C101.5 17.3996 101.3 16.3996 100.8 15.2996C99.9999 13.4996 98.1999 12.3996 96.0999 12.3996C93.9999 12.3996 92.2999 13.4996 91.3999 15.2996C90.8999 16.3996 90.6999 17.3996 90.6999 19.9996C90.6999 22.5996 90.8999 23.5996 91.3999 24.6996C92.2999 26.4996 93.9999 27.5996 96.0999 27.5996C98.1999 27.6996 99.9999 26.4996 100.8 24.6996Z" fill="white" />
	<path d="M16.7002 39.7C17.8002 39.9 18.9002 40 20.0002 40C31.0002 40 39.8002 31.2 40.0002 20.3C38.9002 20.1 37.8002 20 36.6002 20C25.7002 20 16.9002 28.8 16.7002 39.7Z" fill="white" />
	<path fill-rule="evenodd" clip-rule="evenodd" d="M2.72385 9.94045C2.71595 9.92698 2.70807 9.91349 2.7002 9.9C4.14112 7.47101 6.07356 5.36406 8.36495 3.72568C6.07393 5.39503 4.14801 7.50913 2.72385 9.94045ZM16.6982 19.7229C16.6994 19.8152 16.7 19.9076 16.7 20.0002C16.7 26.7002 13.4 32.7002 8.4 36.3002C3.3 32.7002 0 26.7002 0 20.0002C0 16.3302 0.990125 12.9003 2.72385 9.94045C5.69441 15.0067 10.7354 18.7109 16.6982 19.7229ZM16.6982 19.7229C16.6112 13.135 13.4297 7.25073 8.40034 3.70043C11.6682 1.37448 15.6624 0 20.0002 0C27.4002 0 33.9002 4 37.3002 9.9C33.8002 16 27.4002 20 20.0002 20C18.8741 20 17.7712 19.9051 16.6982 19.7229ZM8.40034 3.70043C8.38853 3.70884 8.37674 3.71725 8.36495 3.72568C8.37663 3.71717 8.38831 3.70868 8.4 3.7002C8.40011 3.70028 8.40022 3.70035 8.40034 3.70043Z" fill="white" />
	<path d="M2.7002 9.9002C4.1002 7.5002 6.1002 5.4002 8.3002 3.7002C13.3002 7.3002 16.6002 13.1002 16.6002 19.7002C10.7002 18.7002 5.6002 15.0002 2.7002 9.9002Z" fill="white" fill-opacity="0.3" />
</svg>
