<svg width="234" height="73" viewBox="0 0 234 73" fill="none" xmlns="http://www.w3.org/2000/svg">
	<path d="M23.2923 71.3132V53.8068L1.63623 41.1426L23.2923 71.3132Z" fill="white" fill-opacity="0.1" stroke="white" stroke-width="1.5" stroke-linejoin="round" />
	<path d="M23.3638 71.3132V53.8068L45.0197 41.1426L23.3638 71.3132Z" fill="white" fill-opacity="0.1" stroke="white" stroke-width="1.5" stroke-linejoin="round" />
	<path d="M23.2922 49.4562V27.1133L1.3877 36.9218L23.2922 49.4562Z" fill="white" fill-opacity="0.1" stroke="white" stroke-width="1.5" stroke-linejoin="round" />
	<path d="M23.3638 49.4562V27.1133L45.2683 36.9218L23.3638 49.4562Z" fill="white" fill-opacity="0.1" stroke="white" stroke-width="1.5" stroke-linejoin="round" />
	<path d="M1.3877 36.9214L23.2921 1.53613V27.1129L1.3877 36.9214Z" fill="white" fill-opacity="0.1" stroke="white" stroke-width="1.5" stroke-linejoin="round" />
	<path d="M45.2682 36.9214L23.3638 1.53613V27.1129L45.2682 36.9214Z" fill="white" fill-opacity="0.1" stroke="white" stroke-width="1.5" stroke-linejoin="round" />
	<path d="M61.5821 25.1223C61.5521 23.8023 61.8521 22.4923 62.4621 21.3223C63.0221 20.2523 63.8721 19.3623 64.9221 18.7623C66.0321 18.1423 67.2921 17.8323 68.5721 17.8623C69.8221 17.8423 71.0521 18.1623 72.1221 18.7923C73.1621 19.4123 74.0121 20.3223 74.5621 21.4023C75.1621 22.5823 75.4621 23.9023 75.4421 25.2323V26.3223H65.2821C65.3021 27.1223 65.6621 27.8823 66.2621 28.4123C66.9221 28.9723 67.7721 29.2523 68.6421 29.2123C69.3021 29.2123 69.9621 29.0623 70.5521 28.7623C71.2721 28.3523 71.9221 27.8223 72.4621 27.2023L74.7621 29.5523C73.9921 30.4123 73.0621 31.1123 72.0221 31.6023C70.9621 32.1023 69.8021 32.3523 68.6321 32.3423C67.3421 32.3723 66.0621 32.0623 64.9321 31.4423C63.8721 30.8523 63.0121 29.9723 62.4521 28.8923C61.8521 27.7323 61.5521 26.4323 61.5821 25.1223V25.1223ZM71.7121 23.6223C71.6521 22.8823 71.2921 22.2023 70.7121 21.7323C69.4421 20.7423 67.6621 20.7323 66.3821 21.7023C65.8121 22.1923 65.4321 22.8723 65.3321 23.6123H71.7121V23.6223Z" fill="white" />
	<path d="M86.9921 21.5527V27.0627C86.9621 27.4327 87.0721 27.7927 87.3121 28.0727C87.6221 28.3127 88.0021 28.4227 88.3821 28.3827H91.5121V31.9527H88.0521C86.7921 32.0327 85.5421 31.6527 84.5321 30.8827C83.6721 30.1027 83.2221 28.9727 83.2921 27.8227V21.5627H79.9321V18.2527H83.2921V14.7627H86.9921V18.2527H92.3621V21.5627H86.9821L86.9921 21.5527Z" fill="white" />
	<path d="M97.3823 13.0723H101.082V19.5123H101.132C102.862 17.7223 105.592 17.3423 107.752 18.5823C108.542 19.0723 109.162 19.7823 109.562 20.6223C110.012 21.5723 110.232 22.6223 110.212 23.6723V31.9423H106.512V24.1623C106.552 23.3823 106.302 22.6223 105.812 22.0123C105.322 21.4823 104.622 21.2023 103.902 21.2323C103.132 21.1923 102.392 21.4623 101.832 21.9923C101.312 22.5623 101.042 23.3223 101.082 24.1023V31.9323H97.3823V13.0723V13.0723Z" fill="white" />
	<path d="M114.312 25.1223C114.282 23.8023 114.592 22.4923 115.192 21.3223C115.752 20.2523 116.602 19.3623 117.652 18.7623C118.762 18.1423 120.022 17.8323 121.292 17.8623C122.542 17.8423 123.772 18.1623 124.842 18.7923C125.882 19.4123 126.732 20.3223 127.282 21.4023C127.882 22.5823 128.182 23.9023 128.162 25.2323V26.3223H118.002C118.022 27.1223 118.382 27.8823 118.982 28.4123C119.642 28.9723 120.492 29.2523 121.362 29.2123C122.022 29.2123 122.682 29.0623 123.272 28.7623C123.992 28.3523 124.642 27.8223 125.182 27.2023L127.482 29.5523C126.712 30.4123 125.782 31.1123 124.742 31.6023C123.682 32.1023 122.522 32.3523 121.352 32.3423C120.062 32.3723 118.782 32.0623 117.652 31.4423C116.592 30.8523 115.732 29.9723 115.172 28.8923C114.572 27.7323 114.272 26.4323 114.292 25.1223H114.312ZM124.442 23.6223C124.382 22.8823 124.022 22.2023 123.442 21.7323C122.172 20.7423 120.392 20.7323 119.112 21.7023C118.542 22.1923 118.162 22.8723 118.052 23.6123H124.442V23.6223Z" fill="white" />
	<path d="M133.552 18.2427H137.092V19.5027H137.142C138.162 18.4027 139.622 17.7927 141.122 17.8527C142.242 17.8327 143.332 18.2027 144.202 18.9027C145.092 19.6427 145.722 20.6427 146.012 21.7627L142.552 22.9027C142.232 21.8327 141.212 21.1327 140.092 21.2227C139.302 21.1727 138.522 21.4627 137.972 22.0427C137.462 22.6727 137.202 23.4727 137.252 24.2827V31.9627H133.552V18.2627V18.2427Z" fill="white" />
	<path d="M149.472 25.1223C149.442 23.8023 149.752 22.4923 150.352 21.3223C150.912 20.2523 151.762 19.3623 152.812 18.7623C153.922 18.1423 155.182 17.8323 156.452 17.8623C157.702 17.8423 158.932 18.1623 160.002 18.7923C161.042 19.4123 161.892 20.3223 162.442 21.4023C163.042 22.5823 163.342 23.9023 163.322 25.2323V26.3223H153.162C153.182 27.1223 153.542 27.8823 154.142 28.4123C154.802 28.9723 155.652 29.2523 156.522 29.2123C157.182 29.2123 157.842 29.0623 158.432 28.7623C159.152 28.3523 159.802 27.8223 160.342 27.2023L162.642 29.5523C161.872 30.4123 160.942 31.1123 159.902 31.6023C158.842 32.1023 157.682 32.3523 156.512 32.3423C155.222 32.3723 153.942 32.0623 152.812 31.4423C151.752 30.8523 150.892 29.9723 150.332 28.8923C149.732 27.7323 149.432 26.4323 149.452 25.1223H149.472ZM159.602 23.6223C159.542 22.8823 159.182 22.2023 158.602 21.7323C157.332 20.7423 155.552 20.7323 154.272 21.7023C153.702 22.1923 153.322 22.8723 153.212 23.6123H159.602V23.6223Z" fill="white" />
	<path d="M167.822 27.2827V18.2327H171.522V26.4327C171.342 27.6327 172.172 28.7527 173.372 28.9327C173.582 28.9627 173.792 28.9627 174.012 28.9327C174.672 28.9627 175.312 28.7127 175.782 28.2427C176.232 27.7427 176.472 27.0927 176.442 26.4227V18.2227H180.142V31.9227H176.602V30.7127H176.552C176.132 31.2227 175.602 31.6227 174.992 31.8727C173.032 32.6927 170.782 32.3527 169.162 30.9827C168.232 29.9827 167.752 28.6427 167.832 27.2727L167.822 27.2827Z" fill="white" />
	<path d="M184.242 18.2421H187.502V19.4321H187.552C187.822 18.9821 188.212 18.6121 188.672 18.3621C189.132 18.1121 189.662 17.9821 190.182 17.9821C191.262 17.9821 192.262 18.5621 192.792 19.5021H192.842C193.452 18.5321 194.532 17.9521 195.692 17.9821C196.622 17.9521 197.512 18.3421 198.122 19.0421C198.772 19.8121 199.102 20.8021 199.052 21.8021V31.9321H195.642V22.4421C195.662 22.1121 195.552 21.7921 195.332 21.5421C195.092 21.3221 194.772 21.2121 194.452 21.2321C194.122 21.2221 193.812 21.3421 193.582 21.5821C193.362 21.8421 193.242 22.1821 193.262 22.5221V31.9321H190.032V22.4421C190.052 22.1221 189.942 21.8021 189.732 21.5521C189.512 21.3321 189.202 21.2121 188.892 21.2221C188.552 21.2121 188.232 21.3321 187.992 21.5721C187.762 21.8321 187.632 22.1721 187.652 22.5121V31.9221H184.242V18.2221V18.2421Z" fill="white" />
	<path d="M65.722 50.3625H62.1021V47.0525H65.722V45.0325C65.672 43.9525 66.1121 42.9025 66.9221 42.1725C67.8621 41.4325 69.0421 41.0525 70.2421 41.1225H74.222V44.4025H70.682C70.382 44.3825 70.0821 44.4825 69.8521 44.6825C69.6521 44.9025 69.552 45.1925 69.572 45.4825V47.0325H75.0621V50.3425H69.5821V59.2125H65.7321V50.3425L65.722 50.3625Z" fill="white" />
	<path d="M79.1621 52.3727C79.1321 51.0627 79.4421 49.7727 80.0421 48.6127C80.6021 47.5427 81.4621 46.6527 82.5121 46.0527C84.7921 44.8327 87.5221 44.8327 89.8021 46.0527C90.8521 46.6527 91.7121 47.5427 92.2721 48.6127C93.4421 50.9827 93.4421 53.7627 92.2721 56.1327C91.7121 57.2027 90.8521 58.0927 89.8021 58.6927C87.5221 59.9127 84.7921 59.9127 82.5121 58.6927C81.4621 58.0927 80.6021 57.2027 80.0421 56.1327C79.4421 54.9727 79.1421 53.6827 79.1621 52.3727ZM89.4521 52.3727C89.5121 51.3527 89.2021 50.3527 88.5821 49.5427C87.9621 48.8427 87.0621 48.4727 86.1321 48.5227C85.2121 48.4727 84.3221 48.8527 83.7121 49.5427C83.0921 50.3527 82.7821 51.3527 82.8421 52.3727C82.7821 53.3927 83.0921 54.3927 83.7121 55.2027C85.0121 56.5327 87.1421 56.5627 88.4821 55.2727C88.5121 55.2427 88.5321 55.2227 88.5621 55.1927C89.1921 54.3927 89.5021 53.3927 89.4421 52.3727H89.4521Z" fill="white" />
	<path d="M97.5022 54.5725V45.5225H101.202V53.7225C101.022 54.9225 101.852 56.0425 103.052 56.2225C103.262 56.2525 103.472 56.2525 103.682 56.2225C104.342 56.2525 104.982 56.0025 105.452 55.5325C105.902 55.0325 106.142 54.3825 106.112 53.7125V45.5225H109.812V59.2225H106.272V58.0125H106.222C105.802 58.5225 105.272 58.9225 104.662 59.1725C102.332 60.4625 99.3922 59.6225 98.1022 57.2825C97.6422 56.4525 97.4422 55.5125 97.5122 54.5725H97.5022Z" fill="white" />
	<path d="M114.962 45.5223H118.662V46.8123H118.712C119.222 46.2923 119.832 45.8623 120.502 45.5623C121.192 45.2723 121.932 45.1223 122.672 45.1323C123.552 45.1323 124.412 45.3423 125.182 45.7623C125.982 46.2123 126.642 46.8823 127.072 47.7023C127.582 48.7023 127.832 49.8223 127.792 50.9423V59.2123H124.092V51.4323C124.132 50.6723 123.892 49.9123 123.422 49.3123C122.932 48.7623 122.222 48.4623 121.482 48.5123C120.712 48.4723 119.972 48.7423 119.412 49.2723C118.892 49.8423 118.622 50.6023 118.662 51.3823V59.2123H114.962V45.5123V45.5223Z" fill="white" />
	<path d="M131.602 52.3723C131.582 51.0823 131.852 49.8123 132.402 48.6523C132.892 47.5923 133.672 46.7023 134.652 46.0723C135.632 45.4523 136.772 45.1223 137.932 45.1423C139.262 45.0623 140.572 45.5123 141.572 46.3823H141.622V40.3623H145.322V59.2323H141.912V58.0423H141.862C140.812 59.1023 139.372 59.6723 137.882 59.6223C136.732 59.6423 135.612 59.3323 134.642 58.7223C133.672 58.1023 132.892 57.2223 132.402 56.1723C131.842 54.9823 131.572 53.6923 131.602 52.3823V52.3723ZM141.632 53.2523V51.4723C141.632 50.9623 141.492 50.4623 141.222 50.0223C140.942 49.5723 140.542 49.1923 140.072 48.9423C139.572 48.6623 139.002 48.5223 138.432 48.5223C137.542 48.4823 136.692 48.8723 136.142 49.5723C135.012 51.2723 135.022 53.4823 136.152 55.1723C136.692 55.8623 137.522 56.2623 138.402 56.2323C139.262 56.2623 140.092 55.9523 140.722 55.3623C141.322 54.8223 141.652 54.0523 141.642 53.2523H141.632Z" fill="white" />
	<path d="M150.322 55.5519C150.262 54.4119 150.742 53.3119 151.632 52.5819C152.932 51.7119 154.432 51.1819 155.992 51.0319C156.742 50.9519 157.482 50.7519 158.172 50.4519C158.522 50.3019 158.742 49.9619 158.752 49.5819C158.752 49.1719 158.542 48.8019 158.182 48.6019C157.712 48.3419 157.172 48.2119 156.632 48.2419C155.932 48.2319 155.242 48.4619 154.702 48.9119C154.152 49.3619 153.782 50.0019 153.652 50.6919L150.212 49.9119C150.372 49.0019 150.782 48.1419 151.372 47.4319C151.992 46.7019 152.772 46.1219 153.652 45.7419C154.592 45.3319 155.602 45.1219 156.622 45.1319C158.162 45.0519 159.672 45.5819 160.832 46.6019C161.902 47.6219 162.472 49.0519 162.412 50.5319V59.2219H159.102V57.7019H159.052C158.642 58.3219 158.062 58.8019 157.382 59.1119C156.622 59.4519 155.802 59.6219 154.962 59.6119C154.132 59.6219 153.312 59.4519 152.562 59.0919C151.882 58.7719 151.312 58.2719 150.902 57.6419C150.502 57.0219 150.292 56.2919 150.302 55.5519H150.322ZM158.902 54.1319V52.5819H158.852C158.662 52.8619 158.392 53.0819 158.072 53.2019C157.522 53.4119 156.942 53.5619 156.362 53.6719C155.672 53.7819 154.992 54.0019 154.372 54.3319C154.032 54.5319 153.822 54.9019 153.832 55.3019C153.822 55.6619 154.002 56.0119 154.312 56.2019C154.732 56.4319 155.212 56.5419 155.692 56.5119C156.232 56.5119 156.772 56.4019 157.272 56.1819C157.732 55.9919 158.142 55.6919 158.462 55.3019C158.742 54.9719 158.892 54.5619 158.902 54.1319V54.1319Z" fill="white" />
	<path d="M174.882 48.832V54.342C174.852 54.712 174.962 55.072 175.202 55.352C175.502 55.592 175.892 55.702 176.272 55.662H179.402V59.232H175.942C174.682 59.312 173.432 58.932 172.432 58.162C171.572 57.382 171.122 56.252 171.192 55.102V48.842H167.832V45.532H171.192V42.042H174.892V45.532H180.272V48.842H174.892L174.882 48.832Z" fill="white" />
	<path d="M198.352 55.8422V59.2322H184.882V55.8422H189.772V48.9122H185.142V45.5222H193.462V55.8322H198.352V55.8422ZM189.692 39.7422H193.492V43.3822H189.692V39.7422Z" fill="white" />
	<path d="M202.202 52.3727C202.182 51.0627 202.482 49.7727 203.082 48.6127C203.642 47.5427 204.502 46.6527 205.552 46.0527C207.832 44.8327 210.562 44.8327 212.842 46.0527C213.892 46.6527 214.752 47.5427 215.312 48.6127C216.482 50.9827 216.482 53.7627 215.312 56.1327C214.752 57.2027 213.892 58.0927 212.842 58.6927C210.562 59.9127 207.832 59.9127 205.552 58.6927C204.502 58.0927 203.642 57.2027 203.082 56.1327C202.482 54.9727 202.182 53.6827 202.202 52.3727ZM212.492 52.3727C212.552 51.3527 212.242 50.3527 211.622 49.5427C211.002 48.8427 210.102 48.4727 209.182 48.5227C208.262 48.4727 207.372 48.8527 206.762 49.5427C206.142 50.3527 205.832 51.3527 205.892 52.3727C205.832 53.3927 206.142 54.3927 206.762 55.2027C208.062 56.5327 210.192 56.5627 211.532 55.2727C211.562 55.2427 211.582 55.2227 211.612 55.1927C212.232 54.3927 212.552 53.3927 212.492 52.3727V52.3727Z" fill="white" />
	<path d="M220.432 45.5223H224.132V46.8123H224.182C224.692 46.2923 225.302 45.8623 225.962 45.5623C226.652 45.2723 227.392 45.1223 228.132 45.1323C229.012 45.1323 229.872 45.3423 230.642 45.7623C231.442 46.2123 232.102 46.8823 232.532 47.7023C233.042 48.7023 233.292 49.8223 233.252 50.9423V59.2123H229.552V51.4323C229.592 50.6723 229.352 49.9123 228.882 49.3123C228.392 48.7623 227.682 48.4623 226.942 48.5123C226.172 48.4723 225.432 48.7423 224.872 49.2723C224.352 49.8423 224.082 50.6023 224.122 51.3823V59.2123H220.422V45.5123L220.432 45.5223Z" fill="white" />
</svg>
