<svg id="Layer_1" data-name="Layer 1" xmlns="http://www.w3.org/2000/svg" viewBox="0 0 171.83 53.7"><path d="M38.55,43.53l5.91,3.89c-.12.18-.21.34-.32.48A14.78,14.78,0,0,1,33,53.69,17.86,17.86,0,0,1,22.54,51.1a10.65,10.65,0,0,1-5-7.46,6.77,6.77,0,0,1,0-1q0-6.26,0-12.52a10.36,10.36,0,0,1,4.34-8.72,15.46,15.46,0,0,1,11.06-2.95,15.74,15.74,0,0,1,6.8,2A10.38,10.38,0,0,1,45,29.69c0,2.2,0,4.4,0,6.59a5.48,5.48,0,0,1-.12,1.07,1.11,1.11,0,0,1-1.24,1c-1.59,0-3.19,0-4.78,0-4,0-8.07,0-12.11,0-.69,0-1.64-.17-2,.2s-.14,1.31-.17,2c0,.29,0,.58,0,.87a4.65,4.65,0,0,0,3,4.57c4.17,1.74,7.18,1.45,10.39-1.74C38.11,44,38.3,43.8,38.55,43.53Zm-7.25-11c2,0,3.91,0,5.87,0,.7,0,1-.13.93-.9a7,7,0,0,1,0-1.45A4.12,4.12,0,0,0,36,26.34a7.77,7.77,0,0,0-5.62-1.07,8,8,0,0,0-4.68,2.22,3.17,3.17,0,0,0-1.17,2.81,7,7,0,0,1,0,1.52c0,.58.2.73.76.73C27.3,32.52,29.3,32.53,31.3,32.53Z" style="fill:#fff"/><path d="M154.14,35.55c0,1.93,0,3.86,0,5.79-.06,4.94-2.34,8.51-6.84,10.48A17.55,17.55,0,0,1,131.09,51a10.22,10.22,0,0,1-5.47-7.67,5.74,5.74,0,0,1-.06-.93c0-3.84,0-7.68,0-11.51a11,11,0,0,1,5.37-9.82,17,17,0,0,1,18.41.2,10.41,10.41,0,0,1,4.71,6.85,14.72,14.72,0,0,1,.09,2.74C154.15,32.41,154.14,34,154.14,35.55ZM147,35.38V30.17a3.89,3.89,0,0,0-2.77-4.1,12.07,12.07,0,0,0-5.77-.65,6.37,6.37,0,0,0-4.8,2.61,4.38,4.38,0,0,0-.92,2.21c-.1,3.5-.06,7,0,10.5a4.62,4.62,0,0,0,3.07,4.55,13.46,13.46,0,0,0,3.21.79,8.64,8.64,0,0,0,4.41-.48A5.45,5.45,0,0,0,147,40.3Z" style="fill:#fff"/><path d="M104.29,35.68c0,2,0,4,0,6a10.5,10.5,0,0,1-5.17,9.37c-6.19,3.88-15.15,2.82-20-1.54a9.54,9.54,0,0,1-3.38-7.6c.08-3.71,0-7.43,0-11.15a10.94,10.94,0,0,1,4.78-9.25,15.84,15.84,0,0,1,7.85-2.89,17.16,17.16,0,0,1,9.8,1.91,11.18,11.18,0,0,1,6,7.2,3.83,3.83,0,0,1,.13,1.07C104.3,31.1,104.29,33.39,104.29,35.68Zm-7.1-.18c0-1.76,0-3.52,0-5.28a3.88,3.88,0,0,0-2.7-4,11.69,11.69,0,0,0-7.39-.36,6,6,0,0,0-3.78,3.05,3.42,3.42,0,0,0-.47,1.49c0,3.48-.07,7,0,10.42a4.76,4.76,0,0,0,3.07,4.59,10.87,10.87,0,0,0,6.87.56,5.63,5.63,0,0,0,4.42-5.75C97.1,38.64,97.19,37.07,97.19,35.5Z" style="fill:#fff"/><path d="M57,26c-2.92-.12-5.65.64-8.47,1.22a10.44,10.44,0,0,0-2.93-5.8c4.5-2.92,24.44-3,30-.06-1.62,1.65-3,3.42-3.23,5.76-1.35-.25-2.66-.54-4-.72-1.17-.15-2.36-.16-3.54-.27-.6,0-.79.18-.78.78,0,2.87,0,5.74,0,8.61v16.8c0,.95,0,1-1,1H58c-.95,0-1,0-1-1V27.13C57,26.75,57,26.37,57,26Z" style="fill:#fff"/><path d="M157.85,33.46v-.92c0-1.76,0-3.52-.14-5.28a7.85,7.85,0,0,0-1.41-3.9c-.93-1.42-2-2.77-3-4.12,1-.1,2-.15,3-.34a8.19,8.19,0,0,0,2-.72A2.74,2.74,0,0,0,160,15.62a11.41,11.41,0,0,0-.48-3.55c-1.3-3.7-2.76-7.34-4.12-11-.11-.29,0-.91.14-1a2.23,2.23,0,0,1,1.13.08c.09,0,.17.15.25.25,3.7,4.52,7.47,9,11,13.59a23.6,23.6,0,0,1,3.28,5.67,8.5,8.5,0,0,1-2.65,9.61A18.58,18.58,0,0,1,159,33.46,10.57,10.57,0,0,1,157.85,33.46Z" style="fill:#fff"/><path d="M18.52,19.25c-.84,1.08-1.72,2.14-2.51,3.25A10.76,10.76,0,0,0,14,29.08c0,1.44,0,2.88,0,4.49-1-.14-1.86-.21-2.71-.4A17.14,17.14,0,0,1,2.74,28.8,8.56,8.56,0,0,1,1.15,18.25a50.19,50.19,0,0,1,4.36-6.47C8.5,8,11.65,4.28,14.75.54c.13-.16.27-.4.45-.44a1.68,1.68,0,0,1,1.06,0c.17.09.24.65.15.92-.88,2.4-1.82,4.77-2.69,7.17-.67,1.8-1.33,3.61-1.86,5.45a5.91,5.91,0,0,0,0,2.37c.32,1.91,1.83,2.55,3.47,2.9A31.52,31.52,0,0,0,18.52,19.25Z" style="fill:#fff"/><path d="M126.46,18.9c-.34.25-.65.46-.95.69a13.2,13.2,0,0,0-3.77,5.32,1.09,1.09,0,0,1-1,.76,6.24,6.24,0,0,0-4.83,3.61,2.48,2.48,0,0,0-.19,1q0,11,0,21.93c0,1,0,1-1,1-1.76,0-3.53,0-5.29,0-.57,0-.74-.18-.73-.75,0-7.8,0-15.59,0-23.39a5.13,5.13,0,0,1,.34-1.68,12.36,12.36,0,0,1,9.57-8.35A20.75,20.75,0,0,1,126.46,18.9Z" style="fill:#fff"/></svg>