<svg width="5934" height="1676" viewBox="0 0 5934 1676" fill="none" xmlns="http://www.w3.org/2000/svg">
<g clip-path="url(#clip0_0_1)">
<path d="M869.725 400.814C869.725 400.814 835.586 391.426 835.586 357.082C835.586 391.426 801.447 400.814 801.447 400.814H869.725Z" fill="white"/>
<path d="M558.161 306.455C558.161 306.455 511.8 320.111 487.049 280.373C511.8 320.179 478.992 355.684 478.992 355.684L558.161 306.455Z" fill="white"/>
<path d="M1370.06 563.525C1370.06 563.525 1356.4 517.164 1396.14 492.447C1356.33 517.198 1320.83 484.391 1320.83 484.391L1370.06 563.525Z" fill="white"/>
<path d="M1112.99 1375.42C1112.99 1375.42 1159.35 1361.76 1184.11 1401.5C1159.35 1361.69 1192.16 1326.22 1192.16 1326.22L1112.99 1375.42Z" fill="white"/>
<path d="M301.104 1118.35C301.104 1118.35 314.759 1164.71 275.021 1189.46C314.828 1164.71 350.127 1197.52 350.127 1197.52L301.104 1118.35Z" fill="white"/>
<path d="M1595.07 899.894C1595.07 899.894 1611.29 840.936 1670.59 840.936C1611.29 840.936 1595.07 781.979 1595.07 781.979V899.894Z" fill="white"/>
<path d="M776.633 1600.43C776.633 1600.43 835.591 1616.65 835.591 1675.95C835.591 1616.65 894.549 1600.43 894.549 1600.43H776.633Z" fill="white"/>
<path d="M76.0878 781.979C76.0878 781.979 59.8718 840.936 0.572266 840.936C59.8718 840.936 76.0878 899.894 76.0878 899.894V781.979Z" fill="white"/>
<path d="M1112.99 306.455C1112.99 306.455 1159.35 320.111 1184.11 280.373C1159.35 320.179 1192.16 355.684 1192.16 355.684L1112.99 306.455Z" fill="white"/>
<path d="M301.104 563.525C301.104 563.525 314.759 517.164 275.021 492.447C314.828 517.198 350.127 484.391 350.127 484.391L301.104 563.525Z" fill="white"/>
<path d="M558.161 1375.42C558.161 1375.42 511.8 1361.76 487.049 1401.5C511.8 1361.69 478.992 1326.22 478.992 1326.22L558.161 1375.42Z" fill="white"/>
<path d="M1370.06 1118.35C1370.06 1118.35 1356.4 1164.71 1396.14 1189.46C1356.33 1164.71 1320.83 1197.52 1320.83 1197.52L1370.06 1118.35Z" fill="white"/>
<path d="M835.585 1441.03C986.199 1440.91 1131.23 1384.01 1241.75 1281.69C1352.27 1179.36 1420.17 1039.14 1431.88 888.983C1443.6 738.825 1398.29 589.768 1304.98 471.539C1211.67 353.31 1077.22 274.6 928.451 251.105C779.68 227.611 627.52 261.059 502.318 344.78C377.116 428.5 288.073 556.339 252.949 702.801C217.824 849.262 239.2 1003.58 312.812 1134.98C386.424 1266.38 506.863 1365.21 650.107 1411.74C710.013 1431.18 772.605 1441.07 835.585 1441.03Z" stroke="white" stroke-width="6" stroke-miterlimit="10"/>
<path d="M1588.07 840.698C1461.1 833.426 1451.17 640.984 1451.17 640.984L1368.14 667.92C1404.91 811.543 1222.03 837.864 1198.13 840.664C1222.03 843.463 1404.91 869.784 1368.14 1013.41L1451.07 1040.34C1451.07 1040.34 1461 847.901 1587.96 840.629H1586.46L1588.07 840.698Z" fill="white"/>
<path d="M83.0234 840.94C83.2147 840.951 83.4057 840.962 83.5964 840.974C210.016 833.157 219.887 641.295 219.887 641.295L302.811 668.231C266.077 811.854 448.96 838.175 472.857 840.974C448.96 843.774 266.077 870.095 302.811 1013.72L219.887 1040.65C219.887 1040.65 210.016 848.791 83.5964 840.974C83.4057 840.986 83.2147 840.997 83.0234 841.008V840.94Z" fill="white"/>
<path d="M823.116 852.785C770.303 904.642 558.64 1102.41 478.687 1022.46C478.687 1022.46 540.547 1135.39 410.887 1265.01L823.116 852.785Z" fill="white"/>
<path d="M410.965 1265.08C540.693 1135.35 653.523 1197.28 653.523 1197.28C573.569 1117.33 771.337 905.667 823.194 852.854L410.965 1265.08Z" fill="white"/>
<path d="M1016.69 1197.08C1016.69 1197.08 1129.59 1135.22 1259.25 1264.88L847.02 852.648C898.877 905.325 1096.64 1116.99 1016.69 1197.08Z" fill="white"/>
<path d="M1191.51 1022.25C1111.56 1102.2 899.897 904.435 847.084 852.578L1259.31 1264.81C1129.65 1135.18 1191.51 1022.25 1191.51 1022.25Z" fill="white"/>
<path d="M1190.29 657.68C1190.29 657.68 1128.43 544.748 1258.09 415.088L847.367 828.682C900.146 776.825 1110.34 577.59 1190.29 657.68Z" fill="white"/>
<path d="M1015.42 482.82C1095.41 562.773 899.146 775.834 847.289 828.613L1258.02 415.02C1128.36 544.68 1015.42 482.82 1015.42 482.82Z" fill="white"/>
<path d="M653.497 484.288C653.497 484.288 540.565 546.148 410.939 416.488L823.168 828.717C771.311 775.904 573.544 564.242 653.497 484.288Z" fill="white"/>
<path d="M478.661 659.113C558.615 579.159 770.277 776.926 823.09 828.784L410.861 416.555C540.521 546.215 478.661 659.113 478.661 659.113Z" fill="white"/>
<path d="M835.592 1604.17C956.026 1604.13 1074.74 1575.61 1182.05 1520.92C1289.35 1466.24 1382.19 1386.94 1452.99 1289.51C1523.79 1192.08 1570.53 1079.29 1589.4 960.339C1608.26 841.391 1598.72 719.667 1561.55 605.113C1524.4 490.499 1460.62 386.315 1375.45 301.094C1290.28 215.872 1186.13 152.035 1071.54 114.811C956.951 77.5875 835.172 68.0347 716.178 86.9354C597.183 105.836 484.358 152.653 386.94 223.551C256.464 318.242 159.332 451.825 109.476 605.138C59.6207 758.451 59.604 923.615 109.428 1076.94C159.253 1230.26 256.359 1363.86 386.815 1458.58C517.272 1553.3 674.376 1604.26 835.592 1604.17Z" stroke="white" stroke-width="6" stroke-miterlimit="10"/>
<path d="M1082.86 1602C1082.86 1602 1178.45 1576.63 1305.82 1488.25C1305.82 1488.25 1100.75 1247.53 1054.73 1268.19C1008.71 1288.84 1082.86 1602 1082.86 1602Z" fill="white"/>
<path d="M1033.58 232.137C838.988 163.551 835.744 0.878906 835.744 0.878906C835.744 0.878906 832.638 163.551 637.909 232.137C637.909 232.137 537.096 263.272 459.498 323.151L483.02 355.584C483.02 355.584 521.938 315.334 650.301 270.236C650.301 270.236 835.71 192.057 835.71 681.031C835.574 191.989 1020.98 270.338 1020.98 270.338C1149.38 315.504 1188.26 355.686 1188.26 355.686L1211.79 323.254C1134.22 263.272 1033.58 232.137 1033.58 232.137Z" fill="white"/>
<path d="M835.58 1160.96C879.756 1160.96 915.567 1125.15 915.567 1080.97C915.567 1036.79 879.756 1000.98 835.58 1000.98C791.404 1000.98 755.592 1036.79 755.592 1080.97C755.592 1125.15 791.404 1160.96 835.58 1160.96Z" fill="white"/>
<path d="M835.572 1640.75C835.572 1640.75 934.371 1646.69 1082.94 1602.62C1082.94 1602.62 963.662 1309.8 913.478 1314.96C863.293 1320.11 835.572 1640.75 835.572 1640.75Z" fill="white"/>
<path d="M588.212 1602C588.212 1602 492.623 1576.63 365.25 1488.25C365.25 1488.25 570.323 1247.53 616.343 1268.19C662.362 1288.84 588.212 1602 588.212 1602Z" fill="white"/>
<path d="M835.583 1640.75C835.583 1640.75 736.751 1646.69 588.178 1602.62C588.178 1602.62 707.664 1309.8 757.678 1314.96C807.692 1320.11 835.583 1640.75 835.583 1640.75Z" fill="white"/>
</g>
<path d="M2050.5 1135C2016.9 1135 1985.4 1129.4 1956 1118.2C1927.07 1106.53 1901.4 1090.43 1879 1069.9C1857.07 1049.37 1839.8 1025.33 1827.2 997.8C1815.07 969.8 1809 939.467 1809 906.8C1809 870.867 1816 837.967 1830 808.1C1844 777.767 1863.37 751.4 1888.1 729C1912.83 706.6 1941.07 689.333 1972.8 677.2C2004.53 665.067 2037.9 659 2072.9 659C2097.63 659 2118.63 660.4 2135.9 663.2C2153.63 666 2169.27 669.967 2182.8 675.1C2196.8 680.233 2210.57 686.067 2224.1 692.6L2231.8 815.8H2219.2L2152 714.3C2139.4 706.367 2127.27 701 2115.6 698.2C2103.93 694.933 2090.63 693.3 2075.7 693.3C2046.3 693.3 2019.7 701.7 1995.9 718.5C1972.1 735.3 1953.2 758.867 1939.2 789.2C1925.2 819.067 1918.2 854.067 1918.2 894.2C1918.2 936.2 1924.97 972.367 1938.5 1002.7C1952.03 1032.57 1970.23 1055.67 1993.1 1072C2016.43 1088.33 2042.33 1096.5 2070.8 1096.5C2078.73 1096.5 2087.37 1096.27 2096.7 1095.8C2106.03 1094.87 2115.37 1093.47 2124.7 1091.6V962.1L2062.4 929.2V918H2282.2V929.2L2229.7 962.8V1076.2C2215.23 1088.33 2197.73 1098.83 2177.2 1107.7C2157.13 1116.1 2135.9 1122.87 2113.5 1128C2091.57 1132.67 2070.57 1135 2050.5 1135ZM2324.8 1128V1116.8L2371.7 1094.4V881.6L2326.9 852.9V844.5L2454.3 801.8H2462.7L2469 853.6H2472.5C2489.3 837.267 2505.63 824.667 2521.5 815.8C2537.37 806.467 2556.03 801.8 2577.5 801.8C2605.97 801.8 2629.07 809.033 2646.8 823.5C2665 837.967 2674.1 859.433 2674.1 887.9V1094.4L2721 1116.8V1128H2540.4V1116.8L2575.4 1094.4V916.6C2575.4 900.267 2570.5 887.9 2560.7 879.5C2551.37 870.633 2539.47 866.2 2525 866.2C2516.13 866.2 2506.33 867.833 2495.6 871.1C2485.33 874.367 2476.7 879.033 2469.7 885.1V1094.4L2505.4 1116.8V1128H2324.8ZM2927.62 1135C2894.48 1135 2865.32 1127.53 2840.12 1112.6C2814.92 1097.2 2795.32 1076.9 2781.32 1051.7C2767.32 1026.5 2760.32 998.733 2760.32 968.4C2760.32 937.6 2767.32 909.6 2781.32 884.4C2795.32 859.2 2814.92 839.133 2840.12 824.2C2865.32 809.267 2894.48 801.8 2927.62 801.8C2960.75 801.8 2989.68 809.267 3014.42 824.2C3039.62 839.133 3059.22 859.2 3073.22 884.4C3087.22 909.6 3094.22 937.6 3094.22 968.4C3094.22 998.733 3087.22 1026.5 3073.22 1051.7C3059.22 1076.9 3039.62 1097.2 3014.42 1112.6C2989.68 1127.53 2960.75 1135 2927.62 1135ZM2935.32 1100.7C2948.85 1100.7 2959.82 1095.33 2968.22 1084.6C2977.08 1073.4 2983.38 1058.7 2987.12 1040.5C2991.32 1022.3 2993.42 1002.93 2993.42 982.4C2993.42 957.2 2990.85 933.4 2985.72 911C2981.05 888.6 2973.35 870.4 2962.62 856.4C2952.35 842.4 2938.58 835.4 2921.32 835.4C2907.32 835.4 2895.88 841 2887.02 852.2C2878.15 862.933 2871.62 877.4 2867.42 895.6C2863.22 913.333 2861.12 932.7 2861.12 953.7C2861.12 979.367 2863.68 1003.4 2868.82 1025.8C2873.95 1047.73 2881.88 1065.7 2892.62 1079.7C2903.82 1093.7 2918.05 1100.7 2935.32 1100.7ZM3264.93 1135C3242.06 1135 3222 1132.67 3204.73 1128C3187.93 1123.8 3171.36 1117.73 3155.03 1109.8V1028.6H3165.53L3190.03 1065C3207.3 1091.13 3231.33 1104.2 3262.13 1104.2C3298.53 1104.2 3316.73 1090.9 3316.73 1064.3C3316.73 1054.5 3314.16 1046.57 3309.03 1040.5C3303.9 1034.43 3295.5 1028.6 3283.83 1023C3272.63 1017.4 3257 1010.4 3236.93 1002C3210.8 991.267 3191.43 978.667 3178.83 964.2C3166.23 949.733 3159.93 931.767 3159.93 910.3C3159.93 890.233 3165.06 872.033 3175.33 855.7C3186.06 839.367 3200.53 826.3 3218.73 816.5C3236.93 806.7 3257.46 801.8 3280.33 801.8C3296.2 801.8 3311.6 803.433 3326.53 806.7C3341.93 809.967 3356.86 815.333 3371.33 822.8V906.1H3360.83L3339.13 873.2C3330.26 859.667 3321.16 849.633 3311.83 843.1C3302.5 836.567 3291.3 833.3 3278.23 833.3C3264.23 833.3 3252.8 836.8 3243.93 843.8C3235.53 850.8 3231.33 860.6 3231.33 873.2C3231.33 881.6 3233.2 888.833 3236.93 894.9C3241.13 900.5 3248.36 906.1 3258.63 911.7C3268.9 917.3 3283.6 923.833 3302.73 931.3C3315.8 936.433 3328.63 942.5 3341.23 949.5C3354.3 956.033 3365.03 965.6 3373.43 978.2C3382.3 990.333 3386.73 1007.37 3386.73 1029.3C3386.73 1051.23 3380.9 1070.13 3369.23 1086C3357.56 1101.87 3342.4 1114 3323.73 1122.4C3305.53 1130.8 3285.93 1135 3264.93 1135ZM3541.8 732.5C3526.86 732.5 3514.5 727.833 3504.7 718.5C3495.36 708.7 3490.7 696.567 3490.7 682.1C3490.7 667.167 3495.36 655.033 3504.7 645.7C3514.5 635.9 3526.86 631 3541.8 631C3556.73 631 3568.86 635.9 3578.2 645.7C3588 655.033 3592.9 667.167 3592.9 682.1C3592.9 696.567 3588 708.7 3578.2 718.5C3568.86 727.833 3556.73 732.5 3541.8 732.5ZM3447.3 1128V1116.8L3494.2 1094.4V881.6L3449.4 848.7V840.3L3584.5 801.8H3592.9V1094.4L3634.2 1116.8V1128H3447.3ZM3803.6 1135C3780.73 1135 3760.67 1132.67 3743.4 1128C3726.6 1123.8 3710.03 1117.73 3693.7 1109.8V1028.6H3704.2L3728.7 1065C3745.97 1091.13 3770 1104.2 3800.8 1104.2C3837.2 1104.2 3855.4 1090.9 3855.4 1064.3C3855.4 1054.5 3852.83 1046.57 3847.7 1040.5C3842.57 1034.43 3834.17 1028.6 3822.5 1023C3811.3 1017.4 3795.67 1010.4 3775.6 1002C3749.47 991.267 3730.1 978.667 3717.5 964.2C3704.9 949.733 3698.6 931.767 3698.6 910.3C3698.6 890.233 3703.73 872.033 3714 855.7C3724.73 839.367 3739.2 826.3 3757.4 816.5C3775.6 806.7 3796.13 801.8 3819 801.8C3834.87 801.8 3850.27 803.433 3865.2 806.7C3880.6 809.967 3895.53 815.333 3910 822.8V906.1H3899.5L3877.8 873.2C3868.93 859.667 3859.83 849.633 3850.5 843.1C3841.17 836.567 3829.97 833.3 3816.9 833.3C3802.9 833.3 3791.47 836.8 3782.6 843.8C3774.2 850.8 3770 860.6 3770 873.2C3770 881.6 3771.87 888.833 3775.6 894.9C3779.8 900.5 3787.03 906.1 3797.3 911.7C3807.57 917.3 3822.27 923.833 3841.4 931.3C3854.47 936.433 3867.3 942.5 3879.9 949.5C3892.97 956.033 3903.7 965.6 3912.1 978.2C3920.97 990.333 3925.4 1007.37 3925.4 1029.3C3925.4 1051.23 3919.57 1070.13 3907.9 1086C3896.23 1101.87 3881.07 1114 3862.4 1122.4C3844.2 1130.8 3824.6 1135 3803.6 1135ZM4414.37 1135C4380.77 1135 4349.27 1129.4 4319.87 1118.2C4290.93 1106.53 4265.27 1090.43 4242.87 1069.9C4220.93 1049.37 4203.67 1025.33 4191.07 997.8C4178.93 969.8 4172.87 939.467 4172.87 906.8C4172.87 870.867 4179.87 837.967 4193.87 808.1C4207.87 777.767 4227.23 751.4 4251.97 729C4276.7 706.6 4304.93 689.333 4336.67 677.2C4368.4 665.067 4401.77 659 4436.77 659C4461.5 659 4482.5 660.4 4499.77 663.2C4517.5 666 4533.13 669.967 4546.67 675.1C4560.67 680.233 4574.43 686.067 4587.97 692.6L4595.67 815.8H4583.07L4515.87 714.3C4503.27 706.367 4491.13 701 4479.47 698.2C4467.8 694.933 4454.5 693.3 4439.57 693.3C4410.17 693.3 4383.57 701.7 4359.77 718.5C4335.97 735.3 4317.07 758.867 4303.07 789.2C4289.07 819.067 4282.07 854.067 4282.07 894.2C4282.07 936.2 4288.83 972.367 4302.37 1002.7C4315.9 1032.57 4334.1 1055.67 4356.97 1072C4380.3 1088.33 4406.2 1096.5 4434.67 1096.5C4442.6 1096.5 4451.23 1096.27 4460.57 1095.8C4469.9 1094.87 4479.23 1093.47 4488.57 1091.6V962.1L4426.27 929.2V918H4646.07V929.2L4593.57 962.8V1076.2C4579.1 1088.33 4561.6 1098.83 4541.07 1107.7C4521 1116.1 4499.77 1122.87 4477.37 1128C4455.43 1132.67 4434.43 1135 4414.37 1135ZM4819.57 1135C4791.57 1135 4768.47 1127.77 4750.27 1113.3C4732.54 1098.83 4723.67 1077.37 4723.67 1048.9V842.4L4677.47 820V808.8H4822.37V1020.2C4822.37 1036.53 4827.04 1049.13 4836.37 1058C4845.7 1066.4 4857.6 1070.6 4872.07 1070.6C4880.94 1070.6 4890.27 1068.97 4900.07 1065.7C4909.87 1062.43 4918.27 1058 4925.27 1052.4V842.4L4883.27 820V808.8H5023.97V1095.1L5068.07 1116.8V1128H4925.27V1083.2H4922.47C4906.14 1099.53 4890.27 1112.37 4874.87 1121.7C4859.47 1130.57 4841.04 1135 4819.57 1135ZM5197.46 732.5C5182.53 732.5 5170.16 727.833 5160.36 718.5C5151.03 708.7 5146.36 696.567 5146.36 682.1C5146.36 667.167 5151.03 655.033 5160.36 645.7C5170.16 635.9 5182.53 631 5197.46 631C5212.39 631 5224.53 635.9 5233.86 645.7C5243.66 655.033 5248.56 667.167 5248.56 682.1C5248.56 696.567 5243.66 708.7 5233.86 718.5C5224.53 727.833 5212.39 732.5 5197.46 732.5ZM5102.96 1128V1116.8L5149.86 1094.4V881.6L5105.06 848.7V840.3L5240.16 801.8H5248.56V1094.4L5289.86 1116.8V1128H5102.96ZM5333.26 1128V1116.8L5380.16 1094.4V682.8L5335.36 649.9V641.5L5470.46 603H5478.86V1094.4L5520.16 1116.8V1128H5333.26ZM5681.29 1135C5660.75 1135 5641.39 1129.17 5623.19 1117.5C5605.45 1105.83 5590.99 1089.27 5579.79 1067.8C5569.05 1046.33 5563.69 1020.9 5563.69 991.5C5563.69 952.767 5570.69 919.167 5584.69 890.7C5598.69 862.233 5618.05 840.3 5642.79 824.9C5667.52 809.5 5695.99 801.8 5728.19 801.8C5750.59 801.8 5769.95 803.9 5786.29 808.1V682.8L5737.99 649.2V641.5L5875.89 603H5884.29V1096.5L5933.29 1116.8V1128H5793.29L5787.69 1093H5782.79C5765.52 1107.93 5748.95 1118.67 5733.09 1125.2C5717.22 1131.73 5699.95 1135 5681.29 1135ZM5662.39 969.8C5662.39 1007.13 5670.32 1034.43 5686.19 1051.7C5702.05 1068.97 5719.79 1077.6 5739.39 1077.6C5747.79 1077.6 5755.49 1076.43 5762.49 1074.1C5769.95 1071.77 5777.89 1068.27 5786.29 1063.6V860.6C5780.22 853.6 5773.22 848.233 5765.29 844.5C5757.35 840.767 5748.49 838.9 5738.69 838.9C5725.15 838.9 5712.55 842.633 5700.89 850.1C5689.22 857.567 5679.89 870.867 5672.89 890C5665.89 908.667 5662.39 935.267 5662.39 969.8Z" fill="white"/>
<defs>
<clipPath id="clip0_0_1">
<rect width="1671" height="1676" fill="white"/>
</clipPath>
</defs>
</svg>
