<svg width="1671" height="1676" viewBox="0 0 1671 1676" fill="none" xmlns="http://www.w3.org/2000/svg">
	<path d="M869.725 400.814C869.725 400.814 835.586 391.426 835.586 357.082C835.586 391.426 801.447 400.814 801.447 400.814H869.725Z" fill="#ffffff" />
	<path d="M558.161 306.456C558.161 306.456 511.8 320.112 487.049 280.374C511.8 320.18 478.992 355.685 478.992 355.685L558.161 306.456Z" fill="#ffffff" />
	<path d="M1370.06 563.524C1370.06 563.524 1356.4 517.163 1396.14 492.446C1356.33 517.197 1320.83 484.39 1320.83 484.39L1370.06 563.524Z" fill="#ffffff" />
	<path d="M1112.99 1375.42C1112.99 1375.42 1159.35 1361.76 1184.11 1401.5C1159.35 1361.69 1192.16 1326.22 1192.16 1326.22L1112.99 1375.42Z" fill="#ffffff" />
	<path d="M301.104 1118.35C301.104 1118.35 314.759 1164.71 275.021 1189.46C314.828 1164.71 350.127 1197.52 350.127 1197.52L301.104 1118.35Z" fill="#ffffff" />
	<path d="M1595.07 899.894C1595.07 899.894 1611.29 840.936 1670.59 840.936C1611.29 840.936 1595.07 781.978 1595.07 781.978V899.894Z" fill="#ffffff" />
	<path d="M776.633 1600.43C776.633 1600.43 835.591 1616.65 835.591 1675.95C835.591 1616.65 894.549 1600.43 894.549 1600.43H776.633Z" fill="#ffffff" />
	<path d="M76.0878 781.978C76.0878 781.978 59.8718 840.936 0.572266 840.936C59.8718 840.936 76.0878 899.894 76.0878 899.894V781.978Z" fill="#ffffff" />
	<path d="M1112.99 306.456C1112.99 306.456 1159.35 320.112 1184.11 280.374C1159.35 320.18 1192.16 355.685 1192.16 355.685L1112.99 306.456Z" fill="#ffffff" />
	<path d="M301.104 563.524C301.104 563.524 314.759 517.163 275.021 492.446C314.828 517.197 350.127 484.39 350.127 484.39L301.104 563.524Z" fill="#ffffff" />
	<path d="M558.161 1375.42C558.161 1375.42 511.8 1361.76 487.049 1401.5C511.8 1361.69 478.992 1326.22 478.992 1326.22L558.161 1375.42Z" fill="#ffffff" />
	<path d="M1370.06 1118.35C1370.06 1118.35 1356.4 1164.71 1396.14 1189.46C1356.33 1164.71 1320.83 1197.52 1320.83 1197.52L1370.06 1118.35Z" fill="#ffffff" />
	<path d="M835.585 1441.03C986.199 1440.91 1131.23 1384.01 1241.75 1281.69C1352.27 1179.36 1420.17 1039.14 1431.88 888.984C1443.6 738.826 1398.29 589.769 1304.98 471.54C1211.67 353.311 1077.22 274.601 928.451 251.106C779.68 227.612 627.52 261.06 502.318 344.781C377.116 428.501 288.073 556.34 252.949 702.802C217.824 849.263 239.2 1003.58 312.812 1134.98C386.424 1266.38 506.863 1365.21 650.107 1411.74C710.013 1431.18 772.605 1441.07 835.585 1441.03Z" stroke="#FFE074" stroke-width="6" stroke-miterlimit="10" />
	<path d="M1588.07 840.699C1461.1 833.427 1451.17 640.985 1451.17 640.985L1368.14 667.921C1404.91 811.544 1222.03 837.865 1198.13 840.665H1195.54H1196.76H1195.54H1198.13C1222.03 843.464 1404.91 869.785 1368.14 1013.41L1451.07 1040.34C1451.07 1040.34 1461 847.902 1587.96 840.63H1586.46L1588.07 840.699Z" fill="#ffffff" />
	<path d="M83.0234 840.939C83.2147 840.95 83.4057 840.961 83.5964 840.973C210.016 833.156 219.887 641.294 219.887 641.294L302.811 668.23C266.077 811.853 448.96 838.174 472.857 840.973C448.96 843.773 266.077 870.094 302.811 1013.72L219.887 1040.65C219.887 1040.65 210.016 848.79 83.5964 840.973C83.4057 840.985 83.2147 840.996 83.0234 841.007V840.939Z" fill="#ffffff" />
	<path d="M823.116 852.785C770.303 904.642 558.64 1102.41 478.687 1022.46C478.687 1022.46 540.547 1135.39 410.887 1265.01L823.116 852.785Z" fill="#ffffff" />
	<path d="M410.965 1265.08C540.693 1135.35 653.523 1197.28 653.523 1197.28C573.569 1117.33 771.337 905.666 823.194 852.853L410.965 1265.08Z" fill="#ffffff" />
	<path d="M1016.69 1197.08C1016.69 1197.08 1129.59 1135.22 1259.25 1264.88L847.02 852.648C898.877 905.325 1096.64 1116.99 1016.69 1197.08Z" fill="#ffffff" />
	<path d="M1191.51 1022.25C1111.56 1102.2 899.897 904.436 847.084 852.579L1259.31 1264.81C1129.65 1135.18 1191.51 1022.25 1191.51 1022.25Z" fill="#ffffff" />
	<path d="M1190.29 657.679C1190.29 657.679 1128.43 544.747 1258.09 415.087L847.367 828.681C900.146 776.824 1110.34 577.589 1190.29 657.679Z" fill="#ffffff" />
	<path d="M1015.42 482.819C1095.41 562.772 899.146 775.834 847.289 828.613L1258.02 415.019C1128.36 544.679 1015.42 482.819 1015.42 482.819Z" fill="#ffffff" />
	<path d="M653.497 484.288C653.497 484.288 540.565 546.148 410.939 416.488L823.168 828.717C771.311 775.904 573.544 564.242 653.497 484.288Z" fill="#ffffff" />
	<path d="M478.661 659.113C558.615 579.159 770.277 776.926 823.09 828.784L410.861 416.555C540.521 546.215 478.661 659.113 478.661 659.113Z" fill="#ffffff" />
	<path d="M835.592 1604.17C956.026 1604.13 1074.74 1575.61 1182.05 1520.92C1289.35 1466.24 1382.19 1386.94 1452.99 1289.51C1523.79 1192.08 1570.53 1079.29 1589.4 960.339C1608.26 841.391 1598.72 719.667 1561.55 605.113C1524.4 490.499 1460.62 386.315 1375.45 301.094C1290.28 215.872 1186.13 152.035 1071.54 114.811C956.951 77.5875 835.172 68.0347 716.178 86.9354C597.183 105.836 484.358 152.653 386.94 223.551C256.464 318.242 159.332 451.825 109.476 605.138C59.6206 758.451 59.6039 923.615 109.428 1076.94C159.253 1230.26 256.359 1363.86 386.815 1458.58C517.272 1553.3 674.376 1604.26 835.592 1604.17V1604.17Z" stroke="#FFE074" stroke-width="6" stroke-miterlimit="10" />
	<path d="M1082.86 1602C1082.86 1602 1178.45 1576.63 1305.82 1488.25C1305.82 1488.25 1100.75 1247.53 1054.73 1268.19C1008.71 1288.84 1082.86 1602 1082.86 1602Z" fill="#ffffff" />
	<path d="M1033.58 232.137C838.988 163.551 835.744 0.878906 835.744 0.878906C835.744 0.878906 832.638 163.551 637.909 232.137C637.909 232.137 537.096 263.272 459.498 323.151L483.02 355.584C483.02 355.584 521.938 315.334 650.301 270.236C650.301 270.236 835.71 192.057 835.71 681.031C835.574 191.989 1020.98 270.338 1020.98 270.338C1149.38 315.504 1188.26 355.686 1188.26 355.686L1211.79 323.254C1134.22 263.272 1033.58 232.137 1033.58 232.137Z" fill="#ffffff" />
	<path d="M835.58 1160.96C879.756 1160.96 915.567 1125.15 915.567 1080.97C915.567 1036.79 879.756 1000.98 835.58 1000.98C791.404 1000.98 755.592 1036.79 755.592 1080.97C755.592 1125.15 791.404 1160.96 835.58 1160.96Z" fill="#ffffff" />
	<path d="M835.572 1640.75C835.572 1640.75 934.371 1646.69 1082.94 1602.62C1082.94 1602.62 963.662 1309.8 913.478 1314.96C863.293 1320.11 835.572 1640.75 835.572 1640.75Z" fill="#ffffff" />
	<path d="M588.212 1602C588.212 1602 492.623 1576.63 365.25 1488.25C365.25 1488.25 570.323 1247.53 616.343 1268.19C662.362 1288.84 588.212 1602 588.212 1602Z" fill="#ffffff" />
	<path d="M835.583 1640.75C835.583 1640.75 736.751 1646.69 588.178 1602.62C588.178 1602.62 707.664 1309.8 757.678 1314.96C807.692 1320.11 835.583 1640.75 835.583 1640.75Z" fill="#ffffff" />
</svg>
