<svg width="160" height="48" viewBox="0 0 160 48" fill="none" xmlns="http://www.w3.org/2000/svg">
	<g clip-path="url(#clip0_2409_28734)">
		<path d="M13.5206 27.0111C14.8425 27.0111 16.1323 26.5609 17.1748 25.7373L8.79161 17.1719C6.77105 19.8403 7.25469 23.6838 9.86637 25.7483C10.9196 26.5609 12.1986 27.0111 13.5206 27.0111Z" fill="white" />
		<path d="M38.4551 20.8948C38.4551 19.5441 38.0144 18.2263 37.2084 17.1611L28.8252 25.7266C31.4369 27.791 35.1878 27.2969 37.2084 24.6284C38.0144 23.5632 38.4551 22.2455 38.4551 20.8948Z" fill="white" />
		<path d="M42.679 11.5713L38.971 15.3598C41.9589 19.0166 41.486 24.4633 37.907 27.5162C34.7687 30.1956 30.2117 30.1956 27.0734 27.5162L23 31.6781L18.9374 27.5271C15.3584 30.5799 10.0276 30.0968 7.03972 26.44C4.41729 23.2334 4.41729 18.5774 7.03972 15.3708L5.13738 13.4271L3.33178 11.5713C1.15 15.239 0 19.4559 0 23.7496C0 36.7295 10.2963 47.2496 23 47.2496C35.7037 47.2496 46 36.7295 46 23.7496C46.0107 19.4559 44.85 15.239 42.679 11.5713Z" fill="white" />
		<path d="M39.6374 7.53099C30.8781 -1.85803 16.3257 -2.20943 7.13647 6.74034C6.86778 7.00389 6.60983 7.26744 6.36264 7.53099C5.79301 8.14595 5.25563 8.78286 4.75049 9.45272L23 28.11L41.2495 9.45272C40.7552 8.78286 40.207 8.14595 39.6374 7.53099ZM23 3.32515C28.3739 3.32515 33.3823 5.44454 37.1439 9.30996L23 23.7614L8.8561 9.30996C12.6178 5.44454 17.6262 3.32515 23 3.32515Z" fill="white" />
	</g>
	<path d="M66.1568 42.5464C70.3196 42.5464 74.4454 41.1773 76.8506 39.2902V27.1903H65.6018V32.5372H70.7636V35.5899C69.2095 36.441 67.7479 36.7925 66.1568 36.7925C61.6055 36.7925 58.9043 33.2217 58.9043 28.8739C58.9043 23.8416 62.1235 20.9369 65.8978 20.9369C68.7655 20.9369 70.8931 22.2135 72.3177 23.6011L76.7951 19.7898C74.0569 16.6076 69.7831 14.9795 65.9163 14.9795C57.3317 14.9795 52.2993 21.0479 52.2993 28.8739C52.2993 37.6251 58.4047 42.5649 66.1568 42.5649V42.5464Z" fill="white" />
	<path d="M90.7405 23.3791C88.5944 23.3791 86.5962 24.2671 85.1346 25.9692H85.0976V23.7306H79.1772V42.2504H85.0976V32.9442C85.0976 30.058 86.5037 28.6519 88.5203 28.6519C90.4815 28.6519 91.4621 29.54 91.4621 32.5927V42.2504H97.3825V31.1311C97.3825 25.2847 94.6073 23.3605 90.7405 23.3605V23.3791Z" fill="white" />
	<path d="M108.928 42.6204C114.793 42.6204 118.901 38.6981 118.901 32.9997C118.901 27.3013 114.793 23.3605 108.928 23.3605C102.953 23.3605 98.9193 27.3753 98.9193 32.9997C98.9193 38.6241 102.953 42.6204 108.928 42.6204ZM109.928 37.3475C107.579 37.3475 104.877 35.4789 104.877 32.9997C104.877 30.4836 106.523 28.6519 108.91 28.6519C111.223 28.6519 112.925 30.4281 112.925 32.9997C112.925 35.5344 111.167 37.3475 108.91 37.3475H109.928Z" fill="white" />
	<path d="M127.659 42.6204C132.71 42.6204 135.115 40.0857 135.115 36.6445C135.096 32.9627 132.876 32.0007 128.787 30.5206C127.048 29.873 126.364 29.4105 126.364 28.9479C126.364 28.2079 127.159 28.0044 127.677 28.0044C128.935 28.0044 130.545 28.6519 131.859 29.947L134.671 25.7102C132.525 24.1191 130.434 23.3605 127.696 23.3605C123.792 23.3605 120.739 25.5992 120.739 29.207C120.739 32.8702 123.44 34.4243 126.53 35.3864C128.806 36.108 129.379 36.478 129.379 36.9775C129.379 37.6251 128.787 37.9951 127.714 37.9951C125.975 37.9951 124.402 37.3475 122.848 35.9044L120.036 39.8822C122.145 41.7139 124.754 42.6204 127.659 42.6204Z" fill="white" />
	<path d="M140.028 21.5289C142.082 21.5289 143.728 20.1228 143.728 18.0692C143.728 16.034 142.082 14.6279 140.028 14.6279C137.974 14.6279 136.328 16.034 136.328 18.0692C136.328 20.1228 137.974 21.5289 140.028 21.5289ZM137.068 42.2504H142.97V23.7306H137.068V42.2504Z" fill="white" />
	<path d="M152.138 42.6204C157.189 42.6204 159.594 40.0857 159.594 36.6445C159.576 32.9627 157.356 32.0007 153.267 30.5206C151.528 29.873 150.843 29.4105 150.843 28.9479C150.843 28.2079 151.639 28.0044 152.157 28.0044C153.415 28.0044 155.024 28.6519 156.338 29.947L159.15 25.7102C157.004 24.1191 154.913 23.3605 152.175 23.3605C148.271 23.3605 145.219 25.5992 145.219 29.207C145.219 32.8702 147.92 34.4243 151.01 35.3864C153.285 36.108 153.859 36.478 153.859 36.9775C153.859 37.6251 153.267 37.9951 152.194 37.9951C150.455 37.9951 148.882 37.3475 147.328 35.9044L144.516 39.8822C146.625 41.7139 149.233 42.6204 152.138 42.6204Z" fill="white" />
	<defs>
		<clipPath id="clip0_2409_28734">
			<rect width="46" height="47" fill="white" transform="translate(0 0.25)" />
		</clipPath>
	</defs>
</svg>
