<svg id="Layer_1" data-name="Layer 1" xmlns="http://www.w3.org/2000/svg" viewBox="0 0 198.14 63.89"><path d="M31.6,0A31.38,31.38,0,0,0,14,5.38,32.18,32.18,0,0,0,9.25,54.53a31.42,31.42,0,0,0,48.62-4.84A32.19,32.19,0,0,0,53.94,9.35,31.73,31.73,0,0,0,43.69,2.43,31.37,31.37,0,0,0,31.6,0ZM54.73,33.69H40.07a9,9,0,0,1-3.48,5.53,8.87,8.87,0,0,1-12-1.3,9.13,9.13,0,0,1,.23-12.22,8.88,8.88,0,0,1,12.06-.82,9.07,9.07,0,0,1,3.26,5.67h14.6a1.38,1.38,0,0,1,.6.1,1.52,1.52,0,0,1,.51.32,1.46,1.46,0,0,1,.35.5,1.56,1.56,0,0,1,0,1.2,1.56,1.56,0,0,1-.32.52,1.6,1.6,0,0,1-.49.36,1.75,1.75,0,0,1-.59.14Z" style="fill:#fff"/><path d="M71.77,41.34H73.9l6.31,11.21h0l6.32-11.21h2.11V58.69H86.57V45.49h0l-5.59,9.73H79.52l-5.6-9.73h0V58.71H71.77Z" style="fill:#fff"/><path d="M92.36,53.89V46.81h2v6.52c0,2.69,1,3.72,2.88,3.72s3.51-1.64,3.51-4.48V46.83h2v11.9h-2v-2h0A4.6,4.6,0,0,1,99,58.29a4.67,4.67,0,0,1-2.23.59C94.08,58.86,92.36,57.3,92.36,53.89Z" style="fill:#fff"/><path d="M106.37,40.73h1.95v18h-1.95Z" style="fill:#fff"/><path d="M112.42,55.16V48.51H110.9v-1.7h1.52V42.74l2-.23v4.27h3.88v1.71h-3.88v6.36c0,1.44.3,2.14,1.42,2.14a4.34,4.34,0,0,0,2-.62l.51,1.75a5.1,5.1,0,0,1-2.84.74C113.38,58.86,112.42,57.56,112.42,55.16Z" style="fill:#fff"/><path d="M120.5,43.21a1.52,1.52,0,0,1,.23-.8,1.42,1.42,0,0,1,.63-.53,1.33,1.33,0,0,1,.81-.1,1.43,1.43,0,0,1,1.14,1.1,1.46,1.46,0,0,1-.06.83,1.55,1.55,0,0,1-.5.66,1.46,1.46,0,0,1-.79.26h0a1.44,1.44,0,0,1-.54-.1,1.6,1.6,0,0,1-.47-.31,1.44,1.44,0,0,1-.31-.46A1.47,1.47,0,0,1,120.5,43.21Zm.45,3.6h2v11.9h-2Z" style="fill:#fff"/><path d="M125.68,57.17l1-1.52a4.69,4.69,0,0,0,3.59,1.44c1.42,0,2.26-.72,2.26-1.62s-1.08-1.34-2.81-2c-1.91-.68-3.53-1.46-3.53-3.66,0-1.82,1.64-3.2,3.86-3.2a6.2,6.2,0,0,1,4.06,1.48l-1,1.56a4.36,4.36,0,0,0-3.1-1.27,1.63,1.63,0,0,0-1.81,1.43c0,.91.93,1.4,2.21,1.85,2.5,1,4.15,1.42,4.1,3.74,0,1.85-1.4,3.38-4.22,3.38a6.53,6.53,0,0,1-4.59-1.64Z" style="fill:#fff"/><path d="M137,43.21a1.52,1.52,0,0,1,.23-.8,1.42,1.42,0,0,1,.63-.53,1.33,1.33,0,0,1,.81-.1,1.43,1.43,0,0,1,1.14,1.1,1.46,1.46,0,0,1-.06.83,1.55,1.55,0,0,1-.5.66,1.49,1.49,0,0,1-.79.26h0a1.44,1.44,0,0,1-.54-.1,1.48,1.48,0,0,1-.47-.31,1.44,1.44,0,0,1-.31-.46,1.3,1.3,0,0,1-.12-.55Zm.45,3.6h1.95v11.9h-1.95Z" style="fill:#fff"/><path d="M143.63,62.41l.49-1.77a7.85,7.85,0,0,0,4.22,1.25c2.66,0,3.94-1.56,3.94-3.57V56.43h0a4.72,4.72,0,0,1-4.08,2.08,5.58,5.58,0,0,1-5.7-5.89,5.6,5.6,0,0,1,5.64-5.94,5,5,0,0,1,2.31.53,5,5,0,0,1,1.81,1.53h.06V46.83h1.95v11c0,3.43-1.68,5.87-5.8,5.87a9.44,9.44,0,0,1-4.8-1.31Zm8.69-9.92a4,4,0,1,0-7.9.06,4,4,0,1,0,7.9-.06Z" style="fill:#fff"/><path d="M70.55,25.78c0-5,3.21-8.93,8.71-8.93a9.31,9.31,0,0,1,7,3.1L83.38,22.4a5.8,5.8,0,0,0-1.89-1.28,5.73,5.73,0,0,0-2.23-.45c-2.44,0-4.47,1.89-4.47,5.11,0,2.82,1.73,5.12,4.65,5.12a6.13,6.13,0,0,0,3-.74V28.1H79.1V24.74h7.21v7.8a11.68,11.68,0,0,1-6.85,2.13C74.49,34.63,70.55,31.43,70.55,25.78Z" style="fill:#fff"/><path d="M88.76,22.5h3.78v1.4h0a4.62,4.62,0,0,1,1.6-1.21,4.53,4.53,0,0,1,1.95-.42c2.44,0,4.23,1.24,4.23,5v7.17H96.58V28.21c0-2-.65-2.55-1.89-2.55s-2.17.9-2.17,2.75v6H88.74V22.5Z" style="fill:#fff"/><path d="M102.25,28.47c0-3.65,2.6-6.2,6.41-6.2a6,6,0,0,1,6.38,6.2,6,6,0,0,1-6.38,6.18C104.85,34.65,102.25,32.11,102.25,28.47Zm9,0a2.59,2.59,0,1,0-5.16,0,2.59,2.59,0,1,0,5.16,0Z" style="fill:#fff"/><path d="M116.16,32.91l1.76-2.47A4.51,4.51,0,0,0,121,31.78c.75,0,1.14-.27,1.14-.7s-.37-.64-1.83-1.09c-2-.61-3.72-1.58-3.72-3.88s2-3.82,4.43-3.82a6.9,6.9,0,0,1,4.47,1.5l-1.79,2.67a4,4,0,0,0-2.64-1.25c-.42,0-.93.2-.93.66s.42.63,1.62,1c2.62.91,4,1.6,4,3.94s-1.56,3.84-4.81,3.84A7.22,7.22,0,0,1,116.16,32.91Z" style="fill:#fff"/><path d="M127.47,18.8a2.27,2.27,0,1,1,2.25,2.2A2.18,2.18,0,0,1,127.47,18.8Zm.36,3.7h3.78v12h-3.78Z" style="fill:#fff"/><path d="M133.42,32.91l1.77-2.47a4.49,4.49,0,0,0,3.08,1.34c.75,0,1.14-.27,1.14-.7s-.37-.64-1.83-1.09c-2-.61-3.72-1.58-3.72-3.88s1.95-3.82,4.43-3.82a6.9,6.9,0,0,1,4.47,1.5L141,26.46a3.93,3.93,0,0,0-2.64-1.25c-.42,0-.93.2-.93.66s.42.63,1.62,1c2.62.91,4,1.6,4,3.94s-1.56,3.84-4.81,3.84A7.26,7.26,0,0,1,133.42,32.91Z" style="fill:#fff"/><path d="M150,31.9,152.36,29A5.81,5.81,0,0,0,156.43,31c1.36,0,1.95-.68,1.95-1.46,0-.94-.61-1.37-2.54-2-2.62-.9-5.22-2.16-5.22-5.56,0-2.9,2.44-5,5.62-5.12a8.86,8.86,0,0,1,5.95,2.26l-2.29,3a5.9,5.9,0,0,0-3.49-1.64c-1,0-1.61.51-1.61,1.33s.61,1.27,2.46,2c3,1.17,5.34,2,5.34,5.3,0,4.08-3.45,5.54-6.32,5.54A8.65,8.65,0,0,1,150,31.9Z" style="fill:#fff"/><path d="M164,28.47c0-3.67,2.34-6.2,5.38-6.2a4.29,4.29,0,0,1,1.8.39,4.12,4.12,0,0,1,1.47,1.11l0,0V22.52h3.8v12h-3.59V33.22l0,0a3.84,3.84,0,0,1-3.28,1.5C166.32,34.65,164,32.17,164,28.47Zm8.88,0a2.54,2.54,0,1,0-5,0,2.54,2.54,0,0,0,2.54,2.82A2.58,2.58,0,0,0,172.86,28.47Z" style="fill:#fff"/><path d="M179.43,25.58H178.3V22.5h1.13V20.61c0-3,1.53-4.39,3.88-4.39a5.81,5.81,0,0,1,3.19.92l-.71,2.77a3.83,3.83,0,0,0-1.48-.43c-.67,0-1.12.35-1.12,1.3v1.74h2.26V25.6h-2.24v8.87h-3.8V25.58Z" style="fill:#fff"/><path d="M198.06,29.48H190a2.6,2.6,0,0,0,2.83,2.07,3.74,3.74,0,0,0,2.76-1.31l2.17,2.26c-1,1.25-2.64,2.15-5.32,2.15a5.93,5.93,0,0,1-6.19-6.2,5.89,5.89,0,0,1,6.09-6.18,5.74,5.74,0,0,1,5.79,6.06C198.12,28.72,198.1,29.09,198.06,29.48Zm-8-2.28h4.43a2.15,2.15,0,0,0-2.15-1.91,2.19,2.19,0,0,0-1.49.52A2.31,2.31,0,0,0,190,27.2Z" style="fill:#fff"/></svg>