<svg width="54" height="19" viewBox="0 0 54 19" fill="none" xmlns="http://www.w3.org/2000/svg">
<path d="M0.642578 17.8548V0.992676H2.66596V16.0243H11.4691V17.8548H0.642578Z" fill="white"/>
<path d="M13.5244 17.8548V0.992676H23.907V2.82318H15.5478V8.46387H22.3221V10.2944H15.5478V16.028H24.0271V17.8585L13.5244 17.8548Z" fill="white"/>
<path d="M26.002 17.8548V0.992676H30.2925L36.1698 16.5793H36.8467V0.992676H38.8483V17.8548H34.5559L28.7022 2.24818H28.0017V17.8566L26.002 17.8548Z" fill="white"/>
<path d="M47.4075 18.1912C46.282 18.2101 45.1654 17.9886 44.1323 17.5416C43.1943 17.1295 42.4014 16.4456 41.856 15.5783C41.3028 14.7025 41.0256 13.6065 41.0244 12.2903V11.7845H43.026V12.2903C43.026 13.6878 43.4354 14.7273 44.2542 15.4091C45.073 16.0908 46.1241 16.4347 47.4075 16.4408C48.7237 16.4408 49.7269 16.1436 50.4171 15.5492C50.748 15.2785 51.0132 14.9362 51.1929 14.5483C51.3725 14.1603 51.4619 13.7367 51.4543 13.3093C51.4833 12.7707 51.3158 12.2399 50.983 11.8154C50.625 11.4113 50.175 11.0993 49.6711 10.9056C49.033 10.6481 48.3752 10.4424 47.7041 10.2906L46.4523 9.97762C45.5561 9.75122 44.6845 9.43672 43.8502 9.03872C43.1461 8.71172 42.5368 8.21073 42.0798 7.58303C41.654 6.97653 41.4411 6.20142 41.4411 5.25762C41.4192 4.38502 41.6677 3.52703 42.1526 2.80113C42.6525 2.08923 43.3476 1.53693 44.1541 1.21083C45.0982 0.828025 46.1106 0.642327 47.1291 0.664927C48.1826 0.648127 49.2282 0.848826 50.2006 1.25453C51.0604 1.61443 51.8 2.21142 52.3332 2.97582C52.856 3.74002 53.1168 4.69963 53.1156 5.85443V6.86612H51.114V5.85443C51.114 5.03563 50.9418 4.37753 50.5973 3.88023C50.2455 3.37653 49.7504 2.99042 49.1762 2.77202C48.5192 2.51992 47.82 2.39643 47.1164 2.40813C46.0089 2.40813 45.1173 2.65073 44.4416 3.13593C43.7659 3.62123 43.4287 4.31562 43.4299 5.21942C43.4062 5.73612 43.5589 6.24563 43.863 6.66413C44.1903 7.06563 44.6133 7.37842 45.093 7.57392C45.7071 7.83512 46.3435 8.04033 46.9945 8.18713L48.2482 8.50192C49.1565 8.68662 50.041 8.97353 50.8848 9.35713C51.62 9.68293 52.2618 10.1878 52.7517 10.8255C53.2175 11.4442 53.4504 12.2515 53.4504 13.2474C53.4711 14.1697 53.211 15.0766 52.7044 15.8476C52.1783 16.609 51.4479 17.2063 50.5973 17.5708C49.5902 18.002 48.5028 18.2135 47.4075 18.1912Z" fill="white"/>
</svg>
