<svg fill="#ffffff" xmlns="http://www.w3.org/2000/svg" viewBox="0 0 600 66">
	<polygon points="49 17.5 65.6 0 65.6 50.6 49 65.8 49 17.5" />
	<polygon points="24.5 26.3 32.5 32.9 41.1 25.3 41.1 50.6 24.5 65.8 24.5 26.3" />
	<polygon points="16.7 17.5 0 0 0 66 16.7 51.8 16.7 17.5" />
	<path d="M589.4,56.7h10.6V10.9h-10.6V56.7Zm-72-23.6v-13.2h10.5c5.2,0,8.3,2.2,8.3,6.5v.1c0,3.9-3,6.5-8.1,6.5h-10.7v.1Zm-10.6,23.6h10.6v-14.7h8.3l10.3,14.7h12.4l-11.8-16.4c6.1-2.2,10.3-6.8,10.3-14.2v-.1c0-4.3-1.4-7.9-4.1-10.5-3.2-3-7.9-4.7-14-4.7h-22V56.7Zm-71.9-19.2l6.4-14.9,6.4,14.9h-12.8Zm-19,19.2h10.8l4.4-10.3h20.4l4.4,10.3h11.1l-20.6-46.2h-9.8l-20.7,46.2Zm-54.2,.6c10.4,0,17.7-5.1,17.7-14.2v-.1c0-8-5.5-11.3-15.3-13.8-8.3-2-10.4-3-10.4-6v-.1c0-2.2,2.1-4,6.2-4s8.3,1.7,12.5,4.5l5.5-7.6c-4.9-3.7-10.9-5.8-17.9-5.8-9.8,0-16.9,5.5-16.9,13.8v.1c0,9.1,6.3,11.7,16,14,8,2,9.7,3.3,9.7,5.8v.1c0,2.7-2.6,4.3-6.9,4.3-5.5,0-10-2.2-14.4-5.6l-6.3,7.1c5.9,5.1,13.2,7.5,20.5,7.5m-75.8,0c10.4,0,17.7-5.1,17.7-14.2v-.1c0-8-5.5-11.3-15.3-13.8-8.3-2-10.4-3-10.4-6v-.1c0-2.2,2.1-4,6.2-4s8.3,1.7,12.5,4.5l5.5-7.6c-4.9-3.7-10.9-5.8-17.9-5.8-9.8,0-16.9,5.5-16.9,13.8v.1c0,9.1,6.3,11.7,16,14,8,2,9.7,3.3,9.7,5.8v.1c0,2.7-2.6,4.3-6.9,4.3-5.5,0-10-2.2-14.4-5.6l-6.3,7.1c5.9,5.1,13.2,7.5,20.5,7.5m-95.6-.6h36.7v-9h-26.1v-9.6h22.7v-9h-22.7v-9.3h25.8V10.8h-36.3V56.7h-.1Zm-92.2,0h10.4V27l13.4,19.4h.3l13.6-19.6v29.9h10.5V10.9h-11.4l-12.7,19.3-12.7-19.4h-11.4V56.7Z" />
</svg>
