<svg width="104" height="40" viewBox="0 0 104 40" fill="none" xmlns="http://www.w3.org/2000/svg">
	<path fill-rule="evenodd" clip-rule="evenodd" d="M31.0501 19.9988L32.4094 20.5393L32.4097 20.5398L32.4099 20.5393L34.0798 19.8753C34.0548 20.4538 34.0307 21.0276 34.0077 21.5968C33.9523 22.9624 33.9246 24.3548 33.9246 25.7742V31.3226C33.9246 32.7419 33.9523 34.1398 34.0077 35.5161C34.063 36.8925 34.124 38.2473 34.1904 39.5806C33.6809 39.5376 33.1382 39.5161 32.5623 39.5161C31.9864 39.5161 31.4437 39.5376 30.9342 39.5806C31.0006 38.2473 31.0616 36.8925 31.1169 35.5161C31.1723 34.1398 31.2 32.7419 31.2 31.3226V25.7742C31.2 24.3548 31.1723 22.9624 31.1169 21.5968C31.0955 21.0682 31.0732 20.5355 31.0501 19.9988ZM8.423 25.9032C6.86133 23.0215 5.3163 20.0538 3.78786 17H3.223C3.04579 18.7204 2.83536 20.5322 2.59169 22.4355C2.34803 24.3387 2.08222 26.2688 1.79425 28.2258C1.50628 30.1828 1.20724 32.129 0.897125 34.0645C0.587006 36 0.287967 37.8387 0 39.5806C0.354421 39.5376 0.742064 39.5161 1.16294 39.5161C1.58381 39.5161 1.97146 39.5376 2.32588 39.5806C2.32588 38.7204 2.38126 37.6183 2.49201 36.2742C2.60277 34.9301 2.73568 33.5 2.89073 31.9839C3.04579 30.4677 3.21746 28.9301 3.40575 27.371C3.59404 25.8118 3.76571 24.3656 3.92077 23.0323H3.98722C5.44921 25.871 6.90564 28.6505 8.35655 31.371C9.80746 34.0914 11.1974 36.8064 12.5265 39.5161H12.8256C14.1546 36.5914 15.5557 33.7903 17.0288 31.1129C18.5018 28.4355 20.0025 25.742 21.531 23.0323H21.5974C21.9519 25.828 22.2509 28.5699 22.4946 31.2581C22.7382 33.9462 22.9819 36.7204 23.2256 39.5806C23.4914 39.5376 23.7516 39.5161 24.0064 39.5161H25.5681C25.8228 39.5161 26.0831 39.5376 26.3489 39.5806C26.0831 37.7957 25.8394 35.9946 25.6179 34.1774C25.3964 32.3602 25.1749 30.5215 24.9534 28.6613C24.7318 26.8011 24.5159 24.9086 24.3054 22.9839C24.095 21.0591 23.8679 19.0645 23.6243 17H23.1923C22.6385 17.9893 22.0405 19.0538 21.3981 20.1935C20.7557 21.3333 20.1078 22.4946 19.4543 23.6774C18.8008 24.8602 18.1585 26.0269 17.5272 27.1774C16.8958 28.328 16.3033 29.3978 15.7495 30.3871C15.1957 31.3763 14.7084 32.2527 14.2875 33.0161C13.8667 33.7796 13.5455 34.3656 13.324 34.7742C11.6183 31.7419 9.98467 28.785 8.423 25.9032ZM51.0032 31.2097C53.8829 34.2097 56.5964 37.1398 59.1438 40H59.6089V38.9355C59.6089 38.4193 59.6034 37.8118 59.5923 37.1129C59.5813 36.414 59.5702 35.6613 59.5591 34.8548L59.5259 32.4516C59.5148 31.6559 59.5093 30.8925 59.5093 30.1613V28.2258C59.5093 27.6021 59.5314 26.7742 59.5757 25.7419C59.62 24.7097 59.6699 23.6559 59.7252 22.5806C59.7806 21.5054 59.836 20.4946 59.8914 19.5484C59.9468 18.6021 59.9966 17.8925 60.0409 17.4194C59.5979 17.5269 59.2435 17.5806 58.9776 17.5806C58.6675 17.5806 58.291 17.5269 57.8479 17.4194C57.9587 19.3118 58.0307 21.3279 58.0639 23.4677C58.0971 25.6075 58.1137 27.8064 58.1137 30.0645V34.4516C57.0948 33.4624 55.9042 32.2634 54.5419 30.8548C53.1795 29.4462 51.7397 27.9516 50.2224 26.371C48.705 24.7903 47.1766 23.1882 45.6371 21.5645C44.0975 19.9409 42.6522 18.4194 41.301 17H40.7693C40.8136 17.7312 40.8413 18.8387 40.8524 20.3226C40.8635 21.8065 40.869 23.5806 40.869 25.6452C40.869 26.3548 40.8579 27.1613 40.8358 28.0645C40.8136 28.9677 40.7859 29.8925 40.7527 30.8387C40.7195 31.785 40.6752 32.7312 40.6198 33.6774C40.5644 34.6237 40.5146 35.5 40.4703 36.3064C40.426 37.1129 40.3761 37.8064 40.3208 38.3871C40.2654 38.9677 40.2155 39.3656 40.1712 39.5806C40.5478 39.5376 40.9576 39.5161 41.4006 39.5161C41.8215 39.5161 42.2092 39.5376 42.5636 39.5806C42.5414 39.4086 42.5193 39.0806 42.4971 38.5968C42.475 38.1129 42.4528 37.5484 42.4307 36.9032C42.4085 36.2581 42.3864 35.5591 42.3642 34.8064C42.3421 34.0538 42.3255 33.3118 42.3144 32.5806C42.3033 31.8495 42.2922 31.1505 42.2812 30.4839C42.2701 29.8172 42.2645 29.2581 42.2645 28.8065C42.2645 27.0645 42.2756 25.6882 42.2978 24.6774C42.3199 23.6667 42.3421 22.8602 42.3642 22.2581C45.2439 25.2258 48.1235 28.2097 51.0032 31.2097ZM66.2045 21.5968C66.2599 22.9624 66.2875 24.3548 66.2875 25.7742V31.3226C66.2875 32.7419 66.2599 34.1398 66.2045 35.5161C66.1491 36.8925 66.0882 38.2473 66.0217 39.5806C66.7749 39.5376 67.5169 39.5161 68.2479 39.5161H70.4741C71.2273 39.5161 71.9693 39.5269 72.7003 39.5484C73.4313 39.5699 74.1734 39.5806 74.9265 39.5806C76.2335 39.5806 77.6013 39.3925 79.03 39.0161C80.4588 38.6398 81.7657 38 82.9508 37.0968C84.1359 36.1935 85.1105 35.0054 85.8748 33.5323C86.639 32.0591 87.0211 30.2473 87.0211 28.0968C87.0211 26.4409 86.8162 24.9516 86.4064 23.629C85.9966 22.3064 85.3487 21.1882 84.4626 20.2742C83.5766 19.3602 82.4413 18.6559 81.0569 18.1613C79.6724 17.6667 78.0055 17.4194 76.0562 17.4194C75.2145 17.4194 74.3783 17.4462 73.5476 17.5C72.7169 17.5538 71.8807 17.5806 71.039 17.5806C70.1972 17.5806 69.361 17.5645 68.5303 17.5323C67.6997 17.5 66.8635 17.4624 66.0217 17.4194C66.0882 18.8387 66.1491 20.2312 66.2045 21.5968ZM71.1054 38.4032C70.308 38.3495 69.6767 38.2688 69.2115 38.1613C69.0786 35.9247 69.0121 33.6452 69.0121 31.3226V25.7742C69.0121 24.6129 69.0288 23.4677 69.062 22.3387C69.0952 21.2097 69.1451 20.129 69.2115 19.0968C69.8982 19.0108 70.6735 18.9355 71.5374 18.871C72.4013 18.8065 73.3316 18.7742 74.3284 18.7742C75.7018 18.7742 76.9644 18.9086 78.1163 19.1774C79.2682 19.4462 80.2594 19.9301 81.0901 20.629C81.9208 21.328 82.5742 22.2796 83.0505 23.4839C83.5267 24.6882 83.7649 26.2258 83.7649 28.0968C83.7649 30.2258 83.4603 31.9624 82.8511 33.3064C82.242 34.6505 81.4556 35.7097 80.492 36.4839C79.5284 37.2581 78.4375 37.7849 77.2192 38.0645C76.0008 38.3441 74.7825 38.4839 73.5642 38.4839C72.7225 38.4839 71.9029 38.457 71.1054 38.4032ZM92.1214 36.5645C91.8224 36.1667 91.5842 35.7742 91.407 35.3871H91.0083C90.9419 36.0108 90.8699 36.5215 90.7923 36.9194C90.7148 37.3172 90.5764 37.7634 90.377 38.2581C90.9529 38.7097 91.6673 39.1129 92.5201 39.4677C93.373 39.8226 94.486 40 95.8594 40C97.1442 40 98.2905 39.8226 99.2984 39.4677C100.306 39.1129 101.159 38.6075 101.857 37.9516C102.555 37.2957 103.086 36.5269 103.452 35.6452C103.817 34.7634 104 33.828 104 32.8387C104 31.6559 103.74 30.7097 103.219 30C102.699 29.2903 102.051 28.7097 101.275 28.2581C100.5 27.8064 99.6639 27.4247 98.7668 27.1129C97.8696 26.8011 97.0334 26.4462 96.2581 26.0484C95.4828 25.6505 94.8349 25.1613 94.3144 24.5806C93.7938 24 93.5335 23.2043 93.5335 22.1935C93.5335 21.6129 93.6388 21.0753 93.8492 20.5806C94.0596 20.086 94.3587 19.6613 94.7463 19.3065C95.134 18.9516 95.5881 18.6774 96.1086 18.4839C96.6292 18.2903 97.1996 18.1935 97.8198 18.1935C98.44 18.1935 98.9717 18.2957 99.4147 18.5C99.8577 18.7043 100.24 18.957 100.561 19.2581C100.882 19.5591 101.137 19.8871 101.325 20.2419C101.514 20.5968 101.663 20.9247 101.774 21.2258H102.173C102.305 20.6021 102.438 20.086 102.571 19.6774C102.704 19.2688 102.87 18.8817 103.07 18.5161C102.405 18 101.685 17.6183 100.91 17.371C100.135 17.1237 99.2153 17 98.1521 17C97.0445 17 96.0477 17.1505 95.1617 17.4516C94.2756 17.7527 93.5169 18.172 92.8856 18.7097C92.2543 19.2473 91.7725 19.8871 91.4403 20.629C91.108 21.371 90.9419 22.1935 90.9419 23.0968C90.9419 24.3656 91.2021 25.3763 91.7227 26.129C92.2432 26.8817 92.8912 27.5 93.6665 27.9839C94.4417 28.4677 95.2779 28.871 96.1751 29.1935C97.0722 29.5161 97.9084 29.871 98.6837 30.2581C99.459 30.6452 100.107 31.129 100.627 31.7097C101.148 32.2903 101.408 33.0753 101.408 34.0645C101.408 34.7097 101.298 35.3172 101.076 35.8871C100.855 36.457 100.539 36.9516 100.129 37.371C99.7193 37.7903 99.2209 38.1237 98.6339 38.371C98.0469 38.6183 97.3879 38.7419 96.6569 38.7419C95.948 38.7419 95.3056 38.6398 94.7297 38.4355C94.1538 38.2312 93.6498 37.9677 93.2179 37.6452C92.7859 37.3226 92.4204 36.9624 92.1214 36.5645Z" fill="white" />
	<path d="M31.0056 18.3809L30.8931 19.9864L31.0056 18.3809Z" fill="white" fill-opacity="0.1" />
	<path d="M29.625 19.4322L31.0173 18.2695L32.4097 20.5394L29.625 19.4322Z" fill="white" fill-opacity="0.1" />
	<path d="M29.625 16V19.4325L31.0173 18.2699L29.625 16Z" fill="white" fill-opacity="0.2" />
	<path d="M33.802 18.2695L32.4097 20.5394L35.1943 19.4322L33.802 18.2695Z" fill="white" fill-opacity="0.05" />
	<path d="M35.1941 19.4325L33.8018 18.2699L35.1941 16V19.4325Z" fill="white" fill-opacity="0.2" />
	<path d="M30.1821 5.53711L36.0856 7.97308L31.8529 11.3502L30.1821 5.53711Z" fill="white" fill-opacity="0.7" />
	<path d="M34.6377 1.43945L37.9793 4.87196L36.0857 7.97228L34.6377 1.43945Z" fill="white" fill-opacity="0.7" />
	<path d="M29.625 16.0001L35.7512 14.2285L35.1943 16.0001H29.625Z" fill="white" fill-opacity="0.7" />
	<path d="M29.0684 14.2285L31.853 11.3496L29.6253 16.0001L29.0684 14.2285Z" fill="white" fill-opacity="0.7" />
	<path d="M26.8403 4.87196L30.1819 1.43945V5.53631L26.8403 4.87196Z" fill="white" fill-opacity="0.7" />
	<path d="M31.853 11.3498L35.7515 14.2287L36.0857 7.97266L31.853 11.3498Z" fill="white" fill-opacity="0.8" />
	<path d="M31.8531 11.3498L26.5066 10.4086L29.0684 14.2286L31.8531 11.3498Z" fill="white" fill-opacity="0.8" />
	<path d="M30.1821 5.53711L34.6376 1.44025L36.0856 7.97308L30.1821 5.53711Z" fill="white" fill-opacity="0.5" />
	<path d="M26.5063 10.4082L30.1821 5.53626L31.8529 11.3494L26.5063 10.4082Z" fill="white" fill-opacity="0.2" />
	<path d="M29.6253 16.0003L31.853 11.3498L35.7516 14.2287L29.6253 16.0003Z" fill="white" fill-opacity="0.5" />
	<path d="M35.7512 14.2283L36.0854 7.97224L38.3131 10.4082L35.7512 14.2283Z" fill="white" fill-opacity="0.5" />
	<path d="M26.5064 10.409L26.8405 4.87269L30.1821 5.53705L26.5064 10.409Z" fill="white" fill-opacity="0.5" />
	<path d="M36.0858 7.97294L37.9793 4.87262L38.3135 10.4089L36.0858 7.97294Z" fill="white" fill-opacity="0.2" />
	<path d="M34.6376 1.43934L30.1821 5.53619L30.1821 1.43934L34.6376 1.43934Z" fill="white" fill-opacity="0.1" />
</svg>
