<svg width="115" height="30" viewBox="0 0 115 30" fill="none" xmlns="http://www.w3.org/2000/svg">
	<g clip-path="url(#clip0_180_49752)">
		<path d="M57.5705 6.25V23.75C57.5697 23.816 57.5428 23.8791 57.4957 23.9258C57.4486 23.9725 57.3849 23.9991 57.3183 24H55.4824C55.061 24.0003 54.6462 23.8958 54.2761 23.6961C53.906 23.4963 53.5924 23.2077 53.3639 22.8567L45.0315 10.09L45.3173 16.4667V23.75C45.3169 23.7833 45.3098 23.8161 45.2966 23.8467C45.2833 23.8773 45.2641 23.9049 45.2401 23.9282C45.216 23.9514 45.1876 23.9697 45.1564 23.982C45.1253 23.9943 45.0919 24.0004 45.0584 24H42.6306C42.564 23.9991 42.5004 23.9725 42.4532 23.9258C42.4061 23.8791 42.3793 23.816 42.3784 23.75V6.25C42.3793 6.18396 42.4061 6.12088 42.4532 6.07418C42.5004 6.02748 42.564 6.00086 42.6306 6H44.4565C44.8774 6.00022 45.2916 6.1046 45.6615 6.30367C46.0315 6.50275 46.3454 6.79021 46.5749 7.14L54.9074 19.8867L54.6484 13.5333V6.25C54.6484 6.1837 54.675 6.12011 54.7223 6.07322C54.7696 6.02634 54.8338 6 54.9006 6H57.3284C57.3933 6.00338 57.4544 6.03111 57.4993 6.07754C57.5443 6.12398 57.5698 6.18564 57.5705 6.25V6.25Z" fill="white" />
		<path d="M82.383 24H79.814C79.7739 23.9996 79.7344 23.9897 79.6989 23.9712C79.6634 23.9527 79.6328 23.926 79.6098 23.8934C79.5868 23.8608 79.5719 23.8232 79.5665 23.7838C79.5611 23.7443 79.5653 23.7042 79.5786 23.6667L86.3845 6.23999C86.4136 6.16702 86.4648 6.10478 86.531 6.06181C86.5972 6.01884 86.6753 5.99724 86.7544 5.99999H89.9724C90.0486 6.00064 90.1229 6.02383 90.1858 6.06658C90.2487 6.10933 90.2973 6.16971 90.3254 6.23999L97.1111 23.6667C97.1245 23.7042 97.1286 23.7443 97.1232 23.7838C97.1178 23.8232 97.103 23.8608 97.0799 23.8934C97.0569 23.926 97.0264 23.9527 96.9908 23.9712C96.9553 23.9897 96.9159 23.9996 96.8757 24H94.3067C94.2553 24.0002 94.205 23.9851 94.1624 23.9565C94.1198 23.928 94.0869 23.8874 94.068 23.84L88.5836 9.50666C88.5659 9.45839 88.5337 9.41669 88.4913 9.38723C88.4489 9.35776 88.3983 9.34195 88.3465 9.34195C88.2947 9.34195 88.2442 9.35776 88.2018 9.38723C88.1594 9.41669 88.1272 9.45839 88.1095 9.50666L82.6251 23.84C82.606 23.8879 82.5725 23.9289 82.5293 23.9575C82.486 23.9861 82.435 24.0009 82.383 24V24Z" fill="white" />
		<path d="M114.946 23.5967L109.842 17.1333C112.723 16.5933 114.408 14.6667 114.408 11.71C114.408 8.31333 112.179 6 108.234 6H101.116C101.066 6 101.017 6.00976 100.971 6.02873C100.925 6.0477 100.883 6.0755 100.848 6.11052C100.813 6.14554 100.786 6.18709 100.767 6.23277C100.748 6.27845 100.739 6.32736 100.739 6.37667C100.739 7.01319 100.994 7.62364 101.448 8.07372C101.902 8.52381 102.518 8.77667 103.16 8.77667H107.939C110.323 8.77667 111.466 9.98667 111.466 11.7333C111.466 13.48 110.35 14.7167 107.939 14.7167H101.116C101.016 14.7175 100.92 14.7576 100.849 14.8282C100.779 14.8987 100.739 14.994 100.739 15.0933V23.76C100.739 23.8263 100.766 23.8899 100.813 23.9368C100.86 23.9837 100.925 24.01 100.991 24.01H103.419C103.486 24.0091 103.55 23.9825 103.597 23.9358C103.644 23.8891 103.671 23.826 103.671 23.76V17.29H106.472L110.901 23.02C111.138 23.3266 111.444 23.5747 111.794 23.7447C112.144 23.9147 112.529 24.0021 112.919 24H114.761C114.807 23.9975 114.852 23.9825 114.89 23.9568C114.928 23.931 114.958 23.8954 114.977 23.8538C114.996 23.8123 115.003 23.7663 114.998 23.721C114.992 23.6757 114.974 23.6327 114.946 23.5967V23.5967Z" fill="white" />
		<path d="M74.7063 6H63.4417C63.3525 6 63.267 6.03512 63.204 6.09763C63.1409 6.16014 63.1055 6.24493 63.1055 6.33333C63.1055 6.6542 63.1692 6.97192 63.2931 7.26836C63.417 7.5648 63.5985 7.83415 63.8274 8.06103C64.0563 8.28792 64.328 8.46789 64.627 8.59068C64.926 8.71347 65.2466 8.77667 65.5702 8.77667H74.7063C74.7396 8.77712 74.7726 8.77095 74.8034 8.75855C74.8342 8.74615 74.8622 8.72775 74.8857 8.70444C74.9092 8.68114 74.9277 8.6534 74.9403 8.62287C74.9528 8.59233 74.959 8.55962 74.9585 8.52667V6.25C74.9585 6.21717 74.952 6.18466 74.9393 6.15433C74.9267 6.124 74.9081 6.09644 74.8847 6.07322C74.8613 6.05001 74.8335 6.03159 74.8029 6.01903C74.7723 6.00647 74.7395 6 74.7063 6V6ZM74.7063 21.2233H66.2999C66.2333 21.2225 66.1697 21.1959 66.1225 21.1492C66.0754 21.1025 66.0486 21.0394 66.0477 20.9733V16.46C66.0477 16.3937 66.0743 16.3301 66.1216 16.2832C66.1689 16.2363 66.233 16.21 66.2999 16.21H74.0708C74.1377 16.21 74.2019 16.1837 74.2491 16.1368C74.2964 16.0899 74.323 16.0263 74.323 15.96V13.6667C74.323 13.6004 74.2964 13.5368 74.2491 13.4899C74.2019 13.443 74.1377 13.4167 74.0708 13.4167H63.4821C63.3819 13.4175 63.2861 13.4576 63.2156 13.5282C63.145 13.5987 63.1055 13.694 63.1055 13.7933V23.6267C63.1055 23.7257 63.1451 23.8206 63.2158 23.8907C63.2864 23.9607 63.3822 24 63.4821 24H74.7063C74.7732 24 74.8374 23.9737 74.8847 23.9268C74.932 23.8799 74.9585 23.8163 74.9585 23.75V21.4733C74.959 21.4404 74.9528 21.4077 74.9403 21.3771C74.9277 21.3466 74.9092 21.3189 74.8857 21.2956C74.8622 21.2723 74.8342 21.2539 74.8034 21.2415C74.7726 21.229 74.7396 21.2229 74.7063 21.2233V21.2233Z" fill="white" />
		<path d="M24.2912 1.52333L17.9629 10.8333C17.8603 10.9677 17.8129 11.1356 17.8302 11.3032C17.8474 11.4708 17.9281 11.6258 18.0559 11.7368C18.1837 11.8479 18.3492 11.9069 18.5191 11.9019C18.689 11.8969 18.8507 11.8284 18.9716 11.71L25.189 6.36C25.2249 6.32736 25.2697 6.30589 25.3178 6.29824C25.3659 6.2906 25.4152 6.29712 25.4596 6.31699C25.504 6.33687 25.5416 6.36923 25.5676 6.41006C25.5936 6.45088 25.607 6.49838 25.606 6.54667V23.31C25.6055 23.3609 25.5893 23.4104 25.5597 23.452C25.53 23.4935 25.4882 23.5251 25.44 23.5425C25.3917 23.5599 25.3393 23.5623 25.2896 23.5493C25.24 23.5364 25.1955 23.5087 25.1621 23.47L6.33173 1.13667C6.03061 0.782457 5.65543 0.497352 5.23217 0.301088C4.80891 0.104823 4.34768 0.0020902 3.88041 0L3.22471 0C2.36946 0 1.54924 0.336791 0.944495 0.936282C0.339745 1.53577 0 2.34886 0 3.19667L0 26.8033C0 27.6511 0.339745 28.4642 0.944495 29.0637C1.54924 29.6632 2.36946 30 3.22471 30V30C3.77577 29.9999 4.31762 29.8599 4.79856 29.5932C5.2795 29.3265 5.68347 28.9421 5.97193 28.4767L12.3003 19.1667C12.4028 19.0323 12.4503 18.8644 12.433 18.6968C12.4157 18.5292 12.3351 18.3742 12.2073 18.2632C12.0795 18.1521 11.914 18.0931 11.7441 18.0981C11.5742 18.1031 11.4125 18.1716 11.2915 18.29L5.07412 23.64C5.03822 23.6726 4.99344 23.6941 4.94534 23.7018C4.89724 23.7094 4.84793 23.7029 4.80353 23.683C4.75913 23.6631 4.7216 23.6308 4.69558 23.5899C4.66956 23.5491 4.6562 23.5016 4.65716 23.4533V6.69C4.65767 6.63911 4.67384 6.58958 4.7035 6.54803C4.73316 6.50649 4.77491 6.47491 4.82316 6.45752C4.87141 6.44012 4.92387 6.43775 4.97352 6.4507C5.02317 6.46365 5.06766 6.49132 5.10102 6.53L23.9314 28.8633C24.2326 29.2175 24.6077 29.5027 25.031 29.6989C25.4542 29.8952 25.9155 29.9979 26.3827 30H27.0553C27.9076 29.9956 28.7235 29.6569 29.3246 29.0578C29.9257 28.4588 30.2632 27.6483 30.2632 26.8033V3.19667C30.2632 2.34886 29.9234 1.53577 29.3187 0.936282C28.7139 0.336791 27.8937 0 27.0385 0V0C26.4874 6.55362e-05 25.9455 0.14012 25.4646 0.406799C24.9837 0.673478 24.5797 1.05788 24.2912 1.52333V1.52333Z" fill="white" />
	</g>
	<defs>
		<clipPath id="clip0_180_49752">
			<rect width="115" height="30" fill="white" />
		</clipPath>
	</defs>
</svg>
