<svg width="92" height="34" viewBox="0 0 92 34" fill="none" xmlns="http://www.w3.org/2000/svg">
	<g clip-path="url(#clip0_2407_29008)">
		<path d="M59.7132 14.3109C58.223 14.3109 56.9379 15.0213 56.0714 16.1462V14.5604H54.8867V28.3338H56.0714V23.3944C56.942 24.5193 58.223 25.2255 59.7132 25.2255C62.4801 25.2255 64.7364 22.777 64.7364 19.7661C64.7364 16.7551 62.4843 14.3066 59.7132 14.3066V14.3109ZM59.7132 24.0457C57.5909 24.0457 55.8662 22.13 55.8662 19.7703C55.8662 17.4106 57.5909 15.4949 59.7132 15.4949C61.8355 15.4949 63.5601 17.4106 63.5601 19.7703C63.5601 22.13 61.8355 24.0457 59.7132 24.0457Z" fill="white" />
		<path d="M46.4982 10.2891C42.534 10.2891 39.3066 13.706 39.3066 17.9052C39.3066 22.1045 42.534 25.5214 46.4982 25.5214C50.4623 25.5214 53.6897 22.1045 53.6897 17.9052C53.6897 13.706 50.4623 10.2891 46.4982 10.2891V10.2891ZM46.4982 24.3754C43.1578 24.3754 40.441 21.4744 40.441 17.9052C40.441 14.3361 43.1578 11.4351 46.4982 11.4351C49.8386 11.4351 52.5553 14.3361 52.5553 17.9052C52.5553 21.4744 49.8386 24.3754 46.4982 24.3754Z" fill="white" />
		<path d="M81.3385 14.3525C80.9282 14.3695 80.5431 14.4794 80.1831 14.6739C79.4255 15.0841 78.898 15.7058 78.5631 16.5008C78.5548 16.5177 78.5464 16.5389 78.538 16.5558H78.5255V14.6443V14.6232H77.3408V24.9458H78.5297V24.8782C78.5297 23.0217 78.5297 21.3894 78.5297 19.5329C78.5297 18.7717 78.6469 18.1543 78.8938 17.5496C79.1241 16.9913 79.4422 16.4966 79.8985 16.0991C80.4385 15.6339 81.0538 15.4309 81.7612 15.5451C81.8743 15.562 81.9873 15.5874 82.1087 15.6127C82.1757 15.2702 82.3389 14.8346 82.4059 14.4921C82.0752 14.3991 81.6482 14.3441 81.3385 14.3568V14.3525Z" fill="white" />
		<path d="M70.823 14.3232C68.0561 14.3232 65.7998 16.7717 65.7998 19.7827C65.7998 22.7936 68.0519 25.2421 70.823 25.2421C72.803 25.2421 74.5193 23.9904 75.3355 22.172L74.3141 21.5715C73.703 23.0347 72.3718 24.0581 70.823 24.0581C68.8179 24.0581 67.1686 22.3454 66.9928 20.1675H75.8337C75.842 20.0407 75.8462 19.9138 75.8462 19.7827C75.8462 16.5688 73.7825 14.3232 70.823 14.3232V14.3232ZM70.823 15.5073C72.9202 15.5073 74.3853 16.9367 74.6323 19.1188H67.0263C67.3151 17.0762 68.9058 15.5073 70.823 15.5073Z" fill="white" />
		<path d="M90.8154 14.56V16.1459C89.9447 15.021 88.6638 14.3105 87.1736 14.3105C84.4066 14.3105 82.1504 16.7591 82.1504 19.77C82.1504 22.7809 84.4025 25.2295 87.1736 25.2295C88.6638 25.2295 89.9489 24.519 90.8154 23.3984V24.9503H92.0001V14.5643H90.8154V14.56ZM87.1736 24.0454C85.0513 24.0454 83.3267 22.1297 83.3267 19.77C83.3267 17.4103 85.0513 15.4946 87.1736 15.4946C89.2959 15.4946 91.0205 17.4103 91.0205 19.77C91.0205 22.1297 89.2959 24.0454 87.1736 24.0454Z" fill="white" />
		<path d="M11.2897 26.5784C9.43107 24.3582 8.2255 21.0808 8.14178 17.3975C8.14178 17.3891 8.14178 16.6067 8.14178 16.5983C8.2255 12.9192 9.42688 9.63756 11.2897 7.41741C13.705 4.25 17.2924 2.24129 21.2984 2.24129C23.7639 2.24129 26.0704 3.00249 28.042 4.32189C25.0825 1.64925 21.1728 0.0169154 16.8905 0C16.8696 0 16.8487 0 16.8277 0C7.53481 0 0 7.61194 0 17C0 26.3881 7.10365 33.556 16.024 33.9789C16.2877 33.9915 16.5556 34 16.8236 34C21.1309 34 25.0616 32.3634 28.0379 29.6739C26.0663 30.9975 23.7598 31.7545 21.2942 31.7545C17.2882 31.7545 13.6966 29.7458 11.2855 26.5784H11.2897Z" fill="white" />
		<path d="M11.2896 7.42124C12.8342 5.58168 14.8267 4.4695 17.0076 4.4695C21.9053 4.4695 25.8778 10.0812 25.8778 16.9996C25.8778 23.918 21.9053 29.5297 17.0076 29.5297C14.8309 29.5297 12.8342 28.4175 11.2896 26.578C13.7049 29.7454 17.2923 31.7541 21.2983 31.7541C23.7638 31.7541 26.0703 30.9929 28.0419 29.6735C31.487 26.561 33.6554 22.0362 33.6554 16.9996C33.6554 11.963 31.487 7.43815 28.0419 4.32571C26.0703 3.00208 23.7638 2.24512 21.2983 2.24512C17.2923 2.24512 13.7007 4.25382 11.2896 7.42124V7.42124Z" fill="white" fill-opacity="0.4" />
	</g>
	<defs>
		<clipPath id="clip0_2407_29008">
			<rect width="92" height="34" fill="white" />
		</clipPath>
	</defs>
</svg>
