<svg id="Layer_1" data-name="Layer 1" xmlns="http://www.w3.org/2000/svg" viewBox="0 0 184.97 32.54"><path d="M27.53,10.32a14.77,14.77,0,0,0-8-9.14A12.88,12.88,0,0,0,4.77,4.1a17.9,17.9,0,0,0-1,23.18C8.55,33,16.35,34.13,22,29.81a16.29,16.29,0,0,0,6.52-13A21.44,21.44,0,0,0,27.53,10.32Zm-7.61,18.5A7.54,7.54,0,0,1,8.9,29C5.44,25.61,4.32,21.3,4.11,16.44c5.42,3.88,10.59,7.61,15.8,11.29.64.46.38.71,0,1.09Zm2-2.59c-.34.61-.58.85-1.32.31C15.35,22.75,10.09,19,4.83,15.26c-.42-.3-.74-.54-.69-1.14A17.76,17.76,0,0,1,8,4c3.77-4.5,9.53-4.22,13,.55a19.91,19.91,0,0,1,3.48,11.41A21,21,0,0,1,21.89,26.23Z" style="fill:#fff"/><path d="M96.07,6.05a13.26,13.26,0,0,0-22-.26,17.93,17.93,0,0,0-.41,20.31,13.24,13.24,0,0,0,20.56,2.49,16.57,16.57,0,0,0,5-11.73A18.47,18.47,0,0,0,96.07,6.05Zm-4.4,21.46c-1.94,2.57-4.43,4.21-7.94,3.68a8.09,8.09,0,0,1-5.15-3.25,17.86,17.86,0,0,1-3.72-10.39c-.31-4.7.52-9.17,3.43-13.07,2-2.69,4.6-4.33,8.25-3.57a8.42,8.42,0,0,1,5,3.46c2.68,3.53,3.5,7.62,3.58,11.78C95.06,20.33,94.18,24.17,91.67,27.51Z" style="fill:#fff"/><path d="M60.73,8c-.12-3.25-2-5.26-5.11-6.32a18.81,18.81,0,0,0-1.95-.55C50.92.5,48.13.79,45.79.71H38.38c-.23,0-.53-.1-.62.23a.64.64,0,0,0,0,.41.68.68,0,0,0,.28.3,4.94,4.94,0,0,0,1.48.57,2.13,2.13,0,0,1,1.92,2.46v23c0,1.9-.91,2.92-2.84,3.32-.29.06-.87-.13-.79.4s.6.22.91.22c3.22,0,6.44,0,9.64,0,.43,0,.86,0,1.29,0s.38-.2.38-.47-.14-.35-.41-.32H49c-2.56,0-3.55-1-3.55-3.45V18.6c0-1.69,0-1.73,1.73-1.68a18.22,18.22,0,0,0,9-1.56A7.48,7.48,0,0,0,60.73,8Zm-4.44,4.11c-1,2.82-3.36,3.76-6.09,4.15A6.26,6.26,0,0,1,46.72,16a1.85,1.85,0,0,1-1.36-2c.09-1.88,0-3.78,0-5.67s0-4,0-6c0-.7.14-1,.92-.94,1.22.07,2.43,0,3.65,0,3.78,0,6.35,2.24,6.74,5.87a10.26,10.26,0,0,1-.38,4.73Z" style="fill:#fff"/><path d="M167.19,26.82V22.25c0-.26-.17-.64.39-.66s.59.22.61.63a12.64,12.64,0,0,0,2.12,6.63,6.36,6.36,0,0,0,6.86,2.66c3.73-1,5.28-5.93,2.87-9.21a21.72,21.72,0,0,0-5.92-5c-1-.62-1.93-1.17-2.87-1.81a9.6,9.6,0,0,1-3.76-10.57c1.43-4.49,7.33-6.32,11.76-3.65.28.17.54.35.81.51,1.32.84,1.85.64,2.29-.82.11-.34,0-.83.65-.7s.26.57.26.86c0,2.45,0,4.91-.08,7.36,0,.3.18.72-.43.74s-.48-.35-.54-.68a11.25,11.25,0,0,0-2.74-6.08,6,6,0,0,0-6.81-.89A5.28,5.28,0,0,0,170.4,4.4a5.13,5.13,0,0,0,.17,3.6,9.67,9.67,0,0,0,4.3,4.48,37.11,37.11,0,0,1,5.77,3.72c2.31,2,4.13,4.36,4.31,7.49.38,6.33-5.68,10.46-12,8.25a9.54,9.54,0,0,1-2.43-1.27c-1.35-1-2-.7-2.42.84-.08.31,0,.76-.54.69s-.31-.54-.31-.82C167.18,29.87,167.19,28.34,167.19,26.82Z" style="fill:#fff"/><path d="M116.43,16.25V27.56c0,2.28,1,3.3,3.37,3.31,1.86,0,3.72,0,5.58-.06a4.94,4.94,0,0,0,4.72-3.42,13,13,0,0,0,.74-4.17c0-.4,0-.76.6-.72s.51.36.51.71q0,3.95,0,7.89c0,.55-.17.72-.74.71H109.46c-.25,0-.63.14-.68-.28s.36-.35.6-.41c2.42-.53,3.1-1.33,3.1-3.69V4.89c0-2.11-.82-3.08-2.94-3.54-.25-.06-.76.17-.75-.33s.48-.3.75-.3q5.42,0,10.83,0c.24,0,.65-.18.68.26s-.38.27-.61.33c-.55.13-1.12.21-1.66.38a2.85,2.85,0,0,0-2.35,3.14C116.42,8.64,116.43,12.45,116.43,16.25Z" style="fill:#fff"/><path d="M149.5.71h4.94c.28,0,.74-.17.72.34s-.45.21-.69.25c-2.12.4-3,1.36-3,3.48q0,11.46,0,22.93c0,2.05.88,3,3,3.38.26.05.76-.13.74.36s-.54.32-.82.32q-4.89,0-9.76,0c-.27,0-.72.2-.77-.29s.42-.36.69-.42c2.18-.41,3-1.33,3-3.47V5.08c0-2.42-.71-3.28-3.16-3.78-.21-.05-.55.11-.53-.3s.41-.3.64-.3Z" style="fill:#fff"/></svg>