<svg id="Layer_1" data-name="Layer 1" xmlns="http://www.w3.org/2000/svg" viewBox="0 0 274.28 40.7"><path d="M51.14,40.7H3.62L27.32,0ZM42.44,36c-5.16-8.83-9.93-17-15.09-25.83-5.18,8.91-10,17.14-15,25.83Z" style="fill:#fff"/><path d="M201,13.71c-2.24,5.6-4.07,10.44-6.15,15.17-.53,1.2-1.88,2.05-2.86,3.06-1-1-2.49-1.79-3-3-2.78-6.54-5.31-13.18-7.94-19.8,2.6-1.36,3.27-.26,3.84,1.42q2.56,7.52,5.31,15a30.36,30.36,0,0,0,1.61,3.23l.89,0c1.41-3.72,2.88-7.41,4.22-11.15.88-2.45,1.49-5,2.4-7.41.27-.71,1.19-1.19,1.82-1.77.52.58,1.28,1.06,1.53,1.73,2,5.61,4,11.25,6,16.88a23.54,23.54,0,0,0,1.23,2.29,27,27,0,0,0,1.61-3c1.92-5.25,3.73-10.54,5.7-15.76a10.57,10.57,0,0,1,2-2.51l1.17.7c-1,3.15-1.9,6.36-3.1,9.45-1.52,4-3.22,7.85-5,11.68a3.55,3.55,0,0,1-2.45,1.87,3.42,3.42,0,0,1-2.34-1.91c-1.85-4.23-3.5-8.56-5.21-12.86C201.87,16.16,201.56,15.29,201,13.71Z" style="fill:#fff"/><path d="M65.88,31.37c0,2.21.12,4.58-.07,6.93-.06.79-.91,1.52-1.4,2.28-.4-.73-1.14-1.45-1.15-2.18-.08-9.06-.09-18.12,0-27.18,0-.89,1-2.49,1.55-2.52,4.41-.24,9-.8,13.24,0,6.11,1.06,9.44,6.86,8.66,13.45C86,28.38,81.57,32.47,75.2,32.43A90.6,90.6,0,0,1,65.88,31.37ZM72.45,10a22.88,22.88,0,0,0-2.62,0c-3.88.45-3.94.52-3.94,4.46,0,3.76,0,7.51,0,11.27a4.4,4.4,0,0,0,.71,2.68c3.78,4.17,14,2.42,16.09-2.86C85.36,18.74,83.51,9.81,72.45,10Z" style="fill:#fff"/><path d="M253.3,31.32c0,2.24.12,4.61-.07,7-.06.8-.89,1.54-1.36,2.3-.41-.73-1.15-1.46-1.16-2.2-.08-9.07-.1-18.15,0-27.22,0-.87,1-2.44,1.61-2.48,4.32-.24,8.78-.8,13,0,6.12,1.1,9.63,6.93,8.85,13.1-.86,6.77-5.11,10.75-11.82,10.71C259.58,32.42,256.82,31.78,253.3,31.32Zm6.3-21.39a20.13,20.13,0,0,0-2.33,0c-3.91.44-4,.51-4,4.42s-.05,7.51,0,11.27a4.44,4.44,0,0,0,.86,2.89c4.77,4.53,14.5,1.91,16.38-4.33C273.09,15.89,268.45,9.84,259.6,9.93Z" style="fill:#fff"/><path d="M10.21,17.55,0,0H20.43Z" style="fill:#fff"/><path d="M104.24,19.78c-1.51.17-3,.3-4.52.51-3.08.43-5.19,2.41-5.29,4.88s1.73,4.51,4.91,5.18a6.5,6.5,0,0,0,.87.12c8.31.88,8.6.62,8.6-7.62,0-2.41,0-4.82,0-7.23a5.52,5.52,0,0,0-5.65-5.72c-2-.08-4.06.22-6.08.25a17,17,0,0,1-2.86-.55c4-2.44,11.85-2.53,14.43,0a11.52,11.52,0,0,1,3.11,6.45c.48,4.38.1,8.85.17,13.28,0,1.64-.42,2.55-2.26,2.53-4.23,0-8.51.41-12.68-.09-3.61-.44-5.18-2.89-5.23-6.24s1.53-5.52,5-6.53c2.49-.73,5.07-1.34,7.56-.27Z" style="fill:#fff"/><path d="M147.41,19.8c-1.6.17-3.22.28-4.81.52-2.93.44-4.91,2.37-5,4.79-.11,2.64,1.35,4.58,4.53,5.08a32.54,32.54,0,0,0,7.83.1,3,3,0,0,0,2-2.16c.18-4.24.18-8.49,0-12.73a5.51,5.51,0,0,0-5.65-5.49c-2.11-.09-4.24.28-6.36.32A5.94,5.94,0,0,1,138,9.58c.43-.41.86-1.19,1.28-1.19,3.73,0,7.6-.3,11.13.6,1.69.43,3.69,3.21,3.9,5.1A133.58,133.58,0,0,1,154.67,30c0,.62-.86,1.75-1.35,1.76-4.52.16-9.1.53-13.56,0-3.46-.4-5.2-3.19-5.25-6.37,0-2.75,1.71-5.11,4.85-6.18,2.66-.91,5.39-1.48,8.08-.44Z" style="fill:#fff"/><path d="M237,19.69c-2.24.25-3.75.39-5.25.6-3.1.45-5.18,2.41-5.26,4.92s1.77,4.51,5,5.15a8.66,8.66,0,0,0,.87.12c8.5.83,8.81.58,8.77-7.91,0-2.5-.06-5-.32-7.5a5.43,5.43,0,0,0-5.6-5.17c-2-.09-4.05.22-6.09.25a3.44,3.44,0,0,1-2.26-.86c4.38-1.79,8.8-2.25,13.07-.22,3.57,1.69,4,5.14,4,8.65s-.13,7.15,0,10.71c.11,2.33-.37,3.66-3.07,3.58-3.94-.13-7.95.34-11.83-.19-3.66-.5-5.21-2.86-5.26-6.21s1.45-5.42,4.94-6.58C231.82,18,234.6,18,237,19.69Z" style="fill:#fff"/><path d="M161.73,29.87c2.77.21,5.54.52,8.31.59a6.84,6.84,0,0,0,3.64-.7c1.12-.69,2.44-1.93,2.57-3.06a4.43,4.43,0,0,0-1.8-3.53,42.87,42.87,0,0,0-6.9-3c-5.7-2.25-6.94-4.2-6.14-10.12.08-.62.91-1.15,1.39-1.72.53.53,1.06,1.07,1.58,1.61.05,0,0,.19,0,.28-1.2,5.67,2.31,7.7,6.94,9a19.88,19.88,0,0,1,5.3,2.31c4,2.59,3.57,7.84-.81,9.73s-8.72,1.54-13.13.52c-.59-.13-1-.94-1.51-1.44Z" style="fill:#fff"/><path d="M118.6,20.4c0-3,.08-6,0-9-.07-1.68.63-2.65,2.19-2.8,3.27-.32,6.56-.53,9.85-.61.61,0,1.24.8,1.87,1.23-.66.24-1.31.51-2,.7a2.86,2.86,0,0,1-.86-.07c-7.87-.56-8.37-.11-8.37,7.58,0,4.15.06,8.3-.07,12.44,0,.67-.88,1.32-1.35,2-.41-.64-1.15-1.26-1.17-1.92C118.54,26.77,118.6,23.59,118.6,20.4Z" style="fill:#fff"/></svg>