<svg width="788" height="179" viewBox="0 0 788 179" fill="none" xmlns="http://www.w3.org/2000/svg">
	<path d="M147.253 155.978C143.023 159.639 138.447 162.879 133.588 165.651C128.731 168.446 123.616 170.768 118.315 172.586C107.64 176.24 96.3692 177.834 85.1 177.285C79.4369 177.004 73.8123 176.196 68.2991 174.872C62.7518 173.527 57.351 171.637 52.1753 169.231C38.8544 163.128 27.2628 153.804 18.4472 142.101C9.63162 130.397 3.86945 116.683 1.68094 102.195C0.762903 96.3146 0.4541 90.3552 0.75944 84.4114C1.68013 66.3026 8.12827 48.911 19.2353 34.5789C26.6226 25.0316 35.8697 17.0818 46.4172 11.2104C59.5192 3.90662 74.2613 0.0494489 89.2615 0.000472307C104.262 -0.0485043 119.029 3.7123 132.178 10.9304C142.387 16.5491 151.387 24.1253 158.665 33.2255C165.943 42.3257 171.355 52.7715 174.593 63.9652C176.199 69.4477 177.259 75.0753 177.76 80.7661C178.243 86.4157 178.202 92.0981 177.637 97.7401C177.06 103.35 175.959 108.893 174.348 114.297C172.735 119.677 170.618 124.893 168.025 129.876C165.427 134.844 162.358 139.551 158.861 143.932C155.39 148.313 151.503 152.348 147.253 155.978V155.978ZM146.744 155.388C162.653 141.727 172.912 122.637 175.526 101.832C178.14 81.0266 172.923 59.9925 160.888 42.8207C148.854 25.6488 130.863 13.5667 110.414 8.92412C89.9657 4.28156 68.5213 7.41044 50.2517 17.7022C31.9821 27.9941 18.1934 44.7131 11.5673 64.6076C4.94121 84.5022 5.95138 106.15 14.4014 125.341C22.8514 144.532 38.1371 159.894 57.2857 168.44C76.4343 176.986 98.0769 178.104 118.004 171.578C128.555 168.119 138.322 162.617 146.749 155.388H146.744Z" fill="white" />
	<path d="M88.6228 69.9474C88.6228 69.6572 88.6228 69.367 88.6228 69.0819C88.6316 68.7054 88.5662 68.331 88.4302 67.9798C88.2942 67.6287 88.0904 67.3078 87.8304 67.0355C87.5703 66.7631 87.2592 66.5447 86.9147 66.3927C86.5702 66.2406 86.1991 66.1579 85.8227 66.1494C84.5244 66.1137 83.2058 66.1494 81.877 66.241C74.3601 66.81 67.1643 69.5237 61.1436 74.0601C55.123 78.5965 50.5302 84.765 47.9105 91.8335C45.2908 98.9021 44.7541 106.574 46.3641 113.938C47.9742 121.303 51.6633 128.051 56.9938 133.381C62.3242 138.712 69.0721 142.401 76.4366 144.011C83.801 145.621 91.4728 145.084 98.5413 142.464C105.61 139.845 111.778 135.252 116.315 129.231C120.851 123.211 123.565 116.015 124.134 108.498C124.231 107.164 124.261 105.85 124.231 104.547C124.212 103.787 123.893 103.066 123.343 102.541C122.793 102.016 122.058 101.73 121.298 101.747C121.008 101.747 120.718 101.747 120.427 101.747C116.251 101.75 112.114 100.929 108.254 99.3319C104.395 97.7348 100.888 95.3926 97.934 92.4393C94.9802 89.486 92.6375 85.9794 91.0398 82.1201C89.4422 78.2607 88.6208 74.1243 88.6228 69.9474V69.9474Z" fill="white" />
	<path d="M120.412 44.3389C114.053 44.3388 107.922 46.7048 103.211 50.9762C98.4998 55.2476 95.5466 61.119 94.9259 67.4478C94.8444 68.2674 94.8037 69.1024 94.8037 69.9475C94.8017 73.312 95.4626 76.644 96.7486 79.753C98.0346 82.862 99.9205 85.6872 102.299 88.0673C104.677 90.4473 107.5 92.3354 110.608 93.6239C113.716 94.9124 117.048 95.5759 120.412 95.5765C121.257 95.5765 122.092 95.5307 122.917 95.4493C129.462 94.8077 135.509 91.6731 139.805 86.695C144.102 81.7169 146.319 75.2768 145.997 68.7089C145.675 62.1409 142.838 55.9485 138.076 51.4146C133.313 46.8806 126.988 44.3526 120.412 44.3542V44.3389Z" fill="white" />
	<path d="M79.622 57.1073C85.5773 57.1073 90.4051 52.2795 90.4051 46.3242C90.4051 40.3688 85.5773 35.541 79.622 35.541C73.6666 35.541 68.8389 40.3688 68.8389 46.3242C68.8389 52.2795 73.6666 57.1073 79.622 57.1073Z" fill="white" />
	<path d="M225.98 146.76C219.427 146.76 216.157 143.443 216.17 136.81L216.24 67.7201C216.24 61.1801 219.427 57.9135 225.8 57.9202C232.173 57.9268 235.4 61.2002 235.48 67.7402V68.1302C237.361 64.8786 240.138 62.2369 243.48 60.5202C247.143 58.5953 251.232 57.6221 255.37 57.6901C260.496 57.5848 265.541 58.9747 269.89 61.6901C274.156 64.4768 277.535 68.4255 279.63 73.0702C282.073 78.5943 283.258 84.5921 283.1 90.6302C283.241 96.6935 282.043 102.713 279.59 108.26C277.504 112.934 274.133 116.919 269.87 119.75C265.533 122.506 260.477 123.916 255.34 123.8C251.326 123.847 247.361 122.914 243.79 121.08C240.492 119.445 237.702 116.942 235.72 113.84V136.84C235.68 143.453 232.433 146.76 225.98 146.76ZM249.51 109.2C251.422 109.264 253.323 108.892 255.069 108.113C256.815 107.333 258.362 106.166 259.59 104.7C262.177 101.693 263.473 97.0001 263.48 90.6201C263.487 84.2401 262.2 79.6135 259.62 76.7402C258.332 75.3352 256.766 74.2134 255.021 73.446C253.276 72.6786 251.391 72.2823 249.485 72.2823C247.579 72.2823 245.694 72.6786 243.949 73.446C242.204 74.2134 240.638 75.3352 239.35 76.7402C236.757 79.7135 235.46 84.3401 235.46 90.6201C235.46 96.9001 236.747 101.593 239.32 104.7C240.569 106.171 242.134 107.339 243.899 108.119C245.664 108.898 247.582 109.268 249.51 109.2V109.2Z" fill="white" />
	<path d="M325.43 123.87C319.266 124.01 313.164 122.607 307.68 119.79C302.746 117.176 298.686 113.175 296 108.28C293.129 102.856 291.707 96.7839 291.87 90.6497C291.718 84.559 293.148 78.5329 296.02 73.1597C298.702 68.2812 302.77 64.3071 307.71 61.7397C313.259 59.1064 319.323 57.7402 325.465 57.7402C331.607 57.7402 337.672 59.1064 343.22 61.7397C348.169 64.3211 352.252 68.299 354.96 73.1797C357.862 78.5465 359.303 84.581 359.14 90.6797C359.298 96.8197 357.846 102.894 354.93 108.3C352.199 113.18 348.115 117.167 343.17 119.78C337.692 122.606 331.592 124.012 325.43 123.87V123.87ZM325.43 109.28C327.35 109.333 329.257 108.956 331.012 108.176C332.767 107.395 334.324 106.231 335.57 104.77C338.197 101.763 339.53 97.073 339.57 90.6997C339.61 84.3264 338.3 79.6964 335.64 76.8097C334.388 75.3612 332.83 74.2095 331.078 73.438C329.326 72.6666 327.424 72.2949 325.51 72.3497C323.604 72.2856 321.709 72.6514 319.964 73.4201C318.219 74.1887 316.669 75.3404 315.43 76.7897C312.85 79.763 311.553 84.3897 311.54 90.6697C311.527 96.9497 312.813 101.643 315.4 104.75C316.624 106.213 318.163 107.38 319.901 108.165C321.64 108.949 323.533 109.33 325.44 109.28H325.43Z" fill="white" />
	<path d="M393.87 123.94C378.63 123.94 371.017 115.453 371.03 98.4798L371.09 40.2398C371.09 33.6131 374.367 30.2998 380.92 30.2998C387.474 30.2998 390.697 33.6331 390.59 40.2998L390.53 97.7598C390.53 101.29 391.28 103.9 392.79 105.57C393.541 106.409 394.469 107.071 395.506 107.508C396.544 107.945 397.665 108.148 398.79 108.1C399.459 108.103 400.127 108.059 400.79 107.97C401.41 107.888 402.035 107.845 402.66 107.84C403.219 107.746 403.794 107.819 404.312 108.051C404.829 108.282 405.267 108.661 405.57 109.14C406.117 110.093 406.394 112.03 406.4 114.95C406.4 119.943 404.287 122.783 400.06 123.47C399.2 123.55 398.21 123.66 397.06 123.79C396 123.896 394.936 123.946 393.87 123.94V123.94Z" fill="white" />
	<path d="M429.48 147.01C426.04 147.01 423.61 145.737 422.19 143.19C420.77 140.643 420.837 137.697 422.39 134.35L429.25 119.11L408.25 70.8002C406.883 67.4668 406.907 64.5168 408.32 61.9502C409.733 59.3835 412.6 58.1169 416.92 58.1502C418.917 58.0585 420.889 58.6279 422.53 59.7702C423.95 60.8502 425.26 62.8968 426.46 65.9102L439.6 99.5002L453.32 65.8102C454.527 62.8835 455.887 60.8835 457.4 59.8102C459.224 58.6438 461.368 58.0806 463.53 58.2002C466.797 58.2002 469.1 59.4702 470.44 62.0102C471.78 64.5502 471.71 67.4568 470.23 70.7302L439.87 139.48C438.58 142.4 437.13 144.38 435.54 145.41C433.723 146.532 431.614 147.089 429.48 147.01V147.01Z" fill="white" />
	<path d="M510.67 123.79C505.41 123.79 501.743 121.163 499.67 115.91L481.5 70.8198C480.133 67.2865 480.16 64.2865 481.58 61.8198C483 59.3532 485.69 58.1265 489.65 58.1398C491.608 58.068 493.535 58.6368 495.14 59.7598C496.56 60.8398 497.82 62.8899 498.94 65.8999L511.56 99.8999L524.9 64.2798C526.36 60.2332 529.117 58.2132 533.17 58.2198C537.223 58.2265 540.02 60.2498 541.56 64.2898L554.69 100.46L567.64 65.4599C568.64 62.7099 569.99 60.8198 571.58 59.7798C573.177 58.7513 575.041 58.2157 576.94 58.2399C580.64 58.2399 583.05 59.5398 584.17 62.1198C585.29 64.6998 585.17 67.6299 583.78 70.8999L565.65 115.9C563.583 121.153 559.917 123.777 554.65 123.77C549.383 123.763 545.717 121.133 543.65 115.88L532.44 86.5598L521.44 115.73C519.507 121.117 515.917 123.803 510.67 123.79Z" fill="white" />
	<path d="M606.87 123.89C600.157 123.89 596.803 120.557 596.81 113.89L596.86 68.0499C596.86 61.5099 600.047 58.2432 606.42 58.2499C612.793 58.2565 615.977 61.5299 615.97 68.0699V70.3999C619.07 62.7399 625.487 58.6132 635.22 58.0199C636.122 57.8755 637.046 57.9471 637.915 58.2287C638.784 58.5103 639.574 58.9939 640.22 59.6399C641.38 60.8932 642.003 62.9365 642.09 65.7699C642.368 68.0102 641.786 70.2725 640.46 72.0999C639.213 73.6532 637.127 74.5965 634.2 74.9299L631.2 75.1899C621.56 76.1299 616.733 81.0299 616.72 89.8899V113.89C616.673 120.563 613.39 123.897 606.87 123.89Z" fill="white" />
	<path d="M669.76 124.21C665.428 124.289 661.137 123.355 657.23 121.48C653.781 119.807 650.824 117.267 648.65 114.11C646.545 111.032 645.445 107.378 645.5 103.65C645.5 99.0898 646.707 95.4231 649.12 92.6498C651.533 89.8765 655.45 87.9298 660.87 86.8098C666.29 85.6565 673.48 85.0831 682.44 85.0898H687.09V82.8898C687.09 79.1031 686.23 76.4131 684.51 74.8198C682.79 73.2198 679.87 72.4198 675.73 72.4198C673.172 72.4466 670.623 72.7246 668.12 73.2498C665.068 73.8983 662.082 74.8256 659.2 76.0198C656.787 77.0531 654.763 77.1165 653.13 76.2098C652.336 75.7803 651.64 75.1905 651.085 74.4778C650.531 73.7652 650.131 72.9452 649.91 72.0698C649.39 70.2048 649.553 68.2152 650.37 66.4598C650.835 65.4659 651.508 64.5831 652.343 63.8708C653.178 63.1584 654.155 62.633 655.21 62.3298C658.909 60.8814 662.736 59.7833 666.64 59.0498C669.897 58.4218 673.203 58.0871 676.52 58.0498C686.34 58.0498 693.673 60.2731 698.52 64.7198C703.367 69.1665 705.77 76.0331 705.73 85.3198V113.99C705.73 120.623 702.73 123.933 696.73 123.92C690.73 123.906 687.637 120.603 687.45 114.01V113.24C686.191 116.54 683.901 119.345 680.92 121.24C677.568 123.294 673.69 124.326 669.76 124.21V124.21ZM674.16 111.21C675.863 111.246 677.555 110.932 679.132 110.289C680.709 109.646 682.138 108.686 683.33 107.47C684.583 106.198 685.562 104.683 686.207 103.018C686.852 101.353 687.149 99.5739 687.08 97.7898V95.2098H682.57C675.943 95.2098 671.25 95.7865 668.49 96.9398C667.246 97.3609 666.171 98.1723 665.425 99.2534C664.679 100.334 664.302 101.627 664.35 102.94C664.317 104.052 664.525 105.158 664.958 106.183C665.391 107.208 666.04 108.128 666.86 108.88C668.54 110.39 670.97 111.16 674.16 111.17V111.21Z" fill="white" />
	<path d="M730.03 147.25C723.49 147.25 720.223 143.933 720.23 137.3L720.3 68.2099C720.3 61.6699 723.487 58.4032 729.86 58.4099C736.233 58.4165 739.46 61.6899 739.54 68.2299V68.6199C741.421 65.3683 744.199 62.7266 747.54 61.0099C751.203 59.0838 755.292 58.1106 759.43 58.1799C764.556 58.0698 769.603 59.4601 773.95 62.1799C778.218 64.9601 781.598 68.9061 783.69 73.5499C786.133 79.074 787.318 85.0718 787.16 91.1099C787.302 97.1733 786.104 103.193 783.65 108.74C781.55 113.425 778.157 117.414 773.87 120.24C769.528 122.978 764.472 124.37 759.34 124.24C755.357 124.29 751.421 123.374 747.87 121.57C744.572 119.935 741.782 117.432 739.8 114.33V137.33C739.747 143.957 736.49 147.263 730.03 147.25ZM753.57 109.7C755.482 109.758 757.381 109.382 759.127 108.601C760.873 107.82 762.419 106.654 763.65 105.19C766.237 102.183 767.533 97.4899 767.54 91.1099C767.547 84.7299 766.26 80.1032 763.68 77.2299C762.391 75.8247 760.824 74.7027 759.078 73.9352C757.333 73.1677 755.447 72.7714 753.54 72.7714C751.633 72.7714 749.747 73.1677 748.002 73.9352C746.256 74.7027 744.689 75.8247 743.4 77.2299C740.82 80.2032 739.527 84.8299 739.52 91.1099C739.513 97.3899 740.8 102.083 743.38 105.19C744.629 106.661 746.194 107.831 747.958 108.612C749.723 109.393 751.641 109.765 753.57 109.7V109.7Z" fill="white" />
</svg>
