<svg width="134" height="38" viewBox="0 0 134 38" fill="none" xmlns="http://www.w3.org/2000/svg">
	<path fill-rule="evenodd" clip-rule="evenodd" d="M8 0C3.58172 0 0 3.58172 0 8V29.6667C0 34.085 3.58172 37.6667 8 37.6667H30C34.4183 37.6667 38 34.085 38 29.6667V8C38 3.58172 34.4183 0 30 0H8ZM26.0308 18.7856C27.2277 18.4707 28.2927 17.564 28.2927 15.7411C28.2927 12.7062 25.748 12 22.4871 12H9.5V25.6667H14.9663V21.0284H21.4504C22.4494 21.0284 23.0337 21.4292 23.0337 22.4218V25.6667H28.5V22.25C28.5 20.389 27.4633 19.2151 26.0308 18.7856ZM22.3585 15.8183H14.9687V17.6817H22.3585V17.6811C22.3695 17.6815 22.3806 17.6817 22.3917 17.6817C22.8998 17.6817 23.3118 17.2645 23.3118 16.75C23.3118 16.2355 22.8998 15.8183 22.3917 15.8183C22.3848 15.8183 22.378 15.8184 22.3712 15.8185C22.3669 15.8186 22.3627 15.8188 22.3585 15.8189V15.8183Z" fill="white" />
	<path fill-rule="evenodd" clip-rule="evenodd" d="M112.339 21.7844C112.339 25.7716 110.028 28.5161 106.107 28.5161C104.497 28.5161 103.017 27.8429 102.368 26.8072V28.3089H99.0962V9.97803H102.368V16.7097C103.121 15.7259 104.523 15.0527 106.159 15.0527C110.028 15.0527 112.339 17.7971 112.339 21.7844ZM102.16 21.7844C102.16 24.1405 103.537 25.6939 105.64 25.6939C107.717 25.6939 109.094 24.1405 109.094 21.7844C109.094 19.4283 107.717 17.8748 105.64 17.8748C103.537 17.8748 102.16 19.4283 102.16 21.7844Z" fill="white" />
	<path fill-rule="evenodd" clip-rule="evenodd" d="M65.6866 28.3088L61.69 20.2049C63.4817 19.3246 64.5464 17.5899 64.5464 15.5445C64.5464 12.2822 62.2353 10.1851 58.6778 10.1851H50L50.026 28.3088H53.5575V20.8781H58.0806L61.5838 28.3088H65.6866ZM53.5575 13.2143H58.1325C59.9502 13.2143 60.9889 14.0946 60.9889 15.5445C60.9889 16.9944 59.9502 17.8488 58.1325 17.8488H53.5575V13.2143Z" fill="white" />
	<path fill-rule="evenodd" clip-rule="evenodd" d="M76.4328 15.2599H79.7047V28.309H76.4328V26.8073C75.7836 27.843 74.3294 28.5162 72.6935 28.5162C68.7725 28.5162 66.4614 25.7717 66.4614 21.7845C66.4614 17.7972 68.7725 15.0527 72.6416 15.0527C74.2775 15.0527 75.6797 15.7259 76.4328 16.7098V15.2599ZM69.7073 21.7845C69.7073 24.1406 71.0835 25.694 73.1609 25.694C75.2643 25.694 76.6405 24.1406 76.6405 21.7845C76.6405 19.4284 75.2643 17.8749 73.1609 17.8749C71.0835 17.8749 69.7073 19.4284 69.7073 21.7845Z" fill="white" />
	<path d="M91.2722 15.2599L91.0645 18.4186C90.5971 18.2114 89.9739 18.1079 89.4026 18.1079C87.5589 18.1079 85.897 19.6355 85.897 23.5192V28.309H82.6252V15.2599H85.897V17.6418C86.5462 16.1661 88.26 15.0527 89.844 15.0527C90.3114 15.0527 90.8827 15.1304 91.2722 15.2599Z" fill="white" />
	<path d="M96.1866 28.3089H92.9148V15.2598H96.1866V28.3089Z" fill="white" />
	<path d="M114.559 28.3089H117.83V9.97803H114.559V28.3089Z" fill="white" />
	<path fill-rule="evenodd" clip-rule="evenodd" d="M133.075 21.3443C133.075 18.315 130.919 15.0527 126.505 15.0527C122.168 15.0527 120.039 18.3927 120.039 21.7845C120.039 25.1762 122.35 28.5162 126.687 28.5162C129.751 28.5162 132.036 27.0663 132.763 24.6066L129.699 23.7781C129.361 25.0467 128.271 25.7717 126.739 25.7717C124.869 25.7717 123.597 24.6066 123.311 22.6389H133.023C133.049 22.38 133.075 21.8104 133.075 21.3443ZM123.389 20.2569C123.752 18.4962 124.895 17.5383 126.505 17.5383C128.401 17.5383 129.413 18.7034 129.569 20.2569H123.389Z" fill="white" />
	<path d="M92.5271 10.6506C92.5271 9.82221 93.1987 9.15063 94.0271 9.15063H95.1004C95.9288 9.15063 96.6004 9.82221 96.6004 10.6506V11.7239C96.6004 12.5523 95.9288 13.2239 95.1004 13.2239H94.0271C93.1987 13.2239 92.5271 12.5523 92.5271 11.7239V10.6506Z" fill="white" />
</svg>
