<svg width="112" height="20" viewBox="0 0 112 20" fill="none" xmlns="http://www.w3.org/2000/svg">
	<g clip-path="url(#clip0_2437_28750)">
		<path d="M27.7401 18.82H29.8501C30.5701 18.15 31.0301 17.13 31.1501 16.55C29.8501 15.99 29.2701 15.58 28.5501 14.88L28.4601 14.97C28.6901 15.39 28.7101 15.78 28.7101 16.08C28.7401 16.92 28.5301 17.52 27.7401 18.82ZM15.5301 18.82H17.2001C17.2001 16.27 16.6701 15.13 15.6001 14.11L15.4801 14.18C15.9201 15.13 15.9201 16.01 15.9201 16.66C15.9201 17.45 15.7701 18.01 15.5201 18.82H15.5301ZM18.2201 18.82H20.5601C20.6801 17.53 20.5601 16.23 20.2101 14.99C19.9101 13.95 19.3501 12.6 18.3101 11.56L18.3801 11.49C19.7301 12.53 20.2401 13.46 20.7501 14.34C22.0301 14.34 23.2801 15.13 24.6901 15.13C25.6001 15.13 26.5501 14.99 28.0801 14.27C27.6401 13.5 27.3401 12.81 27.2701 11.53H27.3601C28.2901 15.31 32.3301 15.94 33.9001 16.22C35.3001 16.45 35.7801 17.5 35.7801 18.52C35.7801 18.62 35.7801 18.72 35.7601 18.82H37.0801C37.1301 18.48 37.1501 18.14 37.1501 17.8C37.1501 17.06 37.1001 16.31 36.7601 15.69C35.5101 13.58 34.4601 12.79 34.4601 11.17C34.4601 9.55 35.6901 8.39 35.7601 8.32C35.0401 8.2 34.7901 7.51 34.3001 6.77C33.2301 5.12 31.4501 4.87 30.5201 4.87C29.5901 4.87 29.0801 4.99 28.1801 4.99C24.0301 4.96 21.9401 0.25 16.8801 0.25C13.3501 0.25 11.1001 3.03 11.1501 5.56L11.0801 5.58C10.6601 5.12 9.94008 4.49 9.11008 4.21C9.11008 4.33 9.13008 4.46 9.13008 4.6C9.13008 6.83 8.20008 9.24 5.93008 9.24C5.05008 9.24 4.24008 8.85 3.49008 8.1C3.34008 8.36 3.27008 8.66 3.28008 8.96C3.29008 9.29 3.36008 9.62 3.49008 9.93L3.44008 10C2.09008 9.93 1.24008 9.54 0.420078 8.91C0.330078 9.49 0.330078 9.74 0.330078 10.44C0.330078 13.41 3.00008 16.26 6.53008 16.26C10.0601 16.26 12.7001 13.43 12.7001 10.16H12.8201C12.9601 10.79 13.0701 11.46 12.9601 12.23C17.1801 13.92 18.2201 16.41 18.2201 18.8V18.82Z" fill="white" />
		<path d="M40.0898 5.51986H40.6398V7.92986C41.1798 7.08986 41.8398 6.44986 42.6098 5.98986C43.3898 5.53986 44.2798 5.30986 45.2898 5.30986C45.6198 5.30986 45.9498 5.33986 46.2798 5.38986L46.1998 5.93986C46.0098 5.90986 45.8598 5.87986 45.7398 5.87986C45.6198 5.87986 45.4698 5.86986 45.2798 5.86986C44.3898 5.86986 43.6198 6.03986 42.9498 6.38986C42.2898 6.73986 41.6898 7.25986 41.1698 7.95986C41.0598 8.09986 40.9598 8.25986 40.8798 8.42986C40.7998 8.60986 40.7498 8.78986 40.7098 8.97986C40.6698 9.19986 40.6398 9.41986 40.6298 9.64986C40.6298 9.88986 40.6198 10.1899 40.6198 10.5499V18.8899H40.0698V5.51986H40.0898ZM49.3498 0.209858H49.8998V7.86986C50.5598 6.92986 51.3598 6.22986 52.3098 5.77986C53.2198 5.32986 54.2198 5.09986 55.2398 5.09986C56.7398 5.09986 57.8598 5.51986 58.6098 6.34986C59.3598 7.18986 59.7298 8.37986 59.7298 9.92986V18.8699H59.1798V10.0399C59.1798 8.58986 58.8598 7.49986 58.2098 6.74986C57.5598 5.99986 56.5498 5.62986 55.1798 5.62986C54.4298 5.62986 53.6798 5.75986 52.9698 6.01986C52.2798 6.27986 51.6298 6.70986 51.0198 7.29986C50.7898 7.50986 50.5898 7.72986 50.4098 7.97986C50.2598 8.17986 50.1498 8.40986 50.0698 8.64986C49.9898 8.90986 49.9398 9.18986 49.9298 9.45986C49.9098 9.75986 49.8998 10.1299 49.8998 10.5399V18.8799H49.3498V0.209858V0.209858ZM64.0198 0.209858H64.5698V2.61986H64.0198V0.209858ZM64.0198 5.51986H64.5698V18.8799H64.0198V5.51986ZM68.8998 5.51986H69.4498V7.89986C70.1098 6.93986 70.9098 6.23986 71.8598 5.77986C72.7698 5.32986 73.7698 5.09986 74.7898 5.09986C76.2898 5.09986 77.4098 5.51986 78.1598 6.36986C78.9098 7.21986 79.2798 8.40986 79.2798 9.93986V18.8799H78.7298V10.0399C78.7298 8.60986 78.4098 7.51986 77.7598 6.75986C77.1098 5.99986 76.0998 5.61986 74.7298 5.61986C73.9798 5.61986 73.2298 5.74986 72.5198 6.00986C71.8298 6.26986 71.1798 6.69986 70.5798 7.28986C70.3498 7.49986 70.1498 7.71986 69.9698 7.96986C69.8198 8.16986 69.7098 8.39986 69.6298 8.63986C69.5498 8.89986 69.4998 9.17986 69.4898 9.44986C69.4698 9.74986 69.4598 10.1199 69.4598 10.5299V18.8699H68.9098V5.51986H68.8998ZM89.0598 5.09986C90.1398 5.09986 91.0598 5.28986 91.8298 5.66986C92.5698 6.02986 93.2098 6.55986 93.7098 7.20986C94.2098 7.87986 94.5798 8.64986 94.7798 9.45986C95.0098 10.3399 95.1198 11.2399 95.1198 12.1499C95.1198 13.0699 95.0098 13.9899 94.7798 14.8799C94.5698 15.6999 94.2098 16.4699 93.7098 17.1599C93.2098 17.8199 92.5598 18.3599 91.8098 18.7199C91.0298 19.0999 90.1098 19.2999 89.0298 19.2999C87.9498 19.2999 87.0298 19.1099 86.2598 18.7199C85.5198 18.3599 84.8798 17.8299 84.3798 17.1799C83.8798 16.5099 83.5098 15.7399 83.3098 14.9299C82.8598 13.1499 82.8598 11.2799 83.3098 9.49986C83.5198 8.67986 83.8798 7.90986 84.3798 7.21986C84.8798 6.55986 85.5298 6.01986 86.2798 5.65986C87.0598 5.27986 87.9798 5.08986 89.0598 5.08986V5.09986ZM83.5398 12.2399C83.5398 13.0799 83.6398 13.9199 83.8398 14.7399C84.0198 15.4899 84.3398 16.1999 84.7898 16.8299C85.2298 17.4399 85.8198 17.9299 86.4898 18.2499C87.1898 18.5999 88.0298 18.7699 89.0298 18.7699C90.0298 18.7699 90.8698 18.5899 91.5798 18.2299C92.2598 17.8999 92.8498 17.3999 93.2898 16.7899C93.7398 16.1599 94.0598 15.4399 94.2398 14.6799C94.4398 13.8599 94.5398 13.0199 94.5398 12.1699C94.5398 11.3299 94.4398 10.4899 94.2398 9.66986C94.0598 8.91986 93.7398 8.20986 93.2898 7.57986C92.8398 6.96986 92.2598 6.47986 91.5798 6.13986C90.8698 5.77986 90.0198 5.59986 89.0298 5.59986C88.0398 5.59986 87.1898 5.77986 86.4898 6.13986C85.8098 6.47986 85.2298 6.97986 84.7898 7.58986C84.3398 8.22986 84.0198 8.94986 83.8398 9.70986C83.6398 10.5299 83.5398 11.3699 83.5398 12.2199V12.2399ZM98.5998 16.3499H99.1498V18.8899H98.5998V16.3499ZM103.37 6.04986H101.3V5.52986H103.37V3.84986C103.37 3.19986 103.46 2.63986 103.64 2.15986C103.81 1.70986 104.07 1.29986 104.41 0.949858C104.74 0.629858 105.14 0.379859 105.57 0.229859C106.04 0.0698585 106.53 -0.0101415 107.02 -0.000141507C107.31 -0.000141507 107.6 0.0298585 107.88 0.0798585C108.17 0.129858 108.46 0.199858 108.74 0.289858L108.61 0.789859C108.36 0.709859 108.1 0.639858 107.84 0.589858C107.57 0.539858 107.29 0.519858 107.02 0.529858C106.06 0.529858 105.3 0.799859 104.75 1.34986C104.19 1.89986 103.91 2.71986 103.91 3.81986V5.51986H108.07V6.03986H103.91V18.8799H103.36V6.03986L103.37 6.04986ZM110.84 0.209858H111.39V2.61986H110.84V0.209858ZM110.84 5.51986H111.39V18.8799H110.84V5.51986Z" fill="white" />
	</g>
	<defs>
		<clipPath id="clip0_2437_28750">
			<rect width="111.39" height="19.3" fill="white" />
		</clipPath>
	</defs>
</svg>
