<svg width="3941" height="871" viewBox="0 0 3941 871" fill="none" xmlns="http://www.w3.org/2000/svg">
<path d="M975.744 152.41C947.146 127.123 914.845 105.933 879.753 89.7593C878.963 89.3944 878.168 89.0318 877.373 88.6721C827.95 66.2913 773.076 53.831 715.291 53.831C491.501 53.831 309.177 248.449 322.659 471.331C326.426 533.616 379.486 541.555 416.997 538.742C534.598 529.923 691.121 415.916 783.675 348.505L784.808 347.68C850.034 300.173 1248.77 29.6584 1303.97 125.261C1318.15 149.834 1256.84 214.542 1148.9 296.386C1145.35 299.082 1144.31 304.023 1146.54 307.888C1149.14 312.389 1155.09 313.652 1159.32 310.634C1338.03 183.229 1445.09 79.0057 1424.19 42.8011C1401.78 3.99583 1238.21 53.4323 1015.94 158.677C1002.6 164.995 986.805 162.189 975.744 152.41Z" fill="white"/>
<path d="M901.276 0C908.899 23.7008 904.751 44.1536 897.555 59.7619C920.709 70.6734 942.726 83.5977 963.379 98.3078C950.212 50.1883 993.073 19.9668 993.073 19.9668C993.073 19.9668 942.343 42.5784 901.276 0Z" fill="white"/>
<path d="M391.696 683.781C392.025 691.649 391.803 699.283 391.121 706.662C391.004 707.952 390.871 709.232 390.725 710.504C389.096 724.666 385.798 737.859 381.506 749.947C381.404 750.232 381.301 750.519 381.199 750.805C381.116 751.033 381.034 751.262 380.949 751.493C376.923 762.524 372.08 772.615 366.948 781.653C365.281 784.589 363.582 787.417 361.866 790.137C365.481 789.564 369.211 789.072 373.036 788.684C400.972 785.843 434.734 788.491 466.773 806.179C465.896 788.312 468.356 771.844 472.807 756.993C476.743 743.856 482.239 731.989 488.357 721.539C489.226 720.054 490.106 718.599 490.998 717.173C492.494 714.778 494.021 712.463 495.56 710.229C495.78 709.911 496.002 709.593 496.222 709.278C493.435 709.454 490.574 709.574 487.65 709.628C459.475 710.151 425.31 704.496 391.696 683.781Z" fill="white"/>
<path d="M715.291 840.605C637.192 840.605 564.408 817.843 503.211 778.592C506.303 762.091 512.855 747.691 520.43 735.571C528.673 722.382 538.095 712.008 545.489 704.927C547.139 703.344 549.023 701.759 550.952 700.134C559.811 692.674 569.649 684.391 562.555 671.903C558.152 664.155 548.598 661.002 540.45 664.604C513.096 675.274 482.121 677.954 453.278 671.711C520.543 632.503 579.849 593.822 609.908 574.218C613.49 571.882 616.664 569.811 619.377 568.049C642.093 553.299 666.495 536.149 692.12 518.139C789.911 449.408 905.507 368.164 1013.11 360.096C1051.88 357.189 1108.29 373.019 1108.29 430.314C1117.61 650.801 936.268 840.605 715.291 840.605Z" fill="url(#paint0_linear_31_23)"/>
<path d="M331.02 773.944C152.186 852.378 25.8852 885.389 6.39835 851.635C-14.5029 815.43 92.5493 711.206 271.258 583.803C275.491 580.785 281.442 582.048 284.039 586.549C286.271 590.414 285.237 595.354 281.681 598.05C173.746 679.894 112.432 744.603 126.618 769.176C151.712 812.641 249.491 778.929 352.354 726.945C348.606 740.955 342.998 753.539 336.766 764.511C334.891 767.812 332.964 770.959 331.02 773.944Z" fill="white"/>
<path d="M1150.42 499.011C1150.42 499.011 1182.46 472.75 1170.07 434.23C1198.81 464.025 1234.31 448.204 1234.31 448.204C1234.31 448.204 1201.14 471.59 1215.28 508.337C1189.1 479.154 1150.42 499.011 1150.42 499.011Z" fill="white"/>
<path d="M1848.97 185.68C1843.85 179.888 1835.86 174.276 1824.99 168.845C1814.11 163.415 1798.7 160.699 1778.74 160.699C1766.31 160.699 1755.03 161.966 1744.88 164.501C1735.12 167.035 1726.87 170.836 1720.15 175.905C1713.8 180.974 1709.58 187.129 1707.51 194.369C1705.95 199.8 1706.3 204.507 1708.54 208.489C1711.27 212.11 1714.91 215.187 1719.45 217.721C1724.1 219.893 1728.67 221.705 1733.15 223.153L1815.44 251.393C1842.6 260.442 1861.34 272.571 1871.67 287.777C1882.48 302.621 1884.56 321.628 1877.91 344.799C1868.88 376.298 1852.4 402.907 1828.47 424.63C1804.54 446.353 1776.1 462.828 1743.12 474.051C1710.15 485.274 1675.21 490.885 1638.31 490.885C1594.24 490.885 1559.31 484.006 1533.5 470.249C1508.17 456.13 1492.24 437.484 1485.7 414.313C1484.96 410.331 1484.71 407.254 1484.96 405.081C1485.58 402.908 1487.85 400.917 1491.76 399.108L1561.76 363.806C1567.86 360.91 1572.59 360.187 1575.94 361.635C1579.67 363.083 1582.52 365.618 1584.5 369.237C1590.56 378.289 1596.61 386.073 1602.66 392.591C1608.8 398.744 1617.05 403.452 1627.42 406.709C1638.26 409.605 1653.29 411.054 1672.5 411.054C1683.04 411.054 1693.14 409.969 1702.81 407.796C1712.84 405.623 1721.41 402.004 1728.52 396.935C1736.1 391.504 1741.24 384.081 1743.94 374.668C1746.02 367.427 1744.72 361.454 1740.04 356.747C1735.36 352.041 1727.98 348.239 1717.89 345.343L1641.85 320.905C1615.62 312.578 1597.13 299.544 1586.4 281.804C1575.67 264.064 1573.73 243.247 1580.58 219.351C1586.81 197.628 1597.31 178.077 1612.09 160.699C1627.24 143.321 1645.24 128.477 1666.1 116.167C1687.05 103.496 1709.58 93.9015 1733.66 87.3847C1757.86 80.5058 1782.38 77.0664 1807.24 77.0664C1832.09 77.0664 1853.67 79.9627 1871.97 85.7555C1890.65 91.5483 1905.98 99.1513 1917.97 108.564C1930.44 117.616 1939.26 127.572 1944.43 138.433C1946.03 142.054 1946.65 145.131 1946.3 147.665C1945.95 150.2 1944.01 152.372 1940.48 154.182L1863.99 194.369C1860.94 195.818 1858.22 195.456 1855.83 193.283C1853.81 191.111 1851.53 188.577 1848.97 185.68Z" fill="white"/>
<path d="M1818.45 485.453C1814.31 485.453 1812.76 483.644 1813.8 480.023C1814.46 476.404 1818 470.609 1824.43 462.644L2122.13 92.2713C2125.64 87.9268 2129.24 85.2114 2132.94 84.1253C2137.02 83.0392 2141.5 82.4961 2146.4 82.4961H2257.69C2262.59 82.4961 2265.44 84.3063 2266.29 87.9268C2267.14 91.5473 2267.32 95.5297 2266.84 99.8743L2242.69 469.706C2242.41 473.325 2241.19 476.946 2239.03 480.567C2236.96 483.825 2233.85 485.453 2229.71 485.453H2118.99C2113.72 485.453 2111.28 481.471 2111.68 473.505L2116.28 412.139C2116.84 408.882 2114.86 407.253 2110.34 407.253H1991.71C1987.19 407.253 1982.94 409.605 1978.95 414.312L1926.21 480.023C1924.46 482.196 1922.73 483.644 1921.01 484.367C1919.3 485.092 1916.37 485.453 1912.23 485.453H1818.45ZM2121.56 314.929C2127.96 314.929 2131.26 311.31 2131.45 304.068L2137.12 213.376C2137.78 209.755 2137.17 207.945 2135.29 207.945C2133.4 207.945 2131.05 209.574 2128.24 212.833L2054.57 306.241C2052.02 309.862 2050.97 312.214 2051.41 313.3C2051.85 314.387 2053.77 314.929 2057.16 314.929H2121.56Z" fill="white"/>
<path d="M2347.51 91.7283C2349.29 88.1077 2351.1 85.7545 2352.93 84.6684C2354.85 83.2201 2358.26 82.4961 2363.14 82.4961H2706.62C2711.52 82.4961 2714.13 83.2201 2714.48 84.6684C2715.17 86.1164 2714.7 88.4699 2713.02 91.7283L2682.45 162.87C2681.23 165.767 2679.53 167.758 2677.33 168.844C2675.63 169.568 2672.89 169.93 2669.12 169.93H2569.14C2565.37 169.93 2562.72 170.654 2561.17 172.103C2559.73 173.189 2558.17 175.361 2556.47 178.619L2427.96 475.136C2426.44 479.119 2424.52 481.834 2422.23 483.282C2419.93 484.73 2417.27 485.453 2414.27 485.453H2308.05C2303.16 485.453 2300.28 484.367 2299.39 482.196C2298.5 480.023 2299.17 476.404 2301.37 471.334L2429.42 176.447C2431.05 172.103 2429.79 169.93 2425.65 169.93H2324.52C2316.98 169.93 2314.63 167.034 2317.42 161.241L2347.51 91.7283Z" fill="white"/>
<path d="M3012.62 329.592C2994.66 371.228 2973.28 403.812 2948.43 427.345C2923.61 450.879 2895.92 467.352 2865.35 476.765C2834.78 486.178 2801.81 490.884 2766.41 490.884C2707.64 490.884 2669.12 479.481 2650.79 456.671C2632.59 433.5 2629.56 400.736 2641.69 358.374C2643.78 351.134 2646.28 343.713 2649.2 336.11C2652.25 328.144 2655.47 320.179 2658.89 312.214L2754.3 91.7283C2756.2 87.7458 2757.87 85.2114 2759.31 84.1253C2761.14 83.0392 2763.56 82.4961 2766.56 82.4961H2873.88C2877.28 82.4961 2879.46 84.1253 2880.39 87.3837C2881.83 90.28 2881.66 93.5384 2879.85 97.1589L2778.69 331.765C2777.08 336.11 2775.31 340.273 2773.42 344.256C2772 347.877 2770.78 351.496 2769.74 355.117C2764.45 373.582 2765.08 386.434 2771.68 393.676C2778.64 400.916 2789.66 404.537 2804.71 404.537C2817.14 404.537 2829.73 402.003 2842.48 396.934C2855.24 391.864 2867.46 383.357 2879.17 371.409C2890.89 359.461 2901.1 343.533 2909.83 323.619L3010.21 91.7283C3012.1 87.7458 3013.78 85.2114 3015.21 84.1253C3016.65 83.0392 3019.07 82.4961 3022.46 82.4961H3107.21C3110.58 82.4961 3112.76 84.1253 3113.72 87.3837C3115.13 90.28 3114.96 93.5384 3113.17 97.1589L3012.62 329.592Z" fill="white"/>
<path d="M3349.24 470.79C3349.83 480.567 3345.23 485.453 3335.44 485.453H3225.85C3222.08 485.453 3219.14 484.55 3217.01 482.738C3215.38 480.567 3214.77 476.765 3215.2 471.334L3222.61 331.221C3222.87 329.05 3222.52 327.602 3221.6 326.877C3220.78 325.79 3218.86 325.248 3215.86 325.248H3181.95C3177.06 325.248 3173.62 327.421 3171.61 331.765L3110.23 472.963C3107.82 478.755 3104.7 482.377 3100.89 483.825C3097.58 484.911 3092.71 485.453 3086.3 485.453H2991.39C2985.75 485.453 2982.64 483.825 2982.07 480.567C2981.51 477.307 2982.07 473.325 2983.79 468.619L3147.23 91.7283C3149.12 87.7458 3150.8 85.2114 3152.23 84.1253C3153.67 83.0392 3156.09 82.4961 3159.48 82.4961H3348.15C3398.62 82.4961 3434.96 91.7283 3457.15 110.193C3479.47 128.295 3485.93 153.638 3476.59 186.222C3471.52 203.963 3462.92 220.798 3450.81 236.728C3439.1 252.657 3425.01 266.959 3408.57 279.63C3392.24 291.939 3374.48 301.352 3355.29 307.87C3349.87 309.681 3346.34 311.491 3344.69 313.3C3343.51 314.748 3342.99 316.56 3343.12 318.731L3349.24 470.79ZM3272.95 244.33C3283.88 244.33 3293.96 241.978 3303.21 237.271C3312.97 232.201 3321.17 225.867 3327.88 218.263C3334.57 210.66 3339.16 202.514 3341.66 193.825C3344.67 183.326 3342.95 175.542 3336.5 170.473C3330.04 165.405 3320.98 162.87 3309.31 162.87H3251.67C3247.17 162.87 3243.29 166.491 3240.09 173.732L3212.57 236.184C3211.15 239.805 3210.87 242.159 3211.68 243.246C3212.61 243.969 3214.2 244.33 3216.47 244.33H3272.95Z" fill="white"/>
<path d="M3920.58 82.4961C3925.85 82.4961 3927.26 85.3924 3924.84 91.1852L3756.62 478.936C3754.99 483.282 3750.61 485.453 3743.45 485.453H3666.07C3663.43 485.453 3661.23 484.55 3659.49 482.738C3658.12 480.928 3656.83 478.213 3655.62 474.592L3586.59 272.028C3585.98 270.216 3584.87 269.493 3583.26 269.855C3581.65 270.216 3579.89 272.389 3577.99 276.372L3491.64 475.136C3490.01 479.48 3488.05 482.377 3485.76 483.825C3483.93 484.911 3480.38 485.453 3475.11 485.453H3393.77C3389.63 485.453 3387.34 484.186 3386.95 481.651C3386.65 478.755 3387.26 475.317 3388.78 471.334L3553.54 91.7283C3555.44 87.7458 3557.11 85.2114 3558.55 84.1253C3560.38 83.0392 3563.36 82.4961 3567.5 82.4961H3659.58C3664.08 82.4961 3667.18 83.5822 3668.81 85.7545C3670.81 87.9268 3672.38 91.0042 3673.51 94.9867L3731.97 275.285C3732.91 278.545 3734.57 279.993 3736.94 279.63C3739.77 278.907 3741.97 276.553 3743.47 272.57L3822.2 90.6421C3823.99 87.0216 3825.56 84.8493 3826.89 84.1253C3828.71 83.0392 3831.68 82.4961 3835.83 82.4961H3920.58Z" fill="white"/>
<path d="M1618.73 663.595C1616.44 660.997 1612.86 658.482 1607.98 656.048C1603.11 653.613 1596.2 652.396 1587.25 652.396C1581.68 652.396 1576.62 652.965 1572.07 654.099C1567.69 655.236 1564 656.941 1560.98 659.212C1558.14 661.485 1556.25 664.244 1555.32 667.489C1554.62 669.923 1554.78 672.033 1555.78 673.819C1557.01 675.443 1558.64 676.821 1560.68 677.958C1562.76 678.931 1564.81 679.744 1566.81 680.392L1603.7 693.052C1615.88 697.109 1624.28 702.546 1628.91 709.362C1633.75 716.016 1634.69 724.537 1631.71 734.924C1627.66 749.045 1620.27 760.973 1609.55 770.711C1598.82 780.448 1586.07 787.832 1571.29 792.865C1556.51 797.895 1540.84 800.41 1524.3 800.41C1504.55 800.41 1488.88 797.326 1477.32 791.16C1465.96 784.83 1458.82 776.472 1455.89 766.086C1455.56 764.3 1455.45 762.92 1455.56 761.946C1455.84 760.973 1456.85 760.08 1458.6 759.268L1489.98 743.444C1492.72 742.146 1494.84 741.822 1496.34 742.471C1498.01 743.12 1499.29 744.256 1500.18 745.878C1502.89 749.937 1505.61 753.426 1508.32 756.348C1511.07 759.107 1514.77 761.217 1519.42 762.676C1524.28 763.976 1531.01 764.625 1539.62 764.625C1544.35 764.625 1548.88 764.137 1553.21 763.164C1557.71 762.19 1561.55 760.566 1564.74 758.295C1568.13 755.86 1570.44 752.533 1571.65 748.313C1572.58 745.068 1572 742.39 1569.9 740.28C1567.81 738.17 1564.5 736.465 1559.97 735.167L1525.89 724.212C1514.13 720.48 1505.84 714.636 1501.03 706.684C1496.22 698.731 1495.35 689.401 1498.42 678.687C1501.21 668.95 1505.92 660.187 1512.54 652.396C1519.34 644.605 1527.41 637.951 1536.75 632.433C1546.15 626.754 1556.25 622.451 1567.04 619.531C1577.89 616.448 1588.88 614.906 1600.02 614.906C1611.17 614.906 1620.84 616.204 1629.04 618.8C1637.42 621.397 1644.29 624.805 1649.66 629.025C1655.25 633.082 1659.21 637.546 1661.53 642.415C1662.24 644.037 1662.52 645.417 1662.36 646.554C1662.21 647.689 1661.34 648.664 1659.75 649.474L1625.47 667.489C1624.1 668.14 1622.88 667.976 1621.81 667.003C1620.9 666.03 1619.88 664.893 1618.73 663.595Z" fill="white"/>
<path d="M1752.15 621.479C1753 619.693 1753.75 618.559 1754.4 618.071C1755.04 617.583 1756.12 617.342 1757.64 617.342H1895.41C1898.61 617.342 1899.17 619.532 1897.07 623.913L1884.66 652.153C1883.94 654.1 1883.04 655.481 1881.96 656.293C1880.93 656.942 1879.23 657.266 1876.87 657.266H1798.36C1796.85 657.266 1795.65 657.591 1794.79 658.24C1793.98 658.727 1793.15 659.862 1792.3 661.647L1782.58 684.045C1781.95 685.667 1781.73 686.723 1781.93 687.209C1782.34 687.533 1783.14 687.697 1784.32 687.697H1832.18C1834.04 687.697 1835.04 688.021 1835.2 688.67C1835.52 689.319 1835.3 690.375 1834.54 691.836L1820.84 723.726C1820.06 725.836 1818.41 726.892 1815.88 726.892H1767.01C1764.98 726.892 1763.34 728.19 1762.09 730.787L1751.63 754.888C1750.86 756.998 1751.15 758.052 1752.5 758.052H1836.83C1838.69 758.052 1839.69 758.376 1839.84 759.025C1840.16 759.676 1839.9 760.893 1839.05 762.677L1825.74 794.083C1825.15 795.542 1824.42 796.598 1823.56 797.247C1822.75 797.735 1821.24 797.976 1819.05 797.976H1682.81C1678.08 797.976 1676.78 795.461 1678.89 790.431L1752.15 621.479Z" fill="white"/>
<path d="M2063.26 791.405C2063.52 795.786 2061.46 797.976 2057.07 797.976H2007.94C2006.25 797.976 2004.93 797.571 2003.98 796.759C2003.25 795.786 2002.98 794.083 2003.17 791.648L2006.49 728.838C2006.6 727.865 2006.45 727.216 2006.04 726.892C2005.67 726.404 2004.81 726.16 2003.46 726.16H1988.27C1986.07 726.16 1984.52 727.136 1983.63 729.082L1956.11 792.378C1955.03 794.976 1953.63 796.598 1951.93 797.247C1950.44 797.735 1948.26 797.976 1945.39 797.976H1902.85C1900.31 797.976 1898.92 797.247 1898.66 795.786C1898.41 794.325 1898.67 792.541 1899.44 790.431L1972.7 621.479C1973.55 619.693 1974.3 618.559 1974.94 618.071C1975.59 617.583 1976.67 617.342 1978.19 617.342H2062.77C2085.39 617.342 2101.68 621.479 2111.63 629.756C2121.63 637.871 2124.53 649.231 2120.35 663.838C2118.07 671.792 2114.21 679.337 2108.79 686.48C2103.53 693.62 2097.22 700.03 2089.85 705.711C2082.53 711.229 2074.57 715.449 2065.96 718.371C2063.54 719.181 2061.95 719.994 2061.21 720.806C2060.69 721.455 2060.46 722.267 2060.52 723.24L2063.26 791.405ZM2029.06 689.887C2033.95 689.887 2038.47 688.833 2042.62 686.723C2046.99 684.45 2050.67 681.611 2053.68 678.203C2056.68 674.793 2058.74 671.143 2059.86 667.248C2061.21 662.54 2060.43 659.052 2057.54 656.778C2054.65 654.507 2050.58 653.371 2045.35 653.371H2019.52C2017.49 653.371 2015.76 654.993 2014.32 658.24L2001.99 686.236C2001.36 687.858 2001.22 688.914 2001.59 689.402C2002 689.726 2002.72 689.887 2003.73 689.887H2029.06Z" fill="white"/>
<path d="M2265.18 617.342C2268.03 617.342 2268.6 619.532 2266.84 623.913L2193.96 792.378C2192.89 794.976 2191.65 796.598 2190.28 797.247C2189.15 797.735 2187.12 797.976 2184.25 797.976H2140.19C2137.49 797.976 2136.1 797.247 2136.01 795.786C2136.09 794.325 2136.52 792.541 2137.29 790.431L2210.55 621.479C2211.4 619.693 2212.14 618.559 2212.8 618.071C2213.6 617.583 2214.69 617.342 2216.04 617.342H2265.18Z" fill="white"/>
<path d="M2345.05 621.479C2345.9 619.693 2346.64 618.559 2347.29 618.071C2347.92 617.583 2349.01 617.342 2350.53 617.342H2488.3C2491.5 617.342 2492.04 619.532 2489.95 623.913L2477.54 652.153C2476.82 654.1 2475.93 655.481 2474.84 656.293C2473.82 656.942 2472.12 657.266 2469.74 657.266H2391.25C2389.73 657.266 2388.53 657.591 2387.68 658.24C2386.85 658.727 2386.03 659.862 2385.18 661.647L2375.47 684.045C2374.83 685.667 2374.62 686.723 2374.81 687.209C2375.23 687.533 2376.03 687.697 2377.21 687.697H2425.06C2426.92 687.697 2427.92 688.021 2428.07 688.67C2428.4 689.319 2428.18 690.375 2427.42 691.836L2413.72 723.726C2412.96 725.836 2411.3 726.892 2408.76 726.892H2359.9C2357.87 726.892 2356.22 728.19 2354.98 730.787L2344.52 754.888C2343.74 756.998 2344.02 758.052 2345.37 758.052H2429.7C2431.58 758.052 2432.58 758.376 2432.73 759.025C2433.03 759.676 2432.77 760.893 2431.92 762.677L2418.62 794.083C2418.03 795.542 2417.31 796.598 2416.44 797.247C2415.64 797.735 2414.13 797.976 2411.94 797.976H2275.7C2270.97 797.976 2269.67 795.461 2271.78 790.431L2345.05 621.479Z" fill="white"/>
<path d="M2660.37 663.595C2658.08 660.997 2654.49 658.482 2649.61 656.048C2644.74 653.613 2637.84 652.396 2628.89 652.396C2623.31 652.396 2618.26 652.965 2613.71 654.099C2609.33 655.236 2605.63 656.941 2602.63 659.212C2599.78 661.485 2597.88 664.244 2596.97 667.489C2596.27 669.923 2596.42 672.033 2597.42 673.819C2598.64 675.443 2600.28 676.821 2602.32 677.958C2604.39 678.931 2606.44 679.744 2608.46 680.392L2645.35 693.052C2657.52 697.109 2665.92 702.546 2670.54 709.362C2675.39 716.016 2676.33 724.537 2673.35 734.924C2669.3 749.045 2661.92 760.973 2651.18 770.711C2640.45 780.448 2627.71 787.832 2612.93 792.865C2598.14 797.895 2582.49 800.41 2565.94 800.41C2546.19 800.41 2530.51 797.326 2518.95 791.16C2507.61 784.83 2500.47 776.472 2497.53 766.086C2497.2 764.3 2497.09 762.92 2497.2 761.946C2497.48 760.973 2498.48 760.08 2500.25 759.268L2531.62 743.444C2534.37 742.146 2536.48 741.822 2537.98 742.471C2539.66 743.12 2540.92 744.256 2541.81 745.878C2544.54 749.937 2547.26 753.426 2549.96 756.348C2552.7 759.107 2556.4 761.217 2561.06 762.676C2565.92 763.976 2572.65 764.625 2581.27 764.625C2585.99 764.625 2590.52 764.137 2594.85 763.164C2599.34 762.19 2603.19 760.566 2606.37 758.295C2609.77 755.86 2612.08 752.533 2613.3 748.313C2614.21 745.068 2613.64 742.39 2611.53 740.28C2609.44 738.17 2606.13 736.465 2601.6 735.167L2567.53 724.212C2555.77 720.48 2547.48 714.636 2542.66 706.684C2537.85 698.731 2536.98 689.401 2540.05 678.687C2542.86 668.95 2547.56 660.187 2554.18 652.396C2560.97 644.605 2569.05 637.951 2578.39 632.433C2587.78 626.754 2597.88 622.451 2608.68 619.531C2619.52 616.448 2630.52 614.906 2641.67 614.906C2652.82 614.906 2662.48 616.204 2670.69 618.8C2679.05 621.397 2685.93 624.805 2691.31 629.025C2696.88 633.082 2700.85 637.546 2703.16 642.415C2703.87 644.037 2704.16 645.417 2704 646.554C2703.85 647.689 2702.98 648.664 2701.39 649.474L2667.1 667.489C2665.73 668.14 2664.51 667.976 2663.44 667.003C2662.55 666.03 2661.52 664.893 2660.37 663.595Z" fill="white"/>
<defs>
<linearGradient id="paint0_linear_31_23" x1="1418.53" y1="0.000591257" x2="1418.27" y2="864.801" gradientUnits="userSpaceOnUse">
<stop stop-color="white"/>
<stop offset="1" stop-color="white"/>
</linearGradient>
</defs>
</svg>
