<svg width="95" height="21" viewBox="0 0 95 21" fill="none" xmlns="http://www.w3.org/2000/svg">
<path fill-rule="evenodd" clip-rule="evenodd" d="M1.09791 11.6029L12.4391 1.95421C12.858 1.59782 13.4614 2.08048 13.2058 2.56744L9.55857 9.51493L15.9064 9.51493C16.3715 9.51493 16.5846 10.0944 16.2304 10.3958L4.88919 20.0444C4.47029 20.4008 3.86685 19.9181 4.12249 19.4312L7.7697 12.4837H1.4219C0.956782 12.4837 0.743648 11.9042 1.09791 11.6029Z" fill="white"/>
<path d="M24.0923 13.1867C24.3687 14.8057 25.7705 15.7731 27.6857 15.7731C29.5614 15.7731 30.9435 14.7859 30.9435 13.1274C30.9435 11.9033 30.213 11.074 28.7124 10.6791L27.0144 10.2645C26.1852 10.0276 25.7903 9.75116 25.7903 9.15884C25.7903 8.30984 26.5998 7.89521 27.4685 7.89521C28.5347 7.89521 29.1468 8.34932 29.4035 9.13909H30.8843C30.5684 7.59904 29.4232 6.65132 27.4883 6.65132C25.7113 6.65132 24.349 7.67802 24.349 9.23781C24.349 10.6002 25.2177 11.232 26.4616 11.5479L28.1991 12.002C29.1073 12.2389 29.5022 12.6141 29.5022 13.2261C29.5022 14.1146 28.7519 14.5293 27.7055 14.5293C26.6788 14.5293 25.9088 14.0949 25.6323 13.1867H24.0923Z" fill="white"/>
<path d="M32.9981 15.5954H34.479V9.65244C34.7949 8.70472 35.6834 8.01367 36.7101 8.01367C38.0329 8.01367 38.645 8.86267 38.645 10.0868V15.5954H40.1455V9.84988C40.1455 7.9347 39.0596 6.65132 37.0654 6.65132C35.94 6.65132 34.9923 7.24365 34.479 7.9347V6.82902H32.9981V15.5954Z" fill="white"/>
<path d="M49.0158 15.5954V9.75116C49.0158 7.83598 47.7719 6.65132 45.679 6.65132C44.0007 6.65132 42.6976 7.65828 42.4015 9.13909H43.8625C44.139 8.32958 44.7313 7.9347 45.6593 7.9347C46.9229 7.9347 47.5942 8.72446 47.5942 9.81039V10.9161C47.2191 10.5804 46.2911 10.2053 45.3828 10.2053C43.5071 10.2053 42.0263 11.311 42.0263 12.9497C42.0263 14.6872 43.5071 15.7534 45.2841 15.7534C46.3306 15.7534 47.2585 15.2993 47.5942 14.9439V15.5954H49.0158ZM47.5942 13.4236C47.3375 14.0751 46.449 14.5095 45.5408 14.5095C44.4746 14.5095 43.4479 14.0159 43.4479 12.9497C43.4479 11.9033 44.4746 11.4294 45.5408 11.4294C46.449 11.4294 47.3375 11.8638 47.5942 12.5153V13.4236Z" fill="white"/>
<path d="M53.0277 14.5687C53.4818 15.2006 54.4098 15.7731 55.4957 15.7731C58.0822 15.7731 59.4446 13.6408 59.4446 11.2122C59.4446 8.7837 58.0822 6.65132 55.4957 6.65132C54.4098 6.65132 53.4818 7.22391 53.0277 7.85572V6.82902H51.5469V18.952H53.0277V14.5687ZM53.0277 9.43526C53.4818 8.52702 54.3506 7.99393 55.2785 7.99393C56.9568 7.99393 57.944 9.35628 57.944 11.2122C57.944 13.0682 56.9568 14.4305 55.2785 14.4305C54.3506 14.4305 53.4818 13.8974 53.0277 12.9892V9.43526Z" fill="white"/>
<path d="M60.727 13.1867C61.0034 14.8057 62.4053 15.7731 64.3204 15.7731C66.1961 15.7731 67.5782 14.7859 67.5782 13.1274C67.5782 11.9033 66.8477 11.074 65.3471 10.6791L63.6491 10.2645C62.8199 10.0276 62.425 9.75116 62.425 9.15884C62.425 8.30984 63.2345 7.89521 64.1033 7.89521C65.1694 7.89521 65.7815 8.34932 66.0382 9.13909H67.519C67.2031 7.59904 66.0579 6.65132 64.123 6.65132C62.346 6.65132 60.9837 7.67802 60.9837 9.23781C60.9837 10.6002 61.8524 11.232 63.0963 11.5479L64.8338 12.002C65.742 12.2389 66.1369 12.6141 66.1369 13.2261C66.1369 14.1146 65.3866 14.5293 64.3402 14.5293C63.3135 14.5293 62.5435 14.0949 62.2671 13.1867H60.727Z" fill="white"/>
<path d="M69.6329 15.5954H71.1137V9.65244C71.4296 8.70472 72.3181 8.01367 73.3448 8.01367C74.6676 8.01367 75.2797 8.86267 75.2797 10.0868V15.5954H76.7803V9.84988C76.7803 7.9347 75.6943 6.65132 73.7002 6.65132C72.5747 6.65132 71.627 7.24365 71.1137 7.9347V2.76172H69.6329V15.5954Z" fill="white"/>
<path d="M86.7167 11.2122C86.7167 8.52702 85.0779 6.65132 82.6889 6.65132C80.2801 6.65132 78.6611 8.52702 78.6611 11.2122C78.6611 13.8974 80.2801 15.7731 82.6889 15.7731C85.0779 15.7731 86.7167 13.8974 86.7167 11.2122ZM85.2161 11.2122C85.2161 13.1274 84.2684 14.47 82.6889 14.47C81.1093 14.47 80.1616 13.1274 80.1616 11.2122C80.1616 9.29704 81.1093 7.95444 82.6889 7.95444C84.2684 7.95444 85.2161 9.29704 85.2161 11.2122Z" fill="white"/>
<path d="M89.1361 13.3841C89.1361 15.0031 90.1233 15.7731 91.5449 15.7731C92.078 15.7731 92.5914 15.6547 92.927 15.477V14.0949C92.6308 14.2923 92.1965 14.4503 91.7818 14.4503C91.0316 14.4503 90.6169 14.0751 90.6169 13.2261V8.09265H92.7296V6.82902H90.6169V4.51895H89.1361V6.82902H87.7145V8.09265H89.1361V13.3841Z" fill="white"/>
</svg>
