<svg xmlns="http://www.w3.org/2000/svg" width="197" height="37" viewBox="0 0 197 37" fill="none">
	<script xmlns="" />
	<path d="M60.0055 8.9043H49.9191C49.0523 8.9043 48.3037 9.21949 47.6733 9.84989C47.0429 10.4803 46.7277 11.2289 46.7277 12.0957V15.4841C46.7277 16.3509 47.0429 17.0995 47.6733 17.7299C48.3037 18.3603 49.0523 18.6755 49.9191 18.6755H59.3357C59.7691 18.6755 60.0055 18.7149 60.0449 18.7543C60.0843 18.7937 60.1237 19.0301 60.1237 19.4635V21.5517C60.1237 21.9851 60.0843 22.2215 60.0449 22.2609C60.0055 22.3003 59.7691 22.3397 59.3357 22.3397H50.5495C50.1161 22.3397 49.8797 22.3003 49.8403 22.2609C49.8009 22.2215 49.7615 21.9851 49.7615 21.5517V20.9213H46.7277V22.1821C46.7277 23.0489 47.0429 23.7975 47.6733 24.4279C48.3037 25.0583 49.0523 25.3735 49.9191 25.3735H60.0055C60.8723 25.3735 61.6209 25.0583 62.2513 24.4279C62.8817 23.7975 63.1969 23.0489 63.1969 22.1821V18.7937C63.1969 17.9269 62.8817 17.1783 62.2513 16.5479C61.6209 15.9175 60.8723 15.6023 60.0055 15.6023H50.5495C50.1161 15.6023 49.8797 15.5629 49.8403 15.5235C49.8009 15.4841 49.7615 15.2477 49.7615 14.8143V12.7261C49.7615 12.2927 49.8009 12.0563 49.8403 12.0169C49.8797 11.9775 50.1161 11.9381 50.5495 11.9381H59.3357C59.7691 11.9381 60.0055 11.9775 60.0449 12.0169C60.0843 12.0563 60.1237 12.2927 60.1237 12.7261V13.3171H63.1575V12.0563C63.1575 11.1895 62.8423 10.4409 62.2119 9.81049C61.6209 9.21949 60.8723 8.9043 60.0055 8.9043Z" fill="white" />
	<path d="M86.3639 21.5123C86.3639 21.9457 86.3245 22.1821 86.2851 22.2215C86.2063 22.2609 85.9699 22.3003 85.5759 22.3003H76.7897C76.3563 22.3003 76.1199 22.2609 76.0805 22.2215C76.0411 22.1821 76.0017 21.9457 76.0017 21.5123V12.7261C76.0017 12.2927 76.0411 12.0563 76.0805 12.0169C76.1199 11.9775 76.3563 11.9381 76.7897 11.9381H85.5759C85.9699 11.9381 86.2063 11.9775 86.2851 12.0169C86.3639 12.0563 86.3639 12.2927 86.3639 12.7261V21.5123ZM86.2063 8.9043H76.1199C75.2531 8.9043 74.5045 9.21949 73.8741 9.84989C73.2437 10.4803 72.9285 11.2289 72.9285 12.0957V22.1821C72.9285 23.0489 73.2437 23.7975 73.8741 24.4279C74.5045 25.0583 75.2531 25.3735 76.1199 25.3735H86.2063C87.0731 25.3735 87.8217 25.0583 88.4521 24.4279C89.0825 23.7975 89.3977 23.0489 89.3977 22.1821V12.0957C89.3977 11.2289 89.0825 10.4803 88.4521 9.84989C87.8217 9.21949 87.0731 8.9043 86.2063 8.9043Z" fill="white" />
	<path d="M108.861 21.6699L101.494 8.9043H97.9869L107.482 25.3341H110.201L119.736 8.9043H116.229L108.861 21.6699Z" fill="white" />
	<path d="M142.037 15.8781C142.037 16.3115 141.997 16.5479 141.958 16.5873C141.918 16.6267 141.682 16.6661 141.249 16.6661H132.462C132.029 16.6661 131.793 16.6267 131.753 16.5873C131.714 16.5479 131.674 16.3115 131.674 15.8781V12.7261C131.674 12.2927 131.714 12.0563 131.753 12.0169C131.793 11.9775 132.029 11.9381 132.462 11.9381H141.249C141.643 11.9381 141.879 11.9775 141.958 12.0169C141.997 12.0563 142.037 12.2927 142.037 12.7261V15.8781ZM141.918 8.9043H128.68V25.3341H131.714V19.7393L137.112 19.6999L141.84 25.3341H145.11V24.5067L141.052 19.6999H141.958C142.825 19.6999 143.613 19.3847 144.204 18.7543C144.834 18.1239 145.149 17.3753 145.149 16.5085V12.0957C145.149 11.2289 144.834 10.5197 144.204 9.84989C143.534 9.21949 142.785 8.9043 141.918 8.9043Z" fill="white" />
	<path d="M163.036 15.8781L157.52 8.9043H153.935L161.539 19.1877V25.3341H164.573V19.1877L172.177 8.9043H168.552L163.036 15.8781Z" fill="white" />
	<path d="M193.966 8.9043V20.9213L183.879 8.9043H180.57V25.3341H183.564V13.3171L193.69 25.3341H197V8.9043H193.966Z" fill="white" />
	<path d="M20.2512 15.9964H13.3956L16.3506 19.9758L16.39 20.0152C16.39 20.0546 16.4294 20.0546 16.4294 20.094L16.9022 20.7244L18.3206 22.655C18.3994 22.7338 18.4782 22.8126 18.557 22.8914C19.0692 23.2854 19.8178 23.1672 20.2118 22.655L21.709 20.6456L23.5214 18.2422L23.9942 17.6118C23.9548 17.0996 23.9154 16.5874 23.8366 16.1146C23.7972 15.6024 23.5608 15.1296 23.1668 14.775C22.7728 14.4992 22.3 14.3022 21.7878 14.3022H21.7484C21.7484 14.381 21.7484 14.4204 21.7484 14.4992C21.7484 15.3266 21.0786 15.9964 20.2512 15.9964Z" fill="white" />
	<path d="M31.0869 8.03759H19.2669C18.4395 8.03759 17.7697 7.36779 17.7697 6.54039C17.7697 6.46159 17.7697 6.42219 17.7697 6.34339C17.0211 6.30399 16.2725 6.46159 15.6027 6.73739C14.8147 7.09199 14.1055 7.56479 13.5539 8.23458C12.9629 8.90438 12.4507 9.65298 12.0567 10.441C11.7021 11.2684 11.3869 12.1352 11.2293 13.002H20.1731H20.2125H20.2519C20.8429 13.0414 21.4339 13.1202 21.9855 13.3172C22.6159 13.4748 23.2069 13.8294 23.6403 14.3022C23.7585 14.4204 23.8373 14.578 23.9161 14.7356C23.9949 14.8932 24.0343 15.0508 24.0737 15.2084C24.1525 15.4842 24.1525 15.7994 24.1525 16.1146C24.1525 16.6268 24.0737 17.0996 24.0343 17.5724L31.0869 8.03759Z" fill="white" />
	<path d="M11.151 12.9624C11.2692 12.0562 11.4662 11.15 11.7814 10.2832C12.0966 9.37699 12.53 8.54959 13.0422 7.7616C13.5938 6.9736 14.3424 6.3038 15.1698 5.7916C15.9972 5.3188 16.9034 5.043 17.849 5.0036C17.9672 5.0036 18.0854 5.0036 18.2036 5.0036C18.4794 5.0036 18.9916 5.0036 19.2674 5.0036H33.3332L35.5789 1.9698C35.7365 1.7728 35.8153 1.53641 35.8153 1.26061C35.8153 0.630212 35.3031 0.0786133 34.6333 0.0786133H3.86201C3.62561 0.0786133 3.34981 0.157416 3.15281 0.315015C2.64061 0.709014 2.52241 1.41821 2.91641 1.9698L11.151 12.9624Z" fill="white" />
	<path d="M18.1634 24.9014L11.7018 15.997L9.49538 12.9632L0.0787986 0.0400391L0 0.0794414L6.54039 12.9632L8.07698 15.997L15.7994 31.2448L18.0452 35.6576C18.2028 35.9334 18.3998 36.1698 18.6756 36.288C19.3848 36.6426 20.291 36.3668 20.6456 35.6576L22.8914 31.3236L22.9308 31.2054L18.3998 25.0984C18.2816 25.059 18.2422 24.9802 18.1634 24.9014Z" fill="white" />
	<path d="M34.3962 6.34339L33.1354 8.03758L25.4918 18.2422L23.6794 20.6456L20.488 24.9008C20.4092 25.019 20.291 25.0977 20.1728 25.1765L23.6006 29.7863L28.368 20.6062L29.6288 18.2028L39.1242 0.0394023L39.0454 0L34.3962 6.34339Z" fill="white" />
</svg>
