<svg width="43" height="18" viewBox="0 0 43 18" fill="none" xmlns="http://www.w3.org/2000/svg">
	<path d="M7.29364 10.374L6.29764 10.014C5.48164 9.72601 4.90564 9.39001 4.56964 9.00601C4.24164 8.61401 4.07764 8.08601 4.07764 7.42201C4.07764 6.71801 4.32564 6.12601 4.82164 5.64601C5.30964 5.15801 6.00964 4.91401 6.92164 4.91401C7.56964 4.91401 8.11764 5.05001 8.56564 5.32201C8.70164 5.40201 8.79764 5.44201 8.85364 5.44201C8.99764 5.44201 9.08164 5.32201 9.10564 5.08201C9.12164 5.01001 9.15764 4.97401 9.21364 4.97401C9.26964 4.97401 9.29764 5.00201 9.29764 5.05801C9.29764 5.17001 9.29364 5.31801 9.28564 5.50201V6.18601V6.85801C9.29364 7.02601 9.29764 7.17401 9.29764 7.30201C9.29764 7.37401 9.26564 7.41001 9.20164 7.41001C9.15364 7.41001 9.12164 7.36601 9.10564 7.27801C9.01764 6.60601 8.78964 6.07401 8.42164 5.68201C8.04564 5.29801 7.54164 5.10601 6.90964 5.10601C6.30964 5.10601 5.83364 5.23001 5.48164 5.47801C5.13764 5.71801 4.96564 6.05001 4.96564 6.47401C4.96564 6.79401 5.05364 7.05401 5.22964 7.25401C5.39764 7.44601 5.78564 7.65401 6.39364 7.87801L7.30564 8.21401C8.20964 8.53401 8.85764 8.89001 9.24964 9.28201C9.64164 9.65001 9.83764 10.202 9.83764 10.938C9.83764 11.698 9.58164 12.322 9.06964 12.81C8.55764 13.298 7.83364 13.542 6.89764 13.542C6.16164 13.542 5.50164 13.382 4.91764 13.062C4.78964 12.982 4.66564 12.942 4.54564 12.942C4.39364 12.942 4.30964 13.07 4.29364 13.326C4.28564 13.406 4.25364 13.446 4.19764 13.446C4.13364 13.446 4.10164 13.414 4.10164 13.35V12.882C4.10964 12.682 4.11364 12.434 4.11364 12.138C4.11364 11.842 4.10964 11.606 4.10164 11.43V10.95C4.10164 10.878 4.13764 10.842 4.20964 10.842C4.25764 10.842 4.28564 10.89 4.29364 10.986C4.34964 11.402 4.42964 11.734 4.53364 11.982C4.64564 12.222 4.80964 12.45 5.02564 12.666C5.21764 12.858 5.50164 13.018 5.87764 13.146C6.28564 13.282 6.63764 13.35 6.93364 13.35C7.55764 13.35 8.04564 13.214 8.39764 12.942C8.74964 12.662 8.92564 12.306 8.92564 11.874C8.92564 11.554 8.81764 11.286 8.60164 11.07C8.38564 10.846 7.94964 10.614 7.29364 10.374Z" fill="white" />
	<path d="M10.5679 11.214V7.80601H9.82386C9.79186 7.80601 9.77586 7.78201 9.77586 7.73401C9.77586 7.67801 9.79986 7.65001 9.84786 7.65001C10.3839 7.62601 10.8079 7.53001 11.1199 7.36201C11.3359 7.24201 11.5199 7.09401 11.6719 6.91801C11.8239 6.72601 11.9719 6.45801 12.1159 6.11401C12.1639 6.01001 12.2279 5.95801 12.3079 5.95801C12.3959 5.95801 12.4439 5.97401 12.4519 6.00601C12.4599 6.01401 12.4639 6.04601 12.4639 6.10201V7.61401H13.5559C13.6039 7.61401 13.6279 7.64601 13.6279 7.71001C13.6279 7.77401 13.6039 7.80601 13.5559 7.80601H12.4639V11.766C12.4639 12.318 12.4839 12.682 12.5239 12.858C12.5799 13.098 12.7319 13.218 12.9799 13.218C13.1239 13.218 13.2519 13.186 13.3639 13.122C13.4759 13.066 13.5759 12.974 13.6639 12.846C13.6879 12.806 13.7159 12.786 13.7479 12.786C13.8119 12.786 13.8439 12.818 13.8439 12.882C13.8439 12.93 13.8039 12.994 13.7239 13.074C13.4199 13.378 12.9759 13.53 12.3919 13.53C11.7519 13.53 11.2959 13.422 11.0239 13.206C10.7519 12.99 10.6039 12.654 10.5799 12.198C10.5719 12.086 10.5679 11.758 10.5679 11.214Z" fill="white" />
	<path d="M16.9854 12.642C16.7214 13.242 16.2454 13.542 15.5574 13.542C14.9174 13.542 14.4374 13.394 14.1174 13.098C13.8054 12.802 13.6494 12.418 13.6494 11.946C13.6494 11.33 13.8574 10.91 14.2734 10.686C14.7134 10.454 15.6174 10.338 16.9854 10.338V8.83801C16.9854 8.45401 16.9574 8.19001 16.9014 8.04601C16.7974 7.77401 16.5534 7.63801 16.1694 7.63801C15.8014 7.63801 15.5454 7.71001 15.4014 7.85401C15.2174 8.03801 15.1254 8.43801 15.1254 9.05401C15.1254 9.26201 15.0774 9.41001 14.9814 9.49801C14.8854 9.57801 14.7454 9.61801 14.5614 9.61801C14.2014 9.61801 14.0214 9.43801 14.0214 9.07801C14.0214 8.00601 14.8334 7.47001 16.4574 7.47001C17.6734 7.47001 18.4134 7.75001 18.6774 8.31001C18.8134 8.59801 18.8814 8.96201 18.8814 9.40201C18.8814 9.89801 18.8774 10.462 18.8694 11.094C18.8614 11.726 18.8574 12.23 18.8574 12.606C18.8334 12.91 18.8854 13.098 19.0134 13.17C19.1494 13.242 19.3054 13.21 19.4814 13.074C19.5694 13.002 19.6254 12.966 19.6494 12.966C19.7134 12.966 19.7454 12.998 19.7454 13.062C19.7454 13.118 19.7134 13.166 19.6494 13.206C19.3534 13.406 18.9494 13.506 18.4374 13.506C17.9654 13.506 17.6214 13.442 17.4054 13.314C17.1974 13.186 17.0574 12.962 16.9854 12.642ZM16.9974 11.454V10.506H16.9494C16.9414 10.506 16.9014 10.506 16.8294 10.506C16.7654 10.498 16.7094 10.494 16.6614 10.494C16.2774 10.494 16.0134 10.542 15.8694 10.638C15.6054 10.806 15.4734 11.242 15.4734 11.946C15.4734 12.402 15.5174 12.726 15.6054 12.918C15.6934 13.11 15.8334 13.206 16.0254 13.206C16.3614 13.206 16.6254 13.002 16.8174 12.594C16.9374 12.306 16.9974 11.926 16.9974 11.454Z" fill="white" />
	<path d="M22.1699 10.338V12.45C22.1699 12.762 22.1899 12.966 22.2299 13.062C22.2939 13.174 22.5179 13.23 22.9019 13.23C22.9419 13.23 22.9619 13.258 22.9619 13.314C22.9619 13.362 22.9419 13.386 22.9019 13.386H22.1339C21.8219 13.378 21.5139 13.374 21.2099 13.374C20.9459 13.374 20.6659 13.378 20.3699 13.386H19.5779C19.5379 13.386 19.5179 13.362 19.5179 13.314C19.5179 13.258 19.5379 13.23 19.5779 13.23C19.9459 13.23 20.1539 13.174 20.2019 13.062C20.2499 12.926 20.2739 12.722 20.2739 12.45V5.55001C20.2739 5.09401 20.2379 4.83001 20.1659 4.75801C20.1099 4.70201 19.9219 4.67401 19.6019 4.67401C19.5619 4.67401 19.5419 4.64601 19.5419 4.59001C19.5419 4.54201 19.5579 4.51801 19.5899 4.51801C19.8219 4.51801 20.0659 4.51801 20.3219 4.51801C20.5859 4.51001 20.8219 4.50201 21.0299 4.49401C21.2459 4.48601 21.4379 4.48201 21.6059 4.48201C21.7819 4.47401 21.9179 4.47001 22.0139 4.47001C22.1099 4.46201 22.1539 4.45801 22.1459 4.45801C22.2019 4.45801 22.2299 4.49001 22.2299 4.55401V4.59001C22.2299 4.61401 22.2259 4.65001 22.2179 4.69801C22.2179 4.74601 22.2139 4.80601 22.2059 4.87801C22.2059 4.94201 22.2059 5.01801 22.2059 5.10601C22.2059 5.19401 22.2019 5.28601 22.1939 5.38201C22.1939 5.47001 22.1899 5.57001 22.1819 5.68201C22.1819 5.78601 22.1779 5.89401 22.1699 6.00601C22.1699 6.11001 22.1699 6.21801 22.1699 6.33001C22.1699 6.44201 22.1699 6.55001 22.1699 6.65401V10.17H22.4819C22.6819 10.17 22.8619 10.102 23.0219 9.96601C23.3019 9.71001 23.6939 9.28601 24.1979 8.69401C24.3979 8.44601 24.4979 8.24601 24.4979 8.09401C24.4979 7.95801 24.3899 7.86201 24.1739 7.80601C24.0619 7.78201 23.9379 7.77001 23.8019 7.77001C23.7459 7.77001 23.7179 7.74201 23.7179 7.68601C23.7179 7.63801 23.7419 7.61401 23.7899 7.61401C23.9179 7.61401 24.0659 7.61801 24.2339 7.62601H24.9299H25.5539C25.7219 7.61801 25.8499 7.61401 25.9379 7.61401C25.9859 7.61401 26.0099 7.64201 26.0099 7.69801C26.0099 7.74601 25.9739 7.77001 25.9019 7.77001C25.6859 7.78601 25.5259 7.82201 25.4219 7.87801C25.2379 7.95801 25.0459 8.11001 24.8459 8.33401L23.9339 9.29401L26.0819 12.678C26.3059 13.046 26.5499 13.23 26.8139 13.23C26.8859 13.23 26.9219 13.258 26.9219 13.314C26.9219 13.362 26.9019 13.386 26.8619 13.386H25.9859C25.6819 13.378 25.4019 13.374 25.1459 13.374C24.1779 13.374 23.6259 13.378 23.4899 13.386C23.4419 13.386 23.4179 13.362 23.4179 13.314C23.4179 13.258 23.4419 13.23 23.4899 13.23C23.6579 13.23 23.7939 13.218 23.8979 13.194C23.9859 13.17 24.0299 13.11 24.0299 13.014C24.0299 12.91 23.9859 12.79 23.8979 12.654L22.6739 10.566C22.5939 10.414 22.4699 10.338 22.3019 10.338H22.1699Z" fill="white" />
	<path d="M31.4046 10.374H28.4166C28.4166 11.71 28.5606 12.558 28.8486 12.918C28.9926 13.086 29.1326 13.198 29.2686 13.254C29.4126 13.302 29.6086 13.326 29.8566 13.326C30.2486 13.326 30.6086 13.174 30.9366 12.87C31.2646 12.574 31.4606 12.206 31.5246 11.766C31.5486 11.574 31.6366 11.478 31.7886 11.478C31.9326 11.478 32.0046 11.546 32.0046 11.682C32.0046 11.842 31.9686 12.006 31.8966 12.174C31.7126 12.59 31.4126 12.922 30.9966 13.17C30.5806 13.418 30.0726 13.542 29.4726 13.542C28.5446 13.542 27.8006 13.27 27.2406 12.726C26.6966 12.166 26.4246 11.466 26.4246 10.626C26.4246 9.71401 26.6926 8.96201 27.2286 8.37001C27.7646 7.77001 28.5126 7.47001 29.4726 7.47001C30.2326 7.47001 30.8406 7.67801 31.2966 8.09401C31.7606 8.50201 31.9926 9.07001 31.9926 9.79801C31.9926 10.046 31.9526 10.21 31.8726 10.29C31.8166 10.346 31.6606 10.374 31.4046 10.374ZM28.4166 10.194H29.7126C29.9046 10.194 30.0286 10.158 30.0846 10.086C30.1486 10.014 30.1806 9.87801 30.1806 9.67801C30.1806 8.90201 30.1366 8.36201 30.0486 8.05801C29.9686 7.77001 29.7686 7.62601 29.4486 7.62601C29.0966 7.62601 28.8406 7.79401 28.6806 8.13001C28.5446 8.45801 28.4566 9.14601 28.4166 10.194Z" fill="white" />
	<path d="M36.2465 12.414C35.9505 13.166 35.4424 13.542 34.7224 13.542C33.9944 13.542 33.3904 13.278 32.9104 12.75C32.4384 12.214 32.2024 11.494 32.2024 10.59C32.2024 9.66201 32.4464 8.91401 32.9344 8.34601C33.4224 7.76201 34.0584 7.47001 34.8424 7.47001C35.5544 7.47001 36.0145 7.80201 36.2225 8.46601V5.55001C36.2225 5.09401 36.1825 4.83001 36.1025 4.75801C36.0465 4.70201 35.8584 4.67401 35.5384 4.67401C35.4984 4.67401 35.4784 4.64601 35.4784 4.59001C35.4784 4.54201 35.4944 4.51801 35.5264 4.51801C35.9984 4.51801 36.3705 4.51401 36.6425 4.50601C37.3705 4.47401 37.8545 4.45801 38.0945 4.45801C38.1425 4.45801 38.1665 4.49001 38.1665 4.55401L38.1544 4.84201C38.1304 5.58601 38.1185 6.03801 38.1185 6.19801V12.462C38.1185 12.774 38.1385 12.978 38.1785 13.074C38.2425 13.186 38.4704 13.242 38.8624 13.242C38.9024 13.242 38.9225 13.27 38.9225 13.326C38.9225 13.374 38.9024 13.398 38.8624 13.398C38.6464 13.398 38.1225 13.406 37.2905 13.422C36.6825 13.446 36.3664 13.458 36.3424 13.458C36.2624 13.458 36.2225 13.418 36.2225 13.338C36.2225 13.322 36.2225 13.27 36.2225 13.182C36.2305 13.094 36.2345 12.982 36.2345 12.846C36.2425 12.702 36.2465 12.558 36.2465 12.414ZM36.2225 10.302C36.2225 9.59001 36.1865 9.09001 36.1145 8.80201C36.0185 8.42601 35.8944 8.15001 35.7424 7.97401C35.5904 7.79001 35.3744 7.69801 35.0944 7.69801C34.8944 7.69801 34.7344 7.75801 34.6144 7.87801C34.3504 8.15801 34.2184 9.05401 34.2184 10.566C34.2184 11.326 34.2544 11.914 34.3264 12.33C34.3984 12.722 34.4824 12.982 34.5784 13.11C34.6824 13.23 34.8344 13.29 35.0344 13.29C35.3144 13.29 35.5585 13.158 35.7665 12.894C35.9745 12.63 36.1025 12.246 36.1505 11.742C36.1985 11.254 36.2225 10.774 36.2225 10.302Z" fill="white" />
</svg>
