<svg id="Layer_1" data-name="Layer 1" xmlns="http://www.w3.org/2000/svg" viewBox="0 0 287.68 51.59"><path d="M50.74,25.12,40.33,14.62a1.52,1.52,0,0,0-.79-.49,1.64,1.64,0,0,0-.93,0c-2.13.6-4.28,1.17-6.42,1.74a.88.88,0,0,1-.53.06h-.05l0,0a40.38,40.38,0,0,0,4.55-4.12c.53-.52.53-.82,0-1.34L26.2.37c-.48-.49-.76-.49-1.23,0L14.4,11a1.53,1.53,0,0,0-.43.72,1.5,1.5,0,0,0,0,.84c.42,1.54.82,3.08,1.23,4.62.22.82.42,1.63.64,2.45-1.31-1.64-2.76-3.1-4.19-4.58-.48-.49-.79-.49-1.27,0L0,25.53v.55a1.65,1.65,0,0,0,.4.64C1.86,28.09,3.22,29.56,4.64,31c2,1.93,3.87,3.92,5.83,5.87a2.25,2.25,0,0,0,2.51.65c2-.6,4.05-1.1,6.17-1.69a14.71,14.71,0,0,0-1.78,1.46c-.94.81-1.8,1.71-2.67,2.59a.83.83,0,0,0-.27.56.82.82,0,0,0,.19.6,4,4,0,0,0,.48.54c1.14,1.16,2.3,2.3,3.45,3.45,2,2,4,4.14,6.11,6.14a2.77,2.77,0,0,0,.62.46h.56l.31-.31L36.71,40.66a1.5,1.5,0,0,0,.45-.74,1.57,1.57,0,0,0,0-.86q-.8-2.94-1.56-5.9A4.51,4.51,0,0,1,35.31,32v-.09l0,.08a39.77,39.77,0,0,0,4,4.56c.57.59.84.6,1.42,0l9.9-10C51.29,25.94,51.29,25.68,50.74,25.12Zm-29.37,8.2c-.12.12-.21.32-.47.34.39-1.51.78-3,1.18-4.47.17-.65.32-1.32.52-2a1.49,1.49,0,0,0-.43-1.58c-1.39-1.39-2.77-2.79-4.15-4.18l-.25-.27a.54.54,0,0,1,.22-.05.54.54,0,0,1,.21.05c2,.54,4,1.06,5.94,1.61a1.44,1.44,0,0,0,.87,0,1.51,1.51,0,0,0,.74-.46q2-2,4-4.06c.12-.13.21-.32.48-.35l-1.09,4.1c-.2.75-.38,1.49-.6,2.22a1.61,1.61,0,0,0,0,1,1.63,1.63,0,0,0,.52.82c1.32,1.3,2.61,2.63,3.92,3.93a3.46,3.46,0,0,0,.53.35.54.54,0,0,1-.27.11.63.63,0,0,1-.3,0c-2-.53-4-1.05-5.93-1.61a1.55,1.55,0,0,0-.88,0,1.52,1.52,0,0,0-.73.46q-2,2-4,4.06Z" style="fill:#fff"/><path d="M154.11,38.62c-.45-1.79-.84-3.6-1.31-5.38-.6-2.21-1.33-4.38-3.69-5.56l.51-.19a5.45,5.45,0,0,0,2.3-1.53,5.39,5.39,0,0,0,1.25-2.43,11.1,11.1,0,0,0-.09-5.55A5.72,5.72,0,0,0,149,13.81a10.12,10.12,0,0,0-3.09-.48c-3.73,0-7.45,0-11.18,0-.39,0-.49.09-.49.48v24.8c0,.39.08.53.51.52,1.69,0,3.37,0,5.06,0,.46,0,.54-.14.54-.56,0-2.74,0-5.49,0-8.23,0-.44.12-.55.56-.53.74,0,1.49,0,2.25,0a3,3,0,0,1,3.19,2.32,9.15,9.15,0,0,1,.33,1c.45,1.83.9,3.66,1.32,5.5.08.34.21.43.56.43,1.74,0,3.48,0,5.22,0C154.17,39.11,154.2,39,154.11,38.62ZM147.26,22.8c-.3,1.71-1.29,2.51-3.26,2.6-1.09.06-2.17,0-3.26.05-.32,0-.41-.09-.4-.4,0-1.17,0-2.34,0-3.51s0-2.27,0-3.41c0-.33.07-.44.43-.42a37.1,37.1,0,0,1,3.8.11,2.83,2.83,0,0,1,2.69,2.52,7.07,7.07,0,0,1,0,2.47Z" style="fill:#fff"/><path d="M132.45,38.6q-5-12.41-10-24.85a.6.6,0,0,0-.25-.36.58.58,0,0,0-.43-.1c-1.78,0-3.55,0-5.33,0a.6.6,0,0,0-.67.47c-.93,2.35-1.89,4.7-2.84,7q-3.6,8.86-7.19,17.75c-.15.37-.23.55.33.54,1.85,0,3.7,0,5.56,0a.48.48,0,0,0,.55-.39l1.48-4.14c.11-.32.23-.47.61-.46q4.84,0,9.67,0a.56.56,0,0,1,.38.08.55.55,0,0,1,.22.32c.48,1.41,1,2.8,1.49,4.2a.46.46,0,0,0,.19.3.53.53,0,0,0,.36.09c.94,0,1.88,0,2.81,0s1.84,0,2.76,0C132.58,39.12,132.62,39,132.45,38.6Zm-10.24-8.78c-2.26,0-4.49,0-6.82,0l3.66-10.07c.21.11.2.3.26.45,1.09,3,2.17,6.07,3.28,9.1.16.42.11.53-.38.52Z" style="fill:#fff"/><path d="M194.46,35.06c.67-2.22,1.31-4.3,1.94-6.38q2.25-7.44,4.49-14.88a.58.58,0,0,1,.08-.22.55.55,0,0,1,.16-.18.78.78,0,0,1,.21-.09.49.49,0,0,1,.24,0,16.19,16.19,0,0,0,2,0c.41,0,.53.14.64.49q3.13,10.36,6.28,20.72c0,.14.09.27.17.53l1.29-4.43q2.41-8.41,4.84-16.85a.51.51,0,0,1,.6-.45c.88,0,1.76,0,2.65,0,.42,0,.54,0,.39.5-.86,2.73-1.69,5.46-2.53,8.19L212.75,38.6c-.11.37-.25.54-.67.52q-1.35-.06-2.7,0a.58.58,0,0,1-.68-.51q-3-9.78-6-19.55c0-.14-.09-.28-.18-.54-.41,1.33-.79,2.53-1.16,3.75q-2.49,8.18-5,16.35a.57.57,0,0,1-.07.22.69.69,0,0,1-.16.18.6.6,0,0,1-.22.09.65.65,0,0,1-.24,0c-.93,0-1.87,0-2.81,0a.6.6,0,0,1-.19,0,.53.53,0,0,1-.17-.08.37.37,0,0,1-.12-.13.36.36,0,0,1-.07-.17q-3.81-12.53-7.65-25c-.11-.34,0-.41.29-.4.88,0,1.76,0,2.64,0a.7.7,0,0,1,.25,0,.55.55,0,0,1,.23.11.52.52,0,0,1,.18.18.79.79,0,0,1,.09.23q2.9,10.31,5.87,20.61C194.33,34.61,194.37,34.77,194.46,35.06Z" style="fill:#fff"/><path d="M72.22,39.08H66.55c-.4,0-.5-.1-.5-.48,0-1.25,0-2.5,0-3.74,0-.42.11-.52.53-.52,2.92,0,5.84,0,8.76,0,.28,0,.57,0,.84,0a1.5,1.5,0,0,0,1.46-.85,1.9,1.9,0,0,0,.16-1,1.84,1.84,0,0,0-.37-.9,5.83,5.83,0,0,0-1.28-1.15c-2.51-1.83-5-3.65-7.44-5.58a7.9,7.9,0,0,1-3-4.32A6.67,6.67,0,0,1,66,16.6a4.9,4.9,0,0,1,3.67-2.93,12.45,12.45,0,0,1,3.16-.35H82.91c.47,0,.56.14.55.56q0,1.81,0,3.63c0,.43-.1.55-.55.55-2.89,0-5.77,0-8.65,0a7.71,7.71,0,0,0-1.18.05,1.61,1.61,0,0,0-1.36,1,1.52,1.52,0,0,0-.12.84,1.67,1.67,0,0,0,.33.8,4.71,4.71,0,0,0,1.24,1.11c2.27,1.51,4.56,3,6.81,4.58A8.44,8.44,0,0,1,83.62,31a6.88,6.88,0,0,1-.29,4.75A5.41,5.41,0,0,1,78.77,39,37,37,0,0,1,74,39.1Z" style="fill:#fff"/><path d="M265.21,38.79c-.59-2.42-1-4.89-1.8-7.25a6.42,6.42,0,0,0-3.59-4.19s0-.06-.06-.12l.57-.16a5.38,5.38,0,0,0,3.74-3.77,10.23,10.23,0,0,0,0-5.49,5.5,5.5,0,0,0-4-4,9.7,9.7,0,0,0-2.93-.46c-3.28,0-6.55,0-9.83,0-.38,0-.47.11-.46.46,0,1.4,0,2.79,0,4.18V38.45c0,.55.15.69.68.64a17,17,0,0,1,2.26,0c.5,0,.62-.11.62-.6,0-3.19,0-6.38,0-9.57,0-.26-.06-.51.37-.5,1.72,0,3.45-.07,5.17.07a4.33,4.33,0,0,1,2.18.7,4.13,4.13,0,0,1,1.48,1.73,10.7,10.7,0,0,1,.84,2.38c.41,1.77.78,3.54,1.17,5.31.06.23.05.49.46.48.95,0,1.9,0,2.86,0C265.19,39.1,265.28,39.06,265.21,38.79Zm-7.85-13a12.58,12.58,0,0,1-2.29.2h-4.15c-.39,0-.51-.1-.5-.49,0-1.54,0-3.08,0-4.61V16.34c0-.27,0-.5.38-.48,1.91.05,3.82-.08,5.72.08a6.92,6.92,0,0,1,1.75.38,3.68,3.68,0,0,1,2.52,3,8.46,8.46,0,0,1,0,3A3.86,3.86,0,0,1,257.36,25.75Z" style="fill:#fff"/><path d="M99.35,28.61q0,5,0,9.9c0,.51-.15.6-.62.59q-2.44,0-4.89,0c-.5,0-.65-.11-.65-.63,0-6.6,0-13.2,0-19.8,0-.53-.13-.68-.67-.67-1.91,0-3.82,0-5.73,0-.45,0-.55-.13-.54-.55,0-1.25,0-2.5,0-3.74,0-.32,0-.45.41-.45q9.57,0,19.15,0c.35,0,.44.1.44.43,0,1.27,0,2.57,0,3.85,0,.38-.14.45-.49.45-1.93,0-3.87,0-5.78,0-.53,0-.7.09-.69.63C99.36,22,99.35,25.3,99.35,28.61Z" style="fill:#fff"/><path d="M243.54,38.65c-.81-1.93-1.6-3.87-2.39-5.8l-7.77-19a.62.62,0,0,0-.29-.4.67.67,0,0,0-.48-.1c-.81,0-1.61,0-2.42,0a.87.87,0,0,0-.61.12.85.85,0,0,0-.36.51c-1.54,3.83-3.11,7.64-4.67,11.46q-2.69,6.6-5.4,13.19c-.18.44-.13.55.36.53q1.38,0,2.76,0a.54.54,0,0,0,.43-.09.57.57,0,0,0,.25-.36c.72-1.93,1.49-3.83,2.21-5.75a.68.68,0,0,1,.27-.41.71.71,0,0,1,.49-.12c1.81,0,3.63,0,5.45,0h5.44a.61.61,0,0,1,.42.09.59.59,0,0,1,.23.35c.74,2,1.51,3.9,2.26,5.85A.54.54,0,0,0,240,39a.55.55,0,0,0,.41.1c1,0,1.91,0,2.87,0C243.61,39.11,243.7,39,243.54,38.65ZM226.33,29.9l5-12.91c1.69,4.36,3.32,8.62,5,12.91Z" style="fill:#fff"/><path d="M270.89,23.66V13.82c0-.41.09-.52.52-.52H287.2c.41,0,.5.12.48.49a11.36,11.36,0,0,0,0,1.65c0,.47-.09.61-.6.61-4,0-8,0-12,0-.56,0-.75.1-.74.7,0,2.22,0,4.43,0,6.65,0,.41.1.52.52.51,3.55,0,7.1,0,10.68,0,.44,0,.57.12.54.55a9.9,9.9,0,0,0,0,1.54c0,.4-.12.47-.5.47-3.55,0-7.08,0-10.62,0-.54,0-.64.16-.62.63,0,1.61,0,3.23,0,4.84a7.48,7.48,0,0,0,.1,1.42,3.41,3.41,0,0,0,3.45,3c2.38.15,4.75,0,7.13.06h2.26c.26,0,.36.07.35.34,0,.68,0,1.36,0,2,0,.25-.06.35-.34.35-3.78-.08-7.56.15-11.34-.15a6.47,6.47,0,0,1-2.66-.79A4.83,4.83,0,0,1,271,34.42a16.5,16.5,0,0,1-.14-2.63Z" style="fill:#fff"/><path d="M164.39,25.53c1.27-1.69,2.55-3.38,3.82-5.09,1.7-2.25,3.42-4.49,5.11-6.75a.83.83,0,0,1,.34-.3.87.87,0,0,1,.45-.09c2,0,4,0,6.06,0h.54l-3,3.71c-2.23,2.8-4.46,5.61-6.71,8.4a.59.59,0,0,0-.13.18.47.47,0,0,0,0,.42.59.59,0,0,0,.13.18q5,6.18,9.9,12.38l.32.42c-.12.16-.26.1-.37.1h-6.18a.79.79,0,0,1-.4-.07.75.75,0,0,1-.31-.25q-4.32-5.7-8.66-11.4a1,1,0,0,1-.07-.15,1.93,1.93,0,0,0-.59-1.08C164.53,26,164.33,25.81,164.39,25.53Z" style="fill:#fff"/><path d="M164.39,25.53a8.19,8.19,0,0,0,.73.92.58.58,0,0,1,.21.36.64.64,0,0,1-.05.41l-1.12-1.38V38.55c0,.44-.13.55-.56.54-1.65,0-3.3,0-4.94,0-.38,0-.47-.1-.47-.46V13.72c0-.31.08-.43.43-.43,1.69,0,3.37,0,5.06,0,.42,0,.48.14.48.5q0,5.73,0,11.44C164.16,25.61,164.16,25.61,164.39,25.53Z" style="fill:#fff"/></svg>