<svg width="59" height="20" viewBox="0 0 59 20" fill="none" xmlns="http://www.w3.org/2000/svg">
	<g clip-path="url(#clip0_181_49817)">
		<path d="M29.2555 4.52126H25.6112V14.1684H24.7163V4.52126H21.0813V3.78125H29.2555V4.52126Z" fill="white" />
		<path d="M32.623 14.3219C31.3193 14.3409 30.12 13.6252 29.5415 12.4818C29.2334 11.8799 29.0784 11.2148 29.0894 10.5416V10.2347C29.0784 9.54255 29.2306 8.8576 29.5323 8.2313C29.8008 7.66276 30.2261 7.17815 30.7593 6.83251C31.264 6.50041 31.8581 6.32173 32.4661 6.31812C33.4256 6.31812 34.1822 6.63397 34.7449 7.27471C35.3077 7.91544 35.5845 8.79082 35.5845 9.90082V10.3791H29.9474V10.5416C29.9474 11.4169 30.2058 12.1479 30.7132 12.7255C31.1883 13.2913 31.9024 13.6144 32.6507 13.6009C33.0769 13.6108 33.5004 13.5241 33.8869 13.3482C34.2744 13.1614 34.6093 12.8852 34.8649 12.545L35.4092 12.9511C34.7818 13.8617 33.85 14.3219 32.623 14.3219ZM32.4661 7.03917C31.8351 7.02924 31.2299 7.28554 30.8055 7.74308C30.3534 8.21235 30.0858 8.84406 29.9843 9.63821H34.7173V9.54797C34.6896 8.80796 34.4774 8.20332 34.0714 7.73405C33.6655 7.26478 33.1304 7.03917 32.4661 7.03917Z" fill="white" />
		<path d="M38.1678 13.4554H43.2974V14.1773H37.0884V13.5456L41.8767 7.1924H37.236V6.45239H42.9745V7.09313L38.1678 13.4554Z" fill="white" />
		<path d="M44.5521 10.1977C44.541 9.50554 44.6932 8.82059 44.9949 8.19429C45.268 7.62485 45.6998 7.14384 46.2404 6.80452C46.7875 6.46881 47.4223 6.29645 48.0672 6.30818C49.1189 6.30818 49.9677 6.66916 50.6228 7.39111C51.2778 8.11307 51.6007 9.06966 51.6007 10.2609V10.4414C51.6127 11.1363 51.4605 11.8248 51.1579 12.4538C50.8875 13.0224 50.4548 13.5025 49.9124 13.8355C49.3634 14.164 48.7296 14.3336 48.0856 14.3228C47.0431 14.3228 46.1851 13.9618 45.53 13.2399C44.875 12.5179 44.5521 11.5613 44.5521 10.3701V10.1977V10.1977ZM45.4285 10.4324C45.4285 11.3528 45.6776 12.1109 46.1574 12.7065C46.6371 13.3021 47.283 13.5909 48.0764 13.5909C48.8228 13.6081 49.5341 13.2805 49.9954 12.7065C50.4844 12.1109 50.7242 11.3348 50.7242 10.3602V10.1977C50.7298 9.64001 50.6172 9.08591 50.3921 8.57332C50.1947 8.11487 49.8681 7.72051 49.4511 7.43624C49.0433 7.1646 48.5598 7.02292 48.0672 7.03014C47.3217 7.0166 46.6141 7.3478 46.1574 7.92356C45.6684 8.51917 45.4193 9.3043 45.4193 10.2699C45.4193 10.2699 45.4285 10.4324 45.4285 10.4324Z" fill="white" />
		<path d="M58.1328 12.2111C58.1439 11.8068 57.9464 11.4233 57.6069 11.1913C57.2563 10.9386 56.7397 10.7311 56.0293 10.5867C55.4674 10.4838 54.9194 10.3178 54.3963 10.0903C54.0088 9.90082 53.7228 9.67521 53.5383 9.40448C53.3436 9.11209 53.244 8.76916 53.2523 8.42081C53.2523 7.80715 53.5106 7.31081 54.0365 6.91373C54.5624 6.51665 55.2266 6.31812 56.0385 6.31812C56.915 6.31812 57.6254 6.5347 58.1605 6.95885C58.6836 7.35954 58.9816 7.97862 58.9631 8.62838H58.0867C58.0904 8.18257 57.8736 7.76293 57.5054 7.50032C57.1179 7.20251 56.629 7.0491 56.0385 7.0491C55.4665 7.0491 55.0052 7.17544 54.6546 7.4191C54.3225 7.63659 54.1251 8.00298 54.1287 8.39374C54.1112 8.74389 54.2745 9.0787 54.5624 9.28716C54.8484 9.49472 55.3835 9.69326 56.1492 9.87375C56.915 10.0542 57.487 10.2347 57.8745 10.4333C58.2149 10.5993 58.5074 10.8484 58.7233 11.1552C59.2399 12.0216 59.0139 13.1298 58.1974 13.7362C57.6623 14.1243 56.9611 14.3228 56.0939 14.3228C55.1713 14.3228 54.424 14.1062 53.8612 13.673C53.2984 13.2399 53.0032 12.6894 53.0032 12.0216H53.8796C53.8981 12.4872 54.1361 12.9177 54.5255 13.1857C54.9222 13.4655 55.4481 13.6009 56.1031 13.6009C56.712 13.6009 57.201 13.4655 57.5792 13.2128C57.9483 12.9412 58.1328 12.6073 58.1328 12.2111Z" fill="white" />
		<path d="M14.6324 14.755C14.4202 11.082 9.69648 9.41251 9.24441 9.24104C9.22596 9.23202 9.22596 9.21397 9.23518 9.19592L14.1065 4.41296V3.89857C14.1037 3.81464 14.0354 3.74786 13.9496 3.74515H4.97279V0.866348V0L1.66067 0.676834V1.16415H1.84519C1.84519 1.16415 2.65708 1.16415 2.65708 1.95831V3.73612H0.0922596C0.0424394 3.73973 0.00369038 3.77764 0 3.82637V4.95443H2.6663V11.082C2.6663 13.0042 3.93026 14.3399 6.14449 14.1594C6.60025 14.1152 7.03848 13.9599 7.41767 13.7081C7.58466 13.6035 7.68522 13.4239 7.68522 13.2299V12.6252C6.9656 13.0945 6.35669 13.0674 6.35669 13.0674C4.95434 13.0674 4.98202 11.3257 4.98202 11.3257V4.95443H11.4402L6.7903 9.53885C6.78108 10.1435 6.77185 10.6128 6.77185 10.6218C6.77001 10.6353 6.78016 10.6471 6.794 10.6489C6.79584 10.6489 6.79769 10.6489 6.79953 10.6489C11.0619 11.3528 12.2152 14.0511 12.2152 14.8362C12.2152 14.8362 12.6765 18.6536 8.77389 18.9153C8.77389 18.9153 6.2183 19.0236 5.76622 18.0218C5.74962 17.9894 5.76438 17.9496 5.79759 17.9343C5.79944 17.9334 5.80128 17.9325 5.80313 17.9316C6.23767 17.7538 6.51906 17.3369 6.51353 16.8757C6.51353 16.1357 6.05223 15.5311 5.0835 15.5311C4.2993 15.5311 3.65348 16.1357 3.65348 16.8757C3.65348 16.8757 3.28444 20.0884 8.76466 19.9982C15.0199 19.8899 14.6324 14.755 14.6324 14.755Z" fill="white" />
	</g>
	<defs>
		<clipPath id="clip0_181_49817">
			<rect width="59" height="20" fill="white" />
		</clipPath>
	</defs>
</svg>
