<svg width="527" height="149" viewBox="0 0 527 149" fill="none" xmlns="http://www.w3.org/2000/svg">
	<g clip-path="url(#clip0_175_49674)">
		<path d="M160 81.37C152.09 81.37 145.91 77 145.91 67.69V47.83H140.23V39.75H145.91V29.48H155V39.75H163.93V47.83H155V66.2C155 71.31 157.22 73.2 161.92 73.2C163.576 73.203 165.219 72.9223 166.78 72.37V80.45C164.582 81.1114 162.294 81.4219 160 81.37Z" fill="white" />
		<path d="M176.11 19.1499H185.17V45.3599C187.64 41.2399 192.34 38.9299 197.7 38.9299C207.26 38.9299 213.44 45.6899 213.44 56.1499V80.9999H204.37V57.6299C204.37 51.1199 201.08 47.1699 195.8 47.1699C189.8 47.1699 185.17 51.8699 185.17 60.6799V80.9999H176.11V19.1499Z" fill="white" />
		<path d="M243.94 81.7799C231.66 81.7799 222.84 72.7099 222.84 60.3499C222.84 48.1599 231.33 38.9299 244.02 38.9299C256.71 38.9299 265.45 48.5699 264.62 62.5799H231.83C232.16 68.8399 236.94 73.7899 244.27 73.7899C248.8 73.7899 252.76 71.9699 254.65 68.0199H264.13C261.82 75.7599 254.41 81.7799 243.94 81.7799ZM232.16 56.1499H254.9C253.5 49.4799 248.8 46.5099 243.78 46.5099C238.01 46.2752 232.995 50.436 232.16 56.1499Z" fill="white" />
		<path d="M308.87 84.1699C310.52 89.0299 314.47 91.2499 320.24 91.2499C326.42 91.2499 331.45 87.1299 331.45 79.1399V74.2799C328.98 77.9099 323.95 80.7099 318.26 80.7099C307.14 80.7099 298.49 71.4799 298.49 59.7799C298.49 48.0799 307.14 38.9299 318.26 38.9299C323.95 38.9299 328.98 41.6499 331.45 45.2699V39.7499H340.51V78.3999C340.51 92.7399 331 98.9999 320 98.9999C308.7 98.9999 301 92.7399 300 84.1699H308.87ZM319.87 47.1699C312.87 47.1699 307.59 52.4399 307.59 59.7799C307.59 67.1199 312.87 72.3799 319.87 72.3799C326.87 72.3799 332.15 67.1099 332.15 59.7799C332.15 52.4499 326.91 47.1699 319.91 47.1699H319.87Z" fill="white" />
		<path d="M353 39.75H362V47.09C363.62 42.4679 367.972 39.3647 372.87 39.34C374.061 39.3295 375.251 39.44 376.42 39.67V49C374.957 48.51 373.423 48.2601 371.88 48.26C366.69 48.26 362 52.63 362 60.87V81H353V39.75Z" fill="white" />
		<path d="M403.89 38.93C409.033 38.8666 413.909 41.2124 417.07 45.27V39.75H426.13V81H417.07V75.43C413.913 79.4938 409.035 81.844 403.89 81.78C392.6 81.78 384 72.14 384 60.35C384 48.56 392.6 38.93 403.89 38.93ZM405.53 47.17C398.2 47.17 393.26 52.94 393.26 60.35C393.26 67.76 398.2 73.54 405.53 73.54C412.86 73.54 417.81 67.77 417.81 60.35C417.81 52.93 412.87 47.17 405.53 47.17Z" fill="white" />
		<path d="M436.65 39.7499H445.72V45.2699C448 41.9999 453.05 38.9299 459 38.9299C470.29 38.9299 478.86 48.5699 478.86 60.3499C478.86 72.1299 470.27 81.7799 459 81.7799C453.07 81.7799 448 78.7799 445.74 75.4299V98.1799H436.67L436.65 39.7499ZM457.33 47.1699C450 47.1699 445 52.9399 445 60.3499C445 67.7599 450 73.5399 457.35 73.5399C464.7 73.5399 469.63 67.7699 469.63 60.3499C469.63 52.9299 464.59 47.1699 457.33 47.1699Z" fill="white" />
		<path d="M489.36 19.1499H498.42V45.3599C500.9 41.2399 505.59 38.9299 510.95 38.9299C520.51 38.9299 526.69 45.6899 526.69 56.1499V80.9999H517.62V57.6299C517.62 51.1199 514.33 47.1699 509.05 47.1699C503.05 47.1699 498.42 51.8699 498.42 60.6799V80.9999H489.36V19.1499Z" fill="white" />
		<path d="M107.25 16.5C111.806 16.5 115.5 12.8063 115.5 8.25C115.5 3.69365 111.806 0 107.25 0C102.694 0 99 3.69365 99 8.25C99 12.8063 102.694 16.5 107.25 16.5Z" fill="white" />
		<path d="M49.5 0C22.1619 0 0 22.1619 0 49.5C0 76.8381 22.1619 99 49.5 99C76.8381 99 99 76.8381 99 49.5C99 36.3718 93.7848 23.7813 84.5018 14.4982C75.2187 5.21516 62.6282 0 49.5 0ZM49.5 82.5C31.2746 82.5 16.5 67.7254 16.5 49.5C16.5 31.2746 31.2746 16.5 49.5 16.5C67.7254 16.5 82.5 31.2746 82.5 49.5C82.5 58.2521 79.0232 66.6458 72.8345 72.8345C66.6458 79.0232 58.2521 82.5 49.5 82.5Z" fill="white" />
		<path d="M96.5799 101.42C95.0357 99.8702 92.9378 98.999 90.7499 98.999C88.562 98.999 86.4642 99.8702 84.9199 101.42L51.9199 134.42C49.8371 136.503 49.0236 139.539 49.786 142.384C50.5484 145.229 52.7708 147.452 55.616 148.214C58.4612 148.976 61.4971 148.163 63.5799 146.08L96.5799 113.08C98.1298 111.536 99.001 109.438 99.001 107.25C99.001 105.062 98.1298 102.964 96.5799 101.42Z" fill="white" />
	</g>
	<defs>
		<clipPath id="clip0_175_49674">
			<rect width="527" height="149" fill="white" />
		</clipPath>
	</defs>
</svg>
