<svg width="244" height="40" viewBox="0 0 244 40" fill="none" xmlns="http://www.w3.org/2000/svg">
<g clip-path="url(#clip0_3811_10241)">
<path fill-rule="evenodd" clip-rule="evenodd" d="M0.249969 0.277344H19.6144C30.309 0.277344 38.9787 9.10729 38.9787 19.9996C38.9787 30.8918 30.309 39.7218 19.6144 39.7218C8.91969 39.7218 0.249969 30.8918 0.249969 19.9996V0.277344ZM2.13564 2.19786V19.9996C2.13564 29.8312 9.96114 37.8013 19.6144 37.8013C29.2675 37.8013 37.093 29.8312 37.093 19.9996C37.093 10.168 29.2675 2.19786 19.6144 2.19786H2.13564Z" fill="#E5E5E5"/>
<path fill-rule="evenodd" clip-rule="evenodd" d="M3.74774 3.83984H19.6144C28.3772 3.83984 35.4809 11.0748 35.4809 19.9996C35.4809 28.9245 28.3772 36.1595 19.6144 36.1595C10.8515 36.1595 3.74774 28.9245 3.74774 19.9996V3.83984ZM5.63341 5.76037V19.9996C5.63341 27.8638 11.8929 34.239 19.6144 34.239C27.3358 34.239 33.5953 27.8638 33.5953 19.9996C33.5953 12.1355 27.3358 5.76037 19.6144 5.76037H5.63341Z" fill="#E5E5E5"/>
<path fill-rule="evenodd" clip-rule="evenodd" d="M7.47864 7.63965H19.6143C26.3166 7.63965 31.75 13.1734 31.75 19.9996C31.75 26.8258 26.3166 32.3595 19.6143 32.3595C12.912 32.3595 7.47864 26.8258 7.47864 19.9996V7.63965ZM9.3643 9.5602V19.9996C9.3643 25.7652 13.9534 30.439 19.6143 30.439C25.2752 30.439 29.8643 25.7652 29.8643 19.9996C29.8643 14.2341 25.2752 9.5602 19.6143 9.5602H9.3643Z" fill="#E5E5E5"/>
<path fill-rule="evenodd" clip-rule="evenodd" d="M11.2097 11.4404H19.6144C24.2562 11.4404 28.019 15.2729 28.019 20.0005C28.019 24.7281 24.2562 28.5605 19.6144 28.5605C14.9725 28.5605 11.2097 24.7281 11.2097 20.0005V11.4404ZM13.0953 13.361V20.0005C13.0953 23.6674 16.014 26.64 19.6144 26.64C23.2147 26.64 26.1334 23.6674 26.1334 20.0005C26.1334 16.3336 23.2147 13.361 19.6144 13.361H13.0953Z" fill="#E5E5E5"/>
<path fill-rule="evenodd" clip-rule="evenodd" d="M14.7657 15.0615H19.6144C22.2922 15.0615 24.463 17.2725 24.463 19.9998C24.463 22.7271 22.2922 24.9381 19.6144 24.9381C16.9365 24.9381 14.7657 22.7271 14.7657 19.9998V15.0615ZM16.6514 16.982V19.9998C16.6514 21.6665 17.9779 23.0176 19.6144 23.0176C21.2507 23.0176 22.5774 21.6665 22.5774 19.9998C22.5774 18.3331 21.2507 16.982 19.6144 16.982H16.6514Z" fill="#E5E5E5"/>
<path d="M62.0655 23.2777C61.3539 23.2777 60.7311 23.2777 60.0639 23.2097C60.0639 22.3475 60.0639 21.3265 60.0639 20.0331C60.0639 18.8306 60.0861 17.5826 60.1083 16.4027C60.7533 16.3801 61.3983 16.3574 62.0655 16.3574C63.6889 16.3574 64.4005 16.902 64.4005 19.7608C64.4005 22.6651 63.6666 23.2777 62.0655 23.2777ZM51.0565 11.6152C51.101 13.9523 51.1232 16.5389 51.1232 20.1466C51.1232 23.7542 51.101 26.2274 51.0565 28.6325H63.2666C70.9616 28.6325 73.5633 26.8173 73.5633 19.4432C73.5633 13.0901 70.5389 11.6152 63.4 11.6152H51.0565Z" fill="#E5E5E5"/>
<path d="M85.3955 21.6441H83.7722C84.0389 20.192 84.3278 18.7398 84.6394 17.3784C84.9061 16.3347 85.1511 15.2456 85.3289 14.3607H85.3733C85.5511 15.2456 85.7961 16.3574 86.085 17.3557C86.4183 18.7171 86.73 20.192 86.9744 21.6441H85.3955ZM98.1617 28.6325C96.6489 24.3215 94.0028 13.975 93.4689 11.6152H77.8783C77.4333 13.9296 74.8539 24.3215 73.4083 28.6325H82.8155C82.8378 27.9291 82.9489 26.8627 83.1272 25.6148H85.3955H87.575C87.7305 26.8627 87.82 27.9291 87.8422 28.6325H98.1617Z" fill="#E5E5E5"/>
<path d="M122.143 19.7608C122.143 13.4077 118.562 11.2295 109.977 11.2295C101.393 11.2295 97.99 13.4077 97.99 19.7608C97.99 26.1367 100.859 29.0182 109.955 29.0182C119.073 29.0182 122.143 26.1367 122.143 19.7608ZM109.999 23.3458C108.153 23.3458 107.419 22.3928 107.419 19.7381C107.419 17.2195 108.153 16.38 109.999 16.38C111.846 16.38 112.579 17.2195 112.579 19.7381C112.579 22.3702 111.846 23.3458 109.999 23.3458Z" fill="#E5E5E5"/>
<path d="M140.582 23.2777C139.87 23.2777 139.248 23.2777 138.581 23.2097C138.581 22.3475 138.581 21.3265 138.581 20.0331C138.581 18.8306 138.603 17.5826 138.625 16.4027C139.27 16.3801 139.915 16.3574 140.582 16.3574C142.206 16.3574 142.917 16.902 142.917 19.7608C142.917 22.6651 142.183 23.2777 140.582 23.2777ZM129.573 11.6152C129.618 13.9523 129.64 16.5389 129.64 20.1466C129.64 23.7542 129.618 26.2274 129.573 28.6325H141.783C149.478 28.6325 152.08 26.8173 152.08 19.4432C152.08 13.0901 149.056 11.6152 141.916 11.6152H129.573Z" fill="#E5E5E5"/>
<path d="M164.312 19.5793C163.378 19.5793 162.533 19.5793 161.866 19.5566C161.844 18.3541 161.844 17.1288 161.844 15.9036C162.711 15.8582 163.734 15.8355 164.179 15.8355C165.602 15.8355 166.158 16.2212 166.158 17.6734C166.158 19.0348 165.647 19.5793 164.312 19.5793ZM170.006 21.3037C173.587 20.8726 174.966 19.6247 174.966 16.5162C174.966 12.7951 172.163 11.6152 166.981 11.6152H153.014C153.103 14.0657 153.126 16.5162 153.126 20.1239C153.126 23.7769 153.081 26.182 153.014 28.6325H162.244C162.066 27.4073 161.977 25.524 161.911 23.3458C162.711 23.3231 163.156 23.3231 163.823 23.3231C165.291 23.3231 165.624 23.9131 165.914 26.5677C166.136 28.2468 166.559 28.6325 167.982 28.6325H175.477C175.277 27.8611 175.054 26.3636 174.832 25.2517C174.409 22.6425 173.097 21.8483 170.006 21.4852V21.3037Z" fill="#E5E5E5"/>
<path d="M199.834 19.7608C199.834 13.4077 196.253 11.2295 187.668 11.2295C179.084 11.2295 175.681 13.4077 175.681 19.7608C175.681 26.1367 178.55 29.0182 187.646 29.0182C196.764 29.0182 199.834 26.1367 199.834 19.7608ZM187.691 23.3458C185.844 23.3458 185.111 22.3928 185.111 19.7381C185.111 17.2195 185.844 16.38 187.691 16.38C189.537 16.38 190.271 17.2195 190.271 19.7381C190.271 22.3702 189.537 23.3458 187.691 23.3458Z" fill="#E5E5E5"/>
<path d="M211.418 20.85C210.662 20.85 210.017 20.8272 209.483 20.8272C209.483 19.3524 209.461 17.7868 209.461 16.1078C210.217 16.0851 211.129 16.0851 211.551 16.0851C213.086 16.0851 213.686 16.5162 213.686 18.4675C213.686 20.3054 213.131 20.85 211.418 20.85ZM200.743 11.6152C200.809 14.043 200.854 16.5162 200.854 20.1239C200.854 23.7542 200.809 26.1593 200.743 28.6325H209.817C209.728 27.6796 209.638 26.5224 209.594 25.2064C210.884 25.2291 212.063 25.2291 212.952 25.2291C220.292 25.2291 222.182 23.3005 222.182 18.1272C222.182 12.7043 219.336 11.6152 214.309 11.6152H200.743Z" fill="#E5E5E5"/>
<path d="M230.194 23.0728C229.683 23.0955 228.994 23.1182 228.215 23.1182C226.258 23.1182 224.212 22.9821 222.699 22.8913C222.655 23.3451 222.633 23.7989 222.633 24.2073C222.633 27.7469 224.723 29.0402 233.131 29.0402C241.159 29.0402 243.583 27.4292 243.583 23.572C243.583 19.8282 241.893 18.5576 235.754 18.013C231.907 17.6727 231.529 17.1735 231.529 16.3567C231.529 15.7667 231.952 15.4037 233.531 15.4037C235.377 15.4037 235.777 15.8121 235.777 16.6516V17.06C236.333 17.0147 237.2 17.0147 238.179 17.0147C239.869 17.0147 241.982 17.0827 243.227 17.1962C243.249 16.8104 243.249 16.4247 243.249 16.0844C243.249 12.6355 241.27 11.2061 232.886 11.2061C225.524 11.2061 222.566 12.749 222.566 16.7877C222.566 20.0324 223.812 21.598 230.684 22.1198C234.109 22.3694 234.532 22.8913 234.532 23.7535C234.532 24.4342 234.131 24.7746 232.418 24.7746C230.706 24.7746 230.194 24.3661 230.194 23.4132V23.0728Z" fill="#E5E5E5"/>
</g>
<defs>
<clipPath id="clip0_3811_10241">
<rect width="243.889" height="40" fill="white" transform="translate(0.111084)"/>
</clipPath>
</defs>
</svg>
