<svg width="249" height="40" viewBox="0 0 249 40" fill="none" xmlns="http://www.w3.org/2000/svg">
<path d="M0.478977 25.7862C0.214701 25.7862 0.0432783 26.0648 0.164702 26.3005L1.78607 29.5432C2.08606 30.1432 2.70032 30.5218 3.37173 30.5218H43.8131C44.4845 30.5218 45.0988 30.1432 45.3988 29.5432L47.0201 26.3005C47.1416 26.0648 46.963 25.7862 46.7059 25.7862H0.478977Z" fill="#E5E5E5"/>
<path d="M16.5998 38.6643C17.2712 39.5072 18.2926 40 19.3711 40H27.7994C28.8779 40 29.8993 39.5072 30.5707 38.6643L31.8707 37.0358H15.2927L16.5927 38.6643H16.5998Z" fill="#E5E5E5"/>
<path d="M8.52154 34.3645C9.05009 35.2859 10.0286 35.8573 11.0929 35.8573H36.0777C37.1419 35.8573 38.1205 35.2859 38.649 34.3645L40.1632 31.7146H7.00731L8.52154 34.3645Z" fill="#E5E5E5"/>
<path d="M41.3561 4.74414C41.3561 4.57986 41.2704 4.42272 41.1204 4.33701L33.8992 0.0514541C33.6635 -0.0913978 33.3635 0.0800245 33.3635 0.358586V24.6077H41.3561V4.74414Z" fill="#E5E5E5"/>
<path d="M13.8213 7.31548C13.8213 7.0512 13.6071 6.84406 13.3499 6.84406H12.5214V6.13695C12.5214 5.87267 12.3071 5.66554 12.05 5.66554H10.45V4.83699C10.45 4.64414 10.2929 4.47986 10.0929 4.47986H9.6215C9.42865 4.47986 9.26437 4.637 9.26437 4.83699V5.66554H7.66443C7.40015 5.66554 7.19302 5.87981 7.19302 6.13695V6.84406H6.30019C6.03592 6.84406 5.82878 7.05834 5.82878 7.31548V24.6077H13.8213V7.31548Z" fill="#E5E5E5"/>
<path d="M32.1778 10.8653C32.1778 10.6011 31.9635 10.3939 31.7064 10.3939H30.9993V9.68682C30.9993 9.42254 30.785 9.21541 30.5279 9.21541H27.328C27.0637 9.21541 26.8566 9.42968 26.8566 9.68682V10.3939H26.1495C25.8852 10.3939 25.6781 10.6082 25.6781 10.8653V24.6006H32.1921V10.8653H32.1778Z" fill="#E5E5E5"/>
<path d="M24.4781 17.7365C24.4781 17.5865 24.4067 17.4437 24.2853 17.358L22.1068 15.7223L20.0925 14.2152C19.8854 14.0581 19.5926 14.0581 19.3854 14.2152L17.3712 15.7223L15.1927 17.358C15.0713 17.4508 14.9999 17.5865 14.9999 17.7365V24.6077H24.471V17.7365H24.4781Z" fill="#E5E5E5"/>
<path d="M81.6293 34.8027H75.7723V22.6175H64.3442V34.8027H58.4872V6.3609H64.3442V17.8819H75.7723V6.3609H81.6293V34.8027Z" fill="#E5E5E5"/>
<path d="M85.5005 24.0388C85.5005 21.946 85.9005 20.0747 86.7148 18.4319C87.5219 16.7891 88.6861 15.5249 90.2004 14.6249C91.7146 13.7249 93.4788 13.2749 95.4859 13.2749C98.3358 13.2749 100.664 14.1463 102.471 15.8891C104.271 17.6319 105.278 20.0033 105.486 22.996L105.521 24.4388C105.521 27.6816 104.614 30.2815 102.807 32.2385C101 34.1956 98.5715 35.1813 95.5216 35.1813C92.4717 35.1813 90.0432 34.2027 88.229 32.2528C86.4148 30.3029 85.5077 27.6458 85.5077 24.2817V24.0245L85.5005 24.0388ZM91.1432 24.4388C91.1432 26.4459 91.5218 27.9815 92.2789 29.0458C93.036 30.11 94.1145 30.6386 95.5216 30.6386C96.9287 30.6386 97.9572 30.11 98.7215 29.0601C99.4929 28.0101 99.8715 26.3316 99.8715 24.0245C99.8715 22.0532 99.4858 20.5318 98.7215 19.4461C97.9501 18.3676 96.8716 17.8248 95.4788 17.8248C94.086 17.8248 93.0289 18.3605 92.2789 19.439C91.5218 20.5175 91.1432 22.1818 91.1432 24.4388Z" fill="#E5E5E5"/>
<path d="M114.285 13.6678L114.464 16.032C115.964 14.1963 117.985 13.2749 120.535 13.2749C123.256 13.2749 125.128 14.3463 126.142 16.4962C127.628 14.3463 129.742 13.2749 132.492 13.2749C134.784 13.2749 136.492 13.9392 137.606 15.2749C138.727 16.6105 139.284 18.6176 139.284 21.3032V34.7956H133.62V21.3175C133.62 20.1175 133.385 19.2461 132.92 18.689C132.456 18.1319 131.627 17.8605 130.442 17.8605C128.749 17.8605 127.578 18.6676 126.928 20.2818L126.949 34.7956H121.306V21.3389C121.306 20.1175 121.064 19.2319 120.585 18.6819C120.106 18.1319 119.285 17.8605 118.121 17.8605C116.521 17.8605 115.364 18.5247 114.642 19.8533V34.7956H109V13.6606H114.292L114.285 13.6678Z" fill="#E5E5E5"/>
<path d="M153.348 35.1884C150.248 35.1884 147.727 34.2385 145.777 32.3385C143.827 30.4386 142.856 27.903 142.856 24.7388V24.1888C142.856 22.0675 143.263 20.1675 144.084 18.4962C144.906 16.8248 146.07 15.532 147.57 14.632C149.07 13.7321 150.791 13.2749 152.72 13.2749C155.612 13.2749 157.884 14.1892 159.548 16.0106C161.212 17.8319 162.041 20.4175 162.041 23.7674V26.0745H148.584C148.763 27.453 149.32 28.5601 150.234 29.3958C151.148 30.2315 152.312 30.6457 153.719 30.6457C155.891 30.6457 157.591 29.86 158.819 28.2815L161.591 31.3886C160.741 32.5885 159.598 33.5242 158.155 34.1885C156.712 34.8527 155.105 35.1956 153.348 35.1956V35.1884ZM152.705 17.8248C151.584 17.8248 150.677 18.2033 149.984 18.9604C149.284 19.7176 148.841 20.8032 148.648 22.2175H156.498V21.7675C156.469 20.5104 156.134 19.539 155.484 18.8533C154.834 18.1676 153.905 17.8248 152.712 17.8248H152.705Z" fill="#E5E5E5"/>
<path d="M184.283 24.4317C184.283 27.8173 183.561 30.46 182.111 32.3528C180.661 34.2456 178.647 35.1956 176.054 35.1956C173.762 35.1956 171.933 34.317 170.569 32.5599L170.312 34.8027H165.233V4.80382H170.876V15.5677C172.176 14.0463 173.89 13.2821 176.012 13.2821C178.59 13.2821 180.611 14.232 182.076 16.1248C183.54 18.0176 184.276 20.6818 184.276 24.1245V24.4388L184.283 24.4317ZM178.64 24.0245C178.64 21.8889 178.304 20.3318 177.626 19.3461C176.947 18.3605 175.94 17.8748 174.597 17.8748C172.797 17.8748 171.562 18.6105 170.883 20.0818V28.4244C171.576 29.91 172.826 30.6529 174.633 30.6529C176.44 30.6529 177.654 29.7529 178.226 27.9601C178.497 27.103 178.633 25.7888 178.633 24.0317L178.64 24.0245Z" fill="#E5E5E5"/>
<path d="M200.004 34.8027C199.746 34.2956 199.554 33.667 199.439 32.9099C198.075 34.4313 196.297 35.1956 194.111 35.1956C192.04 35.1956 190.325 34.5956 188.961 33.3956C187.597 32.1957 186.918 30.6886 186.918 28.8672C186.918 26.6245 187.747 24.9102 189.411 23.7103C191.075 22.5103 193.468 21.9103 196.611 21.8961H199.211V20.6818C199.211 19.7033 198.961 18.9247 198.461 18.339C197.961 17.7533 197.168 17.4605 196.089 17.4605C195.139 17.4605 194.397 17.6891 193.854 18.1462C193.311 18.6033 193.047 19.2247 193.047 20.0175H187.404C187.404 18.7962 187.783 17.6605 188.54 16.6177C189.297 15.5749 190.361 14.7606 191.74 14.1678C193.118 13.5749 194.668 13.2821 196.389 13.2821C198.996 13.2821 201.061 13.9392 202.589 15.2463C204.118 16.5534 204.882 18.3962 204.882 20.7604V29.9172C204.896 31.9243 205.175 33.4385 205.725 34.467V34.7956H200.025L200.004 34.8027ZM195.332 30.8743C196.168 30.8743 196.932 30.6886 197.639 30.3172C198.346 29.9458 198.861 29.4458 199.204 28.8244V25.1888H197.096C194.268 25.1888 192.768 26.1673 192.582 28.1173L192.561 28.4458C192.561 29.1458 192.811 29.7315 193.304 30.1815C193.797 30.6386 194.475 30.8672 195.332 30.8672V30.8743Z" fill="#E5E5E5"/>
<path d="M220.646 28.9601C220.646 28.2672 220.303 27.7244 219.617 27.3316C218.931 26.9387 217.839 26.5816 216.324 26.2673C211.296 25.2102 208.789 23.0746 208.789 19.8604C208.789 17.989 209.567 16.4177 211.125 15.1606C212.682 13.9035 214.717 13.2749 217.224 13.2749C219.903 13.2749 222.053 13.9035 223.66 15.1677C225.267 16.432 226.074 18.0748 226.074 20.089H220.431C220.431 19.2819 220.174 18.6176 219.653 18.089C219.131 17.5605 218.317 17.2962 217.21 17.2962C216.26 17.2962 215.524 17.5105 215.003 17.9391C214.482 18.3676 214.224 18.9176 214.224 19.5819C214.224 20.2104 214.517 20.7104 215.11 21.0961C215.703 21.4818 216.703 21.8103 218.11 22.0889C219.517 22.3675 220.703 22.6817 221.667 23.0389C224.646 24.1317 226.138 26.0245 226.138 28.7244C226.138 30.6529 225.31 32.21 223.66 33.4028C222.003 34.5956 219.874 35.1884 217.253 35.1884C215.482 35.1884 213.91 34.8741 212.539 34.2385C211.167 33.6099 210.089 32.7385 209.303 31.6386C208.518 30.5386 208.132 29.3529 208.132 28.0744H213.482C213.532 29.0744 213.903 29.8458 214.596 30.3815C215.289 30.9172 216.21 31.1814 217.367 31.1814C218.446 31.1814 219.267 30.9743 219.817 30.5672C220.367 30.16 220.646 29.6172 220.646 28.9529V28.9601Z" fill="#E5E5E5"/>
<path d="M239.495 35.1884C236.395 35.1884 233.874 34.2385 231.924 32.3385C229.974 30.4386 229.002 27.903 229.002 24.7388V24.1888C229.002 22.0675 229.41 20.1675 230.231 18.4962C231.052 16.8248 232.217 15.532 233.717 14.632C235.217 13.7321 236.938 13.2749 238.866 13.2749C241.759 13.2749 244.031 14.1892 245.695 16.0106C247.359 17.8319 248.187 20.4175 248.187 23.7674V26.0745H234.731C234.909 27.453 235.467 28.5601 236.381 29.3958C237.295 30.2315 238.459 30.6457 239.866 30.6457C242.038 30.6457 243.738 29.86 244.966 28.2815L247.738 31.3886C246.888 32.5885 245.745 33.5242 244.302 34.1885C242.859 34.8527 241.252 35.1956 239.495 35.1956V35.1884ZM238.852 17.8248C237.731 17.8248 236.824 18.2033 236.131 18.9604C235.431 19.7176 234.988 20.8032 234.795 22.2175H242.645V21.7675C242.616 20.5104 242.281 19.539 241.631 18.8533C240.981 18.1676 240.052 17.8248 238.859 17.8248H238.852Z" fill="#E5E5E5"/>
</svg>
