<svg width="156" height="40" viewBox="0 0 156 40" fill="none" xmlns="http://www.w3.org/2000/svg">
<path d="M20.0173 39.8228C30.9748 39.8228 39.8575 30.9477 39.8575 19.9998C39.8575 9.05182 30.9748 0.176758 20.0173 0.176758C9.0598 0.176758 0.177002 9.05182 0.177002 19.9998C0.177002 30.9477 9.0598 39.8228 20.0173 39.8228Z" fill="black"/>
<path fill-rule="evenodd" clip-rule="evenodd" d="M20.0173 0.353982C9.15739 0.353982 0.353982 9.14995 0.353982 20C0.353982 30.8501 9.15739 39.646 20.0173 39.646C30.8771 39.646 39.6805 30.8501 39.6805 20C39.6805 9.14995 30.8771 0.353982 20.0173 0.353982ZM0 20C0 8.95416 8.96218 0 20.0173 0C31.0723 0 40.0345 8.95416 40.0345 20C40.0345 31.0458 31.0723 40 20.0173 40C8.96218 40 0 31.0458 0 20Z" fill="#E5E5E5"/>
<path fill-rule="evenodd" clip-rule="evenodd" d="M20.3719 10.8308L20.1152 14.1354L19.9388 14.1361L19.6569 10.8292L19.6605 14.1475L19.4846 14.162L18.9436 10.8845L19.2075 14.196L19.0333 14.2243L18.2375 11.0016L18.7601 14.2799L18.5888 14.3217L17.5431 11.1734L18.3212 14.398L18.1536 14.4532L16.8615 11.3931L17.8922 14.5511L17.7295 14.6193L16.2033 11.673L17.4771 14.7362L17.3202 14.817L15.5665 11.9981L17.0773 14.9534L16.9273 15.0462L14.9571 12.3729L16.6962 15.2022L16.5539 15.3065L14.3812 12.7975L16.3355 15.4788L16.2018 15.5939L13.838 13.2618L15.998 15.7841L15.8738 15.9093L13.3366 13.7713L15.6858 16.1142L15.5718 16.2488L12.8739 14.3162L15.4 16.4675L15.2969 16.6107L12.4556 14.8959L15.1429 16.8422L15.0514 16.993L12.0823 15.5056L14.9158 17.2364L14.8364 17.3939L11.7593 16.1433L14.7211 17.6477L14.6542 17.8109L11.4927 16.8065L14.5583 18.0715L14.5044 18.2395L11.2706 17.4856L14.4302 18.5079L14.3897 18.6796L11.1082 18.1814L14.3366 18.9525L14.3096 19.1268L10.999 18.8876L14.2777 19.4031L14.2646 19.579L10.9449 19.6003L14.2541 19.8569L14.2548 20.0333L10.9468 20.3149L14.267 20.3113L14.2815 20.4871L11.0064 21.0268L14.3156 20.7631L14.3438 20.9373L11.1201 21.7324L14.3988 21.2101L14.4406 21.3815L11.2877 22.4273L14.517 21.6494L14.5721 21.817L11.5123 23.106L14.6703 22.0776L14.7383 22.2404L11.7911 23.7641L14.8556 22.4924L14.9362 22.6493L12.1149 24.4018L15.0737 22.8918L15.1663 23.0419L12.4925 25.0087L15.3219 23.2726L15.4261 23.415L12.9142 25.5863L15.5996 23.633L15.7146 23.7667L13.3823 26.1266L15.9044 23.9701L16.0295 24.0945L13.8901 26.6294L16.2347 24.2821L16.3692 24.3962L14.4332 27.0942L16.5892 24.5676L16.7322 24.6709L15.0157 27.5096L16.9642 24.8245L17.1149 24.9162L15.6262 27.8817L17.3587 25.0506L17.5161 25.1302L16.2641 28.2046L17.7696 25.246L17.9328 25.313L16.926 28.4764L18.1949 25.4079L18.3629 25.4618L17.6085 28.692L18.6309 25.5366L18.8025 25.5772L18.3041 28.857L19.0759 25.6302L19.2502 25.6571L19.0108 28.9702L19.5276 25.689L19.7035 25.7022L19.7244 29.02L19.9819 25.7118L20.1583 25.7111L20.4394 29.0145L20.4359 25.6997L20.6117 25.6852L21.1527 28.9628L20.8889 25.6512L21.063 25.623L21.8587 28.8451L21.3362 25.5681L21.5076 25.5263L22.5551 28.6783L21.7759 25.4492L21.9435 25.3941L23.2333 28.4504L22.2041 25.2969L22.3668 25.2287L23.8936 28.1757L22.6193 25.111L22.7761 25.0303L24.5299 27.8492L23.019 24.8939L23.169 24.8011L25.1385 27.4728L23.4002 24.6458L23.5425 24.5415L25.7165 27.0517L23.7609 24.3684L23.8945 24.2533L26.2567 26.5838L24.0983 24.0639L24.2225 23.9387L26.7602 26.0762L24.4105 23.7339L24.5245 23.5992L27.2251 25.533L24.6963 23.3797L24.7994 23.2366L27.6407 24.9513L24.9534 23.005L25.045 22.8542L28.014 24.3421L25.1805 22.6108L25.2599 22.4533L28.3341 23.7028L25.3753 22.2003L25.4421 22.0371L28.6068 23.042L25.538 21.7757L25.5919 21.6077L28.8257 22.3617L25.6661 21.3394L25.7066 21.1677L28.9881 21.6659L25.7597 20.8947L25.7867 20.7204L29.0973 20.9597L25.8186 20.4442L25.8318 20.2682L29.1514 20.2474L25.8422 19.9903L25.8415 19.8139L29.1495 19.5329L25.8293 19.5359L25.8148 19.3601L29.0899 18.8204L25.7807 19.0841L25.7525 18.91L28.9763 18.1149L25.6975 18.6372L25.6558 18.4658L28.8086 17.4199L25.5793 18.1978L25.5242 18.0303L28.5809 16.7425L25.426 17.7704L25.358 17.6077L28.3081 16.0819L25.2407 17.3549L25.1601 17.1979L27.9815 15.4459L25.0226 16.9555L24.93 16.8054L27.6039 14.8385L24.7744 16.5746L24.6702 16.4323L27.1804 14.2629L24.4967 16.215L24.3817 16.0813L26.7145 13.7209L24.192 15.8779L24.0668 15.7536L26.2079 13.2162L23.8616 15.5652L23.7271 15.451L25.6618 12.7549L23.5072 15.2804L23.3641 15.1771L25.0822 12.3361L23.1321 15.0228L22.9814 14.9311L24.4701 11.9655L22.7376 14.7966L22.5802 14.7171L23.8316 11.6441L22.3267 14.602L22.1635 14.5351L23.1697 11.3734L21.9022 14.4394L21.7342 14.3854L22.4892 11.153L21.4654 14.3114L21.2938 14.2709L21.7923 10.9897L21.0204 14.2171L20.8461 14.1901L21.0855 10.877L20.5687 14.1583L20.3928 14.1451L20.3719 10.8308ZM20.0229 13.0386L20.3589 8.71289L20.5356 8.71919L20.5629 13.0573L21.2379 8.77153L21.4136 8.79168L21.1009 13.1197L22.1102 8.89972L22.2837 8.93359L21.6318 13.224L22.9701 9.09512L23.1405 9.14254L22.1536 13.368L23.8115 9.35782L23.9777 9.41847L22.6618 13.5531L24.6298 9.68473L24.7906 9.75824L23.1541 13.7769L25.4194 10.0751L25.574 10.161L23.6268 14.0399L26.1765 10.5271L26.3239 10.6249L24.0782 14.3384L26.8956 11.036L27.0348 11.1451L24.5049 14.6706L27.572 11.6L27.7023 11.7196L24.9031 15.0369L28.203 12.2152L28.3235 12.3447L25.2721 15.4321L28.7831 12.8781L28.893 13.0166L25.6089 15.8549L29.3091 13.5845L29.4079 13.7313L25.9106 16.3037L29.778 14.3306L29.8649 14.4846L26.1776 16.7744L30.1869 15.1105L30.2615 15.2709L26.4056 17.2651L30.534 15.9201L30.5957 16.0858L26.5955 17.771L30.8167 16.7542L30.8653 16.9242L26.7441 18.2912L31.032 17.6082L31.0671 17.7815L26.8514 18.8212L31.1798 18.4763L31.2013 18.6518L26.9166 19.3579L31.2594 19.3539L31.267 19.5306L26.9408 19.8981L31.2694 20.2344L31.2631 20.4111L26.9214 20.4384L31.2099 21.1127L31.1898 21.2884L26.8591 20.9754L31.0824 21.9841L31.0486 22.1577L26.7561 21.506L30.8868 22.8425L30.8395 23.0129L26.6114 22.0272L30.6239 23.6829L30.5633 23.849L26.4252 22.5349L30.2959 24.5004L30.2225 24.6613L26.2006 23.0267L29.9051 25.2901L29.8194 25.4448L25.9386 23.5L29.4535 26.0458L29.3559 26.1932L25.6393 23.9502L28.9442 26.7642L28.8353 26.9036L25.3054 24.3761L28.3797 27.4408L28.2602 27.5712L24.9398 24.7743L27.7632 28.0705L27.6338 28.1911L24.5446 25.1433L27.1005 28.6501L26.9621 28.7601L24.1204 25.4791L26.3934 29.1757L26.2468 29.2745L23.6709 25.7801L25.6467 29.6449L25.4928 29.7319L23.2 26.0467L24.8661 30.0535L24.7058 30.1282L22.7095 26.2749L24.0559 30.4002L23.8902 30.4621L22.2028 26.4637L23.2207 30.682L23.0507 30.7306L21.6819 26.6119L22.3652 30.8971L22.1918 30.9323L21.1516 26.7199L21.4963 31.0456L21.3207 31.067L20.614 26.7861L20.6187 31.1243L20.442 31.1319L20.074 26.8086L19.7374 31.1344L19.5607 31.1281L19.5334 26.7899L18.8584 31.0757L18.6827 31.0556L18.9954 26.7275L17.9862 30.9475L17.8126 30.9136L18.4643 26.6248L17.127 30.7521L16.9566 30.7047L17.9436 26.4787L16.2848 30.4902L16.1187 30.4295L17.4347 26.2945L15.4665 30.1625L15.3057 30.089L16.9422 26.0703L14.6769 29.7721L14.5223 29.6862L16.4691 25.8081L13.9206 29.3201L13.7732 29.2224L16.0187 25.5089L13.2007 28.8112L13.0615 28.7022L15.5914 25.1766L12.5243 28.2472L12.3941 28.1276L15.1928 24.8114L11.8941 27.632L11.7736 27.5026L14.8244 24.4157L11.314 26.9691L11.2041 26.8306L14.488 23.992L10.7872 26.2627L10.6885 26.116L14.185 23.544L10.3183 25.5174L10.2314 25.3634L13.9194 23.0725L9.90938 24.7367L9.83481 24.5763L13.6908 22.5827L9.56235 23.9272L9.50059 23.7615L13.5008 22.0762L9.27962 23.0931L9.23103 22.9231L13.3522 21.556L9.06432 22.2391L9.02921 22.0658L13.2449 21.026L8.91649 21.3709L8.89507 21.1954L13.1788 20.4895L8.83695 20.4941L8.82935 20.3174L13.1555 19.9493L8.8269 19.6136L8.83318 19.4369L13.1759 19.409L8.88639 18.7346L8.90652 18.5589L13.2372 18.8719L9.01392 17.8631L9.04776 17.6895L13.3402 18.3412L9.20952 17.0047L9.25686 16.8343L13.4849 17.8201L9.47246 16.1644L9.53301 15.9982L13.6712 17.3129L9.80044 15.3468L9.87383 15.1859L13.895 16.8202L10.1912 14.5579L10.277 14.4033L14.1584 16.3477L10.6428 13.8015L10.7404 13.654L14.4576 15.8974L11.1529 13.083L11.2618 12.9437L14.7911 15.4718L11.7174 12.4064L11.8369 12.2761L15.1561 15.0731L12.3331 11.7767L12.4625 11.6562L15.5517 14.7039L12.9959 11.1972L13.1343 11.0871L15.9765 14.3693L13.7037 10.6716L13.8503 10.5727L16.4251 14.0664L14.4496 10.2023L14.6035 10.1153L16.8963 13.8006L15.2302 9.79375L15.3905 9.71907L17.3867 13.5727L16.0404 9.44779L16.2061 9.38591L17.8946 13.3848L16.8764 9.16528L17.0464 9.11663L18.4143 13.2351L17.7312 8.95014L17.9045 8.91499L18.9447 13.1274L18.6001 8.80164L18.7756 8.7802L19.4823 13.0611L19.4776 8.72294L19.6543 8.71533L20.0229 13.0386Z" fill="#E5E5E5"/>
<path fill-rule="evenodd" clip-rule="evenodd" d="M20.0173 32.9939C27.2003 32.9939 33.0227 27.1761 33.0227 20.0001C33.0227 12.8241 27.2003 7.00633 20.0173 7.00633C12.8344 7.00633 7.01194 12.8241 7.01194 20.0001C7.01194 27.1761 12.8344 32.9939 20.0173 32.9939ZM33.3767 20.0001C33.3767 27.3719 27.3955 33.3478 20.0173 33.3478C12.6392 33.3478 6.65796 27.3719 6.65796 20.0001C6.65796 12.6283 12.6392 6.65234 20.0173 6.65234C27.3955 6.65234 33.3767 12.6283 33.3767 20.0001Z" fill="#E5E5E5"/>
<path fill-rule="evenodd" clip-rule="evenodd" d="M20.0171 2.48777C10.3366 2.48777 2.48924 10.3285 2.48924 20.0002C2.48924 29.6719 10.3366 37.5126 20.0171 37.5126C29.6976 37.5126 37.5449 29.6719 37.5449 20.0002C37.5449 10.3285 29.6976 2.48777 20.0171 2.48777ZM2.13525 20.0002C2.13525 10.1327 10.1414 2.13379 20.0171 2.13379C29.8928 2.13379 37.8989 10.1327 37.8989 20.0002C37.8989 29.8677 29.8928 37.8666 20.0171 37.8666C10.1414 37.8666 2.13525 29.8677 2.13525 20.0002Z" fill="#E5E5E5"/>
<g clip-path="url(#clip0_3811_10159)">
<path d="M10.8625 2.89258L11.6682 4.39734C7.14294 7.14231 10.5981 10.5906 10.5981 10.5906C10.5981 10.5906 7.1445 7.13959 4.3987 11.662L2.89185 10.8575C4.70193 7.48058 7.48306 4.70148 10.8625 2.89258Z" fill="black"/>
<path fill-rule="evenodd" clip-rule="evenodd" d="M9.88235 9.6169C9.18787 8.39564 8.63322 6.23831 11.6682 4.39734L10.8625 2.89258C10.8613 2.89321 10.8602 2.89384 10.859 2.89447C10.7561 2.94958 10.6537 3.00558 10.5519 3.06248C7.41565 4.81567 4.81632 7.41309 3.06193 10.547C3.00432 10.6499 2.94762 10.7534 2.89185 10.8575L4.3987 11.662C6.24046 8.62857 8.40067 9.18248 9.6235 9.87604C10.2237 10.2165 10.5981 10.5906 10.5981 10.5906C10.5981 10.5906 10.2234 10.2166 9.88235 9.6169ZM9.34572 9.33969C9.24569 9.11473 9.15717 8.86954 9.09255 8.60833C8.92859 7.94553 8.91797 7.17488 9.26794 6.38037C9.58784 5.65415 10.1957 4.93807 11.2007 4.27428L10.7191 3.3746C7.64438 5.09471 5.09559 7.64156 3.37426 10.7138L4.27555 11.195C4.93969 10.1903 5.65634 9.5826 6.38315 9.26272C7.17814 8.91283 7.9494 8.92316 8.6128 9.08669C8.87457 9.15122 9.12029 9.2397 9.34572 9.33969Z" fill="#E5E5E5"/>
</g>
<g clip-path="url(#clip1_3811_10159)">
<path d="M37.1409 10.8544L35.6348 11.6593C32.8874 7.13802 29.4362 10.5902 29.4362 10.5902C29.4362 10.5902 32.8902 7.13958 28.3638 4.39617L29.169 2.89063C32.5489 4.69913 35.3304 7.47785 37.1409 10.8544Z" fill="black"/>
<path fill-rule="evenodd" clip-rule="evenodd" d="M30.4105 9.87519C31.6328 9.18125 33.7922 8.62679 35.6349 11.6593L37.1407 10.8545C37.085 10.7504 37.0284 10.6468 36.9708 10.5439C35.2161 7.41036 32.6164 4.81331 29.4797 3.06048C29.3767 3.00295 29.2732 2.94633 29.1691 2.89063L28.3639 4.39617C31.3997 6.2362 30.8456 8.39435 30.1515 9.61616C29.8108 10.216 29.4362 10.5902 29.4362 10.5902M30.6881 9.33873C30.9133 9.23871 31.1589 9.1502 31.4204 9.0856C32.0836 8.92182 32.8548 8.91121 33.6498 9.2608C34.3766 9.5804 35.0934 10.1878 35.7578 11.1922L36.6586 10.7108C34.9369 7.63895 32.3878 5.09245 29.3127 3.37268L28.8312 4.27292C29.8365 4.93639 30.4447 5.65234 30.7649 6.37856C31.1152 7.17304 31.1048 7.94383 30.9411 8.60681C30.8765 8.86822 30.7881 9.11359 30.6881 9.33873Z" fill="#E5E5E5"/>
</g>
<g clip-path="url(#clip2_3811_10159)">
<path d="M29.1717 37.1084L28.366 35.6036C32.8912 32.8587 29.4361 29.4104 29.4361 29.4104C29.4361 29.4104 32.8897 32.8614 35.6355 28.3389L37.1423 29.1435C35.3322 32.5204 32.5511 35.2995 29.1717 37.1084Z" fill="black"/>
<path fill-rule="evenodd" clip-rule="evenodd" d="M30.1518 30.3841C30.8463 31.6053 31.401 33.7627 28.366 35.6036L29.1717 37.1084C29.1728 37.1078 29.174 37.1071 29.1752 37.1065C29.2781 37.0514 29.3805 36.9954 29.4822 36.9385C32.6185 35.1853 35.2179 32.5879 36.9722 29.454C37.0299 29.3511 37.0866 29.2476 37.1423 29.1435L35.6355 28.3389C33.7937 31.3724 31.6335 30.8185 30.4107 30.1249C29.8105 29.7845 29.4361 29.4104 29.4361 29.4104C29.4361 29.4104 29.8108 29.7844 30.1518 30.3841ZM30.6885 30.6613C30.7885 30.8863 30.877 31.1314 30.9416 31.3926C31.1056 32.0554 31.1162 32.8261 30.7662 33.6206C30.4463 34.3468 29.8384 35.0629 28.8334 35.7267L29.3151 36.6264C32.3898 34.9063 34.9386 32.3594 36.6599 29.2872L35.7586 28.806C35.0945 29.8107 34.3778 30.4184 33.651 30.7383C32.856 31.0881 32.0848 31.0778 31.4214 30.9143C31.1596 30.8498 30.9139 30.7613 30.6885 30.6613Z" fill="#E5E5E5"/>
</g>
<g clip-path="url(#clip3_3811_10159)">
<path d="M2.89392 29.1466L4.4 28.3417C7.14735 32.863 10.5986 29.4108 10.5986 29.4108C10.5986 29.4108 7.14463 32.8614 11.671 35.6048L10.8657 37.1104C7.48591 35.3018 4.70439 32.5231 2.89392 29.1466Z" fill="black"/>
<path fill-rule="evenodd" clip-rule="evenodd" d="M9.62428 30.1258C8.402 30.8197 6.24263 31.3742 4.39992 28.3417L2.89404 29.1465C2.94983 29.2506 3.00635 29.3542 3.06398 29.4571C4.81873 32.5906 7.41843 35.1877 10.5551 36.9405C10.658 36.998 10.7616 37.0546 10.8657 37.1104L11.6709 35.6048C8.63505 33.7648 9.18914 31.6066 9.88325 30.3848C10.224 29.785 10.5985 29.4108 10.5985 29.4108M9.34673 30.6623C9.12147 30.7623 8.87594 30.8508 8.61436 30.9154C7.95114 31.0792 7.18003 31.0898 6.38501 30.7402C5.65819 30.4206 4.94142 29.8131 4.27695 28.8088L3.37623 29.2902C5.0979 32.362 7.64704 34.9085 10.7221 36.6283L11.2036 35.7281C10.1983 35.0646 9.59008 34.3486 9.26991 33.6224C8.91964 32.8279 8.92998 32.0571 9.09369 31.3942C9.15824 31.1328 9.24673 30.8874 9.34673 30.6623Z" fill="#E5E5E5"/>
</g>
<g clip-path="url(#clip4_3811_10159)">
<path d="M5.7842 15.6875L7.64864 16.2523C7.09575 19.9997 11.6408 19.9974 11.6408 19.9974C11.6408 19.9974 7.09575 19.9997 7.64864 23.7474L5.7842 24.3115C5.16686 19.9935 2.61597 19.9974 2.61597 19.9974C2.61597 19.9974 5.14783 19.9997 5.7842 15.6875Z" fill="black"/>
<path fill-rule="evenodd" clip-rule="evenodd" d="M10.2943 19.8161C9.00309 19.5 7.29751 18.6326 7.64869 16.2523L5.78425 15.6875C5.76642 15.8083 5.74711 15.9257 5.7264 16.0398C5.27023 18.5543 4.13921 19.4711 3.37434 19.8055C2.93469 19.9976 2.61602 19.9974 2.61602 19.9974L2.61548 19.6434C2.61553 19.6434 2.61588 19.6434 2.61593 19.6455M2.61569 20.3513L2.61602 19.9974C2.61575 20.2869 2.61591 20.3396 2.61614 20.3492C2.6161 20.3513 2.61574 20.3513 2.61569 20.3513ZM10.2943 19.8161C11.0359 19.9977 11.6408 19.9974 11.6408 19.9974L10.2943 19.8161ZM11.6408 19.9974C11.6408 19.9974 11.036 19.9977 10.2945 20.18L11.6408 19.9974ZM10.2945 20.18C9.00325 20.4975 7.29749 21.3668 7.64869 23.7474L5.78425 24.3115C5.76696 24.1905 5.74815 24.073 5.72792 23.9587C5.28143 21.4365 4.14381 20.5202 3.37498 20.1873M3.78645 19.9957C3.91416 20.0662 4.0469 20.1509 4.18168 20.2525C4.9367 20.8215 5.71232 21.887 6.06904 23.8555L7.26317 23.4942C7.19095 22.6265 7.38278 21.9318 7.74387 21.3853C8.14153 20.7834 8.72214 20.3947 9.29498 20.1429C9.41745 20.0891 9.54047 20.0411 9.66246 19.9984C9.54057 19.9557 9.41766 19.9079 9.29529 19.8543C8.72242 19.6031 8.1417 19.2151 7.74395 18.6137C7.38277 18.0675 7.19094 17.3731 7.26318 16.5054L6.06733 16.1431C5.70272 18.1093 4.92722 19.1734 4.17491 19.7419C4.04244 19.842 3.91201 19.9257 3.78645 19.9957Z" fill="#E5E5E5"/>
</g>
<g clip-path="url(#clip5_3811_10159)">
<path d="M34.2499 24.3125L32.3854 23.7477C32.9383 20.0003 28.3933 20.0026 28.3933 20.0026C28.3933 20.0026 32.9383 20.0003 32.3854 16.2526L34.2499 15.6885C34.8672 20.0065 37.4181 20.0026 37.4181 20.0026C37.4181 20.0026 34.8862 20.0003 34.2499 24.3125Z" fill="black"/>
<path fill-rule="evenodd" clip-rule="evenodd" d="M29.7398 20.1839C31.031 20.5 32.7365 21.3674 32.3854 23.7477L34.2498 24.3125C34.2676 24.1917 34.287 24.0743 34.3077 23.9602C34.7638 21.4457 35.8949 20.5289 36.6597 20.1945C37.0994 20.0024 37.418 20.0026 37.418 20.0026L37.4186 20.3566C37.4185 20.3566 37.4182 20.3566 37.4181 20.3545M37.4184 19.6487L37.418 20.0026C37.4183 19.7131 37.4182 19.6604 37.4179 19.6508C37.418 19.6487 37.4183 19.6487 37.4184 19.6487ZM29.7398 20.1839C28.9981 20.0023 28.3932 20.0026 28.3932 20.0026L29.7398 20.1839ZM28.3932 20.0026C28.3932 20.0026 28.9981 20.0023 29.7396 19.82L28.3932 20.0026ZM29.7396 19.82C31.0308 19.5025 32.7366 18.6332 32.3854 16.2526L34.2498 15.6885C34.2671 15.8095 34.2859 15.927 34.3061 16.0413C34.7526 18.5635 35.8902 19.4798 36.6591 19.8127M36.2476 20.0043C36.1199 19.9338 35.9872 19.8491 35.8524 19.7475C35.0974 19.1785 34.3217 18.113 33.965 16.1445L32.7709 16.5058C32.8431 17.3736 32.6513 18.0682 32.2902 18.6147C31.8925 19.2166 31.3119 19.6053 30.7391 19.8571C30.6166 19.9109 30.4936 19.9589 30.3716 20.0016C30.4935 20.0443 30.6164 20.0921 30.7388 20.1457C31.3116 20.3969 31.8924 20.7849 32.2901 21.3863C32.6513 21.9325 32.8431 22.6269 32.7709 23.4946L33.9667 23.8569C34.3313 21.8907 35.1068 20.8266 35.8591 20.2581C35.9916 20.158 36.122 20.0743 36.2476 20.0043Z" fill="#E5E5E5"/>
</g>
<g clip-path="url(#clip6_3811_10159)">
<path d="M28.2771 7.64253L27.1951 9.26127C23.7663 7.64515 22.4495 11.9915 22.4495 11.9915C22.4495 11.9915 23.7663 7.64515 20.0162 7.08618L20.0171 5.13984C24.332 5.80267 25.0686 3.36256 25.0686 3.36256C25.0686 3.36256 24.3316 5.78268 28.2771 7.64253Z" fill="black"/>
<path fill-rule="evenodd" clip-rule="evenodd" d="M23.0136 10.7566C23.691 9.61371 25.0168 8.23414 27.195 9.26081L28.2771 7.64207C28.1666 7.59 28.0598 7.5375 27.9566 7.48462C25.6802 6.3186 25.1304 4.97087 25.0322 4.14253C24.9758 3.66657 25.0685 3.3621 25.0685 3.3621L25.4075 3.46422C25.4074 3.46427 25.4073 3.46461 25.4053 3.46404M24.7298 3.25914L25.0685 3.3621C24.7915 3.27787 24.741 3.26274 24.7318 3.26019C24.7297 3.25953 24.7298 3.25919 24.7298 3.25914ZM23.0136 10.7566C22.6247 11.4128 22.4495 11.991 22.4495 11.991L23.0136 10.7566ZM22.4495 11.991C22.4495 11.991 22.6247 11.4129 22.6653 10.6513L22.4495 11.991ZM22.6653 10.6513C22.736 9.32454 22.3986 7.44083 20.0162 7.08572L20.017 5.13938C20.1378 5.15794 20.2558 5.17406 20.371 5.18787C22.9168 5.49301 24.1246 4.67095 24.6665 4.03241M24.7306 4.48138C24.6258 4.5832 24.506 4.68573 24.3693 4.7853C23.6052 5.34208 22.3597 5.77442 20.3709 5.54424L20.3704 6.79026C21.2225 6.97297 21.8322 7.35792 22.2508 7.86176C22.7119 8.41661 22.9157 9.08456 22.9906 9.70544C23.0067 9.83851 23.0169 9.9704 23.0225 10.0998C23.0988 9.99532 23.1805 9.8914 23.2676 9.7897C23.6745 9.31476 24.2147 8.87212 24.9062 8.66638C25.5341 8.47954 26.2548 8.49768 27.0649 8.81862L27.7586 7.78084C25.9814 6.86174 25.1873 5.81154 24.8611 4.92722C24.8035 4.77122 24.7611 4.62197 24.7306 4.48138Z" fill="#E5E5E5"/>
</g>
<g clip-path="url(#clip7_3811_10159)">
<path d="M20.0138 5.13944L20.0142 7.08601C16.2647 7.64552 17.5866 11.9902 17.5866 11.9902C17.5866 11.9902 16.2647 7.64552 12.8358 9.26235L11.7542 7.64357C15.7105 5.79953 14.9661 3.3618 14.9661 3.3618C14.9661 3.3618 15.6991 5.78315 20.0138 5.13944Z" fill="black"/>
<path fill-rule="evenodd" clip-rule="evenodd" d="M17.3693 10.6513C17.297 9.32499 17.6323 7.44196 20.0143 7.08652L20.0139 5.13996C19.8931 5.15798 19.7751 5.1736 19.6598 5.18693C17.1187 5.48101 15.9121 4.66563 15.3699 4.03138C15.0584 3.66695 14.9661 3.36231 14.9661 3.36231L15.3047 3.25909C15.3048 3.25914 15.3049 3.25948 15.3028 3.26015M14.6273 3.4647L14.9661 3.36231C14.6889 3.44607 14.6386 3.46151 14.6295 3.46452C14.6274 3.46509 14.6273 3.46475 14.6273 3.4647ZM17.3693 10.6513C17.4108 11.4128 17.5867 11.9908 17.5867 11.9908L17.3693 10.6513ZM17.5867 11.9908C17.5867 11.9908 17.4108 11.4129 17.0211 10.7571L17.5867 11.9908ZM17.0211 10.7571C16.3422 9.61464 15.0142 8.23569 12.8358 9.26287L11.7543 7.64409C11.865 7.59247 11.9721 7.54038 12.0756 7.4879C14.362 6.3285 14.9091 4.97453 15.0046 4.1428M15.3075 4.48056C15.277 4.62339 15.2344 4.77513 15.1762 4.93378C14.8504 5.82089 14.0552 6.87173 12.2736 7.78429L12.966 8.82061C13.7762 8.49951 14.4971 8.48119 15.1254 8.66771C15.8173 8.87313 16.3581 9.31538 16.7657 9.79003C16.853 9.89176 16.9349 9.99572 17.0115 10.1002C17.0169 9.97098 17.027 9.83924 17.0429 9.70632C17.1171 9.08558 17.3201 8.41768 17.7806 7.86279C18.1988 7.35889 18.8082 6.97391 19.6602 6.7911L19.6599 5.54315C17.6712 5.76543 16.4269 5.33304 15.6639 4.77883C15.5293 4.68106 15.4111 4.58048 15.3075 4.48056Z" fill="#E5E5E5"/>
</g>
<g clip-path="url(#clip8_3811_10159)">
<path d="M11.7571 32.3575L12.8391 30.7387C16.2679 32.3548 17.5846 28.0085 17.5846 28.0085C17.5846 28.0085 16.2679 32.3548 20.0179 32.9138L20.0171 34.8602C15.7022 34.1973 14.9656 36.6374 14.9656 36.6374C14.9656 36.6374 15.7026 34.2173 11.7571 32.3575Z" fill="black"/>
<path fill-rule="evenodd" clip-rule="evenodd" d="M17.0206 29.2434C16.3432 30.3863 15.0173 31.7659 12.8392 30.7392L11.7571 32.3579C11.8676 32.41 11.9743 32.4625 12.0776 32.5154C14.354 33.6814 14.9038 35.0291 15.002 35.8575C15.0584 36.3334 14.9657 36.6379 14.9657 36.6379L14.6267 36.5358C14.6267 36.5357 14.6268 36.5354 14.6289 36.536M15.3043 36.7409L14.9657 36.6379C15.2427 36.7221 15.2932 36.7373 15.3024 36.7398C15.3045 36.7405 15.3044 36.7408 15.3043 36.7409ZM17.0206 29.2434C17.4095 28.5872 17.5847 28.009 17.5847 28.009L17.0206 29.2434ZM17.5847 28.009C17.5847 28.009 17.4095 28.5871 17.3689 29.3487L17.5847 28.009ZM17.3689 29.3487C17.2981 30.6755 17.6356 32.5592 20.018 32.9143L20.0171 34.8606C19.8964 34.8421 19.7784 34.8259 19.6631 34.8121C17.1174 34.507 15.9096 35.329 15.3677 35.9676M15.3036 35.5186C15.4084 35.4168 15.5282 35.3143 15.6649 35.2147C16.429 34.6579 17.6745 34.2256 19.6633 34.4558L19.6638 33.2097C18.8117 33.027 18.202 32.6421 17.7834 32.1382C17.3223 31.5834 17.1185 30.9154 17.0436 30.2946C17.0275 30.1615 17.0172 30.0296 17.0117 29.9002C16.9353 30.0047 16.8537 30.1086 16.7666 30.2103C16.3597 30.6852 15.8195 31.1279 15.128 31.3336C14.5001 31.5205 13.7794 31.5023 12.9693 31.1814L12.2756 32.2192C14.0528 33.1383 14.8469 34.1885 15.1731 35.0728C15.2307 35.2288 15.273 35.378 15.3036 35.5186Z" fill="#E5E5E5"/>
</g>
<g clip-path="url(#clip9_3811_10159)">
<path d="M20.0205 34.8596L20.0201 32.913C23.7696 32.3535 22.4477 28.0088 22.4477 28.0088C22.4477 28.0088 23.7696 32.3535 27.1985 30.7367L28.2801 32.3555C24.3238 34.1995 25.0682 36.6372 25.0682 36.6372C25.0682 36.6372 24.3352 34.2159 20.0205 34.8596Z" fill="black"/>
<path fill-rule="evenodd" clip-rule="evenodd" d="M22.665 29.3477C22.7373 30.674 22.402 32.5571 20.02 32.9125L20.0204 34.8591C20.1412 34.841 20.2592 34.8254 20.3745 34.8121C22.9156 34.518 24.1222 35.3334 24.6644 35.9676C24.9759 36.3321 25.0682 36.6367 25.0682 36.6367L24.7296 36.7399C24.7295 36.7399 24.7294 36.7395 24.7315 36.7389M25.407 36.5343L25.0682 36.6367C25.3454 36.5529 25.3957 36.5375 25.4048 36.5345C25.4069 36.5339 25.407 36.5343 25.407 36.5343ZM22.665 29.3477C22.6235 28.5862 22.4476 28.0083 22.4476 28.0083L22.665 29.3477ZM22.4476 28.0083C22.4476 28.0083 22.6235 28.5861 23.0132 29.242L22.4476 28.0083ZM23.0132 29.242C23.6921 30.3844 25.0201 31.7633 27.1985 30.7362L28.28 32.3549C28.1693 32.4066 28.0622 32.4586 27.9587 32.5111C25.6723 33.6705 25.1252 35.0245 25.0297 35.8562M24.7268 35.5185C24.7573 35.3756 24.7999 35.2239 24.8581 35.0652C25.1839 34.1781 25.9791 33.1273 27.7607 32.2147L27.0683 31.1784C26.2582 31.4995 25.5372 31.5178 24.9089 31.3313C24.217 31.1259 23.6762 30.6836 23.2686 30.209C23.1813 30.1073 23.0994 30.0033 23.0228 29.8988C23.0174 30.028 23.0073 30.1598 22.9914 30.2927C22.9172 30.9134 22.7142 31.5813 22.2537 32.1362C21.8355 32.6401 21.2261 33.0251 20.3741 33.2079L20.3744 34.4559C22.3631 34.2336 23.6074 34.666 24.3704 35.2202C24.505 35.318 24.6232 35.4185 24.7268 35.5185Z" fill="#E5E5E5"/>
</g>
<g clip-path="url(#clip10_3811_10159)">
<path d="M10.2117 10.2031C10.2117 10.2031 13.4059 13.4206 15.6233 11.7882C13.4284 13.4171 19.7098 19.693 19.7098 19.693C19.7098 19.693 13.4284 13.4171 11.7973 15.6116C13.4284 13.4171 10.2117 10.2031 10.2117 10.2031Z" fill="#E5E5E5"/>
</g>
<g clip-path="url(#clip11_3811_10159)">
<path d="M29.823 10.2031C29.823 10.2031 26.6027 13.3946 28.2366 15.61C26.6062 13.4171 20.3249 19.693 20.3249 19.693C20.3249 19.693 26.6062 13.4171 24.4098 11.7874C26.6062 13.4171 29.823 10.2031 29.823 10.2031Z" fill="#E5E5E5"/>
</g>
<g clip-path="url(#clip12_3811_10159)">
<path d="M29.823 29.7969C29.823 29.7969 26.6288 26.5794 24.4114 28.2118C26.6062 26.5829 20.3249 20.307 20.3249 20.307C20.3249 20.307 26.6062 26.5829 28.2373 24.3884C26.6062 26.5829 29.823 29.7969 29.823 29.7969Z" fill="#E5E5E5"/>
</g>
<g clip-path="url(#clip13_3811_10159)">
<path d="M10.2117 29.7969C10.2117 29.7969 13.4319 26.6054 11.7981 24.39C13.4284 26.5829 19.7098 20.307 19.7098 20.307C19.7098 20.307 13.4284 26.5829 15.6248 28.2126C13.4284 26.5829 10.2117 29.7969 10.2117 29.7969Z" fill="#E5E5E5"/>
</g>
<g clip-path="url(#clip14_3811_10159)">
<path d="M14.6538 37.6716C14.6538 37.6716 16.5497 30.6249 18.3986 30.9108C20.2475 31.1967 20.0177 38.4614 20.0177 38.4614C18.1525 38.4614 16.3517 38.1852 14.6542 37.6716H14.6538Z" fill="#E5E5E5"/>
</g>
<g clip-path="url(#clip15_3811_10159)">
<path d="M9.74408 35.3509C9.74408 35.3509 13.6084 29.1592 15.2942 29.9698C16.9801 30.7804 14.6465 37.6646 14.6465 37.6646C12.8618 37.1228 11.2192 36.3355 9.74445 35.351L9.74408 35.3509Z" fill="#E5E5E5"/>
</g>
<g clip-path="url(#clip16_3811_10159)">
<path d="M25.388 37.6688C25.388 37.6688 23.0448 30.7577 24.741 29.9688C26.4371 29.1799 30.2866 35.3472 30.2866 35.3472C28.7359 36.3829 27.0852 37.1531 25.3883 37.6686L25.388 37.6688Z" fill="#E5E5E5"/>
</g>
<g clip-path="url(#clip17_3811_10159)">
<path d="M20.0168 38.4652C20.0168 38.4652 19.7844 31.1721 21.6368 30.9096C23.4892 30.6471 25.3792 37.6658 25.3792 37.6658C23.5943 38.2066 21.7908 38.4645 20.0172 38.4651L20.0168 38.4652Z" fill="#E5E5E5"/>
</g>
<g clip-path="url(#clip18_3811_10159)">
<path d="M30.3442 11.5322C30.3442 11.5322 31.3316 12.4409 32.2903 11.8011C31.3316 12.4413 31.7968 13.7004 31.7968 13.7004C31.3947 12.9223 30.9105 12.1996 30.3442 11.5322Z" fill="#E5E5E5"/>
<path fill-rule="evenodd" clip-rule="evenodd" d="M30.6387 11.8075C31.017 12.2857 31.3554 12.7908 31.6538 13.3228C31.6396 13.2235 31.6298 13.1105 31.6309 12.99C31.6337 12.6811 31.7083 12.32 31.9647 12.0182C31.5875 12.1396 31.2249 12.0707 30.9379 11.9556C30.8261 11.9107 30.7252 11.8585 30.6387 11.8075ZM31.8461 13.6819L31.7496 13.7245C31.3494 12.9499 30.8674 12.2306 30.3037 11.5663L30.3798 11.4932L30.3806 11.4933L30.3825 11.495L30.3904 11.5019C30.3975 11.5081 30.4081 11.5172 30.4221 11.5286C30.4501 11.5515 30.4913 11.5836 30.5439 11.6204C30.6491 11.694 30.7989 11.7853 30.9775 11.857C31.3345 12.0003 31.801 12.0634 32.2608 11.7566L32.3197 11.845C31.8601 12.1519 31.7405 12.6066 31.7371 12.991C31.7354 13.1833 31.7628 13.3565 31.7909 13.4818C31.8048 13.5443 31.8189 13.5947 31.8294 13.6293C31.8347 13.6466 31.839 13.6599 31.842 13.6688L31.8455 13.6787L31.8463 13.6811L31.8461 13.6819Z" fill="#E5E5E5"/>
</g>
<g clip-path="url(#clip19_3811_10159)">
<path d="M9.69141 28.4697C9.69141 28.4697 8.70388 27.5612 7.74532 28.2012C8.70388 27.5608 8.23849 26.3018 8.23849 26.3018C8.64068 27.0798 9.12498 27.8025 9.69141 28.4697Z" fill="#E5E5E5"/>
<path fill-rule="evenodd" clip-rule="evenodd" d="M9.39689 28.1945C9.01849 27.7164 8.68002 27.2113 8.38148 26.6794C8.39575 26.7787 8.40555 26.8917 8.40449 27.0122C8.40178 27.3211 8.32723 27.6822 8.07086 27.9841C8.44807 27.8626 8.81067 27.9314 9.09763 28.0465C9.20951 28.0914 9.31039 28.1435 9.39689 28.1945ZM8.18913 26.3204L8.28569 26.2777C8.68604 27.0522 9.1681 27.7715 9.73192 28.4357L9.65582 28.5088L9.65503 28.5087L9.65316 28.507L9.64526 28.5C9.63818 28.4939 9.62753 28.4848 9.61354 28.4734C9.58556 28.4505 9.5443 28.4183 9.49175 28.3816C9.38649 28.308 9.23669 28.2167 9.05809 28.1451C8.70105 28.0018 8.2345 27.9388 7.77484 28.2457L7.71586 28.1573C8.17548 27.8503 8.29492 27.3956 8.2983 27.0112C8.29999 26.819 8.27248 26.6457 8.24445 26.5205C8.23045 26.4579 8.21637 26.4075 8.20585 26.3729C8.20059 26.3557 8.19623 26.3423 8.19322 26.3334L8.18978 26.3235L8.18893 26.3211L8.18913 26.3204Z" fill="#E5E5E5"/>
</g>
<g clip-path="url(#clip20_3811_10159)">
<path d="M31.7986 26.293C31.7986 26.293 31.3362 27.5521 32.2947 28.1922C31.3359 27.5523 30.3496 28.4635 30.3496 28.4635C30.9152 27.7946 31.3982 27.0711 31.7986 26.293Z" fill="#E5E5E5"/>
<path fill-rule="evenodd" clip-rule="evenodd" d="M31.6565 26.6699C31.3591 27.2021 31.0216 27.7077 30.6439 28.1867C30.7303 28.1356 30.831 28.0833 30.9427 28.0383C31.2295 27.9226 31.5919 27.8533 31.9692 27.9745C31.7126 27.6728 31.6374 27.3117 31.6341 27.0027C31.6329 26.8823 31.6424 26.7692 31.6565 26.6699ZM30.3854 28.5018L30.3091 28.4288C30.8721 27.763 31.3529 27.0429 31.7514 26.2683L31.8481 26.3107L31.8485 26.3109C31.8485 26.3109 31.8485 26.3109 31.8485 26.3109C31.8485 26.3109 31.8485 26.3109 31.8485 26.3109L31.8485 26.311L31.8483 26.3115L31.8474 26.3139L31.844 26.3238C31.841 26.3327 31.8367 26.346 31.8315 26.3633C31.821 26.3979 31.8071 26.4483 31.7932 26.5108C31.7655 26.6361 31.7383 26.8094 31.7404 27.0016C31.7445 27.386 31.8646 27.8408 32.3242 28.1477L32.2652 28.236C31.8055 27.9291 31.3393 27.9928 30.9825 28.1367C30.8041 28.2087 30.6544 28.3004 30.5493 28.3742C30.4968 28.411 30.4555 28.4433 30.4276 28.4663C30.4136 28.4777 30.403 28.4868 30.3959 28.493L30.388 28.5L30.3861 28.5017L30.3857 28.5021L30.3857 28.5021L30.3857 28.5021" fill="#E5E5E5"/>
</g>
<g clip-path="url(#clip21_3811_10159)">
<path d="M8.23511 13.708C8.23511 13.708 8.6975 12.4489 7.73902 11.8088C8.69784 12.4487 9.68411 11.5375 9.68411 11.5375C9.11849 12.2064 8.63549 12.9299 8.23511 13.708Z" fill="#E5E5E5"/>
<path fill-rule="evenodd" clip-rule="evenodd" d="M8.37719 13.3311C8.67456 12.7989 9.0121 12.2933 9.38979 11.8142C9.30341 11.8654 9.20269 11.9176 9.09097 11.9627C8.8042 12.0784 8.44175 12.1477 8.06451 12.0265C8.32113 12.3282 8.39625 12.6893 8.39955 12.9983C8.40083 13.1187 8.39126 13.2317 8.37719 13.3311ZM9.64833 11.4992L9.72463 11.5721C9.16159 12.238 8.68083 12.9581 8.28229 13.7327L8.18561 13.6903L8.18519 13.6901C8.18519 13.6901 8.18519 13.6901 8.18519 13.6901C8.18519 13.6901 8.18519 13.6901 8.18519 13.6901L8.18522 13.69L8.18541 13.6895L8.18626 13.6871L8.18967 13.6772C8.19266 13.6683 8.19699 13.655 8.20221 13.6377C8.21265 13.6031 8.22661 13.5527 8.24048 13.4901C8.26824 13.3648 8.29539 13.1916 8.29334 12.9993C8.28924 12.615 8.16907 12.1602 7.70948 11.8533L7.76845 11.765C8.22818 12.0718 8.69444 12.0082 9.05118 11.8643C9.22964 11.7923 9.3793 11.7006 9.48444 11.6268C9.53694 11.5899 9.57815 11.5577 9.6061 11.5347C9.62007 11.5233 9.63071 11.5141 9.63778 11.508L9.64567 11.501L9.64754 11.4993L9.64795 11.4989L9.648 11.4989L9.64802 11.4988" fill="#E5E5E5"/>
</g>
<g clip-path="url(#clip22_3811_10159)">
<path d="M2.37183 21.3584C2.37183 21.3584 2.04298 20.0005 0.842075 20.0003C2.04319 20.0001 2.36961 18.6406 2.36961 18.6406C2.26715 19.547 2.26789 20.4529 2.37183 21.3584Z" fill="#E5E5E5"/>
<path fill-rule="evenodd" clip-rule="evenodd" d="M2.27951 20.9611C2.22756 20.3204 2.22703 19.6795 2.27794 19.0383C2.232 19.1353 2.17343 19.2427 2.10011 19.3503C1.91778 19.6177 1.6421 19.8886 1.24172 20.0002C1.64221 20.1118 1.91832 20.3823 2.10109 20.6494C2.17461 20.7569 2.23339 20.8642 2.27951 20.9611ZM0.842049 19.9472C1.41894 19.9471 1.78647 19.6218 2.01232 19.2905C2.1253 19.1248 2.2019 18.9587 2.25026 18.8339C2.2744 18.7716 2.29142 18.7197 2.30235 18.6837C2.30782 18.6656 2.31176 18.6516 2.31431 18.6421L2.31711 18.6315L2.31775 18.6289L2.31834 18.6283L2.42234 18.6466C2.32033 19.549 2.32107 20.4509 2.42455 21.3523L2.32058 21.3708L2.31999 21.3702L2.31934 21.3677L2.31653 21.3571C2.31396 21.3476 2.30999 21.3336 2.3045 21.3155C2.29349 21.2795 2.27638 21.2277 2.25213 21.1655C2.20356 21.0408 2.12666 20.8749 2.01339 20.7094C1.78695 20.3785 1.41885 20.0534 0.842001 20.0534L0.842049 19.9472C0.842045 19.9472 0.842054 19.9472 0.842049 19.9472Z" fill="#E5E5E5"/>
</g>
<g clip-path="url(#clip23_3811_10159)">
<path d="M37.6628 18.6426C37.6628 18.6426 37.9917 20.0005 39.1926 20.0007C37.9915 20.0008 37.6651 21.3603 37.6651 21.3603C37.7675 20.454 37.7668 19.548 37.6628 18.6426Z" fill="#E5E5E5"/>
<path fill-rule="evenodd" clip-rule="evenodd" d="M37.7552 19.0398C37.8071 19.6805 37.8076 20.3215 37.7567 20.9627C37.8027 20.8656 37.8612 20.7582 37.9346 20.6507C38.1169 20.3833 38.3926 20.1124 38.793 20.0007C38.3925 19.8892 38.1163 19.6186 37.9336 19.3515C37.8601 19.2441 37.8013 19.1368 37.7552 19.0398ZM39.1926 20.0538C38.6157 20.0539 38.2482 20.3792 38.0223 20.7105C37.9094 20.8762 37.8328 21.0422 37.7844 21.1671C37.7603 21.2294 37.7433 21.2812 37.7323 21.3173C37.7268 21.3353 37.7229 21.3494 37.7204 21.3589L37.7176 21.3695L37.7169 21.3721L37.7163 21.3726L37.6123 21.3544C37.7143 20.452 37.7136 19.5501 37.6101 18.6487L37.7141 18.6302L37.7147 18.6307L37.7153 18.6333L37.7181 18.6439C37.7207 18.6534 37.7247 18.6674 37.7302 18.6854C37.7412 18.7215 37.7583 18.7732 37.7825 18.8355C37.8311 18.9602 37.908 19.1261 38.0213 19.2916C38.2477 19.6225 38.6158 19.9475 39.1927 19.9476L39.1926 20.0538C39.1926 20.0538 39.1926 20.0538 39.1926 20.0538Z" fill="#E5E5E5"/>
</g>
<path d="M11.7423 7.62925L12.3107 8.47919C13.4775 7.77899 20.017 2.3104 20.017 16.2245C20.017 2.3104 26.5542 7.77743 27.7221 8.47842L28.2788 7.64593C24.5263 5.14342 20.017 5.14342 20.0108 0.492188C20.0174 5.14342 15.5069 5.14342 11.7427 7.62886L11.7423 7.62925Z" fill="#E5E5E5"/>
<path d="M20.0108 27.325C21.0334 27.325 21.8624 26.4968 21.8624 25.475C21.8624 24.4533 21.0334 23.625 20.0108 23.625C18.9882 23.625 18.1592 24.4533 18.1592 25.475C18.1592 26.4968 18.9882 27.325 20.0108 27.325Z" fill="#E5E5E5"/>
<path d="M51.4631 32.685V31.5878L63.1546 11.9421H54.9603L52.4231 17.0507H51.8746V10.0564H69.3603V11.1536L57.6003 30.7993H66.4803L69.1888 25.3478H69.7374V32.685H51.4631Z" fill="#E5E5E5"/>
<path d="M81.7497 33.0278C80.1269 33.0278 78.6983 32.6621 77.464 31.9307C76.2297 31.1764 75.2697 30.1821 74.584 28.9478C73.8983 27.7136 73.5555 26.3536 73.5555 24.8678C73.5555 23.3593 73.8983 21.9878 74.584 20.7536C75.2697 19.5193 76.2297 18.5364 77.464 17.805C78.6983 17.0736 80.1269 16.7078 81.7497 16.7078C83.3726 16.7078 84.7897 17.0736 86.0012 17.805C87.2355 18.5364 88.1955 19.5193 88.8812 20.7536C89.5669 21.9878 89.9097 23.3593 89.9097 24.8678C89.9097 26.3536 89.5669 27.7136 88.8812 28.9478C88.1955 30.1821 87.2355 31.1764 86.0012 31.9307C84.7897 32.6621 83.3726 33.0278 81.7497 33.0278ZM82.1269 31.3478C82.7897 31.3478 83.3269 31.085 83.7383 30.5593C84.1726 30.0107 84.4812 29.2907 84.664 28.3993C84.8697 27.5078 84.9726 26.5593 84.9726 25.5536C84.9726 24.3193 84.8469 23.1536 84.5955 22.0564C84.3669 20.9593 83.9897 20.0678 83.464 19.3821C82.9612 18.6964 82.2869 18.3536 81.4412 18.3536C80.7555 18.3536 80.1955 18.6278 79.7612 19.1764C79.3269 19.7021 79.0069 20.4107 78.8012 21.3021C78.5955 22.1707 78.4926 23.1193 78.4926 24.1478C78.4926 25.405 78.6183 26.5821 78.8697 27.6793C79.1212 28.7536 79.5097 29.6336 80.0355 30.3193C80.584 31.005 81.2812 31.3478 82.1269 31.3478Z" fill="#E5E5E5"/>
<path d="M98.4313 33.0278C97.4256 33.0278 96.4771 32.7421 95.5856 32.1707C94.7171 31.5993 94.0085 30.7878 93.4599 29.7364C92.9342 28.685 92.6713 27.4393 92.6713 25.9993C92.6713 24.1021 93.0142 22.4564 93.6999 21.0621C94.3856 19.6678 95.3342 18.5936 96.5456 17.8393C97.7571 17.085 99.1513 16.7078 100.728 16.7078C101.826 16.7078 102.774 16.8107 103.574 17.0164V10.8793L101.208 9.23356V8.85642L107.963 6.9707H108.374V31.1421L110.774 32.1364V32.685H103.917L103.643 30.9707H103.403C102.557 31.7021 101.746 32.2278 100.968 32.5478C100.191 32.8678 99.3456 33.0278 98.4313 33.0278ZM97.5056 24.9364C97.5056 26.765 97.8942 28.1021 98.6714 28.9478C99.4485 29.7936 100.317 30.2164 101.277 30.2164C101.688 30.2164 102.066 30.1593 102.408 30.045C102.774 29.9307 103.163 29.7593 103.574 29.5307V19.5878C103.277 19.245 102.934 18.9821 102.546 18.7993C102.157 18.6164 101.723 18.525 101.243 18.525C100.58 18.525 99.9628 18.7078 99.3913 19.0736C98.8199 19.4393 98.3628 20.0907 98.0199 21.0278C97.6771 21.9421 97.5056 23.245 97.5056 24.9364Z" fill="#E5E5E5"/>
<path d="M117.323 13.3136C116.592 13.3136 115.986 13.085 115.506 12.6278C115.049 12.1478 114.82 11.5536 114.82 10.845C114.82 10.1136 115.049 9.51928 115.506 9.06213C115.986 8.58213 116.592 8.34213 117.323 8.34213C118.054 8.34213 118.649 8.58213 119.106 9.06213C119.586 9.51928 119.826 10.1136 119.826 10.845C119.826 11.5536 119.586 12.1478 119.106 12.6278C118.649 13.085 118.054 13.3136 117.323 13.3136ZM112.694 32.685V32.1364L114.992 31.0393V20.6164L112.797 19.005V18.5936L119.414 16.7078H119.826V31.0393L121.849 32.1364V32.685H112.694Z" fill="#E5E5E5"/>
<path d="M128.158 32.9936C127.038 32.9936 126.078 32.6621 125.278 31.9993C124.478 31.3136 124.1 30.3307 124.146 29.0507C124.146 28.2278 124.306 27.5307 124.626 26.9593C124.946 26.365 125.506 25.8507 126.306 25.4164C127.106 24.9821 128.226 24.5821 129.666 24.2164L132.889 23.4278V21.3021C132.889 20.4336 132.626 19.7364 132.1 19.2107C131.575 18.685 130.9 18.4221 130.078 18.4221C129.346 18.4221 128.82 18.5821 128.5 18.9021C128.18 19.2221 128.02 19.7021 128.02 20.3421V21.9193L127.883 22.0564H125.62C125.278 22.0564 125.038 21.9764 124.9 21.8164C124.763 21.6564 124.695 21.3821 124.695 20.9936C124.695 20.4907 124.889 19.9993 125.278 19.5193C125.689 19.0393 126.226 18.5936 126.889 18.1821C127.712 17.6564 128.478 17.2793 129.186 17.0507C129.918 16.8221 130.706 16.7078 131.552 16.7078C132.672 16.7078 133.7 16.8564 134.638 17.1536C135.575 17.4507 136.318 17.9307 136.866 18.5936C137.438 19.2336 137.723 20.0678 137.723 21.0964V30.1478C138.089 30.5136 138.638 30.6964 139.369 30.6964H140.363L140.466 30.7993V31.2793C140.215 31.7136 139.78 32.1136 139.163 32.4793C138.569 32.845 137.792 33.0278 136.832 33.0278C135.872 33.0278 135.083 32.8336 134.466 32.445C133.872 32.0336 133.415 31.4507 133.095 30.6964H132.889C132.318 31.3364 131.632 31.885 130.832 32.3421C130.032 32.7764 129.14 32.9936 128.158 32.9936ZM128.672 28.0907C128.672 28.8221 128.866 29.3707 129.255 29.7364C129.666 30.0793 130.226 30.2507 130.935 30.2507C131.552 30.2507 132.203 30.1136 132.889 29.8393V24.7993C131.746 25.0507 130.866 25.325 130.249 25.6221C129.655 25.9193 129.243 26.2621 129.015 26.6507C128.786 27.0393 128.672 27.5193 128.672 28.0907Z" fill="#E5E5E5"/>
<path d="M149.301 33.0278C147.838 33.0278 146.546 32.7193 145.426 32.1021C144.306 31.485 143.438 30.6164 142.821 29.4964C142.203 28.3764 141.895 27.0736 141.895 25.5878C141.895 23.8507 142.249 22.3193 142.958 20.9936C143.689 19.645 144.695 18.5936 145.975 17.8393C147.278 17.085 148.786 16.7078 150.501 16.7078C151.575 16.7078 152.546 16.8564 153.415 17.1536C154.283 17.4507 154.935 17.8621 155.369 18.3878C155.735 18.8221 155.918 19.165 155.918 19.4164C155.918 19.6907 155.769 19.965 155.472 20.2393L153.861 21.6107H153.621L152.421 19.9307C152.032 19.405 151.643 18.9936 151.255 18.6964C150.866 18.3764 150.352 18.2164 149.712 18.2164C148.661 18.2164 147.861 18.7421 147.312 19.7936C146.786 20.8221 146.523 22.205 146.523 23.9421C146.523 24.925 146.695 25.8278 147.038 26.6507C147.381 27.4736 147.918 28.125 148.649 28.605C149.403 29.085 150.375 29.325 151.563 29.325C152.203 29.325 152.889 29.245 153.621 29.085C154.352 28.925 155.106 28.6507 155.883 28.2621H155.986V28.8107C155.415 30.0221 154.546 31.0278 153.381 31.8278C152.238 32.6278 150.878 33.0278 149.301 33.0278Z" fill="#E5E5E5"/>
<defs>
<clipPath id="clip0_3811_10159">
<rect width="8.93239" height="8.92578" fill="white" transform="translate(2.81299 2.81348)"/>
</clipPath>
<clipPath id="clip1_3811_10159">
<rect width="8.92462" height="8.93356" fill="white" transform="matrix(0 1 -1 0 37.2197 2.81152)"/>
</clipPath>
<clipPath id="clip2_3811_10159">
<rect width="8.93239" height="8.92578" fill="white" transform="matrix(-1 0 0 -1 37.2212 37.1875)"/>
</clipPath>
<clipPath id="clip3_3811_10159">
<rect width="8.92462" height="8.93356" fill="white" transform="matrix(0 -1 1 0 2.81506 37.1895)"/>
</clipPath>
<clipPath id="clip4_3811_10159">
<rect width="9.0248" height="8.77449" fill="white" transform="translate(2.61597 15.6123)"/>
</clipPath>
<clipPath id="clip5_3811_10159">
<rect width="9.0248" height="8.77449" fill="white" transform="matrix(-1 0 0 -1 37.4181 24.3877)"/>
</clipPath>
<clipPath id="clip6_3811_10159">
<rect width="9.01761" height="8.78149" fill="white" transform="matrix(-0.290433 0.956895 -0.957036 -0.28997 29.2687 4.63477)"/>
</clipPath>
<clipPath id="clip7_3811_10159">
<rect width="9.01761" height="8.78149" fill="white" transform="matrix(0.2906 0.956845 -0.956985 0.290137 19.166 2.08887)"/>
</clipPath>
<clipPath id="clip8_3811_10159">
<rect width="9.01761" height="8.78149" fill="white" transform="matrix(0.290433 -0.956895 0.957036 0.28997 10.7655 35.3652)"/>
</clipPath>
<clipPath id="clip9_3811_10159">
<rect width="9.01761" height="8.78149" fill="white" transform="matrix(-0.2906 -0.956845 0.956985 -0.290137 20.8683 37.9102)"/>
</clipPath>
<clipPath id="clip10_3811_10159">
<rect width="9.49809" height="9.48983" fill="white" transform="translate(10.2117 10.2031)"/>
</clipPath>
<clipPath id="clip11_3811_10159">
<rect width="9.48983" height="9.49809" fill="white" transform="matrix(0 1 -1 0 29.823 10.2031)"/>
</clipPath>
<clipPath id="clip12_3811_10159">
<rect width="9.49809" height="9.48983" fill="white" transform="matrix(-1 0 0 -1 29.823 29.7969)"/>
</clipPath>
<clipPath id="clip13_3811_10159">
<rect width="9.48983" height="9.49809" fill="white" transform="matrix(0 -1 1 0 10.2117 29.7969)"/>
</clipPath>
<clipPath id="clip14_3811_10159">
<rect width="5.37279" height="7.55912" fill="white" transform="translate(14.6538 30.9023)"/>
</clipPath>
<clipPath id="clip15_3811_10159">
<rect width="5.3724" height="7.55968" fill="white" transform="matrix(0.956884 0.290471 -0.290934 0.956743 11.7137 28.874)"/>
</clipPath>
<clipPath id="clip16_3811_10159">
<rect width="5.37135" height="7.56116" fill="white" transform="matrix(0.831596 -0.555381 0.55605 0.831149 21.6227 32.041)"/>
</clipPath>
<clipPath id="clip17_3811_10159">
<rect width="5.3724" height="7.55968" fill="white" transform="matrix(0.957036 -0.28997 0.290433 0.956895 18.0505 31.9873)"/>
</clipPath>
<clipPath id="clip18_3811_10159">
<rect width="1.94604" height="2.16816" fill="white" transform="translate(30.3442 11.5322)"/>
</clipPath>
<clipPath id="clip19_3811_10159">
<rect width="1.94604" height="2.16816" fill="white" transform="translate(9.69141 28.4697) rotate(179.99)"/>
</clipPath>
<clipPath id="clip20_3811_10159">
<rect width="1.94459" height="2.16978" fill="white" transform="matrix(0.382968 0.923762 -0.923997 0.382399 31.7986 26.293)"/>
</clipPath>
<clipPath id="clip21_3811_10159">
<rect width="1.94459" height="2.16978" fill="white" transform="matrix(-0.382968 -0.923762 0.923997 -0.382399 8.23511 13.708)"/>
</clipPath>
<clipPath id="clip22_3811_10159">
<rect width="2.02658" height="2.25911" fill="white" transform="matrix(-0.831693 -0.555236 0.555905 -0.831246 2.37183 21.3584)"/>
</clipPath>
<clipPath id="clip23_3811_10159">
<rect width="2.02658" height="2.25911" fill="white" transform="matrix(0.831693 0.555236 -0.555905 0.831246 37.6628 18.6426)"/>
</clipPath>
</defs>
</svg>
