<svg xmlns="http://www.w3.org/2000/svg" viewBox="0 0 826.5 253.8">
	<g fill="#fff">
		<path
			d="M287 91V80c0-23 10-41 44-41h20v32h-10c-13 0-15 6-15 14v6h25v34h-25v84h-40v-84h-17V91h17ZM483 181v28h-21c-11 0-19-3-22-12-7 9-19 14-36 14-26 0-43-13-43-36 0-22 15-36 44-36h28v-5c0-8-6-14-17-14s-18 6-18 14h-35c-1-28 22-45 55-45 23 0 54 9 54 46v41c0 5 4 5 6 5Zm-50-18h-20c-10 0-12 6-12 9 0 7 6 9 14 9 14 0 18-6 18-14v-4Z" />
		<path
			d="m543 171 26-80h40l-49 137c-9 23-27 26-46 26h-31v-35h32c5 0 7-2 7-5l-2-8-45-115h42ZM701 91v35h-20c-18 0-22 10-22 25v58h-39V91h37l4 12c3-6 10-12 23-12ZM826 161h-80c1 12 10 20 22 20 9 0 16-4 18-11h40c-5 25-28 42-59 42-36 0-60-25-60-62s24-61 60-61 59 23 59 60v12Zm-80-25h41c-1-11-10-17-20-17s-20 6-21 17ZM178 34a74 74 0 0 0-16-12l1 1-25-14-3-1V7a26 26 0 0 0-3-1h-1l-2-1-1-1a23 23 0 0 0-3 0l-1-1-3-1h-3l-1-1a22 22 0 0 0-3 0h-3l-1-1H99a6 6 0 0 0-1 0 23 23 0 0 0-3 0h-1l-4 1-4 1a5 5 0 0 1-1 0h-3l-1 1-4 1h-1l-3 1-2 1-3 1h-1l-3 2-2 1-2 1-2 1-2 1-2 1-2 1-2 1-1 1a4 4 0 0 1-1 1l-4 3-5 4-1 1-4 3-1 1-3 5h-1l-2 3-3 4-1 1-2 2-3 5-1 2-3 4a6 6 0 0 1 0 1l-1 2-2 3a11 11 0 0 0 0 1l-1 3a10 10 0 0 1-1 1l-1 3-1 1v1l-1 2v2l-1 3-1 2a25 25 0 0 1-1 2 16 16 0 0 0 0 2l-1 3v2l-1 3v5a12 12 0 0 0 0 2l-1 3v104c0 8 3 15 8 19a20 20 0 0 0 4 3l25 14v-1a22 22 0 0 0 14 3l127-18a29 29 0 0 0 18-11 33 33 0 0 0 8-20V98c0-27-10-49-26-64Zm10 81v83a13 13 0 0 1-3 8 11 11 0 0 1-7 4L51 228a8 8 0 0 1-7-2 9 9 0 0 1-3-7l1-84v-14c0-22 8-43 21-59 14-16 32-27 52-30s38 3 52 16c13 12 21 31 21 52Z" />
		<path
			d="M173 201a4 4 0 0 0 6-4v-97c0-18-7-35-19-46a52 52 0 0 0-36-14 59 59 0 0 0-8 1c-17 2-34 12-46 27a85 85 0 0 0-19 53v13Z" />
	</g>
</svg>