<svg width="173" height="34" viewBox="0 0 173 34" fill="none" xmlns="http://www.w3.org/2000/svg">
<path d="M4.86306 0.774414C5.98126 0.833708 7.04087 1.27323 7.85179 2.01409C9.89178 3.83711 12.0489 3.92219 14.0937 2.06271C15.7725 0.534418 18.1784 0.678712 19.5405 1.61605C19.6931 1.71495 19.8386 1.82358 19.9761 1.94117C22.0588 3.84319 24.1606 3.8523 26.3701 2.09309C27.0413 1.57502 27.8224 1.20377 28.6587 1.00533C30.4279 0.586039 32.3776 1.69051 33.1362 3.38743C33.52 4.2565 33.5844 5.22488 33.3187 6.13364C33.0531 7.04241 32.4733 7.83755 31.6744 8.38856C30.9257 8.8978 30.0189 9.14819 29.1025 9.09879C28.1861 9.04939 27.3143 8.70312 26.6298 8.11662C26.4714 7.9799 26.3321 7.82949 26.1816 7.68668C24.46 6.05812 22.119 6.01561 20.3926 7.63049C19.4106 8.55112 18.3115 9.02509 16.924 8.98863C15.8533 8.96281 14.9141 8.61794 14.2315 7.91304C12.5526 6.19637 10.0327 6.21159 8.46785 7.52872C6.52289 9.16792 6.19346 11.43 7.60625 13.4429C8.21603 14.3103 9.0523 15.0426 9.19009 16.1911C9.35956 17.5811 9.05547 18.7737 8.05132 19.8265C6.1412 21.8227 6.34235 24.5724 8.4837 26.2526C10.2259 27.6199 12.4291 27.4922 14.2948 25.8773C15.5191 24.8139 16.9082 24.466 18.4667 24.9096C20.2866 25.4292 21.2004 26.7175 21.4538 28.4676C21.6772 30.0186 20.7728 31.6928 19.2824 32.4752C17.6985 33.3077 16.1448 33.2013 14.6766 32.1896C14.4069 31.9859 14.1503 31.7668 13.9084 31.5333C12.258 30.0734 9.89333 29.9959 8.36492 31.5576C6.53399 33.4201 2.21485 33.37 0.844823 29.8971C0.423521 28.8337 0.686458 27.7991 1.25981 26.8451C1.52934 26.4103 1.83383 25.9963 2.17052 25.607C3.83197 23.6579 3.8589 21.6966 2.13409 19.7839C0.775156 18.2784 0.531216 16.6453 1.31364 14.8542C1.49103 14.4471 1.81886 14.0946 2.12296 13.7467C3.80659 11.8386 3.72105 9.59936 1.88221 7.83256C-0.0184029 6.00954 0.50434 2.61719 2.90862 1.43071C3.50731 1.13143 4.20418 0.990138 4.86306 0.774414Z" fill="#E5E5E5"/>
<path d="M121.463 25.9716H118.588V23.8447C118.456 23.9238 118.331 24.0127 118.214 24.1106C114.625 27.9374 107.628 26.8998 105.415 22.1584C103.861 18.8284 104.188 15.6092 106.426 12.618C108.908 9.30009 115.612 8.85952 118.181 12.2746C118.221 12.3263 118.295 12.3521 118.442 12.4478V0.909642H121.452L121.463 25.9716ZM113.227 12.58C109.981 12.58 107.862 14.7934 107.865 18.1858C107.865 21.4702 110.03 23.6457 113.29 23.6472C116.458 23.6472 118.577 21.3973 118.575 18.043C118.569 14.7843 116.415 12.583 113.223 12.58H113.227Z" fill="#E5E5E5"/>
<path d="M140.299 19.1276H127.126C127.359 20.9871 128.235 22.3179 129.963 23.0259C132.792 24.1896 135.218 23.5925 137.201 21.2302L139.577 22.997C138.747 24.0993 137.618 24.9613 136.311 25.4885C134.164 26.3968 131.748 26.5401 129.501 25.8926C126.04 24.9051 124.399 22.4364 123.883 19.1505C123.276 15.2765 125.734 11.3236 129.471 10.2207C131.409 9.6495 133.39 9.59937 135.302 10.2648C138.601 11.4133 139.976 13.926 140.29 17.1011C140.353 17.73 140.299 18.365 140.299 19.1276ZM136.927 16.4372C136.997 13.8196 134.832 11.8948 132.041 11.9966C129.447 12.0923 127.055 14.2997 127.26 16.4372H136.927Z" fill="#E5E5E5"/>
<path d="M171.975 10.5899L164.95 17.7437L172.95 25.9473C171.408 25.9473 170.031 25.967 168.658 25.926C168.457 25.926 168.245 25.6419 168.074 25.4596C165.991 23.2395 163.912 21.0175 161.836 18.7934C161.648 18.5929 161.45 18.4 161.135 18.0794V25.9062H158.097V1.54009H161.106V17.1223C161.434 16.8352 161.627 16.6787 161.806 16.5147C163.72 14.6992 165.615 12.8686 167.554 11.079C167.875 10.8073 168.28 10.644 168.707 10.6141C169.805 10.5458 170.909 10.5899 171.975 10.5899Z" fill="#E5E5E5"/>
<path d="M76.4893 18.0734C76.4766 22.6765 72.6882 26.2633 67.8448 26.2526C63.0806 26.242 59.3347 22.5641 59.3616 17.923C59.387 13.3654 63.1755 9.81508 68.0015 9.8242C72.7371 9.83028 76.5003 13.4915 76.4893 18.0734ZM73.1807 17.9032C73.1521 14.7342 71.0709 12.7182 67.8573 12.738C64.7054 12.7608 62.656 14.8922 62.6671 18.1311C62.6798 21.3335 64.78 23.3692 68.0316 23.3297C71.174 23.2978 73.2092 21.1482 73.1807 17.9032Z" fill="#E5E5E5"/>
<path d="M90.9388 26.365H87.9389V10.7175H90.717V12.8929C90.8405 12.8519 90.9403 12.8474 90.9593 12.8094C91.8558 10.877 95.185 9.79683 97.7698 10.4577C100.192 11.076 101.888 13.0692 101.95 15.6639C102.04 19.1292 101.973 22.599 101.97 26.0658C101.97 26.1113 101.934 26.1554 101.893 26.2481H98.9546V25.3958C98.9546 22.7372 98.972 20.0787 98.9435 17.4216C98.9544 16.7399 98.8642 16.0601 98.6758 15.4026C98.1341 13.7209 96.9685 13.054 94.957 13.1512C93.031 13.2454 91.6309 14.3103 91.2492 16.0999C91.0626 16.992 90.9634 17.8989 90.953 18.8086C90.9118 21.0342 90.9388 23.2629 90.9388 25.493V26.365Z" fill="#E5E5E5"/>
<path d="M142.369 23.673L144.655 21.8713C145.109 22.2146 145.539 22.5443 145.974 22.8664C147.21 23.7779 148.6 23.8508 150.03 23.474C150.481 23.3355 150.893 23.1007 151.236 22.7874C151.944 22.1797 151.933 21.1527 151.169 20.6058C150.617 20.2249 150.005 19.9306 149.356 19.7338C148.36 19.4163 147.306 19.2598 146.31 18.9408C144.546 18.3741 143.226 17.3669 143.085 15.4285C142.944 13.49 143.679 12.0118 145.534 11.1352C148.196 9.87585 150.816 9.94419 153.355 11.4543C153.889 11.7702 154.369 12.1713 154.983 12.6119L152.489 14.2982C151.454 13.809 150.613 13.2074 149.684 13.0342C148.892 12.8823 147.952 13.0995 147.186 13.4049C146.077 13.847 145.973 15.1671 147.002 15.7642C147.837 16.2488 148.824 16.4949 149.753 16.8276C150.932 17.2393 152.221 17.4611 153.281 18.0596C154.784 18.9073 155.392 20.3567 155.181 22.0338C154.945 23.8569 153.786 25.0722 152.074 25.7482C149.818 26.6354 147.498 26.6476 145.2 25.8576C144.031 25.452 143.111 24.7076 142.369 23.673Z" fill="#E5E5E5"/>
<path d="M58.2514 23.9997C55.5145 27.114 49.3026 27.2431 45.9924 24.267C42.6822 21.291 42.6838 15.4877 45.9924 12.4174C49.1949 9.44743 55.4591 9.57958 58.3923 12.7425L56.2384 14.4926C55.1297 13.9776 54.1794 13.3259 53.123 13.0768C49.8143 12.2959 47.1043 14.444 46.8747 17.8743C46.7923 19.1246 47.0458 20.305 47.7569 21.3487C49.4675 23.8751 53.1292 24.343 55.5747 22.3681C55.7552 22.2161 55.9263 22.0642 56.0894 21.9275L58.2514 23.9997Z" fill="#E5E5E5"/>
<path d="M83.0528 26.5245H79.9564V10.7661H83.0528V26.5245Z" fill="#E5E5E5"/>
<path d="M83.6134 4.99621C83.5976 6.23738 82.5554 7.275 81.3296 7.25677C80.1037 7.23854 79.1264 6.17816 79.1612 4.90965C79.1961 3.66848 80.2541 2.65669 81.4831 2.68859C82.671 2.72049 83.6293 3.75352 83.6134 4.99621Z" fill="#E5E5E5"/>
<path d="M18.7724 17.2743C18.7629 17.7075 18.5769 18.1199 18.2542 18.4232C17.9315 18.7264 17.4978 18.8964 17.046 18.8967C16.6079 18.8784 16.1934 18.7011 15.8865 18.4007C15.5795 18.1003 15.4029 17.6993 15.3925 17.2788C15.4016 16.8451 15.5877 16.432 15.9107 16.1284C16.2338 15.8247 16.6682 15.6547 17.1205 15.6548C17.5586 15.6736 17.9729 15.8513 18.2796 16.1519C18.5862 16.4526 18.7624 16.8537 18.7724 17.2743Z" fill="#E5E5E5"/>
<path d="M31.1265 17.3168C31.1059 17.7497 30.9093 18.1577 30.5789 18.4533C30.2485 18.7489 29.8106 18.9086 29.3589 18.8982C28.9215 18.8694 28.5117 18.6824 28.2125 18.3751C27.9132 18.0677 27.7467 17.6629 27.7465 17.2423C27.7671 16.809 27.9638 16.4006 28.2945 16.1047C28.6252 15.8088 29.0635 15.649 29.5157 15.6594C29.9532 15.6883 30.363 15.8755 30.662 16.1832C30.9611 16.4909 31.1271 16.8961 31.1265 17.3168Z" fill="#E5E5E5"/>
<path d="M31.1265 29.2758C31.117 29.709 30.9309 30.1214 30.6082 30.4247C30.2855 30.728 29.8518 30.8979 29.4 30.8982C28.9619 30.8799 28.5474 30.7026 28.2405 30.4022C27.9335 30.1018 27.7569 29.7008 27.7465 29.2803C27.7556 28.8466 27.9417 28.4335 28.2647 28.1299C28.5878 27.8263 29.0222 27.6563 29.4745 27.6563C29.9126 27.6751 30.3269 27.8528 30.6335 28.1534C30.9402 28.4541 31.1165 28.8553 31.1265 29.2758Z" fill="#E5E5E5"/>
</svg>
