<svg width="228" height="60" viewBox="0 0 228 60" fill="none" xmlns="http://www.w3.org/2000/svg">
<path d="M43.902 29.2457L57.3867 23.5368L57.6586 23.8779L33.3625 59.7888L33.0507 59.6353L36.311 45.3903C35.62 45.9053 35.2412 46.1781 34.8756 46.4645C27.0666 52.569 14.2661 52.8828 6.1988 47.1466C2.58612 44.5718 0.573579 41.1922 0.674211 36.5166C0.815095 29.8153 0.902204 23.1003 0.650625 16.3956C0.425881 10.3798 3.13944 6.35894 8.13413 3.83529C16.3256 -0.304866 24.5708 -0.325325 32.6582 4.26499C33.8908 4.93619 34.9913 5.83209 35.9052 6.90801C36.8813 8.12209 37.9513 8.3608 39.3736 8.34716C46.5788 8.28918 53.7974 8.32335 60.996 8.32335H62.6732C61.6266 12.7159 60.6608 16.9583 59.5605 21.1667C59.4733 21.5077 58.6446 21.8487 58.1549 21.8487C54.7491 21.9078 51.3412 21.9078 47.9309 21.8487C46.948 21.8317 46.4415 22.1284 46.1295 23.1139C45.5056 25.051 44.7507 26.9301 43.902 29.2457ZM60.3385 10.2433H40.4873C35.6805 10.2433 30.8736 10.2161 26.0634 10.2843C25.4999 10.2843 24.5675 10.7276 24.4501 11.1504C23.6618 13.981 23.0478 16.8594 22.3199 19.9662H34.6774C32.695 28.7069 30.7697 37.185 28.7604 46.0212L39.253 41.4275C38.6693 44.4729 38.1628 47.1227 37.6597 49.7725L37.9515 49.8988L52.1809 27.9908L51.9928 27.7452L40.1787 33.021C42.0237 28.6319 43.6605 24.6623 45.3948 20.7438C45.5692 20.3448 46.3306 20.0106 46.8237 20.0003C50.121 19.9321 53.4185 19.9628 56.7158 19.9662C57.4572 19.9662 58.0911 20.0242 58.3092 18.9636C58.8794 16.1296 59.5973 13.3331 60.3185 10.2433H60.3385ZM34.8821 8.2858C33.7786 7.41275 33.0942 6.77505 32.3261 6.27714C27.5528 3.17714 22.2965 2.29043 16.7651 3.01001C12.8304 3.52156 9.15745 4.8243 6.09824 7.51164C1.6 11.454 1.36507 16.6309 5.64192 20.812C11.9348 26.9506 23.3027 28.1101 31.6853 22.9946C31.9503 22.8344 32.0813 22.4422 32.4604 21.876H19.9954C21.0721 17.2755 22.1155 12.8829 23.2056 8.2858H34.8821ZM2.62624 20.7677C2.29081 25.0545 4.25326 28.0555 7.54056 30.112C14.3768 34.3885 21.6492 34.6273 29.1161 32.0184C29.4985 31.882 30.0115 31.5682 30.1054 31.234C30.6186 29.4299 31.0178 27.5917 31.5042 25.5591C20.7735 29.7539 11.1867 28.9218 2.62297 20.7677H2.62624ZM29.4614 34.2555C19.5424 36.6905 10.395 36.2677 2.62624 28.533C2.29081 33.0483 4.47805 35.9812 7.84586 38.082C13.9207 41.8913 20.4884 42.1198 27.2375 40.4862C27.438 40.4299 27.624 40.3296 27.7822 40.1923C27.9405 40.055 28.0672 39.8841 28.1534 39.6916C28.6297 37.9251 29.012 36.1175 29.4581 34.2555H29.4614ZM2.79396 36.0528C2.1734 39.7018 3.57229 42.8734 7.0944 45.3391C12.5956 49.1928 18.7108 49.9943 25.1613 48.712C25.5772 48.6267 26.1674 48.2516 26.258 47.8901C26.7276 46.2395 27.0597 44.5445 27.4756 42.6995C18.1269 44.183 9.53972 43.6032 2.77726 36.0528H2.79396Z" fill="#E5E5E5"/>
<path d="M110.883 34.1056H107.914V20.5699C110.205 19.8435 110.597 19.9765 111.751 21.8999C113.123 24.2503 114.613 26.5269 116.216 28.7206V20.3687H118.926V34.0101C117.175 34.5114 115.988 34.1703 115.102 32.3833C113.913 30.0785 112.5 27.9009 110.883 25.8833V34.1056Z" fill="#E5E5E5"/>
<path d="M181.244 29.2731V34.0953H178.5V20.0925C181.003 20.2869 183.592 20.1676 186.011 20.7746C188.751 21.4567 189.469 25.3683 187.473 27.4486C187.138 27.8101 186.722 28.1068 186.229 28.5297L188.973 33.8976C186.491 34.6069 186.165 34.4739 185.055 32.3015C184.74 31.7667 184.466 31.2081 184.236 30.6305C183.777 29.2254 182.878 28.7957 181.244 29.2731ZM181.335 27.2269C182.945 26.6506 184.29 26.33 185.421 25.6479C185.712 25.4706 185.598 23.6495 185.223 23.4483C184.106 22.8514 182.767 22.6844 181.335 22.299V27.2269Z" fill="#E5E5E5"/>
<path d="M224.465 28.3592H218.981V34.0953H216.184V20.3278H218.924V25.8423H224.291V20.3858H227.159V34.0953H224.476L224.465 28.3592Z" fill="#E5E5E5"/>
<path d="M176.484 24.526C174.663 24.7783 173.61 25.0239 172.775 23.421C171.886 21.7158 168.8 22.1864 168.38 24.1474C167.982 26.1735 167.982 28.2598 168.38 30.286C168.716 32.0321 171.285 32.813 172.657 31.7183C173.214 31.2716 173.234 30.1291 173.543 29.1537L170.792 28.9321V27.0701H176.112C176.112 28.7411 176.213 30.4292 176.052 32.0866C176.001 32.6084 175.337 33.2461 174.801 33.5121C170.618 35.5856 164.989 34.4569 164.972 27.7624C164.933 26.3521 165.129 24.9451 165.552 23.6017C166.777 20.1129 171.554 18.8067 174.334 21.2144C175.203 21.9749 175.666 23.2334 176.484 24.526Z" fill="#E5E5E5"/>
<path d="M100.256 26.8654C100.256 31.0602 98.8838 33.3689 96.1734 34.1669C92.9163 35.1218 89.7768 33.5088 89.0254 30.1496C88.6409 28.3276 88.618 26.4458 88.9582 24.6147C89.5285 21.5454 91.9169 19.9493 94.966 20.1539C97.6797 20.3381 99.7325 22.3536 100.155 25.2933C100.217 25.8151 100.251 26.3399 100.256 26.8654ZM91.303 27.3463C91.5445 28.3318 91.5882 29.5562 92.1416 30.4497C92.6012 31.1897 93.6914 31.9878 94.4596 31.9435C95.3116 31.8957 96.7104 31.0192 96.8076 30.3303C97.128 28.3108 97.128 26.2522 96.8076 24.2327C96.6969 23.5506 95.2678 22.6605 94.4393 22.6605C93.6107 22.6605 92.5508 23.4926 92.0309 24.2634C91.511 25.0341 91.5513 26.1833 91.303 27.3463Z" fill="#E5E5E5"/>
<path d="M142.323 20.3449V22.5752H136.128V25.8423H141.333V28.1887H136.128V31.7968H142.293V34.0817H133.296V20.3449H142.323Z" fill="#E5E5E5"/>
<path d="M206.506 29.4539V34.1124H203.759V20.4471C206.07 20.4471 208.307 20.2323 210.488 20.5052C212.896 20.8087 214.224 22.6844 214.178 25.0239C214.131 27.1894 212.813 28.7139 210.451 29.1163C209.253 29.3448 208.012 29.3414 206.506 29.4539ZM206.593 27.0325C208.271 26.7563 210.058 27.6328 211.004 25.856C211.316 25.2728 211.179 24.0826 210.773 23.5233C209.716 22.0739 208.11 22.6571 206.593 22.7048V27.0325Z" fill="#E5E5E5"/>
<path d="M189.503 34.2489C191.23 29.5494 192.8 25.1977 194.444 20.87C194.779 19.9697 197.063 19.8947 197.406 20.7813C199.083 25.15 200.673 29.5562 202.32 34.0271C200.505 34.3682 199.036 34.5148 198.674 32.2435C198.617 31.9025 197.942 31.4899 197.5 31.4114C196.742 31.2716 195.933 31.449 195.152 31.3501C193.88 31.1864 193.179 31.6195 192.931 32.9495C192.562 35.0196 190.979 33.9283 189.503 34.2489ZM195.936 23.895C195.316 25.8253 194.833 27.3293 194.34 28.8707H197.59C197.044 27.227 196.56 25.7673 195.936 23.895Z" fill="#E5E5E5"/>
<path d="M157.358 22.6196V25.8867H162.54V28.1716H157.358V31.7899H163.52V34.0919H154.577V20.3721H163.516C163.547 21.0201 163.577 21.6715 163.62 22.6196H157.358Z" fill="#E5E5E5"/>
<path d="M87.073 29.679C86.8315 32.3254 85.4462 33.843 82.9874 34.3511C80.4616 34.8695 77.9927 33.9215 76.9495 31.7627C76.2383 30.3718 75.8699 28.8261 75.8757 27.2585C75.8816 25.6909 76.2614 24.1482 76.9829 22.7628C78.0362 20.6654 80.5857 19.6935 83.0579 20.246C85.53 20.7985 86.8584 22.3366 87.053 24.867C85.7716 25.0307 84.5238 25.549 83.8663 23.6154C83.6785 23.0527 82.3835 22.5343 81.6522 22.5923C80.8572 22.6707 79.5356 23.3835 79.4719 23.9564C79.2209 26.1665 79.2132 28.3981 79.4486 30.61C79.5056 31.1625 80.7266 31.9366 81.4612 31.9741C82.2629 32.0219 83.6314 31.5444 83.8427 30.951C84.5035 29.1197 85.7413 29.6585 87.073 29.679Z" fill="#E5E5E5"/>
<path d="M124.612 22.6366H120.51V20.3824H131.488C131.515 21.0167 131.546 21.7056 131.583 22.5582H127.443V34.0851H124.612V22.6366Z" fill="#E5E5E5"/>
<path d="M146.784 31.8514H152.752V34.0851H144.178V20.3483H146.781L146.784 31.8514Z" fill="#E5E5E5"/>
<path d="M102.627 20.3278H105.16V34.0885H102.627V20.3278Z" fill="#E5E5E5"/>
</svg>
