<svg width="144" height="54" viewBox="0 0 144 54" fill="none" xmlns="http://www.w3.org/2000/svg">
<path d="M93.4662 12.1637C97.0716 12.6277 99.6012 14.5002 100.858 17.9414C101.642 20.0768 101.527 22.2573 100.981 24.4378C100.87 24.8854 100.751 25.3412 100.681 25.7971C100.649 25.8979 100.638 26.0044 100.65 26.1096C100.662 26.2148 100.695 26.3163 100.749 26.4077C100.802 26.4991 100.874 26.5782 100.96 26.6399C101.046 26.7017 101.144 26.7447 101.248 26.7662C101.753 26.951 102.283 27.0618 102.915 27.2384C103.104 26.5403 103.268 25.949 103.42 25.3536C103.896 23.4892 104.262 21.6208 103.987 19.6785C103.367 15.3667 101.112 12.2622 97.1496 10.4513C94.464 9.21937 91.6429 9.14546 88.7889 9.72857C86.1253 10.3036 83.609 11.4219 81.3973 13.0137C80.2106 13.835 79.0485 14.7179 77.8288 15.4776C76.6024 16.3056 75.2246 16.8834 73.7744 17.1779C72.3242 17.4725 70.8301 17.478 69.3778 17.1941C67.4557 16.7692 65.6396 15.9589 64.0394 14.8123C63.8095 14.6604 63.5713 14.5167 63.2797 14.336C63.1566 14.5947 63.0416 14.7918 62.9635 14.9971C62.4708 16.2865 62.6925 16.997 63.9162 17.6294C64.9474 18.1691 66.0133 18.6396 67.1069 19.0379C69.2068 19.8042 71.4582 20.0632 73.6772 19.7934C76.1748 19.4522 78.5522 18.5095 80.6048 17.0462C82.1406 15.9909 83.6025 14.8493 85.2943 14.0198C87.8691 12.7591 90.5095 11.7859 93.4662 12.1637Z" fill="#E5E5E5"/>
<path d="M77.4798 5.35111C78.8574 6.49567 79.9901 7.90629 80.8101 9.49861C81.0113 9.88051 81.2208 10.2583 81.4754 10.7059L83.8078 9.43291C83.1508 8.38166 82.5759 7.43718 81.9722 6.50091C80.9474 4.90258 79.5639 3.5654 77.9315 2.59569C75.7258 1.1819 73.1042 0.561973 70.4989 0.838138C67.1111 1.24878 64.4213 2.89136 62.2614 5.48662C60.8734 7.1292 60.0808 9.11261 59.4238 11.1412C58.7826 13.325 58.286 15.5486 57.9373 17.7977C57.387 20.7913 56.1181 23.3907 53.6994 25.3371C52.2545 26.4775 50.5696 27.275 48.7717 27.6696C48.0736 27.8338 47.3714 27.9858 46.6815 28.1418C46.8663 29.9404 47.6548 30.5236 49.2645 30.0636C49.987 29.8632 50.6984 29.6247 51.3957 29.3491C53.6538 28.4833 55.6727 27.091 57.2844 25.2879C59.2144 23.0786 60.2328 20.4792 60.7707 17.6047C61.0992 15.8266 61.3949 14.0362 61.863 12.291C62.5132 9.795 63.859 7.53501 65.7436 5.77407C67.322 4.30408 69.3773 3.45217 71.5328 3.37449C73.6884 3.29681 75.7997 3.99855 77.4798 5.35111Z" fill="#E5E5E5"/>
<path d="M47.704 41.5411H50.0981C50.0036 40.7814 49.9544 40.1408 49.8435 39.4879C49.5027 37.5168 48.6116 35.7593 47.626 34.0592C46.583 32.2688 45.4455 30.5359 44.3901 28.7578C42.8708 26.1995 41.877 23.4933 42.0905 20.4423C42.1778 18.6455 42.8046 16.9168 43.8892 15.4817C45.8438 12.9521 48.513 11.946 51.6339 11.9543C53.0837 12.026 54.5199 12.2686 55.9128 12.677C56.1797 12.7386 56.4549 12.7797 56.771 12.8371C56.9312 12.447 57.0831 12.1226 57.2063 11.7859C57.5431 10.8496 57.3993 10.517 56.4384 10.2254C54.2168 9.5561 51.9624 9.17831 49.63 9.51914C46.9825 9.84544 44.5314 11.084 42.6983 13.0219C39.9347 15.9621 39.1421 19.5347 39.6102 23.4482C39.9223 26.0188 40.9777 28.3143 42.3862 30.4538C43.2732 31.7924 44.1971 33.1024 45.1088 34.4247C46.5009 36.4409 47.4535 38.6173 47.5973 41.0976C47.6201 41.2482 47.6559 41.3966 47.704 41.5411Z" fill="#E5E5E5"/>
<path d="M110.29 41.5945H112.532C112.553 41.3194 112.569 41.1839 112.569 41.0648C112.589 39.4263 112.228 37.8057 111.515 36.3301C110.803 34.8546 109.758 33.5642 108.463 32.5604C106.085 30.6621 103.285 29.3648 100.299 28.7783C98.4267 28.3677 96.5296 28.0926 94.6734 27.6408C90.0989 26.5239 87.1463 23.7028 85.9555 19.1077C85.7748 18.4055 85.6434 17.6951 85.475 16.9887C85.4046 16.7416 85.3196 16.4989 85.2204 16.2619C84.8714 16.4344 84.6168 16.5576 84.3663 16.6726C84.1812 16.7647 84.0015 16.8675 83.8284 16.9805C83.4987 17.1464 83.2437 17.4305 83.1143 17.776C82.9849 18.1216 82.9906 18.5033 83.1303 18.8449C83.2781 19.3664 83.4547 19.8838 83.6436 20.3889C85.5572 25.5219 89.1133 28.7742 94.5092 29.924C96.2544 30.2936 98.012 30.6057 99.7531 30.9958C102.227 31.4895 104.543 32.5791 106.5 34.1701C108.401 35.7757 109.715 37.7345 110.13 40.2271C110.2 40.6418 110.229 41.0771 110.29 41.5945Z" fill="#E5E5E5"/>
<path d="M40.7601 31.8048C40.5219 31.2668 40.3494 30.8398 40.14 30.4291C40.0668 30.2594 39.9293 30.1256 39.7577 30.0571C39.586 29.9886 39.3942 29.9909 39.2242 30.0636C39.0515 30.1166 38.8816 30.1783 38.715 30.2484C34.4936 32.1128 31.9887 35.3486 31.1181 39.8575C30.9415 40.4127 30.9272 41.0068 31.0771 41.5699C31.868 41.6268 32.6624 41.6117 33.4506 41.5247C33.4953 39.3034 34.3378 37.1724 35.8241 35.5211C36.7988 34.4529 37.9267 33.5354 39.1709 32.7985L40.7601 31.8048Z" fill="#E5E5E5"/>
<path d="M92.6284 45.5695C91.8379 45.5606 91.0626 45.7871 90.4012 46.2202C89.7398 46.6533 89.2222 47.2735 88.9144 48.0017C88.6066 48.7299 88.5224 49.5332 88.6727 50.3094C88.8229 51.0856 89.2007 51.7995 89.758 52.3603C90.3153 52.9211 91.0268 53.3033 91.8021 53.4584C92.5773 53.6135 93.3812 53.5343 94.1113 53.2311C94.8414 52.9278 95.4647 52.4141 95.902 51.7554C96.3392 51.0967 96.5705 50.3228 96.5665 49.5322C96.5665 48.4855 96.1524 47.4813 95.4146 46.7389C94.6768 45.9964 93.6751 45.576 92.6284 45.5695ZM92.6284 52.0249C92.1422 52.0248 91.6668 51.8809 91.2622 51.6113C90.8576 51.3416 90.5418 50.9583 90.3546 50.5095C90.1674 50.0607 90.1172 49.5666 90.2103 49.0893C90.3034 48.612 90.5356 48.173 90.8777 47.8275C91.2198 47.4819 91.6565 47.2453 92.1328 47.1475C92.6091 47.0497 93.1038 47.095 93.5544 47.2777C94.005 47.4604 94.3915 47.7724 94.6651 48.1743C94.9388 48.5762 95.0874 49.0501 95.0923 49.5364C95.0956 49.863 95.0339 50.1871 94.9107 50.4897C94.7876 50.7923 94.6055 51.0673 94.3751 51.2989C94.1447 51.5305 93.8705 51.7139 93.5685 51.8385C93.2665 51.9632 92.9428 52.0265 92.6161 52.0249H92.6284Z" fill="#E5E5E5"/>
<path d="M131.64 48.8136C131.071 48.8567 130.5 48.8567 129.931 48.8136C129.703 48.8136 129.483 48.7228 129.322 48.5611C129.16 48.3993 129.069 48.18 129.069 47.9513C129.069 47.7226 129.16 47.5032 129.322 47.3415C129.483 47.1798 129.703 47.0889 129.931 47.0889C130.523 47.052 131.118 47.0889 131.714 47.0889H133.68V45.6106C132.251 45.6106 130.88 45.5367 129.521 45.6352C128.905 45.6883 128.335 45.9814 127.934 46.4511C127.533 46.9208 127.332 47.5296 127.376 48.1459C127.419 48.7621 127.704 49.3365 128.167 49.745C128.631 50.1534 129.236 50.3632 129.853 50.3289C130.395 50.3289 130.941 50.3289 131.496 50.3289C131.722 50.3235 131.942 50.4082 132.106 50.5646C132.27 50.7209 132.365 50.936 132.371 51.1625C132.376 51.389 132.291 51.6085 132.135 51.7725C131.979 51.9365 131.763 52.0317 131.537 52.0372C131.356 52.0474 131.175 52.0474 130.995 52.0372C130.112 52.0372 129.233 52.0372 128.354 52.0372C128.148 52.0526 127.942 52.0786 127.738 52.1152V53.4703C127.858 53.4985 127.978 53.5204 128.1 53.536H131.126C131.41 53.5429 131.694 53.5292 131.976 53.495C132.583 53.3929 133.128 53.0652 133.503 52.5778C133.877 52.0903 134.054 51.4791 133.997 50.8668C133.983 50.5751 133.91 50.2892 133.783 50.0262C133.656 49.7633 133.477 49.5289 133.256 49.3371C133.036 49.1452 132.779 49 132.502 48.91C132.224 48.82 131.93 48.7873 131.64 48.8136Z" fill="#E5E5E5"/>
<path d="M13.2469 45.6024V48.9368C12.1505 48.8875 11.1609 49.0272 10.0932 48.8218V45.5367C9.74825 45.5367 9.49365 45.5367 9.23905 45.5367C9.06247 45.5367 8.8859 45.5695 8.66415 45.5901V53.458H10.1343V50.5219C11.1772 50.3515 12.243 50.3793 13.2757 50.604V53.4498H14.6719C14.8238 52.493 14.7868 46.1568 14.6349 45.5819L13.2469 45.6024Z" fill="#E5E5E5"/>
<path d="M67.4847 48.8793H64.3638V45.5942H62.9635V53.4539H64.4049V50.4562C65.4644 50.4357 66.4581 50.4233 67.4437 50.4562C67.5545 51.528 67.4067 52.5094 67.5504 53.5278C67.9282 53.5278 68.2362 53.5278 68.5442 53.5278C68.6826 53.5122 68.8197 53.4875 68.9548 53.4539V45.6106H67.4929L67.4847 48.8793Z" fill="#E5E5E5"/>
<path d="M99.1371 33.242C98.4637 33.0162 97.9668 32.8314 97.4494 32.6794C97.1832 32.6112 96.9025 32.6254 96.6444 32.7199C96.3864 32.8145 96.1631 32.9851 96.0039 33.2092C95.8127 33.4526 95.6475 33.7155 95.5112 33.9935C94.6545 35.6246 94.0705 37.3849 93.7823 39.2046C93.6633 39.9519 93.4579 40.7198 93.6797 41.5411H95.9916C95.9588 38.4161 97.3426 35.8332 99.1371 33.242Z" fill="#E5E5E5"/>
<path d="M57.7689 45.5613C56.9682 45.5326 56.1674 45.5613 55.3625 45.5613C55.0874 45.5613 54.8123 45.5819 54.5413 45.5942V47.1218H55.9292C56.6027 47.1218 57.2761 47.1218 57.9496 47.1218C58.1073 47.1147 58.2626 47.1629 58.3886 47.2582C58.5145 47.3534 58.6033 47.4896 58.6395 47.6433C58.7028 47.79 58.7098 47.955 58.659 48.1066C58.6082 48.2581 58.5033 48.3856 58.3643 48.4646C58.1356 48.5782 57.8846 48.6399 57.6293 48.6453C56.9312 48.6453 56.229 48.6453 55.5309 48.6453H54.5289V53.458H55.9251V50.333C56.009 50.2855 56.0969 50.2457 56.1879 50.2139C56.7053 50.2139 57.2228 50.1605 57.7361 50.2139C58.0483 50.2298 58.3606 50.1823 58.6541 50.0744C58.9475 49.9665 59.2162 49.8005 59.4439 49.5861C59.6715 49.3718 59.8535 49.1137 59.9789 48.8273C60.1043 48.5408 60.1706 48.232 60.1736 47.9194C60.1766 47.6067 60.1165 47.2966 59.9967 47.0078C59.8769 46.719 59.6999 46.4574 59.4765 46.2387C59.253 46.02 58.9877 45.8487 58.6963 45.7351C58.405 45.6215 58.0938 45.568 57.7812 45.5778L57.7689 45.5613Z" fill="#E5E5E5"/>
<path d="M84.0501 45.5654C83.0933 45.5285 82.1365 45.5654 81.1756 45.5654C81.0366 45.5807 80.8992 45.6082 80.765 45.6476V47.13H83.5943C83.8263 47.1196 84.0587 47.132 84.2883 47.1669C84.455 47.201 84.6048 47.2914 84.7125 47.4231C84.8202 47.5548 84.8793 47.7196 84.8796 47.8897C84.8863 48.0472 84.8385 48.2022 84.7442 48.3286C84.65 48.455 84.5151 48.5451 84.3622 48.5837C84.1384 48.642 83.9077 48.6696 83.6764 48.6658C82.9249 48.6658 82.1735 48.6658 81.4261 48.6658C81.2043 48.6658 80.9826 48.7027 80.7773 48.7233C80.6335 49.8936 80.6828 52.9488 80.8348 53.4785H82.1036V50.1934C82.7401 50.1934 83.2534 50.1934 83.7462 50.1934C84.056 50.1987 84.3651 50.1642 84.6661 50.0907C85.1876 49.9274 85.6344 49.5846 85.9272 49.1232C86.22 48.6617 86.3398 48.1115 86.2655 47.5701C86.1912 47.0287 85.9275 46.5311 85.5212 46.1656C85.1149 45.8001 84.5922 45.5904 84.046 45.5736L84.0501 45.5654Z" fill="#E5E5E5"/>
<path d="M113.259 47.6802L114.298 46.859C113.812 46.2732 113.151 45.859 112.411 45.6772C111.672 45.4953 110.894 45.5555 110.192 45.8488C109.44 46.187 108.81 46.7455 108.383 47.4503C107.956 48.155 107.754 48.9728 107.802 49.7953C107.851 50.6177 108.148 51.406 108.655 52.0557C109.161 52.7054 109.853 53.1859 110.639 53.4334C111.966 53.7865 113.473 53.3184 114.142 52.2877L113.169 51.5033C111.695 52.263 110.578 52.1357 109.789 51.142C109.426 50.6965 109.228 50.1396 109.228 49.5651C109.228 48.9906 109.426 48.4337 109.789 47.9882C110.643 46.9534 111.711 46.859 113.259 47.6802Z" fill="#E5E5E5"/>
<path d="M33.0769 45.7379C31.9969 45.4176 30.8882 45.5695 29.763 45.5778V47.0561C30.264 47.0561 30.6993 47.0561 31.1346 47.0561C31.546 47.0487 31.9575 47.0679 32.3665 47.1136C32.9365 47.2202 33.4507 47.5244 33.8185 47.9727C34.1863 48.4211 34.3842 48.9848 34.3773 49.5646C34.3704 50.1445 34.1592 50.7033 33.7809 51.1428C33.4026 51.5823 32.8814 51.8743 32.309 51.9674C31.7259 52.0413 31.1264 52.0084 30.5309 52.0331C30.2599 52.0331 29.993 52.07 29.7096 52.0947V53.536C30.5309 53.536 31.2947 53.5566 32.0421 53.536C32.9682 53.5066 33.8524 53.1433 34.5316 52.5131C35.2108 51.883 35.6393 51.0284 35.7379 50.1072C35.8881 49.1812 35.7025 48.2321 35.2146 47.4309C34.7267 46.6298 33.9685 46.0293 33.0769 45.7379Z" fill="#E5E5E5"/>
<path d="M101.141 45.5572C100.57 45.5572 100.004 45.5572 99.4328 45.5572C99.2694 45.5742 99.1075 45.603 98.9482 45.6435V47.0191L99.7695 47.0561C100.414 47.0561 101.067 47.0273 101.704 47.1053C102.301 47.176 102.851 47.4684 103.243 47.9246C103.635 48.3809 103.842 48.9678 103.823 49.5692C103.833 50.1574 103.624 50.7284 103.236 51.1705C102.848 51.6125 102.309 51.8938 101.724 51.9592C101.166 52.0331 100.591 52.0084 100.024 52.029L98.9359 52.0823V53.5401C99.6997 53.5401 100.414 53.5401 101.129 53.5401C102.165 53.5069 103.147 53.072 103.868 52.3275C104.589 51.583 104.992 50.5872 104.992 49.5507C104.992 48.5143 104.589 47.5185 103.868 46.774C103.147 46.0294 102.165 45.5946 101.129 45.5613L101.141 45.5572Z" fill="#E5E5E5"/>
<path d="M0.278809 47.0191L2.74267 47.1012V53.4826H4.2292C4.33597 51.3268 4.17992 49.2161 4.32365 47.015H6.78751V45.6106H0.278809V47.0191Z" fill="#E5E5E5"/>
<path d="M136.838 45.6927V47.0889H139.302V53.4785H140.797V51.3391C140.797 50.6163 140.797 49.8936 140.797 49.1709C140.765 48.4586 140.786 47.7448 140.859 47.0355H143.277V45.6311C142.029 45.4628 137.343 45.5285 136.838 45.6927Z" fill="#E5E5E5"/>
<path d="M116.717 53.4826C117 53.5114 117.152 53.5155 117.304 53.5401C117.44 53.58 117.583 53.5915 117.724 53.5737C117.865 53.556 118.001 53.5095 118.123 53.4371C118.245 53.3647 118.351 53.2679 118.434 53.1528C118.517 53.0377 118.575 52.9068 118.606 52.7681C118.74 52.4316 118.898 52.1049 119.078 51.7908L120.675 48.637C120.84 48.9245 120.918 49.0477 120.987 49.1914L122.86 53.0268C122.971 53.2568 123.045 53.5278 123.377 53.5319H124.609C123.299 50.8176 122.096 48.2305 120.704 45.5736C119.3 48.2634 118.023 50.8381 116.717 53.4826Z" fill="#E5E5E5"/>
<path d="M47.9792 45.5819H46.6076C46.4475 46.4976 46.4762 52.8872 46.6487 53.5278C48.2913 53.5278 49.9585 53.5935 51.6175 53.4868V52.0208H48.0326C47.971 49.8197 48.0572 47.7131 47.9792 45.5819Z" fill="#E5E5E5"/>
<path d="M71.8458 53.4826H73.1393V45.6065H71.8458V53.4826Z" fill="#E5E5E5"/>
<path d="M22.1743 45.6024H17.1152V47.0027H22.1743V45.6024Z" fill="#E5E5E5"/>
<path d="M43.2075 46.9206V45.6476C42.3164 45.4956 38.7274 45.5203 38.1443 45.6886V46.9493C38.9984 47.1177 42.6408 47.0889 43.2075 46.9206Z" fill="#E5E5E5"/>
<path d="M17.1563 52.0741V53.4826H22.1949V52.0454C20.4907 52.0372 18.8317 51.9838 17.1563 52.0741Z" fill="#E5E5E5"/>
<path d="M38.1525 52.1727V53.5401C39.8731 53.5401 41.5321 53.5853 43.2116 53.4991V52.1398C42.3903 51.9674 38.7643 51.992 38.1525 52.1727Z" fill="#E5E5E5"/>
<path d="M42.7352 48.8136C41.1789 48.7808 39.6718 48.7726 38.1484 48.8136V50.2221H42.7352V48.8136Z" fill="#E5E5E5"/>
<path d="M21.6774 48.8136C20.117 48.8136 18.6346 48.8136 17.1357 48.8136V50.2468H21.6774V48.8136Z" fill="#E5E5E5"/>
</svg>
