<svg width="198" height="26" viewBox="0 0 198 26" fill="none" xmlns="http://www.w3.org/2000/svg">
<path d="M50.6552 14.3907C50.6552 16.1082 50.6122 17.6709 50.6727 19.2284C50.7105 20.2327 50.1459 20.2983 49.4728 20.2222C48.8552 20.154 47.9274 20.6182 47.9324 19.3307C47.9476 14.965 47.9476 10.5992 47.9627 6.22035C47.9908 6.07362 48.0401 5.93214 48.109 5.80079H61.8782C61.9346 6.13123 61.9726 6.46481 61.9917 6.79982C61.9917 10.8614 61.9564 14.9282 62.0245 18.982C62.0421 20.1462 61.5204 20.2537 60.6557 20.238C59.8313 20.2222 59.1608 20.2379 59.249 19.0239C59.3273 17.8016 59.3273 16.5753 59.249 15.353C59.2288 15.0174 58.9035 14.4222 58.7094 14.417C56.0649 14.3698 53.4333 14.3907 50.6552 14.3907ZM59.1505 11.4828V8.64577H50.7357V11.4828H59.1505Z" fill="#E5E5E5"/>
<path d="M167.058 5.81654H180.959V20.1121H167.058V5.81654ZM169.786 8.55922V17.4271C172.468 17.4271 175.057 17.4454 177.646 17.393C177.868 17.393 178.266 16.9315 178.271 16.6772C178.319 14.2334 178.324 11.7896 178.271 9.34847C178.271 9.08626 177.815 8.59852 177.563 8.59328C175.012 8.53822 172.461 8.55922 169.786 8.55922Z" fill="#E5E5E5"/>
<path d="M150.11 5.77717H163.869C163.929 6.15131 163.968 6.52861 163.988 6.9073C163.988 10.9217 163.97 14.9361 164.01 18.9531C164.01 19.8944 163.779 20.2641 162.816 20.2641C158.918 20.2196 155.018 20.2485 151.121 20.2458C150.531 20.2458 149.921 20.3323 149.926 19.3674C149.951 15.0043 149.944 10.6385 149.954 6.2754C149.985 6.10292 150.037 5.93538 150.11 5.77717ZM161.157 17.4324V8.65883H152.676C152.676 11.4173 152.659 14.0761 152.707 16.7348C152.707 16.9708 153.15 17.3982 153.392 17.4035C155.936 17.4507 158.49 17.4324 161.147 17.4324H161.157Z" fill="#E5E5E5"/>
<path d="M99.0063 5.80604H112.871V8.48842H101.779V11.5536C103.141 11.5536 104.482 11.6585 105.8 11.5248C107.119 11.3911 107.565 11.9233 107.356 13.2082C107.305 13.5464 107.293 13.8899 107.252 14.3697H101.754V17.4035H112.924V20.1304H99.0112L99.0063 5.80604Z" fill="#E5E5E5"/>
<path d="M129.996 14.2386C128.945 14.3671 127.846 14.1731 127.389 14.6476C126.933 15.1222 127.137 16.2628 127.034 17.2042H124.44V14.4772H118.662C118.662 15.9876 118.594 17.4638 118.682 18.9348C118.755 20.1488 118.155 20.2458 117.232 20.2615C116.31 20.2772 115.899 19.9993 115.911 18.9269C115.962 14.9518 115.954 10.9768 115.911 7.00169C115.911 6.05513 116.151 5.70635 117.117 5.71946C121.019 5.77453 124.931 5.76404 128.824 5.71946C129.671 5.71946 130.026 5.9319 130.006 6.87847C129.963 9.317 129.996 11.7529 129.996 14.2386ZM118.735 11.433H127.13V8.6588H118.735V11.433Z" fill="#E5E5E5"/>
<path d="M42.1924 5.80342H44.8847C44.9099 6.28064 44.9553 6.74215 44.9553 7.20363C44.9553 10.92 44.9553 14.6363 44.9553 18.3527C44.9553 20.3586 44.9553 20.3612 42.9814 20.2196C42.7393 20.186 42.4994 20.137 42.2631 20.0727V14.3697H37.6774C36.669 14.3697 35.6607 14.4038 34.6523 14.3697C33.896 14.3356 33.5986 14.6162 33.6213 15.4186C33.6642 16.942 33.6213 18.4654 33.6213 19.9521C33.4146 20.0701 33.3112 20.1698 33.2003 20.1829C30.9088 20.4609 30.8835 20.4451 30.8835 18.0616V5.82442H33.5531V11.4461H42.1899L42.1924 5.80342Z" fill="#E5E5E5"/>
<path d="M135.741 20.154H133.049V5.83485H146.914V20.1278H144.277V16.0584C144.277 13.9188 144.31 11.7765 144.244 9.63949C144.244 9.27239 143.808 8.61427 143.561 8.6064C141.007 8.53036 138.453 8.56185 135.746 8.56185L135.741 20.154Z" fill="#E5E5E5"/>
<path d="M184.019 5.80604H197.92C197.947 6.28064 197.997 6.73952 198 7.19838C198 10.9147 198 14.6302 198 18.3448C198 20.3533 198 20.3559 196.026 20.2196C195.771 20.1845 195.519 20.1337 195.27 20.0675V8.64315H186.699V20.1121H184.017L184.019 5.80604Z" fill="#E5E5E5"/>
<path d="M78.9094 17.4428V20.1252H64.9966V5.86634H78.902V8.48842C78.476 8.5094 78.0322 8.5461 77.5911 8.5461C74.6542 8.5461 71.7174 8.57756 68.7679 8.5461C67.9083 8.53299 67.5804 8.78733 67.6057 9.72603C67.6611 11.9076 67.6611 14.0927 67.6057 16.2812C67.5804 17.2226 67.9233 17.4795 68.7728 17.469C71.6668 17.4297 74.571 17.469 77.4574 17.469L78.9094 17.4428Z" fill="#E5E5E5"/>
<path d="M18.2664 5.88997H14.3969C14.3288 5.19249 14.2706 4.60252 14.2051 3.91554H12.2615V13.8794H10.3885V3.91554H8.41978L8.228 5.9319H4.34594L4.39124 5.97645V0.31543H18.226V5.95552L18.2664 5.88997Z" fill="#E5E5E5"/>
<path d="M18.2664 20.1803V25.49H4.34594V20.175L4.31049 20.217H8.25336L8.39688 22.0524H14.195L14.374 20.2327H18.2966L18.2664 20.1803Z" fill="#E5E5E5"/>
<path d="M90.236 11.3937V14.3435H84.6748C84.6748 16.1134 84.6346 17.6762 84.69 19.2363C84.7228 20.2379 84.1504 20.2851 83.4773 20.2222C82.8547 20.1567 81.927 20.5998 81.9296 19.3281C81.9296 15.0017 81.9363 10.677 81.9498 6.35408C81.975 6.16806 82.0215 5.98583 82.0884 5.81129H84.6371V11.4278H90.2737L90.236 11.3937Z" fill="#E5E5E5"/>
<path d="M20.321 9.83352L21.9192 10.0748L22.1713 11.9522L23.936 12.0859V13.8742L22.1713 14.0735L21.9722 15.8591H20.3789V9.79946L20.321 9.83352Z" fill="#E5E5E5"/>
<path d="M2.27358 15.8722H0.637695V10.0617H2.27358V15.8722Z" fill="#E5E5E5"/>
<path d="M93.367 5.79817H95.9105V8.45693H93.3645L93.367 5.79817Z" fill="#E5E5E5"/>
<path d="M20.3537 9.79946H18.2664V5.87947L18.226 5.92402H19.9906C20.1142 7.3111 20.2226 8.56973 20.336 9.82571L20.3537 9.79946Z" fill="#E5E5E5"/>
<path d="M90.2737 11.4278C90.332 11.2229 90.3734 11.0133 90.3973 10.8011C90.4956 8.39141 90.493 8.39139 93.0366 8.81092V11.3963H90.2385L90.2737 11.4278Z" fill="#E5E5E5"/>
<path d="M93.0494 17.2226H90.5056V14.5716H93.0494V17.2226Z" fill="#E5E5E5"/>
<path d="M18.289 20.2222V16.1685L19.9983 16.0898V19.9364L18.2538 20.1777L18.289 20.2222Z" fill="#E5E5E5"/>
<path d="M96.1627 17.2934C95.956 18.4759 96.0391 19.5195 95.5778 20.0832C95.2854 20.4425 93.9192 20.3717 93.5234 19.9705C93.1276 19.5693 93.072 18.1036 93.4023 17.8492C93.9997 17.4035 94.988 17.4874 96.1627 17.2934Z" fill="#E5E5E5"/>
<path d="M127.5 17.3169C128.307 17.4795 129.298 17.4114 129.857 17.8912C130.182 18.1718 130.074 19.5483 129.691 20.0124C129.378 20.39 128.03 20.4556 127.747 20.1121C127.276 19.5457 127.293 18.5388 127.104 17.7234L127.5 17.3169Z" fill="#E5E5E5"/>
<path d="M4.34077 5.9109V9.77321H2.61404V5.95814H4.37868L4.34077 5.9109Z" fill="#E5E5E5"/>
<path d="M4.33595 20.175C2.49064 19.8604 2.49057 19.8604 2.50066 17.6893C2.50066 15.9692 2.56126 15.9246 4.30321 16.2472V20.2143L4.33595 20.175Z" fill="#E5E5E5"/>
</svg>
