<svg width="191" height="53" viewBox="0 0 191 53" fill="none" xmlns="http://www.w3.org/2000/svg">
<g clip-path="url(#clip0_2388_28771)">
<path d="M42.1604 7.87825L41.2604 8.15755C37.7146 9.22892 33.9055 9.11482 30.4331 7.83322C26.9607 6.55162 24.0224 4.17535 22.0809 1.07868L21.4072 0L20.7482 1.07868C18.8067 4.17535 15.8684 6.55162 12.396 7.83322C8.92366 9.11482 5.11457 9.22892 1.56869 8.15755L0.644144 7.88306L0.555623 8.80284C-1.02791 25.3924 6.9783 42.6128 20.9547 52.6725L21.4072 53L21.8596 52.6725C28.7936 47.663 34.3068 41.0031 37.877 33.3236C41.497 25.6661 43.006 17.2137 42.2538 8.80765L42.1604 7.87825ZM30.0134 13.002H30.8986V14.6345H30.0134V13.002ZM30.0134 17.2301H30.9281V18.8336H30.0134V17.2301ZM21.5941 11.4032C21.7598 11.1946 21.9776 11.0313 22.2266 10.9293C22.4756 10.8272 22.7472 10.7897 23.0153 10.8206L24.6234 11.0324L26.7332 11.3117C27.3703 11.3485 28.0076 11.2431 28.597 11.0035V19.7101C27.9936 19.8942 27.3653 19.9884 26.7332 19.9894L24.6825 19.7101L23.0153 19.4934C22.5037 19.4657 21.9991 19.6196 21.5941 19.9268V11.4032ZM14.3108 11.0324C14.8719 11.2487 15.4741 11.344 16.0763 11.3117L18.186 11.0324L19.7991 10.8206C20.0665 10.7892 20.3376 10.8264 20.5859 10.9285C20.8342 11.0307 21.0511 11.1943 21.2154 11.4032V19.9268C20.8118 19.6203 20.309 19.4664 19.7991 19.4934L18.127 19.739L16.0959 20.0183C14.6206 20.0183 14.296 19.6812 14.296 19.6812C14.296 19.6812 14.3108 11.6199 14.3108 11.0324V11.0324ZM13.1452 12.087C13.3026 12.0533 13.7747 11.9618 14.0255 11.8992V19.7101C14.119 19.8931 14.4681 20.2976 16.1402 20.2976L18.2499 20.0183L19.8581 19.8064C20.1264 19.7717 20.3994 19.8073 20.6491 19.9097C20.8988 20.012 21.1163 20.1775 21.2793 20.3891L21.3432 20.3602H21.5941L21.658 20.3891C21.8216 20.1794 22.0384 20.0152 22.2869 19.913C22.5354 19.8108 22.8068 19.774 23.0743 19.8064L24.6825 20.0183L26.7971 20.2976C28.4987 20.2976 28.9118 19.8642 28.9413 19.816L28.9708 11.8463L29.7281 12.063V20.7069H29.6986C28.6851 20.8496 27.6635 20.9317 26.6397 20.9525C25.2824 20.9188 23.93 20.8273 22.5678 20.6732L22.3809 20.6395V21.2318C22.0674 21.3515 21.7339 21.4136 21.3973 21.4148C21.0736 21.4132 20.7531 21.3511 20.4531 21.2318V20.6347L20.2613 20.6684C18.904 20.8225 17.5483 20.9156 16.1943 20.9477C15.1732 20.9438 14.1538 20.8633 13.1452 20.7069V12.087ZM11.9453 13.0502H12.7666V14.6537H11.9453V13.0502ZM11.9453 17.2493H12.7666V18.8529H11.9453V17.2493ZM21.4072 52.0706C17.8512 49.4852 14.6583 46.4527 11.9109 43.0511V43.0511C11.9109 43.0511 11.9109 43.0511 11.9109 43.0848L12.4666 42.5551L21.4072 34.0701L30.3134 42.5647L30.8494 43.0896C28.1143 46.4727 24.9401 49.4918 21.4072 52.0706V52.0706ZM12.4764 42.5165L21.4072 34.0075L12.4764 42.5165ZM34.7001 36.083L21.3875 23.5625L8.1094 36.0492L21.3875 23.5625L34.7001 36.083ZM40.4834 23.5095C39.4395 28.1174 37.7061 32.5491 35.3394 36.6608L35.3099 36.6319L34.7099 36.0637L21.4318 23.5095L21.3973 23.5384L20.4875 24.3908L20.3597 24.5112L8.08481 36.0204L7.49959 36.5693C5.04352 32.2738 3.25666 27.6431 2.19818 22.8305H40.6113C40.5832 23.0593 40.5405 23.2861 40.4834 23.5095Z" fill="#E5E5E5"/>
<path d="M167.152 22.7972C168.161 22.4209 169.067 21.8191 169.798 21.0395C171.054 19.6786 171.731 17.899 171.691 16.065C171.736 14.8893 171.444 13.7247 170.848 12.7033C170.252 11.6818 169.375 10.8445 168.317 10.2864C167.216 9.65996 165.966 9.32784 164.693 9.32324C163.419 9.3386 162.168 9.66233 161.053 10.2656C159.937 10.8689 158.992 11.7329 158.3 12.7808C157.581 13.9126 157.199 15.2186 157.198 16.5514C157.176 17.4595 157.345 18.3623 157.694 19.204C158.043 20.0457 158.565 20.8083 159.227 21.4448C159.889 22.0812 160.677 22.5779 161.543 22.9041C162.408 23.2303 163.333 23.3791 164.26 23.3413C165.249 23.3284 166.228 23.1442 167.152 22.7972V22.7972ZM161.821 21.3188C161.034 19.8207 160.642 18.1538 160.68 16.4695C160.68 13.8739 161.373 11.837 162.573 10.8498C163.122 10.3908 163.819 10.1381 164.54 10.1371C165.046 10.1353 165.545 10.2525 165.995 10.4788C166.446 10.705 166.834 11.0337 167.127 11.4373C167.885 12.3619 168.229 13.7824 168.229 15.699C168.229 18.5065 167.442 20.9961 166.335 21.8726C165.765 22.3232 165.052 22.5635 164.319 22.5516C163.83 22.5745 163.342 22.473 162.904 22.257C162.467 22.041 162.093 21.7178 161.821 21.3188V21.3188Z" fill="#E5E5E5"/>
<path d="M151.036 10.3872C151.945 10.5708 152.752 11.0767 153.303 11.8078C153.715 12.448 154.053 13.1312 154.311 13.8448C154.414 13.8687 154.52 13.8784 154.626 13.8737C154.726 13.7929 154.847 13.7397 154.975 13.7196V9.92491C154.975 9.64561 154.847 9.58301 154.562 9.58301C153.996 9.58301 151.001 9.64561 147.942 9.64561C145.577 9.64561 143.62 9.6119 142.533 9.6119H141.117C140.866 9.6119 140.802 9.6745 140.802 9.92491V13.4836C140.846 13.5166 140.897 13.5394 140.952 13.5502C141.006 13.5611 141.063 13.5597 141.117 13.5462C141.253 13.552 141.391 13.5406 141.525 13.5125C142.375 11.8174 143.167 10.9217 144.175 10.3968C144.741 10.3342 145.877 10.3342 146.143 10.3342C146.172 10.5509 146.172 11.1962 146.206 11.9715C146.236 13.2958 146.236 13.8977 146.236 17.0664C146.236 19.8112 146.206 21.0488 146.172 21.3281C146.108 21.853 146.206 22.2527 143.905 22.3442C143.85 22.482 143.828 22.6303 143.841 22.7776C143.838 22.8812 143.848 22.9847 143.87 23.0858H144.598C145.292 23.0858 146.964 23.0232 147.657 23.0232C148.193 23.0232 149.988 23.0858 151.1 23.0858H151.636C151.69 22.9598 151.712 22.8225 151.7 22.6861C151.696 22.5697 151.674 22.4544 151.636 22.3442C150.961 22.4044 150.282 22.288 149.669 22.0071C149.541 21.5543 149.488 21.0846 149.511 20.6154C149.482 18.6074 149.482 17.8369 149.482 16.5078C149.482 14.779 149.511 13.6184 149.511 10.3968C149.86 10.3872 150.47 10.3535 151.036 10.3872Z" fill="#E5E5E5"/>
<path d="M138.55 19.2617C138.464 19.2112 138.364 19.1892 138.265 19.1991C138.128 19.1938 137.991 19.2051 137.856 19.2328C137.41 20.3307 136.696 21.3046 135.776 22.0692C135.327 22.2507 134.84 22.3249 134.355 22.2859H132.811C132.389 22.2865 131.968 22.2559 131.552 22.1944C131.267 22.1318 130.952 21.7129 130.824 21.3902C130.644 21.0267 130.568 20.6225 130.603 20.22V16.1268H131.296C131.699 16.1324 132.097 16.2175 132.466 16.3772C132.832 16.53 133.133 16.8023 133.317 17.1477C133.484 17.649 133.59 18.1679 133.632 18.6935C133.787 18.7574 133.958 18.7774 134.124 18.7513C134.256 18.7514 134.386 18.72 134.502 18.6598C134.502 18.1782 134.379 16.8058 134.379 16.0642C134.379 15.1396 134.502 13.8442 134.566 13.1749C134.452 13.1098 134.318 13.0875 134.188 13.1123C134.021 13.1034 133.855 13.1246 133.696 13.1749C133.613 13.5513 133.508 13.9228 133.381 14.2873C133.087 14.7544 132.626 15.0977 132.088 15.2504C131.724 15.332 131.354 15.3835 130.981 15.4045H130.603V13.6901C130.603 11.8988 130.637 11.3113 130.667 10.9742C130.703 10.7592 130.725 10.542 130.73 10.3241C131.108 10.2816 131.488 10.2703 131.866 10.2904C132.968 10.2904 133.475 10.3241 133.661 10.3241C134.1 10.324 134.528 10.4532 134.891 10.6949C135.645 11.3425 136.266 12.1255 136.72 13.0015C136.857 13.0266 136.995 13.0362 137.133 13.0304C137.256 13.0304 137.256 13.0015 137.414 12.9052C137.414 11.7639 137.35 10.3144 137.291 9.81843C137.256 9.63544 137.227 9.57284 136.848 9.57284C136.691 9.57284 135.963 9.54395 135.206 9.54395C134.134 9.54395 133.696 9.57284 132.024 9.57284C131.139 9.57284 129.28 9.60173 128.493 9.60173C127.357 9.60173 126.378 9.57284 125.872 9.57284H125.242C125.178 9.66288 125.145 9.77108 125.149 9.88103C125.149 10.0102 125.181 10.1373 125.242 10.2518C125.711 10.2742 126.176 10.3469 126.629 10.4685C126.832 10.603 127 10.7817 127.12 10.9906C127.241 11.1995 127.31 11.4329 127.322 11.6724C127.357 12.0721 127.386 13.1556 127.386 13.9887V17.8411C127.386 18.6116 127.357 19.7674 127.357 20.22C127.316 20.8237 127.176 21.4171 126.944 21.9777C126.397 22.1642 125.821 22.2587 125.242 22.257C125.182 22.3821 125.15 22.5184 125.149 22.6567C125.145 22.7772 125.178 22.896 125.242 22.9986H125.872C126.472 22.9986 128.744 22.936 129.25 22.936C129.757 22.936 130.637 22.9649 131.739 22.9649C132.339 22.9649 134.134 23.0901 137.984 23.0901C138.149 23.0943 138.313 23.0847 138.476 23.0612C138.511 23.0175 138.535 22.9664 138.546 22.9121C138.557 22.8578 138.555 22.8016 138.54 22.7482C138.574 22.3822 138.574 21.3035 138.574 19.7866C138.584 19.6113 138.576 19.4354 138.55 19.2617V19.2617Z" fill="#E5E5E5"/>
<path d="M107.174 9.52051C106.23 9.52051 105.63 9.55422 103.894 9.55422C103.294 9.55422 102.443 9.52051 102.222 9.52051H101.73C101.666 9.55422 101.666 9.7661 101.666 9.8287C101.662 9.93865 101.695 10.0469 101.76 10.1369C102.434 10.2368 103.094 10.413 103.727 10.6618C104.075 11.2466 104.26 11.911 104.263 12.588C104.292 12.8673 104.292 13.1418 104.292 13.9171V17.8177C104.297 18.0845 104.287 18.3513 104.263 18.6171C103.948 18.28 103.476 17.601 102.718 16.7679L96.3794 9.88167C96.2932 9.78905 96.1976 9.70515 96.0942 9.63127C95.9368 9.63127 95.686 9.60237 95.5286 9.60237C94.2992 9.60237 92.0862 9.53977 91.7763 9.53977C91.739 9.61682 91.7173 9.70022 91.7124 9.78536C91.7165 9.91123 91.738 10.036 91.7763 10.1562C92.3111 10.2483 92.8048 10.4968 93.1927 10.8689C93.573 11.2149 93.9053 11.6083 94.1812 12.039C94.2508 12.2252 94.2727 12.4253 94.2451 12.6217C94.2451 13.5848 94.1812 14.938 94.1812 16.2671V20.0666C94.188 20.5509 94.1468 21.0347 94.0582 21.5112C93.5048 22.0025 92.8244 22.3356 92.0911 22.4744C92.0532 22.5847 92.0317 22.6999 92.0271 22.8163C92.0271 22.8789 92.0567 23.0618 92.0911 23.0618H92.4353C92.814 23.0618 93.6992 22.9992 94.2648 22.9992C95.1155 22.9992 95.686 23.0618 96.4434 23.0618H97.5744C97.6384 23.033 97.6728 22.8163 97.6728 22.7537C97.6658 22.6486 97.6442 22.5449 97.6089 22.4455C96.737 22.3417 95.9315 21.937 95.3368 21.3042C95.1759 20.542 95.0919 19.7662 95.086 18.9879C95.086 18.4004 95.0565 17.5673 95.0565 16.4838C95.0565 15.0054 95.086 13.7389 95.086 13.0888C95.2139 13.214 95.3368 13.397 95.4303 13.4885L104.179 23.1148C104.342 23.2057 104.528 23.2492 104.715 23.24C104.79 23.2446 104.865 23.2348 104.936 23.2111C105.05 22.9478 105.103 22.6636 105.094 22.378C105.094 21.8531 105.064 21.2656 105.064 20.9863V13.1948C105.064 10.8785 106.195 10.1995 107.489 10.1706C107.549 10.1207 107.597 10.0587 107.63 9.98888C107.663 9.91906 107.68 9.84307 107.681 9.7661C107.677 9.68076 107.655 9.5971 107.617 9.52051H107.174Z" fill="#E5E5E5"/>
<path d="M121.829 19.989C121.8 19.989 121.736 20.0179 121.706 20.0179C120.57 21.5926 119.306 22.209 117.89 22.209C117.068 22.2182 116.262 21.989 115.574 21.5502C114.885 21.1114 114.344 20.4827 114.02 19.7434C113.629 18.6504 113.427 17.5016 113.42 16.3437C113.386 15.2279 113.578 14.1166 113.985 13.0739C114.836 10.9117 116.036 10.2327 117.516 10.2327C118.123 10.2604 118.715 10.4253 119.245 10.7143C119.776 11.0034 120.231 11.4088 120.575 11.8989C121.013 12.5995 121.344 13.3587 121.559 14.1526C121.692 14.1871 121.829 14.2081 121.967 14.2152C122.127 14.2104 122.282 14.1565 122.41 14.0611C122.38 13.8444 122.188 12.4238 122.188 11.9615C122.188 11.4029 122.346 10.4783 122.346 10.1364C122.12 10.0211 121.875 9.94766 121.623 9.9197C121.369 10.15 121.146 10.4104 120.959 10.695C119.633 9.75316 118.015 9.29067 116.38 9.38638C114.745 9.4821 113.195 10.1301 111.994 11.2199C111.309 11.915 110.775 12.738 110.422 13.6399C110.07 14.5417 109.907 15.5039 109.943 16.4689C109.915 17.5359 110.142 18.5945 110.608 19.5596C111.073 20.5248 111.764 21.3695 112.623 22.026C113.928 22.8849 115.478 23.3165 117.049 23.2588C119.385 23.2588 121.052 22.3968 121.908 21.2555C122.151 21.0172 122.343 20.734 122.473 20.4224C122.433 20.2887 122.347 20.1726 122.23 20.0937C122.113 20.0148 121.971 19.9778 121.829 19.989V19.989Z" fill="#E5E5E5"/>
<path d="M83.18 21.7184C82.9587 21.9014 82.6882 22.2433 81.3162 22.3348C81.28 22.4652 81.2601 22.5994 81.2571 22.7345C81.2571 22.8934 81.2866 22.9512 81.2866 23.0475H81.6014C82.3587 23.0475 84.2521 22.9512 85.2602 22.9512C85.5455 22.9512 87.5274 23.0138 88.1618 23.0138H88.7912C88.8268 22.9045 88.8482 22.7913 88.8552 22.6767C88.8487 22.5511 88.8272 22.4267 88.7912 22.3059C88.2995 22.2722 87.847 22.2096 87.37 22.1518C87.0231 21.7362 86.7956 21.2375 86.711 20.7072C86.6766 19.8115 86.6766 17.9575 86.6766 16.2287V11.6828C86.6543 11.3112 86.7794 10.9455 87.0257 10.6619C87.542 10.3627 88.1276 10.1969 88.7273 10.1804C88.7626 10.0693 88.7841 9.95454 88.7912 9.83847C88.7902 9.72919 88.7579 9.62239 88.6978 9.53027H88.1618C87.37 9.53027 85.5111 9.62177 84.8472 9.62177C84.439 9.62177 82.58 9.56398 81.7588 9.56398H81.3506C81.29 9.65588 81.2576 9.76282 81.2571 9.87218C81.251 9.98534 81.2609 10.0988 81.2866 10.2093C81.7922 10.2087 82.2931 10.3035 82.762 10.4886C82.9761 10.6869 83.144 10.928 83.2543 11.1956C83.3646 11.4632 83.4148 11.7509 83.4013 12.0392C83.4308 12.3763 83.4308 13.1516 83.4603 14.8804C83.4947 15.8049 83.4948 17.1003 83.4948 18.1838C83.4948 18.7087 83.4603 19.9415 83.4308 20.5916C83.4139 20.9785 83.3291 21.3597 83.18 21.7184V21.7184Z" fill="#E5E5E5"/>
<path d="M71.51 23.0136C71.5481 22.9249 71.5698 22.8303 71.5739 22.7343C71.5691 22.599 71.5477 22.4648 71.51 22.3346C71.1313 22.3057 70.6592 22.1805 70.4379 22.1516C70.1816 22.0351 69.9666 21.8464 69.8203 21.6097C69.674 21.3729 69.6031 21.0989 69.6167 20.8225L69.5871 16.5318C69.7494 16.5037 69.9142 16.4924 70.0789 16.4981C70.4285 16.5157 70.7674 16.6219 71.0625 16.8063C71.6861 17.115 72.2104 17.5867 72.5772 18.1691C73.2251 19.4225 73.6303 20.7826 73.7722 22.1805C73.8361 22.5802 73.9935 22.9221 74.3427 22.951C74.5 22.9847 75.5082 23.0136 76.2311 23.0136H78.9458C78.9878 22.9739 79.0206 22.9259 79.0418 22.8727C79.063 22.8195 79.0722 22.7624 79.0687 22.7054C79.0688 22.5669 79.0369 22.4303 78.9753 22.3057C78.5417 22.3167 78.1112 22.2311 77.7163 22.0553C77.5988 21.903 77.4935 21.742 77.4016 21.5737C77.1796 20.8461 76.9052 20.1348 76.5803 19.4452C76.2686 18.6155 75.7846 17.8579 75.159 17.2204C74.7182 16.9521 74.2416 16.7447 73.7427 16.604C73.428 16.4788 73.2067 16.3874 72.9559 16.2959C73.2151 16.2374 73.4779 16.1956 73.7427 16.1707C75.159 15.9877 75.4787 15.771 75.8229 15.4917C76.1961 15.2076 76.496 14.8418 76.6984 14.4236C76.9008 14.0054 77.0002 13.5465 76.9885 13.0839C76.9939 12.3525 76.77 11.6371 76.347 11.0342C75.924 10.4314 75.3222 9.97025 74.623 9.71299C73.8769 9.56441 73.1172 9.49179 72.3559 9.49629C70.9346 9.49629 68.9134 9.61668 67.9692 9.61668C67.6889 9.61668 66.0021 9.58779 65.3529 9.58779C65.0726 9.58779 64.3448 9.55889 64.2169 9.55889C64.1581 9.66208 64.126 9.77783 64.1234 9.89598C64.1178 10.011 64.1294 10.1262 64.1579 10.2379C64.4726 10.2668 65.0726 10.3583 65.3873 10.392C65.7417 10.6517 66.0144 11.0038 66.1742 11.4081C66.302 12.9828 66.3315 14.5911 66.302 16.1658C66.302 18.0921 66.3316 20.2735 66.2381 20.9814C66.2342 21.2382 66.1582 21.489 66.0186 21.7064C65.879 21.9238 65.681 22.0995 65.4463 22.2142C65.1021 22.2768 64.7234 22.3105 64.3743 22.3394C64.3157 22.4547 64.2837 22.5814 64.2808 22.7102C64.2879 22.8153 64.3094 22.9189 64.3447 23.0184C64.63 23.0184 67.5315 22.9558 68.1315 22.9558C69.4003 22.951 70.4084 23.0136 71.51 23.0136ZM69.5429 10.758C69.5356 10.6134 69.579 10.4706 69.6658 10.3535C69.9207 10.269 70.1886 10.2282 70.4576 10.2331C71.9329 10.2331 72.6018 10.3535 73.1034 11.2492C73.4541 11.7581 73.6266 12.3647 73.5952 12.9779C73.5952 14.124 72.8083 15.4483 71.8641 15.665C71.3463 15.7796 70.8161 15.8313 70.2855 15.8191C70.0539 15.8239 69.8223 15.8143 69.5921 15.7902L69.5626 14.2155L69.5429 10.758Z" fill="#E5E5E5"/>
<path d="M52.055 23.0469C53.7566 23.0469 55.4975 23.1046 56.186 23.1046H56.6778C56.7337 23.0118 56.7562 22.9033 56.7417 22.7964C56.7466 22.6833 56.7366 22.57 56.7122 22.4594C56.0648 22.4495 55.4362 22.2443 54.9123 21.8719C54.6501 21.5595 54.5152 21.1633 54.5336 20.7595L54.4549 16.6518C55.5909 16.7144 56.8204 16.777 57.4843 16.777C58.2336 16.7716 58.9779 16.6564 59.6924 16.4351C60.3306 16.153 60.8739 15.6994 61.2591 15.1269C61.6444 14.5544 61.8557 13.8865 61.8686 13.201C61.8815 12.5155 61.6953 11.8405 61.3319 11.2545C60.9684 10.6685 60.4425 10.1956 59.8153 9.89075C58.7168 9.54699 57.564 9.40017 56.4122 9.45735C54.9368 9.45735 52.6599 9.58256 51.6517 9.58256C50.9583 9.58256 49.8862 9.51996 49.2863 9.51996C49.2209 9.60987 49.1865 9.7178 49.1879 9.82815C49.1774 9.95503 49.1994 10.0825 49.2518 10.1989C49.601 10.3242 50.201 10.4156 50.5797 10.5071C50.8772 10.7808 51.0537 11.1576 51.0714 11.5569C51.1354 12.207 51.1649 13.0401 51.1649 14.4463C51.1649 18.3661 51.1354 20.4368 51.1059 20.8991C51.0711 21.1988 50.952 21.4831 50.7618 21.7203C50.5716 21.9576 50.3179 22.1384 50.0289 22.2427C49.6659 22.334 49.2958 22.3952 48.9224 22.4256C48.8968 22.5589 48.8869 22.6947 48.8928 22.8302C48.8831 22.926 48.9056 23.0224 48.9568 23.1046C49.5617 23.1143 51.3616 23.0469 52.055 23.0469ZM54.4549 10.2616C54.8204 10.2 55.1906 10.1694 55.5614 10.1701C56.8548 10.1701 57.6416 10.4783 58.0203 11.2824C58.3253 11.8314 58.4779 12.4491 58.4629 13.0738C58.48 13.5059 58.4009 13.9365 58.231 14.3356C58.0612 14.7348 57.8047 15.0929 57.4794 15.3853C56.8962 15.7546 56.2043 15.924 55.5122 15.8669C55.2381 15.8717 54.964 15.862 54.691 15.838C54.5336 15.8043 54.4401 15.8043 54.4401 15.7128L54.4549 10.2616Z" fill="#E5E5E5"/>
<path d="M179.953 23.0137C180.017 22.9848 180.046 22.7681 180.046 22.7055C180.042 22.6001 180.02 22.4961 179.982 22.3973C179.11 22.3 178.304 21.8941 177.715 21.256C177.553 20.494 177.467 19.7182 177.459 18.9397C177.459 18.3522 177.43 17.5191 177.43 16.4356C177.43 14.9573 177.459 13.6908 177.459 13.0407C177.587 13.1659 177.715 13.3489 177.809 13.4404L186.607 23.1148C186.769 23.2057 186.955 23.2492 187.143 23.24C187.218 23.2446 187.293 23.2348 187.364 23.2111C187.477 22.9478 187.531 22.6636 187.521 22.378C187.521 21.8531 187.492 21.2656 187.492 20.9863V13.1948C187.492 10.8785 188.623 10.1995 189.916 10.1706C190.012 10.0577 190.058 9.9122 190.044 9.7661C190.041 9.68076 190.019 9.5971 189.98 9.52051H189.572C188.623 9.52051 188.028 9.55422 186.292 9.55422C185.692 9.55422 184.841 9.52051 184.62 9.52051H184.128C184.069 9.55422 184.069 9.7661 184.069 9.8287C184.065 9.93865 184.098 10.0469 184.162 10.1369C184.837 10.2371 185.497 10.4132 186.13 10.6618C186.492 11.2426 186.689 11.9076 186.7 12.588C186.73 12.8673 186.73 13.1418 186.73 13.9171V17.8177C186.734 18.0845 186.725 18.3513 186.7 18.6171C186.385 18.28 185.913 17.601 185.156 16.7679L178.763 9.88167C178.678 9.7892 178.584 9.70531 178.482 9.63127C178.325 9.63127 178.069 9.60237 177.912 9.60237C176.682 9.60237 174.469 9.53977 174.16 9.53977C174.125 9.61762 174.103 9.7006 174.096 9.78536C174.102 9.91098 174.124 10.0354 174.16 10.1562C174.696 10.2483 175.191 10.4967 175.581 10.8689C175.963 11.2155 176.299 11.6088 176.579 12.039C176.646 12.2258 176.668 12.4253 176.643 12.6217C176.643 13.5848 176.579 14.938 176.579 16.2671V20.0666C176.587 20.5511 176.544 21.0352 176.451 21.5112C175.899 22.0041 175.218 22.3375 174.484 22.4744C174.448 22.5849 174.428 22.7001 174.425 22.8163C174.425 22.8789 174.455 23.0618 174.484 23.0618H174.833C175.212 23.0618 176.092 22.9992 176.663 22.9992C177.514 22.9992 178.079 23.0618 178.836 23.0618L179.953 23.0137Z" fill="#E5E5E5"/>
<path d="M190.231 30.3379C189.444 30.3379 188.436 30.4005 188.028 30.4005C187.044 30.4005 185.884 30.3379 185.377 30.3379C185.33 30.4002 185.307 30.4772 185.313 30.5546C185.308 30.628 185.318 30.7016 185.343 30.7713C185.884 30.8917 186.7 31.0169 186.857 31.2528C186.989 31.4666 187.045 31.7174 187.015 31.9655C187.022 32.1978 186.98 32.4289 186.892 32.6445C186.583 33.4013 186.235 34.1422 185.849 34.8645C185.327 35.9747 184.748 37.058 184.113 38.1102C183.621 37.306 182.505 35.1438 182.254 34.5563L181.182 32.2641C181.131 32.1087 181.11 31.9455 181.118 31.7826C181.109 31.6196 181.131 31.4563 181.182 31.301C181.34 30.9591 181.94 30.9302 182.761 30.8194C182.796 30.7315 182.817 30.639 182.825 30.545C182.825 30.4198 182.761 30.4486 182.697 30.3572H182.348C181.089 30.3572 181.467 30.4198 179.259 30.4198C178.345 30.4198 177.209 30.3572 177.051 30.3572C176.987 30.4824 176.923 30.5113 176.923 30.6365C176.927 30.7126 176.949 30.7869 176.987 30.8532C178.251 31.1614 178.63 31.378 178.787 31.6236L182.126 38.0428C182.373 38.4861 182.574 38.9523 182.726 39.4345C182.859 40.1685 182.912 40.9143 182.884 41.6593C182.916 41.9296 182.879 42.2036 182.775 42.4561C182.671 42.7085 182.504 42.9313 182.289 43.1039C181.793 43.2321 181.286 43.3143 180.774 43.3495C180.71 43.4177 180.677 43.5077 180.681 43.5999C180.686 43.6736 180.706 43.7455 180.74 43.8118C181.723 43.8118 182.707 43.7829 183.297 43.7829C183.705 43.7829 184.305 43.8118 185.441 43.8118C186.1 43.8455 186.577 43.8455 186.916 43.8455C186.979 43.7788 187.013 43.6906 187.01 43.5999C187.009 43.5127 186.987 43.4268 186.946 43.3495C186.382 43.3224 185.827 43.1969 185.308 42.9787C185.139 42.827 185.008 42.64 184.922 42.4316C184.837 42.2232 184.801 41.9988 184.816 41.7748L184.659 38.9674C184.664 38.821 184.685 38.6756 184.723 38.534C184.779 38.3522 184.853 38.1764 184.944 38.0091L187.895 32.3267C188.207 31.8304 188.629 31.409 189.129 31.0939C189.519 30.9131 189.933 30.7882 190.359 30.7231C190.359 30.752 190.388 30.6605 190.388 30.569C190.388 30.4775 190.295 30.3957 190.231 30.3379Z" fill="#E5E5E5"/>
<path d="M174.592 30.4531C174.027 30.4531 171.406 30.5157 168.347 30.5157C165.986 30.5157 164.413 30.4868 163.336 30.4868H161.914C161.664 30.4868 161.6 30.5494 161.6 30.795V34.1659C161.63 34.1901 161.666 34.2081 161.704 34.2188C161.742 34.2296 161.782 34.2329 161.821 34.2285C161.896 34.2341 161.972 34.2226 162.042 34.1948C162.77 32.5912 163.178 31.7244 164.437 31.0791C165.008 31.0165 166.994 31.0165 167.309 31.0165C167.339 31.2332 167.339 31.8785 167.373 32.6538C167.403 33.9781 167.403 34.7197 167.403 37.9028C167.403 40.6477 167.373 42.0394 167.339 42.3475C167.275 42.8724 167.373 43.2721 165.072 43.3684C165.02 43.4629 164.998 43.57 165.008 43.6766C165.003 43.7501 165.013 43.8237 165.037 43.8933H165.765C166.458 43.8933 167.403 43.8307 168.096 43.8307C168.632 43.8307 169.704 43.8933 170.84 43.8933H171.376C171.418 43.806 171.44 43.7106 171.44 43.614C171.44 43.5175 171.418 43.4221 171.376 43.3347C170.702 43.3949 170.023 43.2785 169.409 42.9976C169.282 42.5448 169.229 42.0751 169.252 41.606C169.222 39.5979 169.222 38.6444 169.222 37.3153C169.222 35.5865 169.252 34.2574 169.252 31.0551C169.507 31.0551 170.924 31.0262 171.494 31.0551C172.375 31.2433 173.144 31.762 173.638 32.4997C174.049 33.1212 174.337 33.8119 174.489 34.5367C174.58 34.5644 174.675 34.5758 174.77 34.5704C174.837 34.5191 174.912 34.4769 174.991 34.4452V30.8191C175.001 30.5157 174.878 30.4531 174.592 30.4531Z" fill="#E5E5E5"/>
<path d="M81.1292 30.3955C80.18 30.3955 79.7719 30.4244 78.0359 30.4244C77.4408 30.4244 76.59 30.3955 76.3687 30.3955H75.8769C75.813 30.4244 75.813 30.5496 75.813 30.6411C75.8128 30.6815 75.821 30.7216 75.837 30.7588C75.8531 30.7961 75.8767 30.8298 75.9064 30.8578C76.5812 30.9554 77.2416 31.1316 77.8736 31.3827C78.226 31.9659 78.4112 32.6313 78.4096 33.3089C78.4391 33.5882 78.4391 33.8675 78.4391 34.638V40.1518C78.444 40.4202 78.4342 40.6887 78.4096 40.956C78.0949 40.6141 77.5244 39.9062 76.8015 39.0298L69.5231 30.7326C69.4372 30.6428 69.3434 30.5607 69.2428 30.487C69.0805 30.487 68.8936 30.4533 68.751 30.4533C67.5216 30.4533 66.479 30.3955 66.1347 30.3955C66.0977 30.4501 66.0757 30.5131 66.0708 30.5785C66.0708 30.67 66.1003 30.7326 66.1003 30.8241C66.6257 30.8899 67.1297 31.0692 67.5757 31.349C67.9289 31.679 68.2365 32.053 68.4904 32.4614C68.5558 32.6502 68.576 32.8512 68.5494 33.0489C68.5494 34.012 68.4904 35.7986 68.4904 37.0939V41.0764C68.4958 41.5609 68.453 42.0447 68.3625 42.5211C67.81 43.0135 67.1292 43.3469 66.3954 43.4842C66.3606 43.552 66.339 43.6254 66.3314 43.7009C66.3338 43.7667 66.356 43.8304 66.3954 43.8839H66.7445C67.1232 43.8839 68.0035 43.8213 68.5691 43.8213C69.3903 43.8213 69.8034 43.8839 70.5362 43.8839H71.6673C71.7312 43.855 71.7607 43.7298 71.7607 43.6383C71.7554 43.5737 71.7353 43.5111 71.7017 43.4553C70.827 43.3574 70.0189 42.9498 69.4297 42.3092C69.2667 41.5376 69.1826 40.752 69.1789 39.964C69.1789 39.3765 69.1444 38.3893 69.1444 37.3106C69.1444 35.8275 69.1789 33.8194 69.1789 33.1404C69.3018 33.2656 69.4592 33.4775 69.587 33.6219L78.6063 43.9657C78.6611 44.0327 78.7406 44.076 78.8276 44.0861C78.9211 44.0861 78.8571 44.0861 78.9506 44.0572C79.0145 43.7839 79.0475 43.5045 79.0489 43.2241C79.0489 42.6993 79.0145 42.1118 79.0145 41.8325V33.9157C79.0145 31.5994 80.1505 30.9204 81.4439 30.8867C81.4991 30.855 81.5452 30.8101 81.5779 30.7562C81.6106 30.7023 81.6288 30.6411 81.6308 30.5785C81.6255 30.5139 81.6053 30.4514 81.5718 30.3955H81.1292Z" fill="#E5E5E5"/>
<path d="M88.7614 43.2103C88.4111 42.7962 88.1817 42.297 88.0975 41.7656C88.0631 40.8699 88.0631 38.833 88.0631 37.0994V32.3994C88.0421 32.0294 88.1671 31.6656 88.4123 31.3833C88.9232 31.0721 89.5121 30.9054 90.1138 30.9017C90.1546 30.8259 90.1765 30.7418 90.1778 30.6562C90.1792 30.6156 90.1716 30.5751 90.1555 30.5377C90.1394 30.5003 90.1151 30.4667 90.0843 30.4395H89.5483C88.7614 30.4395 87.5812 30.5309 86.9615 30.5309C86.5533 30.5309 85.4173 30.4683 84.596 30.4683H84.1879C84.1248 30.5368 84.0913 30.6266 84.0944 30.7188C84.0944 30.8103 84.1239 30.8729 84.1239 30.9644C84.626 30.9686 85.1241 31.0515 85.5993 31.2099C85.8149 31.412 85.9833 31.6573 86.0928 31.9292C86.2023 32.201 86.2504 32.4929 86.2337 32.7846C86.2632 33.1265 86.2632 34.0848 86.2927 35.8136C86.3271 36.7382 86.3271 38.0047 86.3271 39.0834C86.3271 39.642 86.2927 41.0096 86.2632 41.679C86.2446 42.061 86.1598 42.4372 86.0124 42.7914C85.7911 42.9743 85.5698 43.3162 84.183 43.4077C84.1454 43.4966 84.1238 43.591 84.119 43.687C84.119 43.8411 84.1485 43.8411 84.1485 43.9326H84.4534C85.2059 43.9326 86.4206 43.8411 87.4041 43.8411C87.6894 43.8411 88.9483 43.9037 89.5778 43.9037H90.2073C90.2073 43.7785 90.2417 43.7159 90.2417 43.6244C90.2381 43.5391 90.2164 43.4554 90.1778 43.3789C89.8925 43.3403 89.1057 43.2681 88.7614 43.2103Z" fill="#E5E5E5"/>
<path d="M120.954 40.273C120.867 40.2259 120.767 40.2058 120.668 40.2152C120.584 40.2105 120.499 40.2203 120.417 40.2441C120.13 41.3911 119.432 42.3991 118.45 43.0852C117.935 43.2627 117.388 43.3364 116.842 43.3019H114.698C114.275 43.3002 113.853 43.2696 113.434 43.2104C113.149 43.1478 112.834 42.7289 112.711 42.4062C112.524 42.0007 112.447 41.5542 112.49 41.1109V36.8491H113.09C113.64 36.8178 114.191 36.9117 114.698 37.1236C115.114 37.2907 115.474 37.5694 115.736 37.9278C115.899 38.4276 115.986 38.9487 115.991 39.4736C116.036 39.5066 116.087 39.5293 116.141 39.5402C116.196 39.551 116.252 39.5496 116.306 39.5362C116.418 39.5332 116.527 39.4999 116.621 39.4399C116.621 38.9583 116.493 37.5907 116.493 36.8491C116.493 35.9197 116.621 34.7784 116.685 34.0994C116.64 34.0666 116.587 34.044 116.532 34.0332C116.477 34.0224 116.42 34.0236 116.365 34.0368C116.256 34.0277 116.147 34.0495 116.05 34.0994C115.991 34.3787 115.829 35.1492 115.8 35.2118C115.423 35.676 114.907 36.0128 114.324 36.1749C113.807 36.2897 113.276 36.3415 112.746 36.329H112.485V34.5328C112.485 32.7414 112.519 32.0287 112.549 31.6916C112.586 31.4767 112.607 31.2594 112.613 31.0415C112.77 31.0126 113.336 31.0126 114.221 31.0126C115.323 31.0126 116.144 31.0415 116.301 31.0415C116.74 31.0414 117.168 31.1706 117.531 31.4123C118.315 31.9965 118.904 32.7962 119.222 33.7093C119.291 33.7364 119.365 33.7479 119.439 33.7431C119.567 33.7431 119.567 33.7093 119.724 33.6179C119.724 32.4766 119.66 31.2101 119.596 30.7285C119.567 30.5455 119.537 30.4829 119.159 30.4829C119.001 30.4829 118.273 30.4492 117.516 30.4492C116.444 30.4492 116.006 30.4829 114.334 30.4829C113.449 30.4829 111.875 30.5118 111.083 30.5118C109.947 30.5118 109.697 30.4829 109.195 30.4829H108.551C108.52 30.5102 108.496 30.5438 108.48 30.5812C108.463 30.6186 108.456 30.659 108.457 30.6996C108.459 30.7983 108.492 30.8942 108.551 30.9741C109.019 31.0016 109.484 31.0742 109.938 31.1908C110.139 31.3194 110.308 31.4928 110.428 31.697C110.549 31.9012 110.618 32.1303 110.631 32.3658C110.661 32.7655 110.695 34.032 110.695 34.8651V38.7175C110.695 39.4928 110.661 40.7882 110.661 41.2505C110.62 41.8757 110.483 42.4912 110.252 43.0756C109.693 43.2583 109.106 43.351 108.516 43.3501C108.455 43.4418 108.423 43.5489 108.423 43.6583C108.421 43.7502 108.455 43.8395 108.516 43.9087H109.151C109.751 43.9087 111.295 43.8461 111.797 43.8461C112.298 43.8461 112.933 43.875 114.039 43.875C114.634 43.875 116.434 44.0002 120.28 44.0002C120.444 44.0041 120.609 43.9945 120.772 43.9713C120.805 43.9269 120.828 43.8759 120.839 43.8218C120.85 43.7677 120.849 43.7119 120.835 43.6583C120.993 43.2297 120.993 42.3003 120.993 40.8171C120.999 40.6349 120.986 40.4525 120.954 40.273V40.273Z" fill="#E5E5E5"/>
<path d="M106.795 30.3956H106.136C105.694 30.3956 104.966 30.4245 104.622 30.4245C103.078 30.4245 102.541 30.333 102.286 30.333H101.942C101.907 30.4245 101.848 30.4871 101.848 30.5786C101.848 30.6701 101.878 30.7038 101.878 30.7953C102.325 30.8584 102.767 30.9517 103.2 31.0746C103.516 31.3856 103.693 31.8064 103.692 32.2448C103.609 32.8309 103.444 33.403 103.2 33.9447L100.142 41.3221L96.3893 31.9992C96.4043 31.7885 96.4689 31.5841 96.5782 31.4019C96.6874 31.2198 96.8382 31.0649 97.0188 30.9494C97.4256 30.8673 97.8383 30.8158 98.2531 30.7953C98.2866 30.7172 98.3066 30.6342 98.3121 30.5497C98.3121 30.4871 98.2826 30.3619 98.2187 30.333H97.7269C97.1614 30.333 96.2516 30.3956 95.2336 30.3956C94.7959 30.3956 93.9451 30.3619 93.0894 30.3619H92.4304C92.3935 30.4288 92.3717 30.5027 92.3665 30.5786C92.3599 30.6171 92.3622 30.6566 92.3732 30.6941C92.3843 30.7316 92.4038 30.7662 92.4304 30.7953C92.9914 30.9475 93.5314 31.1658 94.0386 31.4454C94.6278 32.539 95.1532 33.6644 95.6123 34.8163L97.1909 38.5532C98.4843 41.6399 99.2711 43.7106 99.3646 44.0814C99.4629 44.1392 99.3646 44.2018 99.5219 44.2018C99.6793 44.2018 99.6842 44.1729 99.7137 44.0814L104.632 32.5241C104.797 32.1367 105.032 31.7812 105.325 31.4743C105.765 31.1471 106.29 30.9455 106.84 30.8916C106.84 30.7664 106.869 30.6749 106.869 30.5834C106.869 30.4919 106.859 30.4245 106.795 30.3956Z" fill="#E5E5E5"/>
<path d="M63.3758 30.4249C62.7758 30.4249 61.989 30.4538 61.2956 30.4538C60.6022 30.4538 59.6875 30.4249 59.117 30.4249H58.4236C58.3968 30.4596 58.3773 30.4992 58.3664 30.5414C58.3554 30.5836 58.3531 30.6275 58.3596 30.6705C58.367 30.7568 58.3886 30.8414 58.4236 30.9209C58.4875 30.9209 59.8989 30.9498 60.1251 31.258C60.4474 31.6769 60.6921 32.148 60.8481 32.6497C60.9469 33.3245 60.9995 34.005 61.0054 34.6867C61.0054 36.2614 61.0054 37.34 60.9759 37.8986C60.9706 38.7335 60.8532 39.5641 60.6268 40.369C60.0907 41.9726 58.8613 42.7768 56.904 42.7768C56.1319 42.7718 55.3695 42.6077 54.6664 42.2953C54.1878 42.088 53.7701 41.7664 53.4513 41.3601C53.1325 40.9537 52.923 40.4755 52.8419 39.9693L52.7484 34.3833V32.0911C52.7484 31.6625 53.2845 31.258 53.4763 31.0413C53.9536 30.9496 54.4366 30.8884 54.9221 30.8583C54.9862 30.7921 55.0215 30.704 55.0204 30.6127C55.0119 30.5164 54.9662 30.4268 54.8926 30.3623L54.1697 30.396C53.4762 30.4249 52.5271 30.4249 51.9271 30.4249C51.0124 30.4249 50.319 30.396 49.7535 30.396H48.9666C48.9344 30.4285 48.9092 30.467 48.8923 30.5091C48.8754 30.5513 48.8672 30.5963 48.8683 30.6416C48.8717 30.7178 48.8937 30.792 48.9322 30.8583C49.3569 30.8939 49.779 30.955 50.1961 31.0413C50.5061 31.2375 50.7385 31.5314 50.8551 31.8744C50.9124 32.5422 50.9337 33.2125 50.919 33.8825V38.3609C50.8898 39.1984 50.9541 40.0364 51.1108 40.8602C51.3308 41.8028 51.9185 42.6237 52.7484 43.1476C53.7877 43.7558 54.9804 44.0662 56.1909 44.0433C57.3342 44.0652 58.4639 43.7981 59.4711 43.268C59.9431 43.0069 60.355 42.6532 60.6808 42.2289C61.0066 41.8046 61.2394 41.319 61.3644 40.8024C61.5627 40.0764 61.6684 39.3291 61.6792 38.5776V34.9949C61.6792 34.3159 61.7087 33.4828 61.7087 33.1409C61.7207 32.4198 61.9333 31.7156 62.3234 31.1039C62.8356 30.9587 63.3642 30.8762 63.8971 30.8583C63.9384 30.848 63.9743 30.8231 63.9979 30.7885C64.0215 30.7538 64.0312 30.7117 64.025 30.6705C64.0278 30.5798 63.9943 30.4916 63.9315 30.4249H63.3758Z" fill="#E5E5E5"/>
<path d="M147.633 36.9109C146.96 36.5842 146.25 36.3353 145.518 36.1693C144.569 35.9266 143.649 35.586 142.774 35.1532C142.417 34.943 142.124 34.6435 141.924 34.2855C141.724 33.9275 141.626 33.5239 141.638 33.1162C141.638 31.9123 142.872 30.9252 144.318 30.9252C144.828 30.9249 145.331 31.0421 145.786 31.2671C146.242 31.4921 146.637 31.8187 146.939 32.2205C147.424 32.8752 147.816 33.5912 148.105 34.349C148.163 34.376 148.228 34.3877 148.292 34.3827C148.371 34.3864 148.45 34.3712 148.522 34.3385C148.594 34.3058 148.657 34.2565 148.705 34.1949C148.621 33.6428 148.568 33.0866 148.548 32.5287C148.567 32.0443 148.619 31.5616 148.705 31.0841C148.644 30.9938 148.558 30.9223 148.457 30.878C148.356 30.8337 148.244 30.8183 148.134 30.8337C147.864 31.0276 147.618 31.2522 147.402 31.503C146.507 30.7325 145.347 30.3244 144.156 30.3617C141.825 30.3617 140.153 31.9075 140.153 33.9156C140.169 34.6475 140.411 35.3574 140.846 35.9526C141.32 36.571 141.965 37.0425 142.705 37.3106C143.241 37.5273 145.735 38.2737 146.079 38.3893C147.594 38.9768 148.159 39.4728 148.159 40.797C148.126 41.5082 147.823 42.1816 147.308 42.6847C147.049 42.9782 146.723 43.2088 146.357 43.3584C145.991 43.5079 145.594 43.5724 145.199 43.5467C144.593 43.5566 143.993 43.4377 143.44 43.1983C142.886 42.9588 142.392 42.6045 141.992 42.1598C141.427 41.398 140.991 40.5526 140.699 39.6558C140.617 39.6335 140.533 39.6238 140.448 39.6269C140.32 39.6209 140.195 39.6641 140.099 39.7472C140.099 39.9977 140.163 41.2304 140.163 41.6012C140.152 42.163 140.078 42.7218 139.941 43.2674C140 43.3751 140.086 43.466 140.191 43.5311C140.296 43.5961 140.417 43.6331 140.541 43.6382C140.813 43.3764 141.14 43.1773 141.5 43.0555C141.661 43.0576 141.817 43.1118 141.943 43.2096C142.883 43.8321 143.996 44.155 145.13 44.1342C147.874 44.1053 149.797 42.7762 149.797 40.1806C149.811 39.4864 149.612 38.8039 149.226 38.2211C148.841 37.6383 148.286 37.182 147.633 36.9109V36.9109Z" fill="#E5E5E5"/>
<path d="M157.69 43.2103C157.343 42.7947 157.116 42.296 157.031 41.7656C156.997 40.8699 156.997 38.833 156.997 37.0994V32.3994C156.985 32.0306 157.109 31.6699 157.346 31.3833C157.863 31.0863 158.448 30.9208 159.047 30.9017C159.086 30.8252 159.108 30.7415 159.111 30.6562C159.112 30.6152 159.103 30.5747 159.086 30.5373C159.069 30.4999 159.044 30.4665 159.013 30.4395H158.477C157.69 30.4395 156.51 30.5309 155.895 30.5309C155.482 30.5309 154.351 30.4683 153.53 30.4683H153.116C153.055 30.538 153.022 30.627 153.023 30.7188C153.023 30.8103 153.057 30.8729 153.057 30.9644C153.559 30.9689 154.057 31.0518 154.533 31.2099C154.749 31.4114 154.917 31.6568 155.026 31.9289C155.135 32.2009 155.181 32.4931 155.162 32.7846C155.197 33.1265 155.197 34.0848 155.226 35.8136C155.256 36.7382 155.256 38.0047 155.256 39.0834C155.256 39.642 155.226 41.0096 155.197 41.679C155.174 42.0609 155.087 42.4366 154.941 42.7914C154.72 42.9743 154.449 43.3162 153.082 43.4077C153.047 43.4972 153.025 43.5913 153.018 43.687C153.025 43.7695 153.037 43.8514 153.052 43.9326H153.367C154.125 43.9326 155.334 43.8411 156.318 43.8411C156.603 43.8411 157.862 43.9037 158.492 43.9037H159.126C159.158 43.8132 159.179 43.7196 159.19 43.6244C159.186 43.5391 159.165 43.4554 159.126 43.3789C158.826 43.3403 158.039 43.2681 157.69 43.2103Z" fill="#E5E5E5"/>
<path d="M135.599 43.0848C135.483 42.9314 135.378 42.7705 135.284 42.6033C135.063 41.7991 134.793 41.0286 134.498 40.287C134.186 39.4572 133.702 38.6997 133.076 38.0622C132.657 37.7966 132.202 37.5892 131.724 37.4458C131.409 37.3206 131.188 37.2291 130.932 37.1376C131.193 37.0796 131.458 37.0378 131.724 37.0124C132.451 36.9907 133.154 36.754 133.74 36.3334C134.131 36.0588 134.449 35.6973 134.668 35.2787C134.888 34.8601 135.003 34.3963 135.004 33.9257C135.013 33.1935 134.791 32.4765 134.367 31.873C133.944 31.2695 133.34 30.8091 132.639 30.5548C131.891 30.4064 131.129 30.3338 130.367 30.3381C128.945 30.3381 127.873 30.4633 126.924 30.4633C126.639 30.4633 125.695 30.4296 125.031 30.4296C124.75 30.4296 124.023 30.4007 123.9 30.4007C123.85 30.4752 123.817 30.5587 123.801 30.6463C123.801 30.7426 123.836 30.8341 123.836 30.8967C124.15 30.9256 124.75 31.0171 125.065 31.0508C125.436 31.2944 125.712 31.6519 125.852 32.0669C125.945 32.6544 125.98 34.3542 125.98 36.9787C125.98 38.9049 126.009 41.2694 125.916 41.9821C125.916 42.2391 125.842 42.4909 125.703 42.7089C125.564 42.9268 125.365 43.1021 125.129 43.2149C124.78 43.2775 124.401 43.3064 124.057 43.3401C123.993 43.4063 123.958 43.4944 123.959 43.5857C123.962 43.6618 123.984 43.7361 124.023 43.8024C124.273 43.8024 126.481 43.7398 127.081 43.7398C128.311 43.7398 128.596 43.8024 129.698 43.8024C129.739 43.7371 129.761 43.6622 129.762 43.5857C129.753 43.5012 129.731 43.4184 129.698 43.3401C129.319 43.3112 128.847 43.186 128.626 43.1571C128.375 43.0345 128.164 42.8443 128.02 42.6089C127.875 42.3735 127.802 42.1026 127.809 41.828L127.775 37.1665C128.058 37.1385 128.342 37.1272 128.626 37.1328C129.146 37.1001 129.667 37.1962 130.14 37.4121C130.904 37.7177 131.553 38.2455 131.999 38.9242C132.646 40.1903 133.053 41.5609 133.199 42.9693C133.263 43.3738 133.421 43.7109 133.765 43.7446C134.131 43.7926 134.501 43.812 134.871 43.8024H136.838C136.902 43.8024 136.932 43.7109 136.932 43.6194C136.931 43.519 136.899 43.4214 136.838 43.3401C136.411 43.3438 135.988 43.2567 135.599 43.0848ZM128.872 36.6946C128.493 36.6946 128.08 36.6946 127.701 36.6609L127.672 35.0236V31.5034C127.663 31.4273 127.67 31.3501 127.692 31.2766C127.713 31.203 127.75 31.1344 127.799 31.0748C128.234 30.9853 128.678 30.9433 129.122 30.9496C130.917 30.9496 131.739 31.1037 132.368 32.0283C132.771 32.5172 132.974 33.1349 132.939 33.7619C132.918 34.3765 132.709 34.9707 132.338 35.4666C131.967 35.9625 131.451 36.3368 130.858 36.5405C130.202 36.6514 129.537 36.703 128.872 36.6946V36.6946Z" fill="#E5E5E5"/>
</g>
<defs>
<clipPath id="clip0_2388_28771">
<rect width="190" height="53" fill="white" transform="translate(0.358887)"/>
</clipPath>
</defs>
</svg>
