<svg width="115" height="52" viewBox="0 0 115 52" fill="none" xmlns="http://www.w3.org/2000/svg">
<path d="M113.664 23.0394C113.437 23.0047 113.228 22.8932 113.073 22.7234C112.918 22.5537 112.825 22.3359 112.811 22.1062C112.755 21.3736 112.685 20.641 112.685 19.9038C112.685 15.0666 112.685 10.2279 112.685 5.38765C112.685 3.98782 112.755 2.62066 112.801 1.23484C112.801 0.93621 112.685 0.842888 112.372 0.922211C110.983 1.28341 109.566 1.52229 108.135 1.63612L107.421 1.70611V2.30337C107.711 2.35003 107.986 2.38269 108.256 2.43402C108.516 2.44694 108.76 2.55761 108.941 2.74376C109.122 2.9299 109.226 3.17769 109.232 3.43723C109.285 3.77541 109.314 4.11684 109.32 4.4591C109.32 5.99424 109.32 7.53404 109.32 9.06918C109.32 9.14384 109.32 9.21849 109.32 9.32581C108.728 9.25582 108.172 9.1765 107.617 9.12517C106.49 8.99944 105.349 9.06411 104.244 9.31648C103.034 9.56558 101.911 10.1276 100.987 10.9463C100.062 11.7651 99.3689 12.812 98.9756 13.9826C98.3689 15.6801 98.2334 17.5102 98.5837 19.2786C98.8016 20.5917 99.4059 21.81 100.319 22.7781C100.914 23.3811 101.623 23.8609 102.403 24.19C103.184 24.519 104.022 24.691 104.869 24.6959C106.358 24.7589 107.828 24.3471 109.068 23.52C109.166 23.4594 109.246 23.3334 109.418 23.3847V24.5092C109.507 24.5876 109.617 24.6372 109.735 24.6514C109.852 24.6656 109.971 24.6436 110.076 24.5885C110.217 24.5328 110.365 24.4937 110.515 24.4719C111.782 24.2009 113.07 24.0339 114.364 23.9726C114.462 23.9726 114.556 23.94 114.654 23.926V23.226C114.299 23.1701 113.972 23.1234 113.664 23.0394ZM108.998 22.1529C108.177 22.5056 107.278 22.6391 106.39 22.5401C106.036 22.5118 105.684 22.4524 105.34 22.3628C104.77 22.2234 104.237 21.9606 103.779 21.593C103.321 21.2254 102.949 20.7619 102.69 20.2351C102.298 19.4861 102.063 18.6654 101.999 17.8227C101.871 16.479 101.993 15.1232 102.359 13.8239C102.459 13.5023 102.587 13.1901 102.741 12.8907C102.978 12.3944 103.329 11.9619 103.767 11.6291C104.204 11.2963 104.715 11.0729 105.256 10.9776C106.257 10.7633 107.298 10.846 108.252 11.2156C108.518 11.3367 108.777 11.4738 109.026 11.6262C109.132 11.6819 109.219 11.7683 109.274 11.8741C109.33 11.9798 109.353 12.1 109.339 12.2188C109.339 13.7959 109.339 15.3684 109.339 16.9455C109.339 18.5226 109.339 20.0438 109.339 21.6116C109.349 21.7265 109.321 21.8415 109.259 21.9391C109.198 22.0368 109.106 22.1118 108.998 22.1529Z" fill="#E5E5E5"/>
<path d="M48.3954 24.4486V23.7953C48.2087 23.7673 48.0454 23.7486 47.8821 23.716C47.5324 23.7024 47.2005 23.5584 46.9518 23.3122C46.703 23.0661 46.5555 22.7357 46.5383 22.3862C46.4636 21.9861 46.4261 21.58 46.4263 21.173C46.4263 18.1494 46.4263 15.1071 46.403 12.1021C46.3881 12.0001 46.4112 11.8962 46.468 11.8101C46.5248 11.7241 46.6113 11.6619 46.7109 11.6355C47.6773 11.2304 48.7287 11.0701 49.7719 11.1689C50.3774 11.171 50.9628 11.3864 51.4253 11.7772C51.8877 12.168 52.1978 12.7093 52.3009 13.306C52.447 13.976 52.5237 14.6593 52.5295 15.345C52.5575 17.0715 52.5295 18.7979 52.5295 20.5244C52.5295 21.0983 52.4502 21.6676 52.3849 22.2322C52.3701 22.5725 52.2387 22.8974 52.0127 23.1523C51.7867 23.4072 51.4798 23.5766 51.1437 23.632L50.4624 23.7906C50.4624 23.9493 50.4624 24.0846 50.4624 24.2246C50.4624 24.2852 50.4624 24.3459 50.4951 24.4299C52.963 24.2409 55.4416 24.2409 57.9095 24.4299V23.7953C57.7135 23.7673 57.5409 23.7486 57.3682 23.716C56.5283 23.5667 56.1504 23.2167 56.0384 22.3768C55.95 21.7116 55.9032 21.0415 55.8984 20.3704C55.8984 18.504 55.8984 16.6842 55.8984 14.8411C55.8985 14.1678 55.8471 13.4955 55.7444 12.83C55.653 12.0543 55.3405 11.3212 54.8441 10.7181C54.3478 10.115 53.6885 9.66736 52.9448 9.42847C52.4145 9.25223 51.8643 9.14252 51.307 9.10184C49.669 8.96961 48.0349 9.39914 46.6736 10.3197C46.5741 10.3813 46.4713 10.4374 46.3656 10.4877C46.3656 10.1424 46.3656 9.85308 46.3656 9.55445C46.3656 9.25582 46.193 9.11117 45.899 9.23716C45.5293 9.40932 45.1432 9.54376 44.7465 9.63844C43.9766 9.78775 43.1927 9.89041 42.4135 9.97906C41.9469 10.0304 41.5082 10.0164 41.0416 10.0304V10.8143L41.6296 10.8749C41.7867 10.8973 41.9425 10.9285 42.0962 10.9683C42.3106 11.0091 42.5066 11.1169 42.6559 11.2763C42.8051 11.4356 42.9 11.6382 42.9267 11.8548C42.9893 12.1781 43.0268 12.5057 43.0387 12.8347C43.0387 15.555 43.0387 18.2753 43.0387 20.9957C43.0148 21.5404 42.9445 22.082 42.8287 22.6148C42.7957 22.7911 42.7202 22.9567 42.6088 23.0974C42.4974 23.238 42.3535 23.3494 42.1895 23.422C41.9379 23.539 41.6773 23.6358 41.4103 23.7113C41.2562 23.746 41.1005 23.7724 40.9437 23.7906V24.4486C43.4238 24.2558 45.9152 24.2558 48.3954 24.4486Z" fill="#E5E5E5"/>
<path d="M12.7652 18.1027C12.7532 17.3887 12.5932 16.685 12.2952 16.036C11.9972 15.387 11.5678 14.807 11.0341 14.3325C10.5675 13.919 10.075 13.5356 9.55963 13.1847C8.43977 12.4381 7.27792 11.6822 6.16273 10.9263C5.79411 10.679 5.43949 10.4083 5.08487 10.1424C4.63367 9.81672 4.27913 9.37489 4.05895 8.86386C3.83876 8.35283 3.76115 7.79169 3.83436 7.24008C3.838 6.66658 4.03899 6.11183 4.40354 5.66911C4.76809 5.22638 5.27397 4.92267 5.8361 4.80905C6.25359 4.70373 6.6801 4.63811 7.10994 4.61308C8.06342 4.5402 9.02215 4.64461 9.93758 4.92104C10.3903 5.03987 10.7958 5.29453 11.0994 5.65074C11.4031 6.00695 11.5904 6.44762 11.636 6.91345C11.6734 7.13276 11.706 7.35673 11.734 7.5667H12.4106V3.22725C12.266 3.19926 12.1446 3.16193 12.0187 3.14326C10.3485 2.90319 8.66174 2.79709 6.97463 2.82597C6.23652 2.84252 5.5032 2.94907 4.7909 3.14326C3.51257 3.43528 2.38838 4.19195 1.63664 5.26633C1.22715 5.8896 0.944653 6.58754 0.805334 7.32017C0.666015 8.0528 0.672609 8.80571 0.824739 9.53579C1.03233 10.6874 1.6426 11.7277 2.54652 12.4707C3.09628 12.941 3.66938 13.3833 4.26364 13.7959C5.27617 14.5005 6.31671 15.1631 7.32458 15.8723C7.77785 16.1982 8.20528 16.5585 8.60309 16.9502C9.06 17.3831 9.35478 17.9595 9.43831 18.5833C9.49275 18.9727 9.50993 19.3665 9.48964 19.7592C9.49405 20.3963 9.28098 21.0159 8.88564 21.5156C8.4903 22.0153 7.93633 22.3652 7.31525 22.5075C6.35742 22.7727 5.35549 22.8394 4.37096 22.7034C3.78863 22.6364 3.22031 22.479 2.6865 22.2368C2.30564 22.0783 1.97088 21.8263 1.71316 21.5042C1.45544 21.182 1.28309 20.8001 1.21202 20.3937C1.15136 20.0951 1.11404 19.7965 1.06271 19.4839H0.278809C0.306805 20.9257 0.339468 22.3442 0.367464 23.758C0.396257 23.7851 0.429376 23.8071 0.465452 23.8233C0.572771 23.8653 0.684757 23.898 0.792077 23.9306C2.84832 24.5338 5.00564 24.7132 7.13327 24.4579C8.09671 24.3564 9.03316 24.078 9.89559 23.6367C10.5603 23.3104 11.1451 22.842 11.6087 22.2647C12.0723 21.6873 12.4034 21.0152 12.5786 20.2958C12.7501 19.5782 12.813 18.8389 12.7652 18.1027Z" fill="#E5E5E5"/>
<path d="M84.0862 13.2593C83.7676 12.3343 83.2285 11.5008 82.5155 10.8309C81.8025 10.161 80.9371 9.67487 79.994 9.41447C79.1397 9.16047 78.2537 9.02851 77.3624 9.02252C76.8958 9.06451 76.3965 9.08318 75.9205 9.15317C74.7619 9.27416 73.6562 9.70083 72.7166 10.3895C71.7771 11.0782 71.0374 12.0042 70.5732 13.0727C69.4981 15.3645 69.3773 17.9895 70.2373 20.3704C70.5518 21.3645 71.1171 22.2607 71.8789 22.9726C72.6406 23.6845 73.573 24.188 74.5861 24.4346C75.8296 24.7703 77.1291 24.845 78.4029 24.6539C79.5694 24.5439 80.6852 24.1237 81.6345 23.4369C82.5838 22.7502 83.3321 21.8219 83.8015 20.7484C84.3512 19.5837 84.6597 18.3199 84.7087 17.0329C84.7576 15.7459 84.5458 14.4624 84.0862 13.2593ZM80.7033 20.0718C80.5189 20.6839 80.2283 21.2588 79.8447 21.7702C79.5063 22.1878 79.0735 22.5189 78.5818 22.7361C78.0902 22.9533 77.554 23.0504 77.0174 23.0194C76.4808 22.9884 75.9593 22.8302 75.496 22.5578C75.0327 22.2854 74.6408 21.9067 74.3527 21.4529C73.9189 20.7488 73.6243 19.9678 73.4849 19.1526C73.1452 17.4544 73.1818 15.7024 73.5922 14.0199C73.76 13.3665 74.0377 12.7464 74.4134 12.1861C74.7253 11.7483 75.1368 11.3911 75.6141 11.1438C76.0913 10.8965 76.6206 10.7664 77.1581 10.7641C77.6956 10.7618 78.2259 10.8875 78.7052 11.1307C79.1846 11.3739 79.5991 11.7277 79.9147 12.1628C80.4176 12.9149 80.7533 13.7662 80.8992 14.6591C81.0346 15.4197 81.0906 16.1943 81.1372 16.5816C81.1595 17.7597 81.0134 18.935 80.7033 20.0718Z" fill="#E5E5E5"/>
<path d="M39.6418 22.7034L39.1752 22.1809L38.9932 22.3022C38.8716 22.401 38.7271 22.4676 38.5729 22.4959C38.4187 22.5242 38.26 22.5131 38.1112 22.4639C37.9624 22.4146 37.8284 22.3286 37.7216 22.2139C37.6148 22.0992 37.5386 21.9595 37.5001 21.8076C37.4474 21.6443 37.416 21.4749 37.4068 21.3036C37.4068 20.795 37.3741 20.2864 37.4068 19.7778C37.4068 18 37.4768 16.2223 37.4861 14.4445C37.4884 13.798 37.4416 13.1522 37.3461 12.5127C37.2754 11.751 36.967 11.0308 36.4646 10.4539C35.9622 9.877 35.2912 9.47258 34.5465 9.29782C33.2787 8.92919 31.9321 8.92919 30.6643 9.29782C29.9582 9.47353 29.3035 9.81307 28.753 10.2889C28.2026 10.7648 27.772 11.3636 27.496 12.0368C27.4447 12.1628 27.4074 12.2934 27.3654 12.4194L27.72 12.6387L28.0746 12.8347C28.1166 12.7787 28.1446 12.7554 28.1633 12.7227C28.518 12.0599 29.0837 11.5343 29.7708 11.2292C30.4579 10.9241 31.2272 10.8569 31.9568 11.0383C32.4782 11.1183 32.9594 11.3662 33.3273 11.7442C33.6952 12.1223 33.9299 12.6099 33.9959 13.1333C34.0589 13.6942 34.0932 14.258 34.0985 14.8224L33.7019 14.9484C32.4607 15.3497 31.2102 15.737 29.969 16.1569C29.3284 16.3643 28.7045 16.6202 28.1026 16.9222C27.596 17.1793 27.1563 17.5511 26.8186 18.008C26.4808 18.4648 26.2542 18.9941 26.1569 19.5539C26.038 20.1412 26.0285 20.7455 26.1289 21.3363C26.2111 22.0628 26.5171 22.7457 27.0044 23.2908C27.4917 23.8358 28.1364 24.2159 28.8492 24.3786C29.2542 24.482 29.6683 24.5461 30.0857 24.5699C30.7779 24.6284 31.4749 24.5466 32.1348 24.3293C32.7946 24.1121 33.4038 23.7638 33.9259 23.3054L34.1732 23.0954C34.2058 23.0954 34.2245 23.0954 34.2292 23.0954C34.2338 23.0954 34.2898 23.2074 34.3178 23.2634C34.4448 23.5629 34.643 23.8269 34.895 24.0326C35.147 24.2383 35.4454 24.3795 35.7643 24.4439C36.2376 24.5489 36.7282 24.5489 37.2015 24.4439C38.2933 24.2806 39.0072 23.5387 39.6418 22.7034ZM33.7392 22.0222C32.8888 22.4752 31.9074 22.6186 30.9629 22.4282C30.5947 22.3695 30.2545 22.1956 29.9913 21.9315C29.728 21.6675 29.5553 21.3267 29.4978 20.9583C29.3678 20.3719 29.4132 19.7601 29.6284 19.1992C29.8039 18.7063 30.152 18.2935 30.6083 18.0374C31.6665 17.4834 32.7842 17.0513 33.9399 16.7495C33.9803 16.7464 34.0208 16.7464 34.0612 16.7495V17.1042C34.0612 18.5553 34.0612 20.0018 34.0612 21.4483C34.078 21.566 34.0556 21.686 33.9974 21.7898C33.9393 21.8935 33.8485 21.9752 33.7392 22.0222Z" fill="#E5E5E5"/>
<path d="M70.1066 4.37977C70.1974 4.41711 70.2989 4.41861 70.3907 4.38397C70.4825 4.34932 70.5578 4.28111 70.6012 4.19313C70.9932 3.6332 71.4038 3.0826 71.8004 2.52268C71.9964 2.25204 71.9777 2.05607 71.6884 1.88809C71.3115 1.63215 70.9097 1.41486 70.4892 1.2395C68.8779 0.633513 67.1038 0.618633 65.4825 1.19751C64.8252 1.40683 64.2219 1.7582 63.7155 2.2267C63.2091 2.6952 62.812 3.26937 62.5522 3.9085C62.2445 4.59443 62.0582 5.32857 62.0016 6.07822C61.9363 7.07676 61.8912 8.07841 61.8663 9.08318C61.879 9.2076 61.8519 9.33284 61.7891 9.44096C61.7262 9.54907 61.6308 9.63453 61.5164 9.6851C61.0964 9.89507 60.6765 10.1097 60.2565 10.315C60.1352 10.3803 60.0092 10.4317 59.9159 10.4783V11.2996H61.8337C61.8337 11.4675 61.8337 11.6029 61.8337 11.7382C61.8337 12.8456 61.8337 13.9514 61.8337 15.0558C61.8337 16.9828 61.8337 18.9146 61.8103 20.8464C61.7837 21.4291 61.7151 22.0092 61.605 22.5821C61.5733 22.7703 61.4959 22.9479 61.3795 23.0992C61.2632 23.2505 61.1115 23.371 60.9378 23.45C60.6694 23.5613 60.3934 23.6533 60.1119 23.7253C59.9923 23.755 59.8706 23.7752 59.7479 23.786V24.4112C61.1198 24.3786 62.4683 24.3179 63.8121 24.3226C65.1559 24.3272 66.4997 24.3879 67.8576 24.4252V23.7067C67.5636 23.7067 67.293 23.7067 67.0317 23.6413C66.7057 23.5906 66.3843 23.5141 66.0705 23.4127C65.8732 23.3552 65.6977 23.24 65.5664 23.0821C65.435 22.9241 65.3538 22.7305 65.3332 22.5261C65.2583 22.0504 65.2131 21.5704 65.1979 21.089C65.1979 17.9254 65.1979 14.7618 65.1979 11.5982C65.2036 11.4961 65.2176 11.3947 65.2399 11.2949C66.3551 11.2949 67.4423 11.2949 68.5295 11.2949V9.4518H65.2306C65.2155 9.37938 65.2046 9.30616 65.1979 9.23249C65.1979 7.884 65.1979 6.54017 65.2306 5.19167C65.2477 4.73484 65.3214 4.2819 65.4499 3.84317C65.5296 3.52654 65.695 3.23799 65.928 3.00917C66.1609 2.78035 66.4524 2.6201 66.7704 2.54601C67.3161 2.37738 67.9025 2.39497 68.4372 2.59601C68.9718 2.79704 69.4245 3.17011 69.724 3.65653C69.8547 3.8945 69.976 4.1418 70.1066 4.37977Z" fill="#E5E5E5"/>
<path d="M16.1155 11.8082C16.1155 14.3978 16.0641 16.9922 16.0641 19.5818C16.0522 20.2803 16.1037 20.9784 16.2181 21.6676C16.2952 22.3124 16.5628 22.9196 16.9867 23.4117C17.4106 23.9037 17.9715 24.2582 18.5978 24.4299C19.9506 24.8347 21.3992 24.7805 22.718 24.2759C23.4322 24.0117 24.0623 23.5605 24.5424 22.9694C24.4584 22.7781 24.3791 22.5961 24.3091 22.4282H24.2158L23.8985 22.5588C23.1762 22.8827 22.3785 23.0006 21.5934 22.8994C20.4549 22.7501 19.8763 22.2368 19.629 21.0983C19.5227 20.5636 19.4695 20.0197 19.4704 19.4745C19.4704 16.8802 19.4704 14.2905 19.4704 11.6962C19.4704 11.5842 19.4704 11.4722 19.4704 11.3089H24.0945C24.2391 11.3089 24.3884 11.3089 24.5377 11.2856V9.46579H22.0181C21.5841 9.46579 21.1548 9.46579 20.7209 9.46579C20.2869 9.46579 19.8903 9.46579 19.447 9.46579V6.12022H18.7985C18.2793 7.10363 17.6534 8.02687 16.932 8.8732C16.1694 9.70007 15.2255 10.3389 14.1744 10.7396V11.3182H16.1341L16.1155 11.8082Z" fill="#E5E5E5"/>
<path d="M94.2862 24.4252V23.6367C94.1107 23.6509 93.9344 23.6509 93.7589 23.6367C93.3563 23.5881 92.9573 23.5133 92.5644 23.4127C92.3421 23.3627 92.1415 23.2429 91.9921 23.0708C91.8427 22.8987 91.7522 22.6833 91.7339 22.4561C91.6587 21.9162 91.6135 21.3726 91.5986 20.8277C91.5986 18.028 91.5986 15.1864 91.5986 12.3681C91.5906 12.2708 91.6133 12.1735 91.6635 12.0898C91.7137 12.006 91.7889 11.9402 91.8785 11.9015C92.8911 11.3742 94.7435 11.4349 95.6487 12.7367C95.6954 12.8135 95.7621 12.8761 95.8417 12.9179C95.9213 12.9596 96.0107 12.9789 96.1004 12.9736C96.1901 12.9683 96.2767 12.9387 96.3509 12.8879C96.425 12.8371 96.4839 12.7671 96.5213 12.6854L97.0719 11.6822L97.5385 10.847C97.7624 10.4223 97.7204 10.1517 97.3238 9.91374C96.9975 9.69743 96.6426 9.52781 96.2693 9.4098C95.5232 9.20819 94.7398 9.18769 93.9842 9.35002C93.2286 9.51234 92.5226 9.85278 91.9252 10.343L91.5472 10.6276C91.5472 10.2357 91.5472 9.9324 91.5472 9.63377C91.5472 9.25582 91.4352 9.16717 91.0806 9.29315C89.6504 9.75091 88.1589 9.98849 86.6572 9.99773C86.5219 9.99773 86.3866 9.99773 86.2372 9.99773V10.8516C86.4192 10.8516 86.5825 10.8843 86.7412 10.9076C86.9315 10.9263 87.1203 10.959 87.3058 11.0056C87.5453 11.0522 87.7623 11.1777 87.9221 11.3621C88.082 11.5465 88.1755 11.7791 88.1877 12.0228C88.2272 12.2981 88.2506 12.5754 88.2577 12.8534C88.2577 15.5846 88.2577 18.3158 88.2577 21.047C88.2451 21.4775 88.1999 21.9065 88.1223 22.3302C88.0752 22.66 87.9224 22.9656 87.6868 23.2012C87.4512 23.4367 87.1456 23.5895 86.8158 23.6367C86.6059 23.6833 86.3912 23.7113 86.1626 23.7487V24.4019C87.5297 24.3739 88.8736 24.3132 90.2174 24.3179C91.5612 24.3226 92.9237 24.3879 94.2862 24.4252Z" fill="#E5E5E5"/>
<path d="M21.2341 33.1275C22.2514 33.3421 22.466 33.5521 22.4707 34.49C22.4707 36.9536 22.4707 39.4173 22.4707 41.881C22.4417 42.3658 22.354 42.8452 22.2094 43.3088C22.1079 43.7329 21.8855 44.1183 21.569 44.4181C21.2526 44.718 20.8558 44.9195 20.4269 44.998C19.5949 45.1908 18.7299 45.1908 17.8979 44.998C17.455 44.9233 17.0444 44.7183 16.7185 44.4091C16.3927 44.0999 16.1665 43.7006 16.0688 43.2622C15.9555 42.859 15.8898 42.4441 15.8728 42.0257C15.8728 39.534 15.8728 37.0423 15.8728 34.5599C15.8764 34.3695 15.9014 34.1801 15.9475 33.9953C15.9826 33.8064 16.0733 33.6322 16.2079 33.495C16.3426 33.3579 16.5151 33.264 16.7034 33.2255C16.848 33.1881 16.9974 33.1648 17.17 33.1368V32.6702C15.5899 32.7751 14.0047 32.7751 12.4246 32.6702V33.1368C12.5832 33.1741 12.7232 33.1975 12.8539 33.2348C13.0765 33.2649 13.2796 33.3776 13.4231 33.5504C13.5665 33.7232 13.6398 33.9437 13.6284 34.168C13.6611 34.5086 13.6844 34.8492 13.6891 35.1945C13.6891 37.2009 13.6891 39.2074 13.6891 41.2138C13.6891 41.6804 13.7218 42.1796 13.7684 42.6603C13.8093 43.4824 14.1242 44.2671 14.6628 44.8895C15.2015 45.5119 15.933 45.9361 16.7407 46.0945C18.0288 46.4168 19.3724 46.4487 20.6742 46.1878C22.7226 45.8005 23.7678 44.732 24.0851 42.6743C24.1926 41.842 24.2394 41.003 24.2251 40.1639C24.2251 38.6054 24.2251 37.0423 24.2251 35.4978C24.2313 35.0296 24.2656 34.5621 24.3278 34.098C24.355 33.8871 24.4505 33.6909 24.5996 33.5393C24.7487 33.3876 24.9432 33.2889 25.1537 33.2581L25.5503 33.1881V32.7215H21.2341V33.1275Z" fill="#E5E5E5"/>
<path d="M35.4144 44.8533C35.3785 44.5762 35.3567 44.2974 35.349 44.0181C35.349 43.0429 35.349 42.063 35.349 41.0831C35.349 40.4112 35.349 39.7393 35.279 39.0674C35.2612 38.4572 35.0369 37.8711 34.6428 37.4049C34.2486 36.9388 33.708 36.6201 33.1093 36.501C32.5274 36.3583 31.9228 36.3326 31.3309 36.4255C30.7389 36.5184 30.1713 36.7281 29.6611 37.0423L29.2505 37.2849C29.2505 37.0656 29.2505 36.9163 29.2505 36.767C29.2505 36.459 29.1571 36.389 28.8865 36.5197C28.3735 36.7438 27.8258 36.8779 27.2674 36.9163C26.8008 36.9583 26.3622 36.9863 25.8676 37.019V37.4856H26.0075C26.8894 37.5509 27.1134 37.7469 27.1181 38.6334C27.1181 40.4999 27.1181 42.3663 27.1181 44.27C27.1086 44.4597 27.0852 44.6484 27.0481 44.8346C27.024 45.0253 26.943 45.2044 26.8156 45.3484C26.6883 45.4923 26.5205 45.5946 26.3342 45.6419C26.1662 45.6979 25.9935 45.7305 25.8209 45.7725C25.8164 45.8393 25.8164 45.9064 25.8209 45.9732C25.8288 46.0347 25.8413 46.0955 25.8582 46.1551C27.4119 46.0529 28.9706 46.0529 30.5243 46.1551V45.7679L30.1417 45.7025C29.9372 45.6778 29.7474 45.5837 29.6039 45.4359C29.4604 45.2882 29.3719 45.0957 29.3531 44.8906C29.3243 44.7272 29.3071 44.5619 29.3018 44.396C29.3018 42.3896 29.3018 40.3832 29.2551 38.3768C29.2487 38.2897 29.2726 38.2031 29.3228 38.1316C29.373 38.0602 29.4463 38.0083 29.5304 37.9848C30.22 37.7081 30.9739 37.632 31.7048 37.7655C32.0098 37.8095 32.295 37.9429 32.5242 38.1488C32.7534 38.3548 32.9165 38.6241 32.9927 38.9227C33.0757 39.1764 33.1244 39.44 33.1373 39.7066C33.17 40.9478 33.1933 42.1936 33.1886 43.4395C33.1731 43.9346 33.1295 44.4285 33.058 44.9186C33.0392 45.0915 32.9679 45.2544 32.8536 45.3855C32.7392 45.5165 32.5875 45.6092 32.4187 45.6512C32.2414 45.7072 32.0548 45.7492 31.8681 45.8052C31.8638 45.8704 31.8638 45.9359 31.8681 46.0012C31.877 46.064 31.8894 46.1264 31.9055 46.1878C33.4731 46.0852 35.0459 46.0852 36.6135 46.1878V45.7959L36.2076 45.7025C35.9956 45.6793 35.7991 45.5808 35.6535 45.425C35.508 45.2692 35.4231 45.0663 35.4144 44.8533Z" fill="#E5E5E5"/>
<path d="M98.4437 37.089C98.6138 37.1256 98.782 37.1707 98.9476 37.2243C99.0275 37.2478 99.102 37.2869 99.1667 37.3394C99.2314 37.3918 99.285 37.4566 99.3245 37.5299C99.364 37.6033 99.3885 37.6837 99.3967 37.7666C99.4049 37.8495 99.3966 37.9332 99.3722 38.0128C99.3367 38.171 99.2915 38.3268 99.2369 38.4795L97.5711 43.4255C97.5385 43.5281 97.4918 43.6261 97.4358 43.7614C97.3996 43.7109 97.3668 43.6579 97.3378 43.6028C96.7157 41.9479 96.1029 40.2914 95.4994 38.6334C95.4231 38.4327 95.3607 38.2269 95.3128 38.0175C95.2813 37.9322 95.2688 37.8411 95.2759 37.7505C95.283 37.6599 95.3096 37.5719 95.3539 37.4926C95.3983 37.4132 95.4592 37.3444 95.5327 37.2908C95.6061 37.2373 95.6903 37.2002 95.7794 37.1823C95.9333 37.1216 96.092 37.089 96.246 37.0423V36.5757L94.1042 36.6597C93.3857 36.6877 92.6671 36.5617 91.9438 36.599V37.0983C92.1742 37.0942 92.3995 37.166 92.585 37.3026C92.7705 37.4392 92.9059 37.633 92.9704 37.8542C93.2597 38.6101 93.5723 39.3613 93.8663 40.1172L96.26 46.2205C96.3025 46.2895 96.3299 46.3668 96.3403 46.4473C96.3508 46.5277 96.3441 46.6094 96.3206 46.6871C95.9847 47.4663 95.672 48.2595 95.3128 49.0201C95.1725 49.2908 94.995 49.5405 94.7855 49.762C94.1369 50.4993 92.6998 50.3313 92.2798 49.566C92.1398 49.3141 92.0138 49.3234 91.8132 49.566C91.6126 49.8087 91.4072 50.0327 91.2066 50.3033C91.006 50.5739 90.9733 50.7699 91.2953 50.9845C91.7498 51.2953 92.2807 51.476 92.8304 51.5071C94.3235 51.6564 95.6674 51.1945 96.4139 49.86C96.6115 49.5061 96.7861 49.1398 96.9365 48.7635C97.2538 47.9609 97.5525 47.149 97.8698 46.3418C98.8683 43.6635 99.8684 40.9867 100.87 38.3115C101.094 37.7189 101.374 37.159 102.107 37.089V36.6224H98.453L98.4437 37.089Z" fill="#E5E5E5"/>
<path d="M57.9842 40.9385H59.51C59.9766 40.9385 60.4898 40.9385 61.0311 40.9385C61.0158 40.3752 60.9722 39.813 60.9005 39.254C60.8299 38.6234 60.5688 38.0292 60.152 37.5507C59.7352 37.0722 59.1824 36.7321 58.5674 36.5757C58.2866 36.5008 57.999 36.4539 57.7089 36.4357C55.8004 36.3097 54.2746 37.0796 53.4767 38.8434C52.8542 40.1932 52.6998 41.7121 53.0381 43.1595C53.158 43.854 53.4744 44.4996 53.9499 45.0198C54.4254 45.54 55.0401 45.9129 55.7211 46.0945C56.4579 46.3031 57.229 46.3618 57.9888 46.2671C58.7771 46.1934 59.5305 45.9062 60.1679 45.4366C60.3941 45.252 60.6106 45.0558 60.8165 44.8486L60.5412 44.382C60.4805 44.382 60.4432 44.382 60.4105 44.4194C59.6473 44.8068 58.7894 44.9686 57.9375 44.886C57.4385 44.8912 56.9476 44.7596 56.5182 44.5054C56.0887 44.2512 55.7372 43.8842 55.5018 43.4442C55.1218 42.657 54.9408 41.7886 54.9745 40.9151H57.9888L57.9842 40.9385ZM55.7211 37.8589C55.9505 37.6728 56.2208 37.5439 56.5097 37.4827C56.7986 37.4215 57.098 37.4297 57.3831 37.5066C57.6683 37.5836 57.9311 37.7272 58.1499 37.9255C58.3688 38.1238 58.5375 38.3712 58.6421 38.6474C58.7738 39.0439 58.8183 39.464 58.7727 39.8793H54.9979C54.9743 39.511 55.0263 39.1418 55.1507 38.7943C55.275 38.4469 55.4692 38.1285 55.7211 37.8589Z" fill="#E5E5E5"/>
<path d="M49.1466 37.0796C49.2959 37.1076 49.4079 37.1263 49.5152 37.1543C49.6194 37.1661 49.7194 37.2022 49.8071 37.2596C49.8948 37.317 49.9679 37.3941 50.0205 37.4848C50.0731 37.5755 50.1038 37.6772 50.11 37.7819C50.1163 37.8865 50.0979 37.9912 50.0565 38.0875C50.0126 38.2459 49.9596 38.4017 49.8978 38.5541L48.1201 42.9682C48.0874 43.0429 48.0408 43.1175 47.9941 43.2062C47.963 43.1707 47.9363 43.1315 47.9148 43.0895C47.3331 41.5342 46.7482 39.9788 46.1603 38.4235C46.0976 38.2581 46.0553 38.0858 46.0343 37.9102C46.0122 37.8301 46.007 37.7463 46.0188 37.6641C46.0307 37.5819 46.0594 37.503 46.1032 37.4325C46.1471 37.3619 46.205 37.3012 46.2735 37.2541C46.3419 37.207 46.4194 37.1746 46.5009 37.159C46.6409 37.1123 46.7856 37.0796 46.9349 37.0423V36.6177H42.6654V37.0843C42.8945 37.079 43.1187 37.1512 43.3017 37.2893C43.4846 37.4273 43.6155 37.6231 43.6733 37.8449C43.7573 38.0595 43.8553 38.2648 43.9393 38.4795L46.9069 45.9452C46.9629 46.0805 47.0282 46.2158 47.0889 46.3558L48.0221 46.1831C48.442 45.2499 48.8573 44.3167 49.2679 43.3835C50.0518 41.6337 50.8357 39.8886 51.601 38.1342C51.8389 37.5976 52.1516 37.1543 52.8048 37.1216V36.655H49.1559L49.1466 37.0796Z" fill="#E5E5E5"/>
<path d="M75.8692 41.4704C75.584 41.237 75.2831 41.0234 74.9687 40.8312C74.4181 40.4859 73.8535 40.1686 73.3029 39.8279C73.0958 39.6968 72.9061 39.5401 72.7383 39.3613C72.6105 39.2155 72.5216 39.0398 72.4798 38.8505C72.438 38.6612 72.4445 38.4644 72.499 38.2783C72.5534 38.0922 72.6539 37.9229 72.7912 37.7859C72.9284 37.649 73.098 37.5489 73.2842 37.4949C73.6182 37.4226 73.9615 37.4037 74.3014 37.4389C75.2346 37.5462 75.7012 37.9755 75.8179 38.8387C75.8179 38.8854 75.8179 38.9367 75.8459 38.9927H76.4012V36.627C76.0372 36.5757 75.6966 36.515 75.3559 36.487C74.4742 36.3641 73.5789 36.3767 72.701 36.5244C72.2619 36.5851 71.8492 36.7696 71.5113 37.0564C71.1733 37.3431 70.924 37.7202 70.7925 38.1435C70.6175 38.6047 70.5781 39.1063 70.679 39.5892C70.7799 40.072 71.0168 40.5159 71.3618 40.8685C71.6177 41.1155 71.8993 41.3345 72.2017 41.5217C72.7103 41.8577 73.2376 42.161 73.7508 42.4923C73.9883 42.6397 74.2131 42.8067 74.4227 42.9915C74.6008 43.1573 74.7263 43.3717 74.7835 43.6081C74.8408 43.8445 74.8273 44.0926 74.7447 44.3214C74.6873 44.5354 74.5683 44.7279 74.4023 44.8747C74.2364 45.0216 74.0309 45.1164 73.8115 45.1473C73.3497 45.2423 72.8734 45.2423 72.4117 45.1473C72.037 45.0963 71.6907 44.9201 71.4289 44.6473C71.1672 44.3745 71.0054 44.0212 70.9698 43.6448C70.9698 43.5375 70.9325 43.4255 70.9138 43.3228H70.3539C70.3912 44.1534 70.4286 44.9606 70.4706 45.8145C71.053 46.0424 71.6665 46.1809 72.2903 46.2251C73.2538 46.3422 74.2313 46.2204 75.1366 45.8705C77.0124 45.1006 77.1664 42.5389 75.8692 41.4704Z" fill="#E5E5E5"/>
<path d="M90.7587 36.5944H87.4924V34.504C87.4444 34.4761 87.3908 34.4591 87.3355 34.4543C87.2802 34.4495 87.2245 34.457 87.1723 34.4761C87.1202 34.4953 87.073 34.5257 87.0339 34.5652C86.9949 34.6046 86.965 34.6523 86.9465 34.7046C86.8425 34.9099 86.7272 35.1093 86.6012 35.3019C86.0773 36.2147 85.2719 36.9334 84.3055 37.3503C84.1002 37.4389 84.0908 37.5649 84.1655 37.8169H85.374C85.374 38.0082 85.374 38.1482 85.374 38.2835C85.374 39.8839 85.3507 41.4844 85.3507 43.0849C85.3522 43.4779 85.3771 43.8706 85.4253 44.2607C85.4614 44.722 85.6431 45.16 85.9441 45.5114C86.2452 45.8628 86.6501 46.1094 87.1005 46.2158C87.7827 46.3814 88.4946 46.3814 89.1769 46.2158C89.7925 46.0812 90.343 45.7384 90.7353 45.2453C90.6887 45.1286 90.642 45.026 90.586 44.9C90.038 45.1793 89.4179 45.2851 88.8082 45.2033C88.5191 45.1835 88.2453 45.066 88.0316 44.8702C87.818 44.6744 87.6772 44.4117 87.6324 44.1254C87.5581 43.6768 87.5253 43.2222 87.5344 42.7676C87.5344 41.2324 87.5344 39.6926 87.5344 38.1575C87.5344 38.0455 87.5344 37.9335 87.5624 37.7795H89.1769C89.7041 37.7795 90.2314 37.7795 90.7867 37.7795C90.7867 37.5462 90.7867 37.3736 90.7867 37.1963C90.7867 37.019 90.7633 36.8137 90.7587 36.5944Z" fill="#E5E5E5"/>
<path d="M69.1501 36.9023C68.8803 36.739 68.5878 36.6163 68.2822 36.5384C67.8451 36.4445 67.3928 36.4481 66.9573 36.5489C66.5218 36.6497 66.1138 36.8453 65.7625 37.1216C65.6878 37.1776 65.6039 37.2289 65.4592 37.3223C65.4592 37.075 65.4592 36.8883 65.4592 36.7017C65.4592 36.515 65.3799 36.431 65.1699 36.501C64.2361 36.8075 63.2598 36.965 62.2769 36.9676C62.2186 36.974 62.1609 36.9849 62.1043 37.0003V37.4949C62.3236 37.5322 62.5243 37.5602 62.7202 37.6022C62.8802 37.6217 63.0282 37.697 63.1383 37.8147C63.2484 37.9324 63.3135 38.0852 63.3221 38.2461C63.3526 38.4471 63.3713 38.6496 63.3781 38.8527C63.3781 40.5419 63.3781 42.231 63.3781 43.9201C63.3702 44.2123 63.3437 44.5038 63.2988 44.7926C63.2748 45.0163 63.1776 45.2258 63.0224 45.3887C62.8672 45.5515 62.6625 45.6585 62.4403 45.6932C62.3189 45.7212 62.1976 45.7399 62.0576 45.7632V46.2018C63.7762 46.0946 65.4998 46.0946 67.2183 46.2018V45.7352C66.9197 45.6979 66.6397 45.6745 66.3691 45.6232C66.155 45.6123 65.9535 45.5186 65.8072 45.3619C65.6609 45.2052 65.5813 44.9977 65.5852 44.7833C65.5385 44.354 65.5152 43.9248 65.5105 43.4908C65.5105 41.9277 65.5105 40.3692 65.5105 38.8247C65.5105 38.2461 65.5525 38.1948 66.1171 38.0595C66.2025 38.0361 66.2901 38.022 66.3784 38.0175C66.7013 37.9699 67.0311 38.0108 67.3326 38.1357C67.6341 38.2605 67.8962 38.4648 68.0909 38.7267C68.1208 38.771 68.1611 38.8073 68.2083 38.8323C68.2555 38.8574 68.3081 38.8705 68.3615 38.8705C68.4149 38.8705 68.4675 38.8574 68.5147 38.8323C68.5619 38.8073 68.6022 38.771 68.6321 38.7267C68.8748 38.3115 69.0987 37.8869 69.3181 37.4529C69.3555 37.4094 69.3814 37.357 69.3932 37.3008C69.405 37.2446 69.4024 37.1863 69.3856 37.1314C69.3689 37.0764 69.3385 37.0266 69.2973 36.9866C69.2561 36.9465 69.2055 36.9175 69.1501 36.9023Z" fill="#E5E5E5"/>
<path d="M40.9856 44.8766C40.9856 44.69 40.925 44.4987 40.925 44.312C40.925 41.8235 40.9437 39.3225 40.981 36.809C40.981 36.613 40.981 36.4637 40.7523 36.3937C39.7212 36.7506 38.6379 36.9335 37.5467 36.935C37.5408 37.0189 37.5408 37.1031 37.5467 37.1869C37.5524 37.2592 37.5633 37.3309 37.5794 37.4016C37.808 37.4436 38.0227 37.4716 38.228 37.5229C38.3612 37.5451 38.4836 37.6098 38.577 37.7074C38.6704 37.8049 38.7296 37.9301 38.7459 38.0642C38.787 38.3143 38.8119 38.5668 38.8206 38.8201C38.8206 40.5325 38.8206 42.2496 38.8206 43.9528C38.8166 44.2311 38.7916 44.5087 38.7459 44.7833C38.7286 45.0088 38.6327 45.221 38.4749 45.383C38.3172 45.545 38.1076 45.6465 37.8827 45.6699L37.4161 45.7632V46.1178H42.2735V45.7679C42.0402 45.7119 41.8069 45.6652 41.6062 45.5999C41.4391 45.5615 41.2887 45.4705 41.177 45.3403C41.0653 45.2102 40.9982 45.0477 40.9856 44.8766Z" fill="#E5E5E5"/>
<path d="M81.8931 44.8533C81.8931 44.522 81.8231 44.1954 81.8278 43.8641C81.8278 41.5031 81.8496 39.1405 81.8931 36.7763C81.9066 36.6964 81.8916 36.6143 81.8507 36.5443C81.8097 36.4744 81.7455 36.4211 81.6692 36.3937C80.6342 36.754 79.5454 36.9355 78.4496 36.9303V37.3969C78.6922 37.4389 78.9162 37.4622 79.1168 37.5136C79.2497 37.5365 79.3717 37.6014 79.465 37.6988C79.5582 37.7963 79.6177 37.9211 79.6347 38.0548C79.6781 38.3046 79.703 38.5573 79.7094 38.8107C79.7094 40.5279 79.7094 42.245 79.7094 43.9434C79.7017 44.2233 79.6752 44.5023 79.6301 44.7786C79.6126 45.0036 79.5165 45.2152 79.3587 45.3764C79.2009 45.5376 78.9914 45.6382 78.7669 45.6605L78.3002 45.7539C78.3002 45.8985 78.3002 46.0198 78.3236 46.1085H83.1716V45.7539C82.957 45.7025 82.7563 45.6605 82.5604 45.6092C82.3813 45.5746 82.2187 45.4816 82.098 45.3449C81.9773 45.2082 81.9053 45.0353 81.8931 44.8533Z" fill="#E5E5E5"/>
<path d="M38.5406 33.4961C38.5342 33.6587 38.5623 33.8208 38.623 33.9718C38.6838 34.1227 38.7758 34.2591 38.893 34.372C39.0103 34.4848 39.1501 34.5716 39.3033 34.6265C39.4565 34.6814 39.6196 34.7032 39.7818 34.6906C39.9475 34.7036 40.1141 34.6819 40.271 34.6268C40.4278 34.5717 40.5714 34.4845 40.6926 34.3708C40.8139 34.257 40.91 34.1192 40.9749 33.9662C41.0398 33.8132 41.0721 33.6483 41.0696 33.4821C41.0739 33.3195 41.0442 33.1577 40.9824 33.0072C40.9207 32.8567 40.8283 32.7207 40.711 32.6079C40.5938 32.4951 40.4544 32.4079 40.3016 32.3519C40.1489 32.296 39.9861 32.2725 39.8238 32.2829C39.6582 32.2713 39.492 32.2941 39.3357 32.35C39.1794 32.406 39.0364 32.4937 38.9158 32.6077C38.7952 32.7218 38.6996 32.8596 38.635 33.0125C38.5704 33.1655 38.5383 33.3301 38.5406 33.4961Z" fill="#E5E5E5"/>
<path d="M81.9585 33.4774C81.9621 33.3148 81.9317 33.1531 81.8694 33.0028C81.8071 32.8525 81.7142 32.7169 81.5965 32.6045C81.4789 32.4921 81.3391 32.4055 81.1861 32.3501C81.0331 32.2947 80.8703 32.2718 80.7079 32.2829C80.5423 32.2726 80.3763 32.2966 80.2203 32.3533C80.0643 32.41 79.9217 32.4983 79.8013 32.6125C79.6809 32.7268 79.5853 32.8646 79.5206 33.0174C79.4558 33.1703 79.4232 33.3348 79.4248 33.5007C79.4196 33.6636 79.449 33.8257 79.5108 33.9765C79.5727 34.1272 79.6657 34.2632 79.7837 34.3756C79.9018 34.4879 80.0422 34.574 80.1958 34.6283C80.3495 34.6826 80.5129 34.7038 80.6753 34.6906C80.841 34.703 81.0075 34.6806 81.1641 34.6249C81.3207 34.5693 81.464 34.4816 81.5848 34.3674C81.7056 34.2532 81.8012 34.1151 81.8655 33.9618C81.9298 33.8086 81.9615 33.6436 81.9585 33.4774Z" fill="#E5E5E5"/>
</svg>
