<svg width="152" height="47" viewBox="0 0 152 47" fill="none" xmlns="http://www.w3.org/2000/svg">
<path d="M115.635 46.6986C113.854 46.6476 112.119 46.5865 110.384 46.5515C108.649 46.5165 106.929 46.475 105.203 46.4993C103.477 46.5236 101.735 46.6245 99.9724 46.6933V45.6017L104.142 45.289C104.083 44.6454 104.034 44.0373 103.96 43.4327C103.343 38.3717 102.361 33.3723 101.394 28.3705C100.665 24.591 99.9298 20.8124 99.1881 17.0345C99.1377 16.7753 99.0755 16.519 98.9997 16.1743C98.867 16.4816 98.7687 16.7041 98.6739 16.9283C94.768 26.1729 90.8627 35.418 86.9581 44.6637C86.7051 45.2635 86.4545 45.8651 86.2194 46.4726C86.1512 46.647 86.0671 46.7176 85.8769 46.7099C85.2946 46.6933 84.7117 46.685 84.13 46.6939C83.9054 46.6974 83.8065 46.609 83.7218 46.4079C81.5185 41.1358 79.3108 35.8653 77.0988 30.5964C75.1242 25.8816 73.1479 21.167 71.1701 16.4525C71.1263 16.3475 71.0771 16.2437 71.006 16.0859C69.0055 25.8153 67.1027 35.4938 65.6289 45.3151L69.6026 45.6041C69.6026 45.8776 69.6133 46.1819 69.5932 46.4833C69.5896 46.5378 69.4646 46.6239 69.3923 46.6274C69.0576 46.6429 68.7217 46.6423 68.3853 46.634C66.5797 46.5871 64.7717 46.5064 62.969 46.4987C61.7463 46.4934 60.523 46.593 59.3003 46.6369C58.8886 46.6518 58.4763 46.6369 58.0326 46.6369C58.0326 46.2881 58.0201 45.9932 58.0426 45.7008C58.0474 45.6414 58.1836 45.5572 58.2654 45.5495C59.0118 45.4807 59.76 45.4308 60.5076 45.3662C60.9223 45.3318 61.3316 45.2766 61.7445 45.2475C61.9276 45.2333 61.9607 45.1289 61.9892 44.9782C62.5389 42.0712 63.0981 39.1601 63.6479 36.2496C64.5548 31.4282 65.4677 26.6079 66.3522 21.7824C67.1685 17.3252 67.9818 12.8675 68.7336 8.39905C69.1056 6.18976 69.3372 3.95733 69.6323 1.73498C69.6725 1.43301 69.7128 1.13105 69.7608 0.776277C70.4397 0.776277 71.1079 0.782803 71.775 0.776277C72.4076 0.767972 72.4065 0.761446 72.6197 1.36954C73.7897 4.70246 74.907 8.05556 76.1486 11.3612C77.1367 13.9929 78.27 16.57 79.3523 19.1661C81.7523 24.9215 84.1568 30.6755 86.5659 36.4281C86.6133 36.5426 86.6684 36.6536 86.7478 36.828C86.8248 36.6678 86.8757 36.567 86.9219 36.4643C91.9537 25.2796 96.4956 13.9009 100.429 2.28197C100.571 1.86135 100.725 1.44429 100.861 1.02189C100.914 0.855774 100.994 0.784583 101.176 0.789329C101.876 0.799612 102.577 0.799612 103.279 0.789329C103.473 0.789329 103.532 0.870012 103.556 1.04443C103.889 3.45069 104.199 5.86109 104.572 8.26082C104.983 10.9044 105.427 13.5426 105.903 16.1755C106.562 19.8383 107.243 23.4967 107.945 27.1508C108.789 31.5521 109.663 35.9476 110.522 40.3454C110.826 41.8956 111.137 43.4434 111.434 44.9948C111.47 45.1834 111.534 45.26 111.73 45.2742C112.92 45.3614 114.11 45.4706 115.301 45.5459C115.574 45.5637 115.663 45.6438 115.639 45.9096C115.618 46.1439 115.635 46.3812 115.635 46.6986Z" fill="#E5E5E5"/>
<path d="M116.854 46.6748V45.6266C117.406 45.5999 117.946 45.5874 118.484 45.5447C119.299 45.48 120.113 45.3893 120.928 45.3222C121.117 45.3068 121.176 45.2398 121.179 45.0511C121.194 44.1321 121.242 43.212 121.244 42.2942C121.254 29.9458 121.261 17.5971 121.265 5.24825C121.265 4.36845 121.238 3.48865 121.244 2.60885C121.244 2.37155 121.157 2.30748 120.941 2.28849C119.654 2.17459 118.369 2.05119 117.083 1.92898C117.035 1.92423 116.987 1.91355 116.916 1.90228V0.837976C117.321 0.837976 117.733 0.816026 118.141 0.837976C123.43 1.15952 128.721 0.932304 134.011 0.918066C138.197 0.906794 142.382 0.868825 146.57 0.842129L150.331 0.817805H150.671V9.79023H150.096C150.03 8.91992 149.969 8.06445 149.901 7.21016C149.831 6.33332 149.737 5.45827 149.689 4.58084C149.67 4.25277 149.525 4.20056 149.247 4.19641C146.573 4.15488 143.899 4.07776 141.225 4.06352C137.177 4.04275 133.129 4.06352 129.08 4.06826H127.848V22.1555C127.951 22.1608 128.047 22.1692 128.144 22.1692C132.152 22.1869 136.16 22.2285 140.169 22.2089C142.113 22.1988 144.056 22.0677 145.999 22.0007C146.203 21.9941 146.274 21.9052 146.303 21.7254C146.474 20.6635 146.65 19.6021 146.823 18.5408C146.843 18.415 146.858 18.2881 146.877 18.1469H147.539V29.2337C147.338 29.2337 147.14 29.2521 146.947 29.2236C146.877 29.2135 146.782 29.0966 146.769 29.0183C146.601 27.8448 146.445 26.6702 146.285 25.4961C146.269 25.381 146.241 25.2677 146.214 25.1242C145.262 25.104 144.325 25.0648 143.389 25.0648C139.431 25.0672 135.472 25.0771 131.514 25.0945C130.399 25.1004 129.284 25.1651 128.169 25.1805C127.889 25.1847 127.804 25.2594 127.806 25.546C127.816 29.4116 127.811 33.2773 127.819 37.143C127.823 39.1897 127.843 41.2365 127.858 43.2826C127.858 43.6919 127.865 43.6979 128.256 43.6979C134.228 43.7374 140.2 43.774 146.173 43.8076C147.435 43.813 148.698 43.7483 150.015 43.7097C150.196 41.6571 150.376 39.6163 150.559 37.5511H151.175L151.029 46.7609C150.448 46.7609 149.898 46.765 149.349 46.7609C145.024 46.7241 140.7 46.6944 136.375 46.6452C132.821 46.6048 129.266 46.5034 125.716 46.5004C123.109 46.5004 120.503 46.6131 117.9 46.6731C117.56 46.682 117.217 46.6748 116.854 46.6748Z" fill="#E5E5E5"/>
<path d="M23.2612 45.3275L27.6698 45.5963V46.6363C25.9673 46.5686 24.2849 46.4749 22.6013 46.4429C20.9046 46.4102 19.2062 46.4162 17.5067 46.4476C15.8225 46.479 14.1389 46.5627 12.4298 46.6256V45.5055L16.5896 45.2605V3.94484H1.24657V9.38858H0.557617V9.06881C0.566306 6.40943 0.574204 3.74986 0.581313 1.09009C0.581313 0.894906 0.597307 0.786932 0.847298 0.789899C5.79262 0.849224 10.7403 0.926348 15.6845 0.942366C21.4799 0.961351 27.2747 0.931094 33.0701 0.907957C34.9456 0.900838 36.8211 0.848631 38.6979 0.818969C38.8436 0.818969 38.9887 0.818969 39.1522 0.818969V9.78309H38.532C38.4396 7.84314 38.3483 5.92217 38.2553 3.96917H23.2488C23.263 17.7333 23.2103 31.5017 23.2612 45.3275Z" fill="#E5E5E5"/>
<path d="M45.3594 2.20662L41.2038 1.85482V0.794075C43.7268 0.85874 46.2486 0.972052 48.7705 0.972052C51.2923 0.972052 53.7975 0.853401 56.33 0.788736V1.88982L51.9374 2.28137C51.9303 2.40477 51.9191 2.508 51.9191 2.61182C51.9096 16.6313 51.9003 30.6504 51.8912 44.669C51.8912 45.2623 51.8912 45.2623 52.4972 45.3056C53.7661 45.3952 55.0351 45.4836 56.3265 45.5714V46.6315C55.8484 46.6315 55.3787 46.6481 54.9077 46.6315C53.1625 46.5586 51.4179 46.4156 49.6727 46.4079C47.7989 46.4002 45.9252 46.5265 44.0508 46.574C43.1065 46.5977 42.1611 46.5781 41.1895 46.5781V45.5512L45.3594 45.2273V2.20662Z" fill="#E5E5E5"/>
</svg>
